M48
;GenerationSoftware,Autodesk,EAGLE,9.6.2*%
;CreationDate,2022-07-20T17:32:37Z*%
FMAT,2
ICI,OFF
METRIC,TZ,000.000
T7C0.350
T6C0.813
T5C1.000
T4C1.016
T3C1.040
T2C1.200
T1C2.250
%
G90
M71
T1
X7874Y8382
X2286Y52578
X21336Y52324
X71882Y52324
X89000Y14000
X88900Y52070
T2
X54824Y13286
X54824Y10786
X54824Y5786
X59824Y8286
X54824Y3286
X54824Y29288
X54824Y26788
X54824Y21788
X59824Y24288
X54824Y19288
X55078Y44528
X55078Y42028
X55078Y37028
X60078Y39528
X55078Y34528
T3
X1524Y14426
X26924Y32206
X26924Y1726
X26924Y4266
X26924Y6806
X26924Y9346
X26924Y11886
X26924Y14426
X26924Y16966
X26924Y19506
X26924Y22046
X26924Y24586
X26924Y27126
X26924Y29666
X26924Y34746
X26924Y37286
X26924Y39826
X26924Y42366
X26924Y44906
X26924Y47446
X1524Y4266
X1524Y6806
X1524Y9346
X1524Y11886
X1524Y16966
X1524Y19506
X1524Y22046
X1524Y24586
X1524Y27126
X1524Y29666
X1524Y32206
X1524Y34746
X1524Y37286
X1524Y39826
X1524Y42366
X1524Y47446
X1524Y44906
X1524Y1726
T4
X84074Y15494
X81534Y15494
X78994Y15494
X76454Y15494
X17780Y3810
X15240Y3810
X12700Y3810
X10160Y3810
X7620Y3810
X39370Y2794
X41910Y2794
X19304Y48768
X74168Y48768
X76708Y48768
X79248Y48768
X81788Y48768
X84328Y48768
X86868Y48768
X6604Y48768
X9144Y48768
X11684Y48768
X14224Y48768
X20320Y3810
X16764Y48768
T5
X43124Y8870
X37124Y8870
X49124Y42470
X31124Y42470
T6
X8636Y30734
X11176Y30734
X44196Y46482
X41656Y46482
X4826Y18288
X7366Y18288
X22352Y26670
X14732Y26670
X14732Y29210
X22352Y29210
X14732Y31750
X22352Y31750
X22352Y12446
X5080Y42418
X7620Y42418
X14986Y43942
X22606Y43942
X22606Y41402
X14986Y41402
X22606Y38608
X14986Y38608
X14732Y12446
X14732Y14986
X22352Y14986
X14732Y17526
X22352Y17526
T7
X10954Y39846
X49212Y43815
X46831Y46196
X45148Y44767
X16447Y24924
X20003Y35401
X6509Y30797
X65723Y45879
X22384Y23336
X37148Y27305
X47784Y37941
X50260Y37941
X7302Y36195
X12954Y23876
X13044Y32602
X2762Y30099
X6191Y36195
X11747Y37783
X25241Y28892
X19209Y41910
X51213Y37783
X85090Y45561
X20161Y36671
X4763Y35401
X28670Y10636
X17145Y27464
X33179Y32067
X45117Y30670
M30