G04 EAGLE Gerber RS-274X export*
G75*
%MOMM*%
%FSLAX34Y34*%
%LPD*%
%INBottom Copper*%
%IPPOS*%
%AMOC8*
5,1,8,0,0,1.08239X$1,22.5*%
G01*
%ADD10C,1.600200*%
%ADD11P,1.732040X8X22.500000*%
%ADD12P,1.732040X8X202.500000*%
%ADD13P,1.814519X8X202.500000*%
%ADD14P,1.814519X8X22.500000*%
%ADD15C,1.524000*%
%ADD16R,1.560000X1.560000*%
%ADD17C,1.560000*%
%ADD18R,1.508000X1.508000*%
%ADD19C,1.508000*%
%ADD20C,1.800000*%
%ADD21C,0.406400*%
%ADD22C,0.609600*%
%ADD23C,0.756400*%
%ADD24C,2.540000*%

G36*
X261385Y10172D02*
X261385Y10172D01*
X261457Y10174D01*
X261506Y10192D01*
X261557Y10200D01*
X261620Y10234D01*
X261688Y10259D01*
X261728Y10291D01*
X261774Y10316D01*
X261824Y10367D01*
X261880Y10412D01*
X261908Y10456D01*
X261944Y10494D01*
X261974Y10559D01*
X262013Y10619D01*
X262025Y10670D01*
X262047Y10717D01*
X262055Y10788D01*
X262073Y10858D01*
X262069Y10910D01*
X262075Y10961D01*
X262059Y11032D01*
X262054Y11103D01*
X262033Y11151D01*
X262022Y11202D01*
X261985Y11263D01*
X261957Y11329D01*
X261913Y11385D01*
X261896Y11413D01*
X261878Y11428D01*
X261853Y11460D01*
X261335Y11978D01*
X259915Y15405D01*
X259915Y19115D01*
X261335Y22542D01*
X263958Y25165D01*
X267385Y26585D01*
X271095Y26585D01*
X274522Y25165D01*
X277145Y22542D01*
X278565Y19115D01*
X278565Y15405D01*
X277145Y11978D01*
X276627Y11460D01*
X276586Y11402D01*
X276536Y11350D01*
X276514Y11303D01*
X276484Y11261D01*
X276463Y11192D01*
X276433Y11127D01*
X276427Y11075D01*
X276412Y11025D01*
X276413Y10954D01*
X276405Y10883D01*
X276417Y10832D01*
X276418Y10780D01*
X276442Y10712D01*
X276458Y10642D01*
X276484Y10597D01*
X276502Y10549D01*
X276547Y10493D01*
X276584Y10431D01*
X276623Y10397D01*
X276656Y10357D01*
X276716Y10318D01*
X276771Y10271D01*
X276819Y10252D01*
X276863Y10224D01*
X276932Y10206D01*
X276999Y10179D01*
X277070Y10171D01*
X277101Y10163D01*
X277125Y10165D01*
X277166Y10161D01*
X312420Y10161D01*
X312440Y10164D01*
X312459Y10162D01*
X312561Y10184D01*
X312663Y10200D01*
X312680Y10210D01*
X312700Y10214D01*
X312789Y10267D01*
X312880Y10316D01*
X312894Y10330D01*
X312911Y10340D01*
X312978Y10419D01*
X313050Y10494D01*
X313058Y10512D01*
X313071Y10527D01*
X313110Y10623D01*
X313153Y10717D01*
X313155Y10737D01*
X313163Y10755D01*
X313181Y10922D01*
X313181Y111445D01*
X335595Y133859D01*
X469585Y133859D01*
X486919Y116525D01*
X486919Y10922D01*
X486922Y10902D01*
X486920Y10883D01*
X486942Y10781D01*
X486959Y10679D01*
X486968Y10662D01*
X486972Y10642D01*
X487025Y10553D01*
X487074Y10462D01*
X487088Y10448D01*
X487098Y10431D01*
X487177Y10364D01*
X487252Y10292D01*
X487270Y10284D01*
X487285Y10271D01*
X487381Y10232D01*
X487475Y10189D01*
X487495Y10187D01*
X487513Y10179D01*
X487680Y10161D01*
X653897Y10161D01*
X653913Y10163D01*
X653929Y10161D01*
X654034Y10183D01*
X654139Y10200D01*
X654154Y10208D01*
X654170Y10212D01*
X654263Y10266D01*
X654357Y10316D01*
X654368Y10327D01*
X654382Y10336D01*
X654453Y10416D01*
X654526Y10494D01*
X654533Y10509D01*
X654544Y10521D01*
X654585Y10620D01*
X654630Y10717D01*
X654632Y10733D01*
X654638Y10749D01*
X654658Y10915D01*
X655319Y83862D01*
X655319Y83864D01*
X655319Y83868D01*
X655319Y101081D01*
X656866Y104816D01*
X666919Y114869D01*
X669884Y117834D01*
X673619Y119381D01*
X880003Y119381D01*
X880099Y119396D01*
X880196Y119406D01*
X880220Y119416D01*
X880246Y119420D01*
X880332Y119466D01*
X880421Y119506D01*
X880440Y119523D01*
X880463Y119536D01*
X880531Y119606D01*
X880602Y119672D01*
X880615Y119695D01*
X880633Y119714D01*
X880674Y119802D01*
X880721Y119888D01*
X880725Y119913D01*
X880736Y119937D01*
X880747Y120034D01*
X880764Y120130D01*
X880761Y120156D01*
X880764Y120181D01*
X880743Y120277D01*
X880729Y120373D01*
X880717Y120396D01*
X880711Y120422D01*
X880661Y120505D01*
X880617Y120592D01*
X880598Y120611D01*
X880585Y120633D01*
X880511Y120696D01*
X880442Y120764D01*
X880413Y120780D01*
X880398Y120793D01*
X880368Y120805D01*
X880295Y120845D01*
X877872Y121849D01*
X871849Y127872D01*
X868589Y135741D01*
X868589Y144259D01*
X871849Y152128D01*
X877872Y158151D01*
X885741Y161411D01*
X894259Y161411D01*
X900647Y158765D01*
X900691Y158754D01*
X900733Y158735D01*
X900810Y158726D01*
X900886Y158709D01*
X900932Y158713D01*
X900977Y158708D01*
X901054Y158724D01*
X901131Y158732D01*
X901173Y158750D01*
X901218Y158760D01*
X901285Y158800D01*
X901356Y158832D01*
X901390Y158863D01*
X901429Y158886D01*
X901480Y158945D01*
X901537Y158998D01*
X901559Y159038D01*
X901589Y159073D01*
X901618Y159145D01*
X901655Y159214D01*
X901664Y159259D01*
X901681Y159301D01*
X901696Y159437D01*
X901699Y159456D01*
X901698Y159461D01*
X901699Y159468D01*
X901699Y187198D01*
X901696Y187218D01*
X901698Y187237D01*
X901676Y187339D01*
X901660Y187441D01*
X901650Y187458D01*
X901646Y187478D01*
X901593Y187567D01*
X901544Y187658D01*
X901530Y187672D01*
X901520Y187689D01*
X901441Y187756D01*
X901366Y187828D01*
X901348Y187836D01*
X901333Y187849D01*
X901237Y187888D01*
X901143Y187931D01*
X901123Y187933D01*
X901105Y187941D01*
X900938Y187959D01*
X678699Y187959D01*
X674964Y189506D01*
X659406Y205064D01*
X657859Y208799D01*
X657859Y426201D01*
X659406Y429936D01*
X672424Y442954D01*
X676159Y444501D01*
X888350Y444501D01*
X888386Y444507D01*
X888423Y444504D01*
X888507Y444526D01*
X888593Y444540D01*
X888625Y444558D01*
X888661Y444567D01*
X888734Y444615D01*
X888810Y444656D01*
X888836Y444682D01*
X888866Y444703D01*
X888976Y444829D01*
X900804Y461953D01*
X900814Y461973D01*
X900829Y461991D01*
X900867Y462084D01*
X900910Y462175D01*
X900912Y462198D01*
X900921Y462219D01*
X900939Y462385D01*
X900939Y501331D01*
X900932Y501377D01*
X900934Y501422D01*
X900912Y501497D01*
X900900Y501574D01*
X900878Y501615D01*
X900865Y501659D01*
X900821Y501723D01*
X900784Y501791D01*
X900751Y501823D01*
X900725Y501861D01*
X900662Y501907D01*
X900606Y501961D01*
X900564Y501980D01*
X900528Y502008D01*
X900454Y502032D01*
X900383Y502064D01*
X900337Y502069D01*
X900294Y502084D01*
X900216Y502083D01*
X900139Y502092D01*
X900094Y502082D01*
X900048Y502081D01*
X899916Y502043D01*
X899898Y502039D01*
X899894Y502037D01*
X899887Y502035D01*
X893259Y499289D01*
X884741Y499289D01*
X876872Y502549D01*
X870849Y508572D01*
X867589Y516441D01*
X867589Y524959D01*
X870849Y532828D01*
X872580Y534559D01*
X872622Y534617D01*
X872671Y534669D01*
X872693Y534717D01*
X872723Y534759D01*
X872744Y534827D01*
X872775Y534892D01*
X872780Y534944D01*
X872796Y534994D01*
X872794Y535066D01*
X872802Y535137D01*
X872791Y535188D01*
X872789Y535240D01*
X872765Y535307D01*
X872750Y535377D01*
X872723Y535422D01*
X872705Y535471D01*
X872660Y535527D01*
X872624Y535588D01*
X872584Y535622D01*
X872551Y535663D01*
X872491Y535702D01*
X872437Y535748D01*
X872388Y535768D01*
X872344Y535796D01*
X872275Y535813D01*
X872209Y535840D01*
X872137Y535848D01*
X872106Y535856D01*
X872083Y535854D01*
X872042Y535859D01*
X737880Y535926D01*
X737834Y535919D01*
X737788Y535920D01*
X737714Y535899D01*
X737637Y535886D01*
X737596Y535865D01*
X737552Y535852D01*
X737488Y535808D01*
X737420Y535771D01*
X737388Y535738D01*
X737350Y535712D01*
X737304Y535649D01*
X737250Y535593D01*
X737231Y535551D01*
X737203Y535514D01*
X737179Y535440D01*
X737146Y535370D01*
X737141Y535324D01*
X737127Y535280D01*
X737128Y535203D01*
X737119Y535126D01*
X737129Y535081D01*
X737129Y535034D01*
X737167Y534904D01*
X737171Y534885D01*
X737174Y534881D01*
X737176Y534873D01*
X740231Y527499D01*
X740231Y518981D01*
X736971Y511112D01*
X730948Y505089D01*
X723079Y501829D01*
X714561Y501829D01*
X706692Y505089D01*
X700669Y511112D01*
X698150Y517192D01*
X698126Y517231D01*
X698110Y517274D01*
X698062Y517335D01*
X698021Y517401D01*
X697985Y517431D01*
X697957Y517466D01*
X697891Y517508D01*
X697831Y517558D01*
X697788Y517575D01*
X697750Y517599D01*
X697674Y517618D01*
X697602Y517646D01*
X697556Y517648D01*
X697511Y517659D01*
X697434Y517653D01*
X697356Y517657D01*
X697312Y517644D01*
X697266Y517640D01*
X697194Y517610D01*
X697120Y517588D01*
X697082Y517562D01*
X697040Y517544D01*
X696933Y517459D01*
X696918Y517448D01*
X696915Y517444D01*
X696909Y517439D01*
X658961Y479491D01*
X655996Y476526D01*
X652261Y474979D01*
X446152Y474979D01*
X446056Y474964D01*
X445959Y474954D01*
X445935Y474944D01*
X445910Y474940D01*
X445824Y474894D01*
X445735Y474854D01*
X445715Y474837D01*
X445692Y474824D01*
X445625Y474754D01*
X445553Y474688D01*
X445541Y474665D01*
X445523Y474646D01*
X445482Y474558D01*
X445435Y474472D01*
X445430Y474447D01*
X445419Y474423D01*
X445408Y474326D01*
X445391Y474230D01*
X445395Y474204D01*
X445392Y474179D01*
X445413Y474083D01*
X445427Y473987D01*
X445439Y473964D01*
X445444Y473938D01*
X445494Y473855D01*
X445538Y473768D01*
X445557Y473749D01*
X445571Y473727D01*
X445644Y473664D01*
X445714Y473596D01*
X445743Y473580D01*
X445757Y473567D01*
X445788Y473555D01*
X445861Y473515D01*
X447356Y472896D01*
X450036Y470216D01*
X451486Y466715D01*
X451486Y462925D01*
X450036Y459424D01*
X447356Y456744D01*
X443855Y455294D01*
X440065Y455294D01*
X436564Y456744D01*
X433884Y459424D01*
X432434Y462925D01*
X432434Y466715D01*
X433884Y470216D01*
X436564Y472896D01*
X438059Y473515D01*
X438142Y473566D01*
X438228Y473612D01*
X438246Y473630D01*
X438268Y473644D01*
X438330Y473720D01*
X438397Y473790D01*
X438408Y473814D01*
X438425Y473834D01*
X438460Y473925D01*
X438501Y474013D01*
X438504Y474039D01*
X438513Y474063D01*
X438517Y474161D01*
X438528Y474257D01*
X438522Y474283D01*
X438523Y474309D01*
X438496Y474403D01*
X438476Y474498D01*
X438462Y474520D01*
X438455Y474545D01*
X438399Y474625D01*
X438349Y474709D01*
X438330Y474726D01*
X438315Y474747D01*
X438237Y474806D01*
X438163Y474869D01*
X438138Y474879D01*
X438117Y474894D01*
X438025Y474924D01*
X437934Y474961D01*
X437902Y474964D01*
X437883Y474970D01*
X437850Y474970D01*
X437768Y474979D01*
X421710Y474979D01*
X421639Y474968D01*
X421568Y474966D01*
X421519Y474948D01*
X421467Y474940D01*
X421404Y474906D01*
X421337Y474881D01*
X421296Y474849D01*
X421250Y474824D01*
X421200Y474772D01*
X421144Y474728D01*
X421116Y474684D01*
X421080Y474646D01*
X421050Y474581D01*
X421011Y474521D01*
X420999Y474470D01*
X420977Y474423D01*
X420969Y474352D01*
X420951Y474282D01*
X420955Y474230D01*
X420950Y474179D01*
X420965Y474108D01*
X420971Y474037D01*
X420991Y473989D01*
X421002Y473938D01*
X421039Y473877D01*
X421067Y473811D01*
X421112Y473755D01*
X421128Y473727D01*
X421146Y473712D01*
X421172Y473680D01*
X426086Y468766D01*
X426086Y460874D01*
X420506Y455294D01*
X412614Y455294D01*
X407034Y460874D01*
X407034Y468766D01*
X411948Y473680D01*
X411990Y473738D01*
X412040Y473790D01*
X412061Y473837D01*
X412092Y473879D01*
X412113Y473948D01*
X412143Y474013D01*
X412149Y474065D01*
X412164Y474115D01*
X412162Y474186D01*
X412170Y474257D01*
X412159Y474308D01*
X412158Y474360D01*
X412133Y474428D01*
X412118Y474498D01*
X412091Y474543D01*
X412073Y474591D01*
X412029Y474647D01*
X411992Y474709D01*
X411952Y474743D01*
X411920Y474783D01*
X411859Y474822D01*
X411805Y474869D01*
X411757Y474888D01*
X411713Y474916D01*
X411643Y474934D01*
X411577Y474961D01*
X411505Y474969D01*
X411474Y474977D01*
X411451Y474975D01*
X411410Y474979D01*
X287539Y474979D01*
X283804Y476526D01*
X236070Y524260D01*
X236012Y524302D01*
X235960Y524352D01*
X235913Y524374D01*
X235871Y524404D01*
X235802Y524425D01*
X235737Y524455D01*
X235685Y524461D01*
X235635Y524476D01*
X235564Y524474D01*
X235493Y524482D01*
X235442Y524471D01*
X235390Y524470D01*
X235322Y524445D01*
X235252Y524430D01*
X235207Y524403D01*
X235159Y524385D01*
X235103Y524341D01*
X235041Y524304D01*
X235007Y524264D01*
X234967Y524232D01*
X234928Y524171D01*
X234881Y524117D01*
X234862Y524069D01*
X234834Y524025D01*
X234816Y523955D01*
X234789Y523889D01*
X234781Y523817D01*
X234773Y523786D01*
X234775Y523763D01*
X234771Y523722D01*
X234771Y518981D01*
X231511Y511112D01*
X225488Y505089D01*
X217619Y501829D01*
X209101Y501829D01*
X201232Y505089D01*
X195209Y511112D01*
X191949Y518981D01*
X191949Y527499D01*
X194968Y534787D01*
X194978Y534831D01*
X194998Y534873D01*
X195006Y534950D01*
X195024Y535026D01*
X195020Y535072D01*
X195025Y535117D01*
X195008Y535194D01*
X195001Y535271D01*
X194982Y535313D01*
X194973Y535358D01*
X194933Y535425D01*
X194901Y535496D01*
X194870Y535530D01*
X194846Y535569D01*
X194787Y535620D01*
X194735Y535677D01*
X194694Y535699D01*
X194660Y535729D01*
X194587Y535758D01*
X194519Y535795D01*
X194474Y535804D01*
X194431Y535821D01*
X194295Y535836D01*
X194277Y535839D01*
X194272Y535838D01*
X194265Y535839D01*
X43007Y535839D01*
X42962Y535832D01*
X42916Y535834D01*
X42841Y535812D01*
X42765Y535800D01*
X42724Y535778D01*
X42680Y535765D01*
X42616Y535721D01*
X42547Y535684D01*
X42516Y535651D01*
X42478Y535625D01*
X42431Y535562D01*
X42378Y535506D01*
X42359Y535464D01*
X42331Y535428D01*
X42307Y535354D01*
X42274Y535283D01*
X42269Y535237D01*
X42255Y535194D01*
X42256Y535116D01*
X42247Y535039D01*
X42257Y534994D01*
X42257Y534948D01*
X42295Y534816D01*
X42299Y534798D01*
X42302Y534794D01*
X42304Y534787D01*
X44271Y530039D01*
X44271Y521521D01*
X41011Y513652D01*
X34988Y507629D01*
X27119Y504369D01*
X18601Y504369D01*
X11213Y507429D01*
X11169Y507440D01*
X11127Y507459D01*
X11050Y507468D01*
X10974Y507486D01*
X10928Y507481D01*
X10883Y507486D01*
X10806Y507470D01*
X10729Y507462D01*
X10687Y507444D01*
X10642Y507434D01*
X10575Y507394D01*
X10504Y507362D01*
X10470Y507331D01*
X10431Y507308D01*
X10380Y507249D01*
X10323Y507196D01*
X10301Y507156D01*
X10271Y507121D01*
X10242Y507049D01*
X10205Y506981D01*
X10196Y506935D01*
X10179Y506893D01*
X10164Y506757D01*
X10161Y506739D01*
X10162Y506734D01*
X10161Y506726D01*
X10161Y485562D01*
X10164Y485542D01*
X10162Y485523D01*
X10184Y485421D01*
X10200Y485319D01*
X10210Y485302D01*
X10214Y485282D01*
X10267Y485193D01*
X10316Y485102D01*
X10330Y485088D01*
X10340Y485071D01*
X10419Y485004D01*
X10494Y484932D01*
X10512Y484924D01*
X10527Y484911D01*
X10623Y484872D01*
X10717Y484829D01*
X10737Y484827D01*
X10755Y484819D01*
X10922Y484801D01*
X13717Y484801D01*
X13717Y475222D01*
X13720Y475202D01*
X13718Y475183D01*
X13740Y475081D01*
X13757Y474979D01*
X13766Y474962D01*
X13770Y474942D01*
X13823Y474853D01*
X13872Y474762D01*
X13886Y474748D01*
X13896Y474731D01*
X13975Y474664D01*
X14050Y474593D01*
X14068Y474584D01*
X14083Y474571D01*
X14179Y474533D01*
X14273Y474489D01*
X14293Y474487D01*
X14311Y474479D01*
X14478Y474461D01*
X15241Y474461D01*
X15241Y474459D01*
X14478Y474459D01*
X14458Y474456D01*
X14439Y474458D01*
X14337Y474436D01*
X14235Y474419D01*
X14218Y474410D01*
X14198Y474406D01*
X14109Y474353D01*
X14018Y474304D01*
X14004Y474290D01*
X13987Y474280D01*
X13920Y474201D01*
X13849Y474126D01*
X13840Y474108D01*
X13827Y474093D01*
X13788Y473997D01*
X13745Y473903D01*
X13743Y473883D01*
X13735Y473865D01*
X13717Y473698D01*
X13717Y464119D01*
X10922Y464119D01*
X10902Y464116D01*
X10883Y464118D01*
X10781Y464096D01*
X10679Y464080D01*
X10662Y464070D01*
X10642Y464066D01*
X10553Y464013D01*
X10462Y463964D01*
X10448Y463950D01*
X10431Y463940D01*
X10364Y463861D01*
X10292Y463786D01*
X10284Y463768D01*
X10271Y463753D01*
X10232Y463657D01*
X10189Y463563D01*
X10187Y463543D01*
X10179Y463525D01*
X10161Y463358D01*
X10161Y458188D01*
X10168Y458143D01*
X10166Y458097D01*
X10188Y458022D01*
X10200Y457946D01*
X10222Y457905D01*
X10235Y457861D01*
X10279Y457797D01*
X10316Y457728D01*
X10349Y457697D01*
X10375Y457659D01*
X10437Y457613D01*
X10494Y457559D01*
X10536Y457540D01*
X10572Y457512D01*
X10646Y457488D01*
X10717Y457455D01*
X10763Y457450D01*
X10806Y457436D01*
X10884Y457437D01*
X10961Y457428D01*
X11006Y457438D01*
X11052Y457438D01*
X11184Y457476D01*
X11202Y457480D01*
X11206Y457483D01*
X11213Y457485D01*
X13385Y458385D01*
X17095Y458385D01*
X20522Y456965D01*
X23145Y454342D01*
X24565Y450915D01*
X24565Y447205D01*
X23145Y443778D01*
X20522Y441155D01*
X17095Y439735D01*
X13385Y439735D01*
X11213Y440635D01*
X11169Y440645D01*
X11127Y440665D01*
X11050Y440673D01*
X10974Y440691D01*
X10928Y440687D01*
X10883Y440692D01*
X10806Y440675D01*
X10729Y440668D01*
X10687Y440649D01*
X10642Y440640D01*
X10575Y440600D01*
X10504Y440568D01*
X10470Y440537D01*
X10431Y440513D01*
X10380Y440454D01*
X10323Y440402D01*
X10301Y440361D01*
X10271Y440326D01*
X10242Y440254D01*
X10205Y440186D01*
X10196Y440141D01*
X10179Y440098D01*
X10164Y439962D01*
X10161Y439944D01*
X10162Y439939D01*
X10161Y439932D01*
X10161Y432788D01*
X10168Y432743D01*
X10166Y432697D01*
X10188Y432622D01*
X10200Y432546D01*
X10222Y432505D01*
X10235Y432461D01*
X10279Y432397D01*
X10316Y432328D01*
X10349Y432297D01*
X10375Y432259D01*
X10437Y432213D01*
X10494Y432159D01*
X10536Y432140D01*
X10572Y432112D01*
X10646Y432088D01*
X10717Y432055D01*
X10763Y432050D01*
X10806Y432036D01*
X10884Y432037D01*
X10961Y432028D01*
X11006Y432038D01*
X11052Y432038D01*
X11184Y432076D01*
X11202Y432080D01*
X11206Y432083D01*
X11213Y432085D01*
X13385Y432985D01*
X17095Y432985D01*
X20522Y431565D01*
X23145Y428942D01*
X24565Y425515D01*
X24565Y421805D01*
X23145Y418378D01*
X20522Y415755D01*
X17095Y414335D01*
X13385Y414335D01*
X11213Y415235D01*
X11169Y415245D01*
X11127Y415265D01*
X11050Y415273D01*
X10974Y415291D01*
X10928Y415287D01*
X10883Y415292D01*
X10806Y415275D01*
X10729Y415268D01*
X10687Y415249D01*
X10642Y415240D01*
X10575Y415200D01*
X10504Y415168D01*
X10470Y415137D01*
X10431Y415113D01*
X10380Y415054D01*
X10323Y415002D01*
X10301Y414961D01*
X10271Y414926D01*
X10242Y414854D01*
X10205Y414786D01*
X10196Y414741D01*
X10179Y414698D01*
X10164Y414562D01*
X10161Y414544D01*
X10162Y414539D01*
X10161Y414532D01*
X10161Y407388D01*
X10168Y407343D01*
X10166Y407297D01*
X10188Y407222D01*
X10200Y407146D01*
X10222Y407105D01*
X10235Y407061D01*
X10279Y406997D01*
X10316Y406928D01*
X10349Y406897D01*
X10375Y406859D01*
X10437Y406813D01*
X10494Y406759D01*
X10536Y406740D01*
X10572Y406712D01*
X10646Y406688D01*
X10717Y406655D01*
X10763Y406650D01*
X10806Y406636D01*
X10884Y406637D01*
X10961Y406628D01*
X11006Y406638D01*
X11052Y406638D01*
X11184Y406676D01*
X11202Y406680D01*
X11206Y406683D01*
X11213Y406685D01*
X13385Y407585D01*
X17095Y407585D01*
X20522Y406165D01*
X23145Y403542D01*
X24565Y400115D01*
X24565Y396405D01*
X23145Y392978D01*
X20522Y390355D01*
X17095Y388935D01*
X13385Y388935D01*
X11213Y389835D01*
X11169Y389845D01*
X11127Y389865D01*
X11050Y389873D01*
X10974Y389891D01*
X10928Y389887D01*
X10883Y389892D01*
X10806Y389875D01*
X10729Y389868D01*
X10687Y389849D01*
X10642Y389840D01*
X10575Y389800D01*
X10504Y389768D01*
X10470Y389737D01*
X10431Y389713D01*
X10380Y389654D01*
X10323Y389602D01*
X10301Y389561D01*
X10271Y389526D01*
X10242Y389454D01*
X10205Y389386D01*
X10196Y389341D01*
X10179Y389298D01*
X10164Y389162D01*
X10161Y389144D01*
X10162Y389139D01*
X10161Y389132D01*
X10161Y381988D01*
X10168Y381943D01*
X10166Y381897D01*
X10188Y381822D01*
X10200Y381746D01*
X10222Y381705D01*
X10235Y381661D01*
X10279Y381597D01*
X10316Y381528D01*
X10349Y381497D01*
X10375Y381459D01*
X10437Y381413D01*
X10494Y381359D01*
X10536Y381340D01*
X10572Y381312D01*
X10646Y381288D01*
X10717Y381255D01*
X10763Y381250D01*
X10806Y381236D01*
X10884Y381237D01*
X10961Y381228D01*
X11006Y381238D01*
X11052Y381238D01*
X11184Y381276D01*
X11202Y381280D01*
X11206Y381283D01*
X11213Y381285D01*
X13385Y382185D01*
X17095Y382185D01*
X20522Y380765D01*
X23145Y378142D01*
X24239Y375502D01*
X24300Y375402D01*
X24360Y375302D01*
X24365Y375298D01*
X24368Y375293D01*
X24458Y375218D01*
X24547Y375142D01*
X24553Y375140D01*
X24558Y375136D01*
X24666Y375094D01*
X24775Y375050D01*
X24783Y375049D01*
X24788Y375048D01*
X24806Y375047D01*
X24942Y375032D01*
X72125Y375032D01*
X72196Y375043D01*
X72268Y375045D01*
X72317Y375063D01*
X72368Y375071D01*
X72432Y375105D01*
X72499Y375130D01*
X72540Y375162D01*
X72586Y375187D01*
X72635Y375239D01*
X72691Y375283D01*
X72719Y375327D01*
X72755Y375365D01*
X72785Y375430D01*
X72824Y375490D01*
X72837Y375541D01*
X72859Y375588D01*
X72867Y375659D01*
X72884Y375729D01*
X72880Y375781D01*
X72886Y375832D01*
X72870Y375903D01*
X72865Y375974D01*
X72845Y376022D01*
X72833Y376073D01*
X72797Y376134D01*
X72769Y376200D01*
X72724Y376256D01*
X72707Y376284D01*
X72689Y376299D01*
X72664Y376331D01*
X31368Y417627D01*
X31368Y428511D01*
X61308Y458450D01*
X61361Y458524D01*
X61420Y458594D01*
X61433Y458624D01*
X61451Y458650D01*
X61478Y458737D01*
X61512Y458822D01*
X61517Y458863D01*
X61524Y458885D01*
X61523Y458917D01*
X61531Y458989D01*
X61531Y471521D01*
X61512Y471635D01*
X61495Y471752D01*
X61492Y471758D01*
X61491Y471764D01*
X61437Y471866D01*
X61383Y471971D01*
X61379Y471976D01*
X61376Y471981D01*
X61291Y472061D01*
X61208Y472143D01*
X61201Y472147D01*
X61198Y472150D01*
X61181Y472158D01*
X61061Y472224D01*
X60860Y472307D01*
X58287Y474880D01*
X56895Y478241D01*
X56895Y497119D01*
X58287Y500480D01*
X60860Y503053D01*
X64221Y504445D01*
X67859Y504445D01*
X71220Y503053D01*
X73793Y500480D01*
X75185Y497119D01*
X75185Y478241D01*
X73793Y474880D01*
X71220Y472307D01*
X69114Y471435D01*
X69014Y471373D01*
X68915Y471314D01*
X68911Y471309D01*
X68905Y471306D01*
X68830Y471215D01*
X68755Y471127D01*
X68752Y471121D01*
X68748Y471116D01*
X68707Y471008D01*
X68663Y470899D01*
X68662Y470891D01*
X68660Y470886D01*
X68659Y470868D01*
X68644Y470732D01*
X68644Y455727D01*
X47716Y434798D01*
X47659Y434719D01*
X47597Y434644D01*
X47587Y434620D01*
X47572Y434598D01*
X47544Y434505D01*
X47509Y434415D01*
X47508Y434388D01*
X47500Y434363D01*
X47502Y434266D01*
X47498Y434169D01*
X47506Y434144D01*
X47506Y434118D01*
X47540Y434026D01*
X47567Y433933D01*
X47582Y433911D01*
X47591Y433887D01*
X47652Y433810D01*
X47707Y433730D01*
X47728Y433715D01*
X47744Y433694D01*
X47826Y433642D01*
X47904Y433584D01*
X47929Y433576D01*
X47951Y433561D01*
X48046Y433538D01*
X48138Y433508D01*
X48164Y433508D01*
X48190Y433501D01*
X48287Y433509D01*
X48384Y433510D01*
X48416Y433519D01*
X48435Y433521D01*
X48465Y433533D01*
X48545Y433557D01*
X48905Y433706D01*
X52695Y433706D01*
X55411Y432581D01*
X55525Y432554D01*
X55638Y432525D01*
X55644Y432526D01*
X55651Y432524D01*
X55767Y432535D01*
X55883Y432545D01*
X55889Y432547D01*
X55895Y432548D01*
X56003Y432595D01*
X56110Y432641D01*
X56116Y432645D01*
X56120Y432648D01*
X56134Y432660D01*
X56241Y432746D01*
X64483Y440988D01*
X66789Y443294D01*
X139409Y443294D01*
X139499Y443309D01*
X139590Y443316D01*
X139619Y443329D01*
X139651Y443334D01*
X139732Y443377D01*
X139816Y443412D01*
X139848Y443438D01*
X139869Y443449D01*
X139885Y443466D01*
X139887Y443467D01*
X139895Y443475D01*
X139947Y443517D01*
X145756Y449327D01*
X153963Y449327D01*
X154129Y449161D01*
X154145Y449149D01*
X154158Y449134D01*
X154245Y449078D01*
X154329Y449017D01*
X154348Y449012D01*
X154365Y449001D01*
X154465Y448975D01*
X154564Y448945D01*
X154584Y448946D01*
X154603Y448941D01*
X154706Y448949D01*
X154810Y448951D01*
X154829Y448958D01*
X154849Y448960D01*
X154944Y449000D01*
X155041Y449036D01*
X155057Y449048D01*
X155075Y449056D01*
X155206Y449161D01*
X171564Y465519D01*
X263156Y465519D01*
X263227Y465531D01*
X263298Y465533D01*
X263347Y465551D01*
X263399Y465559D01*
X263462Y465593D01*
X263529Y465617D01*
X263570Y465650D01*
X263616Y465674D01*
X263665Y465726D01*
X263721Y465771D01*
X263749Y465815D01*
X263785Y465852D01*
X263815Y465917D01*
X263854Y465978D01*
X263867Y466028D01*
X263889Y466075D01*
X263897Y466147D01*
X263914Y466216D01*
X263910Y466268D01*
X263916Y466320D01*
X263901Y466390D01*
X263895Y466461D01*
X263875Y466509D01*
X263864Y466560D01*
X263827Y466622D01*
X263799Y466688D01*
X263754Y466744D01*
X263738Y466771D01*
X263720Y466787D01*
X263694Y466819D01*
X261335Y469178D01*
X259915Y472605D01*
X259915Y476315D01*
X261335Y479742D01*
X263958Y482365D01*
X267385Y483785D01*
X271095Y483785D01*
X274522Y482365D01*
X277145Y479742D01*
X278565Y476315D01*
X278565Y472605D01*
X277145Y469178D01*
X274543Y466576D01*
X274531Y466560D01*
X274516Y466547D01*
X274460Y466460D01*
X274400Y466376D01*
X274394Y466357D01*
X274383Y466340D01*
X274358Y466240D01*
X274327Y466141D01*
X274328Y466121D01*
X274323Y466102D01*
X274331Y465999D01*
X274334Y465895D01*
X274340Y465876D01*
X274342Y465857D01*
X274382Y465762D01*
X274418Y465664D01*
X274431Y465649D01*
X274438Y465630D01*
X274543Y465499D01*
X296525Y443517D01*
X296599Y443464D01*
X296669Y443405D01*
X296699Y443392D01*
X296725Y443374D01*
X296812Y443347D01*
X296897Y443313D01*
X296938Y443308D01*
X296960Y443301D01*
X296992Y443302D01*
X297064Y443294D01*
X446523Y443294D01*
X446594Y443306D01*
X446666Y443308D01*
X446715Y443326D01*
X446766Y443334D01*
X446829Y443368D01*
X446897Y443392D01*
X446937Y443425D01*
X446983Y443449D01*
X447033Y443501D01*
X447089Y443546D01*
X447117Y443590D01*
X447153Y443627D01*
X447183Y443692D01*
X447222Y443753D01*
X447234Y443803D01*
X447256Y443850D01*
X447264Y443922D01*
X447282Y443991D01*
X447278Y444043D01*
X447283Y444095D01*
X447268Y444165D01*
X447263Y444236D01*
X447242Y444284D01*
X447231Y444335D01*
X447194Y444397D01*
X447166Y444463D01*
X447121Y444519D01*
X447105Y444546D01*
X447090Y444559D01*
X447087Y444564D01*
X447081Y444570D01*
X447061Y444594D01*
X446178Y445477D01*
X446178Y449873D01*
X449287Y452982D01*
X451446Y452982D01*
X451537Y452996D01*
X451627Y453004D01*
X451657Y453016D01*
X451689Y453021D01*
X451770Y453064D01*
X451854Y453100D01*
X451886Y453126D01*
X451907Y453137D01*
X451929Y453160D01*
X451985Y453205D01*
X464389Y465609D01*
X464456Y465637D01*
X464488Y465663D01*
X464509Y465674D01*
X464531Y465697D01*
X464587Y465742D01*
X466114Y467269D01*
X470511Y467269D01*
X473619Y464161D01*
X473619Y459764D01*
X470511Y456656D01*
X465811Y456656D01*
X465721Y456641D01*
X465630Y456634D01*
X465600Y456621D01*
X465568Y456616D01*
X465488Y456573D01*
X465404Y456538D01*
X465372Y456512D01*
X465351Y456501D01*
X465329Y456478D01*
X465273Y456433D01*
X457015Y448175D01*
X456962Y448101D01*
X456902Y448031D01*
X456890Y448001D01*
X456871Y447975D01*
X456844Y447888D01*
X456810Y447803D01*
X456806Y447762D01*
X456799Y447740D01*
X456800Y447708D01*
X456792Y447636D01*
X456792Y446197D01*
X456803Y446126D01*
X456805Y446055D01*
X456823Y446006D01*
X456831Y445954D01*
X456865Y445891D01*
X456890Y445824D01*
X456922Y445783D01*
X456947Y445737D01*
X456999Y445688D01*
X457043Y445632D01*
X457087Y445603D01*
X457125Y445568D01*
X457190Y445537D01*
X457250Y445499D01*
X457301Y445486D01*
X457348Y445464D01*
X457419Y445456D01*
X457489Y445438D01*
X457541Y445443D01*
X457592Y445437D01*
X457663Y445452D01*
X457734Y445458D01*
X457782Y445478D01*
X457833Y445489D01*
X457894Y445526D01*
X457960Y445554D01*
X458016Y445599D01*
X458044Y445615D01*
X458059Y445633D01*
X458091Y445659D01*
X462077Y449644D01*
X531687Y449644D01*
X531802Y449663D01*
X531918Y449680D01*
X531924Y449683D01*
X531930Y449684D01*
X532033Y449738D01*
X532137Y449792D01*
X532142Y449796D01*
X532147Y449799D01*
X532227Y449883D01*
X532310Y449967D01*
X532313Y449974D01*
X532317Y449977D01*
X532324Y449994D01*
X532390Y450114D01*
X532858Y451242D01*
X535818Y454202D01*
X539687Y455805D01*
X561873Y455805D01*
X565742Y454202D01*
X568702Y451242D01*
X570305Y447373D01*
X570305Y443187D01*
X568702Y439318D01*
X565742Y436358D01*
X561873Y434755D01*
X539687Y434755D01*
X535818Y436358D01*
X532858Y439318D01*
X531722Y442061D01*
X531660Y442160D01*
X531600Y442260D01*
X531595Y442265D01*
X531592Y442270D01*
X531502Y442344D01*
X531413Y442420D01*
X531407Y442423D01*
X531402Y442427D01*
X531294Y442468D01*
X531185Y442512D01*
X531177Y442513D01*
X531173Y442515D01*
X531155Y442516D01*
X531018Y442531D01*
X497087Y442531D01*
X497016Y442519D01*
X496944Y442517D01*
X496895Y442499D01*
X496844Y442491D01*
X496781Y442457D01*
X496713Y442433D01*
X496673Y442400D01*
X496627Y442376D01*
X496577Y442324D01*
X496521Y442279D01*
X496493Y442235D01*
X496457Y442198D01*
X496427Y442133D01*
X496388Y442072D01*
X496376Y442022D01*
X496354Y441975D01*
X496346Y441903D01*
X496328Y441834D01*
X496332Y441782D01*
X496327Y441730D01*
X496342Y441660D01*
X496347Y441589D01*
X496368Y441541D01*
X496379Y441490D01*
X496416Y441428D01*
X496444Y441362D01*
X496489Y441306D01*
X496505Y441279D01*
X496523Y441263D01*
X496549Y441231D01*
X497432Y440348D01*
X497432Y435952D01*
X495405Y433926D01*
X495379Y433888D01*
X495345Y433857D01*
X495307Y433789D01*
X495262Y433726D01*
X495248Y433682D01*
X495226Y433642D01*
X495212Y433565D01*
X495189Y433491D01*
X495191Y433445D01*
X495183Y433400D01*
X495194Y433323D01*
X495196Y433245D01*
X495212Y433202D01*
X495218Y433156D01*
X495254Y433087D01*
X495280Y433014D01*
X495309Y432978D01*
X495330Y432937D01*
X495385Y432883D01*
X495434Y432822D01*
X495473Y432797D01*
X495505Y432765D01*
X495625Y432699D01*
X495641Y432689D01*
X495646Y432688D01*
X495652Y432684D01*
X496375Y432385D01*
X498925Y429835D01*
X500305Y426503D01*
X500305Y422897D01*
X498925Y419565D01*
X496375Y417015D01*
X493043Y415635D01*
X489437Y415635D01*
X486105Y417015D01*
X483555Y419565D01*
X482175Y422897D01*
X482175Y426503D01*
X483555Y429835D01*
X486105Y432385D01*
X487901Y433129D01*
X487984Y433180D01*
X488070Y433226D01*
X488088Y433244D01*
X488111Y433258D01*
X488173Y433334D01*
X488240Y433404D01*
X488251Y433428D01*
X488267Y433448D01*
X488302Y433539D01*
X488343Y433627D01*
X488346Y433653D01*
X488356Y433677D01*
X488360Y433775D01*
X488370Y433871D01*
X488365Y433897D01*
X488366Y433923D01*
X488339Y434017D01*
X488318Y434112D01*
X488305Y434134D01*
X488297Y434159D01*
X488242Y434239D01*
X488192Y434323D01*
X488172Y434340D01*
X488157Y434361D01*
X488079Y434420D01*
X488005Y434483D01*
X487981Y434493D01*
X487960Y434508D01*
X487867Y434538D01*
X487777Y434575D01*
X487744Y434578D01*
X487726Y434584D01*
X487693Y434584D01*
X487610Y434593D01*
X465339Y434593D01*
X465248Y434579D01*
X465158Y434571D01*
X465128Y434559D01*
X465096Y434554D01*
X465015Y434511D01*
X464931Y434475D01*
X464899Y434449D01*
X464878Y434438D01*
X464856Y434415D01*
X464800Y434370D01*
X436448Y406018D01*
X298564Y406018D01*
X279864Y424718D01*
X279806Y424760D01*
X279754Y424809D01*
X279707Y424831D01*
X279665Y424862D01*
X279596Y424883D01*
X279531Y424913D01*
X279479Y424919D01*
X279429Y424934D01*
X279358Y424932D01*
X279287Y424940D01*
X279236Y424929D01*
X279184Y424928D01*
X279116Y424903D01*
X279046Y424888D01*
X279001Y424861D01*
X278953Y424843D01*
X278897Y424798D01*
X278835Y424762D01*
X278801Y424722D01*
X278761Y424690D01*
X278722Y424629D01*
X278675Y424575D01*
X278656Y424527D01*
X278628Y424483D01*
X278610Y424413D01*
X278583Y424347D01*
X278575Y424275D01*
X278567Y424244D01*
X278569Y424221D01*
X278565Y424180D01*
X278565Y421805D01*
X277145Y418378D01*
X274522Y415755D01*
X271095Y414335D01*
X267385Y414335D01*
X263958Y415755D01*
X261335Y418378D01*
X259915Y421805D01*
X259915Y425515D01*
X261335Y428942D01*
X263988Y431595D01*
X264069Y431638D01*
X264087Y431657D01*
X264109Y431671D01*
X264171Y431746D01*
X264238Y431816D01*
X264249Y431840D01*
X264266Y431860D01*
X264301Y431951D01*
X264342Y432040D01*
X264345Y432065D01*
X264354Y432090D01*
X264358Y432187D01*
X264369Y432284D01*
X264364Y432309D01*
X264365Y432335D01*
X264338Y432429D01*
X264317Y432524D01*
X264304Y432547D01*
X264296Y432572D01*
X264241Y432652D01*
X264191Y432735D01*
X264171Y432752D01*
X264156Y432774D01*
X264078Y432832D01*
X264004Y432895D01*
X263980Y432905D01*
X263959Y432921D01*
X263866Y432951D01*
X263776Y432987D01*
X263743Y432991D01*
X263725Y432997D01*
X263692Y432997D01*
X263609Y433006D01*
X249352Y433006D01*
X230525Y451833D01*
X230451Y451886D01*
X230381Y451945D01*
X230351Y451958D01*
X230325Y451976D01*
X230238Y452003D01*
X230153Y452037D01*
X230112Y452042D01*
X230090Y452049D01*
X230058Y452048D01*
X229986Y452056D01*
X214514Y452056D01*
X214423Y452041D01*
X214333Y452034D01*
X214303Y452021D01*
X214271Y452016D01*
X214190Y451973D01*
X214106Y451938D01*
X214074Y451912D01*
X214053Y451901D01*
X214031Y451878D01*
X213975Y451833D01*
X157048Y394906D01*
X156882Y394906D01*
X156812Y394894D01*
X156740Y394892D01*
X156691Y394874D01*
X156640Y394866D01*
X156576Y394832D01*
X156509Y394808D01*
X156468Y394775D01*
X156422Y394751D01*
X156373Y394699D01*
X156317Y394654D01*
X156289Y394610D01*
X156253Y394573D01*
X156223Y394508D01*
X156184Y394447D01*
X156171Y394397D01*
X156149Y394350D01*
X156141Y394278D01*
X156124Y394209D01*
X156128Y394157D01*
X156122Y394105D01*
X156137Y394035D01*
X156143Y393964D01*
X156163Y393916D01*
X156174Y393865D01*
X156211Y393803D01*
X156239Y393737D01*
X156284Y393681D01*
X156300Y393654D01*
X156318Y393638D01*
X156344Y393606D01*
X159767Y390184D01*
X159767Y381976D01*
X153964Y376173D01*
X145756Y376173D01*
X139953Y381976D01*
X139953Y390184D01*
X143376Y393606D01*
X143418Y393664D01*
X143467Y393716D01*
X143489Y393764D01*
X143520Y393806D01*
X143541Y393874D01*
X143571Y393940D01*
X143577Y393991D01*
X143592Y394041D01*
X143590Y394113D01*
X143598Y394184D01*
X143587Y394235D01*
X143586Y394287D01*
X143561Y394354D01*
X143546Y394424D01*
X143519Y394469D01*
X143501Y394518D01*
X143456Y394574D01*
X143420Y394635D01*
X143380Y394669D01*
X143347Y394710D01*
X143287Y394749D01*
X143233Y394795D01*
X143184Y394815D01*
X143140Y394843D01*
X143071Y394860D01*
X143004Y394887D01*
X142933Y394895D01*
X142902Y394903D01*
X142879Y394901D01*
X142838Y394906D01*
X113801Y394906D01*
X113711Y394891D01*
X113620Y394884D01*
X113590Y394871D01*
X113558Y394866D01*
X113478Y394823D01*
X113394Y394788D01*
X113361Y394762D01*
X113341Y394751D01*
X113319Y394728D01*
X113263Y394683D01*
X111736Y393156D01*
X107339Y393156D01*
X104231Y396264D01*
X104231Y400661D01*
X107339Y403769D01*
X111736Y403769D01*
X113263Y402242D01*
X113337Y402189D01*
X113406Y402130D01*
X113436Y402118D01*
X113462Y402099D01*
X113549Y402072D01*
X113634Y402038D01*
X113675Y402033D01*
X113697Y402026D01*
X113730Y402027D01*
X113801Y402019D01*
X153786Y402019D01*
X153877Y402034D01*
X153967Y402041D01*
X153997Y402054D01*
X154029Y402059D01*
X154110Y402102D01*
X154194Y402137D01*
X154226Y402163D01*
X154247Y402174D01*
X154269Y402197D01*
X154325Y402242D01*
X209189Y457106D01*
X209231Y457164D01*
X209280Y457216D01*
X209302Y457264D01*
X209332Y457306D01*
X209353Y457374D01*
X209384Y457440D01*
X209389Y457491D01*
X209405Y457541D01*
X209403Y457613D01*
X209411Y457684D01*
X209400Y457735D01*
X209398Y457787D01*
X209374Y457854D01*
X209358Y457924D01*
X209332Y457969D01*
X209314Y458018D01*
X209269Y458074D01*
X209232Y458135D01*
X209193Y458169D01*
X209160Y458210D01*
X209100Y458249D01*
X209045Y458295D01*
X208997Y458315D01*
X208953Y458343D01*
X208884Y458360D01*
X208817Y458387D01*
X208746Y458395D01*
X208715Y458403D01*
X208691Y458401D01*
X208650Y458406D01*
X174826Y458406D01*
X174736Y458391D01*
X174645Y458384D01*
X174615Y458371D01*
X174583Y458366D01*
X174503Y458323D01*
X174419Y458288D01*
X174387Y458262D01*
X174366Y458251D01*
X174344Y458228D01*
X174288Y458183D01*
X159990Y443885D01*
X159937Y443811D01*
X159877Y443741D01*
X159865Y443711D01*
X159846Y443685D01*
X159819Y443598D01*
X159785Y443513D01*
X159781Y443472D01*
X159774Y443450D01*
X159775Y443418D01*
X159767Y443346D01*
X159767Y435316D01*
X153964Y429513D01*
X145756Y429513D01*
X139953Y435316D01*
X139953Y435420D01*
X139950Y435439D01*
X139952Y435459D01*
X139930Y435560D01*
X139914Y435662D01*
X139904Y435680D01*
X139900Y435699D01*
X139847Y435788D01*
X139798Y435880D01*
X139784Y435893D01*
X139774Y435910D01*
X139695Y435978D01*
X139620Y436049D01*
X139602Y436057D01*
X139587Y436070D01*
X139491Y436109D01*
X139397Y436153D01*
X139377Y436155D01*
X139359Y436162D01*
X139192Y436181D01*
X70051Y436181D01*
X69961Y436166D01*
X69870Y436159D01*
X69840Y436146D01*
X69808Y436141D01*
X69728Y436098D01*
X69644Y436063D01*
X69612Y436037D01*
X69591Y436026D01*
X69569Y436003D01*
X69513Y435958D01*
X60482Y426927D01*
X60414Y426833D01*
X60344Y426738D01*
X60342Y426732D01*
X60338Y426727D01*
X60304Y426616D01*
X60267Y426504D01*
X60268Y426498D01*
X60266Y426492D01*
X60269Y426375D01*
X60270Y426258D01*
X60272Y426251D01*
X60272Y426246D01*
X60278Y426228D01*
X60317Y426097D01*
X60326Y426075D01*
X60326Y422285D01*
X58876Y418784D01*
X56196Y416104D01*
X52695Y414654D01*
X48905Y414654D01*
X45404Y416104D01*
X42724Y418784D01*
X41274Y422285D01*
X41274Y426075D01*
X41423Y426435D01*
X41446Y426529D01*
X41474Y426623D01*
X41474Y426649D01*
X41480Y426674D01*
X41470Y426771D01*
X41468Y426868D01*
X41459Y426893D01*
X41456Y426919D01*
X41417Y427008D01*
X41383Y427099D01*
X41367Y427120D01*
X41356Y427144D01*
X41291Y427215D01*
X41230Y427291D01*
X41208Y427306D01*
X41190Y427325D01*
X41105Y427372D01*
X41023Y427424D01*
X40997Y427431D01*
X40975Y427443D01*
X40879Y427461D01*
X40784Y427485D01*
X40758Y427482D01*
X40732Y427487D01*
X40636Y427473D01*
X40539Y427465D01*
X40515Y427455D01*
X40489Y427451D01*
X40402Y427407D01*
X40313Y427369D01*
X40287Y427349D01*
X40270Y427340D01*
X40247Y427316D01*
X40182Y427264D01*
X38705Y425787D01*
X38652Y425713D01*
X38592Y425644D01*
X38580Y425614D01*
X38561Y425587D01*
X38534Y425501D01*
X38500Y425416D01*
X38496Y425375D01*
X38489Y425352D01*
X38490Y425320D01*
X38482Y425249D01*
X38482Y420889D01*
X38496Y420798D01*
X38504Y420708D01*
X38516Y420678D01*
X38521Y420646D01*
X38564Y420565D01*
X38600Y420481D01*
X38626Y420449D01*
X38637Y420428D01*
X38660Y420406D01*
X38705Y420350D01*
X127503Y331552D01*
X127577Y331499D01*
X127646Y331440D01*
X127676Y331427D01*
X127703Y331409D01*
X127789Y331382D01*
X127874Y331348D01*
X127915Y331343D01*
X127938Y331336D01*
X127970Y331337D01*
X128041Y331329D01*
X132641Y331329D01*
X135749Y328221D01*
X135749Y323824D01*
X134281Y322356D01*
X134239Y322298D01*
X134190Y322246D01*
X134168Y322199D01*
X134138Y322157D01*
X134116Y322088D01*
X134086Y322023D01*
X134081Y321971D01*
X134065Y321921D01*
X134067Y321850D01*
X134059Y321779D01*
X134070Y321728D01*
X134072Y321676D01*
X134096Y321608D01*
X134111Y321538D01*
X134138Y321493D01*
X134156Y321445D01*
X134201Y321389D01*
X134238Y321327D01*
X134277Y321293D01*
X134310Y321253D01*
X134370Y321214D01*
X134425Y321167D01*
X134473Y321148D01*
X134517Y321120D01*
X134586Y321102D01*
X134653Y321075D01*
X134724Y321067D01*
X134755Y321059D01*
X134778Y321061D01*
X134819Y321057D01*
X136652Y321057D01*
X136672Y321060D01*
X136691Y321058D01*
X136793Y321080D01*
X136895Y321096D01*
X136912Y321106D01*
X136932Y321110D01*
X137021Y321163D01*
X137112Y321212D01*
X137126Y321226D01*
X137143Y321236D01*
X137210Y321315D01*
X137282Y321390D01*
X137290Y321408D01*
X137303Y321423D01*
X137342Y321519D01*
X137353Y321543D01*
X143216Y327407D01*
X151424Y327407D01*
X157227Y321604D01*
X157227Y313396D01*
X151424Y307593D01*
X143216Y307593D01*
X137363Y313446D01*
X137360Y313462D01*
X137307Y313551D01*
X137258Y313642D01*
X137244Y313656D01*
X137234Y313673D01*
X137155Y313740D01*
X137080Y313812D01*
X137062Y313820D01*
X137047Y313833D01*
X136951Y313872D01*
X136857Y313915D01*
X136837Y313917D01*
X136819Y313925D01*
X136652Y313943D01*
X127114Y313943D01*
X124808Y316250D01*
X79631Y361426D01*
X79573Y361468D01*
X79521Y361517D01*
X79474Y361539D01*
X79432Y361570D01*
X79363Y361591D01*
X79298Y361621D01*
X79246Y361627D01*
X79196Y361642D01*
X79125Y361640D01*
X79054Y361648D01*
X79003Y361637D01*
X78951Y361636D01*
X78883Y361611D01*
X78813Y361596D01*
X78768Y361569D01*
X78720Y361551D01*
X78664Y361506D01*
X78602Y361470D01*
X78568Y361430D01*
X78528Y361398D01*
X78489Y361337D01*
X78442Y361283D01*
X78423Y361235D01*
X78395Y361191D01*
X78377Y361121D01*
X78350Y361055D01*
X78342Y360983D01*
X78334Y360952D01*
X78336Y360929D01*
X78332Y360888D01*
X78332Y359752D01*
X76805Y358225D01*
X76752Y358151D01*
X76692Y358081D01*
X76680Y358051D01*
X76661Y358025D01*
X76634Y357938D01*
X76600Y357853D01*
X76596Y357812D01*
X76589Y357790D01*
X76590Y357758D01*
X76582Y357687D01*
X76582Y328727D01*
X62436Y314581D01*
X62394Y314523D01*
X62345Y314471D01*
X62323Y314424D01*
X62293Y314382D01*
X62272Y314313D01*
X62241Y314248D01*
X62236Y314196D01*
X62220Y314146D01*
X62222Y314075D01*
X62214Y314004D01*
X62225Y313953D01*
X62227Y313901D01*
X62251Y313833D01*
X62267Y313763D01*
X62293Y313718D01*
X62311Y313670D01*
X62356Y313614D01*
X62393Y313552D01*
X62432Y313518D01*
X62465Y313478D01*
X62525Y313439D01*
X62580Y313392D01*
X62628Y313373D01*
X62672Y313345D01*
X62741Y313327D01*
X62808Y313300D01*
X62879Y313292D01*
X62910Y313284D01*
X62934Y313286D01*
X62975Y313282D01*
X67286Y313282D01*
X70394Y310173D01*
X70394Y305777D01*
X68867Y304250D01*
X68814Y304176D01*
X68755Y304106D01*
X68742Y304076D01*
X68724Y304050D01*
X68697Y303963D01*
X68663Y303878D01*
X68658Y303837D01*
X68651Y303815D01*
X68652Y303783D01*
X68644Y303712D01*
X68644Y295389D01*
X23871Y250616D01*
X23804Y250522D01*
X23734Y250428D01*
X23732Y250422D01*
X23728Y250417D01*
X23694Y250306D01*
X23657Y250194D01*
X23657Y250188D01*
X23656Y250182D01*
X23659Y250065D01*
X23660Y249948D01*
X23662Y249941D01*
X23662Y249936D01*
X23668Y249918D01*
X23706Y249787D01*
X24565Y247715D01*
X24565Y244005D01*
X23145Y240578D01*
X20522Y237955D01*
X17095Y236535D01*
X13385Y236535D01*
X11213Y237435D01*
X11169Y237445D01*
X11127Y237465D01*
X11050Y237473D01*
X10974Y237491D01*
X10928Y237487D01*
X10883Y237492D01*
X10806Y237475D01*
X10729Y237468D01*
X10687Y237449D01*
X10642Y237440D01*
X10575Y237400D01*
X10504Y237368D01*
X10470Y237337D01*
X10431Y237313D01*
X10380Y237254D01*
X10323Y237202D01*
X10301Y237161D01*
X10271Y237126D01*
X10242Y237054D01*
X10205Y236986D01*
X10196Y236941D01*
X10179Y236898D01*
X10164Y236762D01*
X10161Y236744D01*
X10162Y236739D01*
X10161Y236732D01*
X10161Y229588D01*
X10168Y229543D01*
X10166Y229497D01*
X10188Y229422D01*
X10200Y229346D01*
X10222Y229305D01*
X10235Y229261D01*
X10279Y229197D01*
X10316Y229128D01*
X10349Y229097D01*
X10375Y229059D01*
X10437Y229013D01*
X10494Y228959D01*
X10536Y228940D01*
X10572Y228912D01*
X10646Y228888D01*
X10717Y228855D01*
X10763Y228850D01*
X10806Y228836D01*
X10884Y228837D01*
X10961Y228828D01*
X11006Y228838D01*
X11052Y228838D01*
X11184Y228876D01*
X11202Y228880D01*
X11206Y228883D01*
X11213Y228885D01*
X13385Y229785D01*
X17095Y229785D01*
X20522Y228365D01*
X20584Y228303D01*
X20600Y228291D01*
X20613Y228276D01*
X20700Y228220D01*
X20784Y228160D01*
X20803Y228154D01*
X20820Y228143D01*
X20920Y228118D01*
X21019Y228087D01*
X21039Y228088D01*
X21058Y228083D01*
X21161Y228091D01*
X21265Y228094D01*
X21284Y228100D01*
X21303Y228102D01*
X21398Y228142D01*
X21496Y228178D01*
X21511Y228191D01*
X21530Y228198D01*
X21661Y228303D01*
X46152Y252794D01*
X160202Y252794D01*
X160292Y252809D01*
X160383Y252816D01*
X160412Y252829D01*
X160444Y252834D01*
X160525Y252877D01*
X160609Y252912D01*
X160641Y252938D01*
X160662Y252949D01*
X160684Y252972D01*
X160740Y253017D01*
X162267Y254544D01*
X166663Y254544D01*
X169772Y251436D01*
X169772Y247039D01*
X166663Y243931D01*
X162267Y243931D01*
X160740Y245458D01*
X160666Y245511D01*
X160596Y245570D01*
X160566Y245582D01*
X160540Y245601D01*
X160453Y245628D01*
X160368Y245662D01*
X160327Y245667D01*
X160305Y245674D01*
X160273Y245673D01*
X160202Y245681D01*
X49414Y245681D01*
X49323Y245666D01*
X49233Y245659D01*
X49203Y245646D01*
X49171Y245641D01*
X49090Y245598D01*
X49006Y245563D01*
X48974Y245537D01*
X48953Y245526D01*
X48931Y245503D01*
X48875Y245458D01*
X24788Y221370D01*
X24735Y221296D01*
X24675Y221227D01*
X24663Y221197D01*
X24644Y221170D01*
X24617Y221084D01*
X24583Y220999D01*
X24579Y220958D01*
X24572Y220935D01*
X24573Y220903D01*
X24565Y220832D01*
X24565Y218605D01*
X23145Y215178D01*
X20522Y212555D01*
X17095Y211135D01*
X13385Y211135D01*
X11213Y212035D01*
X11169Y212045D01*
X11127Y212065D01*
X11050Y212073D01*
X10974Y212091D01*
X10928Y212087D01*
X10883Y212092D01*
X10806Y212075D01*
X10729Y212068D01*
X10687Y212049D01*
X10642Y212040D01*
X10575Y212000D01*
X10504Y211968D01*
X10470Y211937D01*
X10431Y211913D01*
X10380Y211854D01*
X10323Y211802D01*
X10301Y211761D01*
X10271Y211726D01*
X10242Y211654D01*
X10205Y211586D01*
X10196Y211541D01*
X10179Y211498D01*
X10164Y211362D01*
X10161Y211344D01*
X10162Y211339D01*
X10161Y211332D01*
X10161Y204188D01*
X10168Y204143D01*
X10166Y204097D01*
X10188Y204022D01*
X10200Y203946D01*
X10222Y203905D01*
X10235Y203861D01*
X10279Y203797D01*
X10316Y203728D01*
X10349Y203697D01*
X10375Y203659D01*
X10437Y203613D01*
X10494Y203559D01*
X10536Y203540D01*
X10572Y203512D01*
X10646Y203488D01*
X10717Y203455D01*
X10763Y203450D01*
X10806Y203436D01*
X10884Y203437D01*
X10961Y203428D01*
X11006Y203438D01*
X11052Y203438D01*
X11184Y203476D01*
X11202Y203480D01*
X11206Y203483D01*
X11213Y203485D01*
X13385Y204385D01*
X17095Y204385D01*
X20522Y202965D01*
X20584Y202903D01*
X20600Y202891D01*
X20613Y202876D01*
X20700Y202820D01*
X20784Y202760D01*
X20803Y202754D01*
X20820Y202743D01*
X20920Y202718D01*
X21019Y202687D01*
X21039Y202688D01*
X21058Y202683D01*
X21161Y202691D01*
X21265Y202694D01*
X21284Y202700D01*
X21303Y202702D01*
X21398Y202742D01*
X21496Y202778D01*
X21511Y202791D01*
X21530Y202798D01*
X21661Y202903D01*
X24795Y206038D01*
X27102Y208344D01*
X93779Y208344D01*
X93869Y208359D01*
X93960Y208366D01*
X93990Y208379D01*
X94022Y208384D01*
X94102Y208427D01*
X94186Y208462D01*
X94218Y208488D01*
X94239Y208499D01*
X94261Y208522D01*
X94317Y208567D01*
X124010Y238260D01*
X124063Y238334D01*
X124123Y238404D01*
X124135Y238434D01*
X124154Y238460D01*
X124181Y238547D01*
X124215Y238632D01*
X124219Y238673D01*
X124226Y238695D01*
X124225Y238727D01*
X124233Y238799D01*
X124233Y240958D01*
X127342Y244067D01*
X131738Y244067D01*
X134847Y240958D01*
X134847Y236562D01*
X131738Y233453D01*
X129579Y233453D01*
X129488Y233439D01*
X129398Y233431D01*
X129368Y233419D01*
X129336Y233414D01*
X129255Y233371D01*
X129171Y233335D01*
X129139Y233309D01*
X129118Y233298D01*
X129096Y233275D01*
X129040Y233230D01*
X99347Y203537D01*
X99104Y203294D01*
X99062Y203236D01*
X99013Y203184D01*
X98991Y203136D01*
X98960Y203094D01*
X98939Y203025D01*
X98909Y202960D01*
X98903Y202909D01*
X98888Y202859D01*
X98890Y202787D01*
X98882Y202716D01*
X98893Y202665D01*
X98894Y202613D01*
X98919Y202546D01*
X98934Y202476D01*
X98961Y202431D01*
X98979Y202382D01*
X99023Y202326D01*
X99060Y202265D01*
X99100Y202231D01*
X99132Y202190D01*
X99193Y202151D01*
X99247Y202105D01*
X99296Y202085D01*
X99339Y202057D01*
X99409Y202040D01*
X99475Y202013D01*
X99547Y202005D01*
X99578Y201997D01*
X99601Y201999D01*
X99642Y201994D01*
X201498Y201994D01*
X218333Y185160D01*
X218349Y185148D01*
X218362Y185132D01*
X218449Y185076D01*
X218533Y185016D01*
X218552Y185010D01*
X218568Y184999D01*
X218669Y184974D01*
X218768Y184944D01*
X218788Y184944D01*
X218807Y184939D01*
X218910Y184947D01*
X219014Y184950D01*
X219032Y184957D01*
X219052Y184959D01*
X219147Y184999D01*
X219245Y185035D01*
X219260Y185047D01*
X219279Y185055D01*
X219409Y185160D01*
X219417Y185167D01*
X227624Y185167D01*
X233427Y179364D01*
X233427Y171156D01*
X227624Y165353D01*
X219416Y165353D01*
X213613Y171156D01*
X213613Y179504D01*
X213599Y179594D01*
X213591Y179685D01*
X213579Y179715D01*
X213574Y179747D01*
X213531Y179827D01*
X213495Y179911D01*
X213469Y179943D01*
X213458Y179964D01*
X213435Y179986D01*
X213390Y180042D01*
X198775Y194658D01*
X198701Y194711D01*
X198631Y194770D01*
X198601Y194783D01*
X198575Y194801D01*
X198488Y194828D01*
X198403Y194862D01*
X198362Y194867D01*
X198340Y194874D01*
X198308Y194873D01*
X198236Y194881D01*
X65289Y194881D01*
X65198Y194866D01*
X65108Y194859D01*
X65078Y194846D01*
X65046Y194841D01*
X64965Y194798D01*
X64881Y194763D01*
X64849Y194737D01*
X64828Y194726D01*
X64806Y194703D01*
X64750Y194658D01*
X57291Y187198D01*
X57223Y187104D01*
X57153Y187009D01*
X57151Y187003D01*
X57147Y186998D01*
X57113Y186887D01*
X57076Y186776D01*
X57077Y186769D01*
X57075Y186763D01*
X57078Y186647D01*
X57079Y186530D01*
X57081Y186522D01*
X57081Y186517D01*
X57087Y186500D01*
X57126Y186369D01*
X57786Y184775D01*
X57786Y180985D01*
X56336Y177484D01*
X53656Y174804D01*
X50155Y173354D01*
X46365Y173354D01*
X42864Y174804D01*
X40184Y177484D01*
X38734Y180985D01*
X38734Y184775D01*
X40184Y188276D01*
X42864Y190956D01*
X46365Y192406D01*
X50155Y192406D01*
X51299Y191932D01*
X51413Y191905D01*
X51527Y191876D01*
X51533Y191877D01*
X51539Y191875D01*
X51655Y191886D01*
X51772Y191895D01*
X51778Y191898D01*
X51784Y191898D01*
X51891Y191946D01*
X51998Y191992D01*
X52004Y191996D01*
X52009Y191998D01*
X52022Y192011D01*
X52129Y192097D01*
X59720Y199688D01*
X59964Y199931D01*
X60006Y199989D01*
X60055Y200041D01*
X60077Y200089D01*
X60107Y200131D01*
X60128Y200200D01*
X60159Y200265D01*
X60164Y200316D01*
X60180Y200366D01*
X60178Y200438D01*
X60186Y200509D01*
X60175Y200560D01*
X60173Y200612D01*
X60149Y200679D01*
X60133Y200749D01*
X60107Y200794D01*
X60089Y200843D01*
X60044Y200899D01*
X60007Y200960D01*
X59968Y200994D01*
X59935Y201035D01*
X59875Y201074D01*
X59820Y201120D01*
X59772Y201140D01*
X59728Y201168D01*
X59659Y201185D01*
X59592Y201212D01*
X59521Y201220D01*
X59490Y201228D01*
X59466Y201226D01*
X59425Y201231D01*
X30364Y201231D01*
X30273Y201216D01*
X30183Y201209D01*
X30153Y201196D01*
X30121Y201191D01*
X30040Y201148D01*
X29956Y201113D01*
X29924Y201087D01*
X29903Y201076D01*
X29881Y201053D01*
X29825Y201008D01*
X24788Y195970D01*
X24735Y195896D01*
X24675Y195827D01*
X24663Y195797D01*
X24644Y195771D01*
X24617Y195683D01*
X24583Y195599D01*
X24579Y195558D01*
X24572Y195535D01*
X24573Y195503D01*
X24565Y195432D01*
X24565Y193205D01*
X23145Y189778D01*
X20522Y187155D01*
X17095Y185735D01*
X13385Y185735D01*
X11213Y186635D01*
X11169Y186645D01*
X11127Y186665D01*
X11050Y186673D01*
X10974Y186691D01*
X10928Y186687D01*
X10883Y186692D01*
X10806Y186675D01*
X10729Y186668D01*
X10687Y186649D01*
X10642Y186640D01*
X10575Y186600D01*
X10504Y186568D01*
X10470Y186537D01*
X10431Y186513D01*
X10380Y186454D01*
X10323Y186402D01*
X10301Y186361D01*
X10271Y186326D01*
X10242Y186254D01*
X10205Y186186D01*
X10196Y186141D01*
X10179Y186098D01*
X10164Y185962D01*
X10161Y185944D01*
X10162Y185939D01*
X10161Y185932D01*
X10161Y178788D01*
X10168Y178743D01*
X10166Y178697D01*
X10188Y178622D01*
X10200Y178546D01*
X10222Y178505D01*
X10235Y178461D01*
X10279Y178397D01*
X10316Y178328D01*
X10349Y178297D01*
X10375Y178259D01*
X10437Y178213D01*
X10494Y178159D01*
X10536Y178140D01*
X10572Y178112D01*
X10646Y178088D01*
X10717Y178055D01*
X10763Y178050D01*
X10806Y178036D01*
X10884Y178037D01*
X10961Y178028D01*
X11006Y178038D01*
X11052Y178038D01*
X11184Y178076D01*
X11202Y178080D01*
X11206Y178083D01*
X11213Y178085D01*
X13385Y178985D01*
X17095Y178985D01*
X20522Y177565D01*
X23145Y174942D01*
X24565Y171515D01*
X24565Y167805D01*
X23145Y164378D01*
X20522Y161755D01*
X17095Y160335D01*
X13385Y160335D01*
X11213Y161235D01*
X11169Y161245D01*
X11127Y161265D01*
X11050Y161273D01*
X10974Y161291D01*
X10928Y161287D01*
X10883Y161292D01*
X10806Y161275D01*
X10729Y161268D01*
X10687Y161249D01*
X10642Y161240D01*
X10575Y161200D01*
X10504Y161168D01*
X10470Y161137D01*
X10431Y161113D01*
X10380Y161054D01*
X10323Y161002D01*
X10301Y160961D01*
X10271Y160926D01*
X10242Y160854D01*
X10205Y160786D01*
X10196Y160741D01*
X10179Y160698D01*
X10164Y160562D01*
X10161Y160544D01*
X10162Y160539D01*
X10161Y160532D01*
X10161Y153388D01*
X10168Y153343D01*
X10166Y153297D01*
X10188Y153222D01*
X10200Y153146D01*
X10222Y153105D01*
X10235Y153061D01*
X10279Y152997D01*
X10316Y152928D01*
X10349Y152897D01*
X10375Y152859D01*
X10437Y152813D01*
X10494Y152759D01*
X10536Y152740D01*
X10572Y152712D01*
X10646Y152688D01*
X10717Y152655D01*
X10763Y152650D01*
X10806Y152636D01*
X10884Y152637D01*
X10961Y152628D01*
X11006Y152638D01*
X11052Y152638D01*
X11184Y152676D01*
X11202Y152680D01*
X11206Y152683D01*
X11213Y152685D01*
X13385Y153585D01*
X17095Y153585D01*
X20522Y152165D01*
X23145Y149542D01*
X24565Y146115D01*
X24565Y142405D01*
X23145Y138978D01*
X20522Y136355D01*
X17095Y134935D01*
X13385Y134935D01*
X11213Y135835D01*
X11169Y135845D01*
X11127Y135865D01*
X11050Y135873D01*
X10974Y135891D01*
X10928Y135887D01*
X10883Y135892D01*
X10806Y135875D01*
X10729Y135868D01*
X10687Y135849D01*
X10642Y135840D01*
X10575Y135800D01*
X10504Y135768D01*
X10470Y135737D01*
X10431Y135713D01*
X10380Y135654D01*
X10323Y135602D01*
X10301Y135561D01*
X10271Y135526D01*
X10242Y135454D01*
X10205Y135386D01*
X10196Y135341D01*
X10179Y135298D01*
X10164Y135162D01*
X10161Y135144D01*
X10162Y135139D01*
X10161Y135132D01*
X10161Y127988D01*
X10168Y127943D01*
X10166Y127897D01*
X10188Y127822D01*
X10200Y127746D01*
X10222Y127705D01*
X10235Y127661D01*
X10279Y127597D01*
X10316Y127528D01*
X10349Y127497D01*
X10375Y127459D01*
X10437Y127413D01*
X10494Y127359D01*
X10536Y127340D01*
X10572Y127312D01*
X10646Y127288D01*
X10717Y127255D01*
X10763Y127250D01*
X10806Y127236D01*
X10884Y127237D01*
X10961Y127228D01*
X11006Y127238D01*
X11052Y127238D01*
X11184Y127276D01*
X11202Y127280D01*
X11206Y127283D01*
X11213Y127285D01*
X13385Y128185D01*
X17095Y128185D01*
X20522Y126765D01*
X23145Y124142D01*
X24565Y120715D01*
X24565Y117005D01*
X23145Y113578D01*
X20522Y110955D01*
X17095Y109535D01*
X13385Y109535D01*
X11213Y110435D01*
X11169Y110445D01*
X11127Y110465D01*
X11050Y110473D01*
X10974Y110491D01*
X10928Y110487D01*
X10883Y110492D01*
X10806Y110475D01*
X10729Y110468D01*
X10687Y110449D01*
X10642Y110440D01*
X10575Y110400D01*
X10504Y110368D01*
X10470Y110337D01*
X10431Y110313D01*
X10380Y110254D01*
X10323Y110202D01*
X10301Y110161D01*
X10271Y110126D01*
X10242Y110054D01*
X10205Y109986D01*
X10196Y109941D01*
X10179Y109898D01*
X10164Y109762D01*
X10161Y109744D01*
X10162Y109739D01*
X10161Y109732D01*
X10161Y102588D01*
X10168Y102543D01*
X10166Y102497D01*
X10188Y102422D01*
X10200Y102346D01*
X10222Y102305D01*
X10235Y102261D01*
X10279Y102197D01*
X10316Y102128D01*
X10349Y102097D01*
X10375Y102059D01*
X10437Y102013D01*
X10494Y101959D01*
X10536Y101940D01*
X10572Y101912D01*
X10646Y101888D01*
X10717Y101855D01*
X10763Y101850D01*
X10806Y101836D01*
X10884Y101837D01*
X10961Y101828D01*
X11006Y101838D01*
X11052Y101838D01*
X11184Y101876D01*
X11202Y101880D01*
X11206Y101883D01*
X11213Y101885D01*
X13385Y102785D01*
X17095Y102785D01*
X20522Y101365D01*
X23145Y98742D01*
X24565Y95315D01*
X24565Y91605D01*
X23145Y88178D01*
X20522Y85555D01*
X17095Y84135D01*
X13385Y84135D01*
X11213Y85035D01*
X11169Y85045D01*
X11127Y85065D01*
X11050Y85073D01*
X10974Y85091D01*
X10928Y85087D01*
X10883Y85092D01*
X10806Y85075D01*
X10729Y85068D01*
X10687Y85049D01*
X10642Y85040D01*
X10575Y85000D01*
X10504Y84968D01*
X10470Y84937D01*
X10431Y84913D01*
X10380Y84854D01*
X10323Y84802D01*
X10301Y84761D01*
X10271Y84726D01*
X10242Y84654D01*
X10205Y84586D01*
X10196Y84541D01*
X10179Y84498D01*
X10164Y84362D01*
X10161Y84344D01*
X10162Y84339D01*
X10161Y84332D01*
X10161Y77188D01*
X10168Y77143D01*
X10166Y77097D01*
X10188Y77022D01*
X10200Y76946D01*
X10222Y76905D01*
X10235Y76861D01*
X10279Y76797D01*
X10316Y76728D01*
X10349Y76697D01*
X10375Y76659D01*
X10437Y76613D01*
X10494Y76559D01*
X10536Y76540D01*
X10572Y76512D01*
X10646Y76488D01*
X10717Y76455D01*
X10763Y76450D01*
X10806Y76436D01*
X10884Y76437D01*
X10961Y76428D01*
X11006Y76438D01*
X11052Y76438D01*
X11184Y76476D01*
X11202Y76480D01*
X11206Y76483D01*
X11213Y76485D01*
X13385Y77385D01*
X17095Y77385D01*
X20522Y75965D01*
X23145Y73342D01*
X24565Y69915D01*
X24565Y66205D01*
X23145Y62778D01*
X20522Y60155D01*
X17095Y58735D01*
X13385Y58735D01*
X11213Y59635D01*
X11169Y59645D01*
X11127Y59665D01*
X11050Y59673D01*
X10974Y59691D01*
X10928Y59687D01*
X10883Y59692D01*
X10806Y59675D01*
X10729Y59668D01*
X10687Y59649D01*
X10642Y59640D01*
X10575Y59600D01*
X10504Y59568D01*
X10470Y59537D01*
X10431Y59513D01*
X10380Y59454D01*
X10323Y59402D01*
X10301Y59361D01*
X10271Y59326D01*
X10242Y59254D01*
X10205Y59186D01*
X10196Y59141D01*
X10179Y59098D01*
X10164Y58962D01*
X10161Y58944D01*
X10162Y58939D01*
X10161Y58932D01*
X10161Y51788D01*
X10168Y51743D01*
X10166Y51697D01*
X10188Y51622D01*
X10200Y51546D01*
X10222Y51505D01*
X10235Y51461D01*
X10279Y51397D01*
X10316Y51328D01*
X10349Y51297D01*
X10375Y51259D01*
X10437Y51213D01*
X10494Y51159D01*
X10536Y51140D01*
X10572Y51112D01*
X10646Y51088D01*
X10717Y51055D01*
X10763Y51050D01*
X10806Y51036D01*
X10884Y51037D01*
X10961Y51028D01*
X11006Y51038D01*
X11052Y51038D01*
X11184Y51076D01*
X11202Y51080D01*
X11206Y51083D01*
X11213Y51085D01*
X13385Y51985D01*
X17095Y51985D01*
X20522Y50565D01*
X23145Y47942D01*
X24565Y44515D01*
X24565Y40805D01*
X23145Y37378D01*
X20522Y34755D01*
X17095Y33335D01*
X13385Y33335D01*
X11213Y34235D01*
X11169Y34245D01*
X11127Y34265D01*
X11050Y34273D01*
X10974Y34291D01*
X10928Y34287D01*
X10883Y34292D01*
X10806Y34275D01*
X10729Y34268D01*
X10687Y34249D01*
X10642Y34240D01*
X10575Y34200D01*
X10504Y34168D01*
X10470Y34137D01*
X10431Y34113D01*
X10380Y34054D01*
X10323Y34002D01*
X10301Y33961D01*
X10271Y33926D01*
X10242Y33854D01*
X10205Y33786D01*
X10196Y33741D01*
X10179Y33698D01*
X10164Y33562D01*
X10161Y33544D01*
X10162Y33539D01*
X10161Y33532D01*
X10161Y26388D01*
X10168Y26343D01*
X10166Y26297D01*
X10188Y26222D01*
X10200Y26146D01*
X10222Y26105D01*
X10235Y26061D01*
X10279Y25997D01*
X10316Y25928D01*
X10349Y25897D01*
X10375Y25859D01*
X10437Y25813D01*
X10494Y25759D01*
X10536Y25740D01*
X10572Y25712D01*
X10646Y25688D01*
X10717Y25655D01*
X10763Y25650D01*
X10806Y25636D01*
X10884Y25637D01*
X10961Y25628D01*
X11006Y25638D01*
X11052Y25638D01*
X11184Y25676D01*
X11202Y25680D01*
X11206Y25683D01*
X11213Y25685D01*
X13385Y26585D01*
X17095Y26585D01*
X20522Y25165D01*
X23145Y22542D01*
X23244Y22303D01*
X23306Y22203D01*
X23366Y22103D01*
X23371Y22099D01*
X23374Y22094D01*
X23464Y22019D01*
X23553Y21943D01*
X23559Y21941D01*
X23563Y21937D01*
X23672Y21895D01*
X23781Y21851D01*
X23788Y21850D01*
X23793Y21849D01*
X23811Y21848D01*
X23948Y21833D01*
X70077Y21833D01*
X70148Y21844D01*
X70219Y21846D01*
X70268Y21864D01*
X70320Y21872D01*
X70383Y21906D01*
X70450Y21931D01*
X70491Y21963D01*
X70537Y21988D01*
X70586Y22040D01*
X70642Y22084D01*
X70671Y22128D01*
X70706Y22166D01*
X70737Y22231D01*
X70775Y22291D01*
X70788Y22342D01*
X70810Y22389D01*
X70818Y22460D01*
X70835Y22530D01*
X70831Y22582D01*
X70837Y22633D01*
X70822Y22704D01*
X70816Y22775D01*
X70796Y22823D01*
X70785Y22874D01*
X70748Y22935D01*
X70720Y23001D01*
X70675Y23057D01*
X70659Y23085D01*
X70641Y23100D01*
X70615Y23132D01*
X68447Y25300D01*
X67055Y28661D01*
X67055Y47539D01*
X68447Y50900D01*
X71020Y53473D01*
X74381Y54865D01*
X78019Y54865D01*
X81380Y53473D01*
X83953Y50900D01*
X85345Y47539D01*
X85345Y30149D01*
X85356Y30079D01*
X85358Y30007D01*
X85376Y29958D01*
X85384Y29907D01*
X85418Y29843D01*
X85443Y29776D01*
X85475Y29735D01*
X85500Y29689D01*
X85552Y29640D01*
X85596Y29584D01*
X85640Y29556D01*
X85678Y29520D01*
X85743Y29490D01*
X85803Y29451D01*
X85854Y29438D01*
X85901Y29416D01*
X85972Y29408D01*
X86042Y29391D01*
X86094Y29395D01*
X86145Y29389D01*
X86216Y29404D01*
X86287Y29410D01*
X86335Y29430D01*
X86386Y29441D01*
X86447Y29478D01*
X86513Y29506D01*
X86569Y29551D01*
X86597Y29568D01*
X86612Y29585D01*
X86644Y29611D01*
X92232Y35199D01*
X92285Y35273D01*
X92345Y35343D01*
X92357Y35373D01*
X92376Y35399D01*
X92403Y35486D01*
X92437Y35571D01*
X92441Y35612D01*
X92448Y35634D01*
X92447Y35666D01*
X92455Y35737D01*
X92455Y47539D01*
X93847Y50900D01*
X96420Y53473D01*
X99781Y54865D01*
X103419Y54865D01*
X106780Y53473D01*
X109353Y50900D01*
X110745Y47539D01*
X110745Y28661D01*
X109353Y25300D01*
X106780Y22727D01*
X103419Y21335D01*
X99781Y21335D01*
X96420Y22727D01*
X95095Y24052D01*
X95079Y24064D01*
X95067Y24079D01*
X94980Y24135D01*
X94896Y24196D01*
X94877Y24201D01*
X94860Y24212D01*
X94759Y24237D01*
X94661Y24268D01*
X94641Y24267D01*
X94621Y24272D01*
X94518Y24264D01*
X94415Y24262D01*
X94396Y24255D01*
X94376Y24253D01*
X94281Y24213D01*
X94184Y24177D01*
X94168Y24165D01*
X94150Y24157D01*
X94019Y24052D01*
X82654Y12687D01*
X23948Y12687D01*
X23833Y12668D01*
X23717Y12651D01*
X23711Y12649D01*
X23705Y12648D01*
X23603Y12593D01*
X23497Y12540D01*
X23493Y12535D01*
X23487Y12532D01*
X23407Y12448D01*
X23325Y12364D01*
X23322Y12358D01*
X23318Y12354D01*
X23310Y12337D01*
X23244Y12217D01*
X23145Y11978D01*
X22627Y11460D01*
X22586Y11402D01*
X22536Y11350D01*
X22514Y11303D01*
X22484Y11261D01*
X22463Y11192D01*
X22433Y11127D01*
X22427Y11075D01*
X22412Y11025D01*
X22413Y10954D01*
X22405Y10883D01*
X22417Y10832D01*
X22418Y10780D01*
X22442Y10712D01*
X22458Y10642D01*
X22484Y10597D01*
X22502Y10549D01*
X22547Y10493D01*
X22584Y10431D01*
X22623Y10397D01*
X22656Y10357D01*
X22716Y10318D01*
X22771Y10271D01*
X22819Y10252D01*
X22863Y10224D01*
X22932Y10206D01*
X22999Y10179D01*
X23070Y10171D01*
X23101Y10163D01*
X23125Y10165D01*
X23166Y10161D01*
X261314Y10161D01*
X261385Y10172D01*
G37*
%LPC*%
G36*
X838921Y138175D02*
X838921Y138175D01*
X835560Y139567D01*
X832987Y142140D01*
X831595Y145501D01*
X831595Y161597D01*
X831581Y161687D01*
X831573Y161778D01*
X831561Y161808D01*
X831556Y161840D01*
X831513Y161920D01*
X831477Y162004D01*
X831451Y162036D01*
X831440Y162057D01*
X831417Y162079D01*
X831372Y162135D01*
X814725Y178783D01*
X814651Y178836D01*
X814581Y178895D01*
X814551Y178908D01*
X814525Y178926D01*
X814438Y178953D01*
X814353Y178987D01*
X814312Y178992D01*
X814290Y178999D01*
X814258Y178998D01*
X814186Y179006D01*
X673214Y179006D01*
X620331Y231889D01*
X620331Y247449D01*
X620316Y247539D01*
X620309Y247630D01*
X620296Y247660D01*
X620291Y247692D01*
X620248Y247772D01*
X620213Y247856D01*
X620187Y247888D01*
X620176Y247909D01*
X620153Y247931D01*
X620108Y247987D01*
X551200Y316895D01*
X551126Y316948D01*
X551056Y317008D01*
X551026Y317020D01*
X551000Y317039D01*
X550913Y317066D01*
X550828Y317100D01*
X550787Y317104D01*
X550765Y317111D01*
X550733Y317110D01*
X550661Y317118D01*
X336051Y317118D01*
X335961Y317104D01*
X335870Y317096D01*
X335840Y317084D01*
X335808Y317079D01*
X335728Y317036D01*
X335644Y317000D01*
X335611Y316974D01*
X335591Y316963D01*
X335569Y316940D01*
X335513Y316895D01*
X333986Y315368D01*
X329589Y315368D01*
X326481Y318477D01*
X326481Y322873D01*
X327364Y323756D01*
X327406Y323814D01*
X327455Y323866D01*
X327477Y323914D01*
X327507Y323956D01*
X327529Y324024D01*
X327559Y324090D01*
X327564Y324141D01*
X327580Y324191D01*
X327578Y324263D01*
X327586Y324334D01*
X327575Y324385D01*
X327573Y324437D01*
X327549Y324504D01*
X327534Y324574D01*
X327507Y324619D01*
X327489Y324668D01*
X327444Y324724D01*
X327407Y324785D01*
X327368Y324819D01*
X327335Y324860D01*
X327275Y324899D01*
X327220Y324945D01*
X327172Y324965D01*
X327128Y324993D01*
X327059Y325010D01*
X326992Y325037D01*
X326921Y325045D01*
X326890Y325053D01*
X326867Y325051D01*
X326826Y325056D01*
X303327Y325056D01*
X279864Y348518D01*
X279806Y348560D01*
X279754Y348609D01*
X279707Y348631D01*
X279665Y348662D01*
X279596Y348683D01*
X279531Y348713D01*
X279479Y348719D01*
X279429Y348734D01*
X279358Y348732D01*
X279287Y348740D01*
X279236Y348729D01*
X279184Y348728D01*
X279116Y348703D01*
X279046Y348688D01*
X279001Y348661D01*
X278953Y348643D01*
X278897Y348598D01*
X278835Y348562D01*
X278801Y348522D01*
X278761Y348490D01*
X278722Y348429D01*
X278675Y348375D01*
X278656Y348327D01*
X278628Y348283D01*
X278610Y348213D01*
X278583Y348147D01*
X278575Y348075D01*
X278567Y348044D01*
X278569Y348021D01*
X278565Y347980D01*
X278565Y345605D01*
X277825Y343819D01*
X277798Y343706D01*
X277770Y343592D01*
X277770Y343586D01*
X277769Y343580D01*
X277780Y343463D01*
X277789Y343347D01*
X277791Y343341D01*
X277792Y343335D01*
X277840Y343228D01*
X277885Y343121D01*
X277890Y343115D01*
X277892Y343110D01*
X277905Y343097D01*
X277990Y342990D01*
X310495Y310485D01*
X310569Y310432D01*
X310639Y310372D01*
X310669Y310360D01*
X310695Y310341D01*
X310782Y310314D01*
X310867Y310280D01*
X310908Y310276D01*
X310930Y310269D01*
X310962Y310270D01*
X311034Y310262D01*
X446904Y310262D01*
X446994Y310276D01*
X447085Y310284D01*
X447115Y310296D01*
X447147Y310301D01*
X447227Y310344D01*
X447311Y310380D01*
X447343Y310406D01*
X447364Y310417D01*
X447386Y310440D01*
X447442Y310485D01*
X448969Y312012D01*
X453366Y312012D01*
X456474Y308903D01*
X456474Y304507D01*
X453366Y301398D01*
X448969Y301398D01*
X447442Y302925D01*
X447368Y302978D01*
X447299Y303038D01*
X447269Y303050D01*
X447243Y303069D01*
X447156Y303096D01*
X447071Y303130D01*
X447030Y303134D01*
X447008Y303141D01*
X446975Y303140D01*
X446904Y303148D01*
X307772Y303148D01*
X272649Y338271D01*
X272555Y338339D01*
X272461Y338409D01*
X272455Y338410D01*
X272450Y338414D01*
X272338Y338448D01*
X272227Y338485D01*
X272221Y338485D01*
X272215Y338486D01*
X272098Y338483D01*
X271981Y338482D01*
X271974Y338480D01*
X271969Y338480D01*
X271951Y338474D01*
X271820Y338436D01*
X271095Y338135D01*
X267385Y338135D01*
X263958Y339555D01*
X261335Y342178D01*
X259915Y345605D01*
X259915Y349315D01*
X261335Y352742D01*
X263988Y355395D01*
X264069Y355438D01*
X264087Y355457D01*
X264109Y355471D01*
X264171Y355546D01*
X264238Y355616D01*
X264249Y355640D01*
X264266Y355660D01*
X264301Y355751D01*
X264342Y355840D01*
X264345Y355865D01*
X264354Y355890D01*
X264358Y355987D01*
X264369Y356084D01*
X264364Y356109D01*
X264365Y356135D01*
X264338Y356229D01*
X264317Y356324D01*
X264304Y356347D01*
X264296Y356372D01*
X264241Y356452D01*
X264191Y356535D01*
X264171Y356552D01*
X264156Y356574D01*
X264078Y356632D01*
X264004Y356695D01*
X263980Y356705D01*
X263959Y356721D01*
X263866Y356751D01*
X263776Y356787D01*
X263743Y356791D01*
X263725Y356797D01*
X263692Y356797D01*
X263609Y356806D01*
X208164Y356806D01*
X208073Y356791D01*
X207983Y356784D01*
X207953Y356771D01*
X207921Y356766D01*
X207840Y356723D01*
X207756Y356688D01*
X207724Y356662D01*
X207703Y356651D01*
X207681Y356628D01*
X207625Y356583D01*
X205555Y354512D01*
X205502Y354438D01*
X205442Y354369D01*
X205430Y354339D01*
X205411Y354313D01*
X205384Y354225D01*
X205350Y354141D01*
X205346Y354100D01*
X205339Y354077D01*
X205340Y354045D01*
X205332Y353974D01*
X205332Y351814D01*
X202223Y348706D01*
X201087Y348706D01*
X201016Y348694D01*
X200945Y348692D01*
X200896Y348674D01*
X200844Y348666D01*
X200781Y348633D01*
X200714Y348608D01*
X200673Y348575D01*
X200627Y348551D01*
X200578Y348499D01*
X200522Y348454D01*
X200493Y348410D01*
X200458Y348373D01*
X200427Y348308D01*
X200389Y348247D01*
X200376Y348197D01*
X200354Y348150D01*
X200346Y348078D01*
X200328Y348009D01*
X200333Y347957D01*
X200327Y347905D01*
X200342Y347835D01*
X200348Y347764D01*
X200368Y347716D01*
X200379Y347665D01*
X200416Y347603D01*
X200444Y347537D01*
X200489Y347481D01*
X200505Y347454D01*
X200523Y347438D01*
X200549Y347406D01*
X210800Y337155D01*
X210874Y337102D01*
X210944Y337042D01*
X210974Y337030D01*
X211000Y337011D01*
X211087Y336984D01*
X211172Y336950D01*
X211213Y336946D01*
X211235Y336939D01*
X211267Y336940D01*
X211339Y336932D01*
X231661Y336932D01*
X255969Y312623D01*
X255969Y293188D01*
X255984Y293098D01*
X255991Y293007D01*
X256004Y292978D01*
X256009Y292946D01*
X256052Y292865D01*
X256087Y292781D01*
X256113Y292749D01*
X256124Y292728D01*
X256147Y292706D01*
X256192Y292650D01*
X257719Y291123D01*
X257719Y288480D01*
X257722Y288461D01*
X257720Y288441D01*
X257742Y288340D01*
X257759Y288238D01*
X257768Y288220D01*
X257773Y288201D01*
X257826Y288112D01*
X257874Y288020D01*
X257888Y288007D01*
X257899Y287990D01*
X257977Y287922D01*
X258052Y287851D01*
X258070Y287843D01*
X258086Y287830D01*
X258182Y287791D01*
X258275Y287747D01*
X258295Y287745D01*
X258314Y287738D01*
X258480Y287719D01*
X263156Y287719D01*
X263227Y287731D01*
X263298Y287733D01*
X263347Y287751D01*
X263399Y287759D01*
X263462Y287793D01*
X263529Y287817D01*
X263570Y287850D01*
X263616Y287874D01*
X263665Y287926D01*
X263721Y287971D01*
X263749Y288015D01*
X263785Y288052D01*
X263815Y288117D01*
X263854Y288178D01*
X263867Y288228D01*
X263889Y288275D01*
X263897Y288347D01*
X263914Y288416D01*
X263910Y288468D01*
X263916Y288520D01*
X263901Y288590D01*
X263895Y288661D01*
X263875Y288709D01*
X263864Y288760D01*
X263827Y288822D01*
X263799Y288888D01*
X263754Y288944D01*
X263738Y288971D01*
X263720Y288987D01*
X263694Y289019D01*
X261335Y291378D01*
X259915Y294805D01*
X259915Y298515D01*
X261335Y301942D01*
X263958Y304565D01*
X267385Y305985D01*
X271095Y305985D01*
X274522Y304565D01*
X277145Y301942D01*
X278565Y298515D01*
X278565Y294805D01*
X277145Y291378D01*
X274543Y288776D01*
X274531Y288760D01*
X274516Y288747D01*
X274460Y288660D01*
X274400Y288576D01*
X274394Y288557D01*
X274383Y288540D01*
X274358Y288440D01*
X274327Y288341D01*
X274328Y288321D01*
X274323Y288302D01*
X274331Y288199D01*
X274334Y288095D01*
X274340Y288076D01*
X274342Y288057D01*
X274382Y287962D01*
X274418Y287864D01*
X274431Y287849D01*
X274438Y287830D01*
X274543Y287699D01*
X276830Y285413D01*
X277475Y284767D01*
X277549Y284714D01*
X277619Y284655D01*
X277649Y284642D01*
X277675Y284624D01*
X277762Y284597D01*
X277847Y284563D01*
X277888Y284558D01*
X277910Y284551D01*
X277942Y284552D01*
X278014Y284544D01*
X345874Y284544D01*
X345964Y284559D01*
X346055Y284566D01*
X346085Y284579D01*
X346117Y284584D01*
X346197Y284627D01*
X346281Y284662D01*
X346313Y284688D01*
X346334Y284699D01*
X346356Y284722D01*
X346412Y284767D01*
X357302Y295657D01*
X528490Y295657D01*
X528604Y295676D01*
X528721Y295693D01*
X528726Y295695D01*
X528732Y295696D01*
X528835Y295751D01*
X528940Y295804D01*
X528944Y295809D01*
X528950Y295812D01*
X529030Y295896D01*
X529112Y295980D01*
X529116Y295986D01*
X529119Y295990D01*
X529127Y296007D01*
X529193Y296127D01*
X530318Y298842D01*
X533278Y301802D01*
X537147Y303405D01*
X559333Y303405D01*
X563202Y301802D01*
X566162Y298842D01*
X567765Y294973D01*
X567765Y290787D01*
X566162Y286918D01*
X563202Y283958D01*
X559333Y282355D01*
X537147Y282355D01*
X533278Y283958D01*
X530318Y286918D01*
X529839Y288073D01*
X529777Y288173D01*
X529718Y288273D01*
X529713Y288277D01*
X529710Y288282D01*
X529619Y288357D01*
X529531Y288433D01*
X529525Y288435D01*
X529520Y288439D01*
X529412Y288481D01*
X529303Y288525D01*
X529295Y288526D01*
X529290Y288527D01*
X529272Y288528D01*
X529136Y288543D01*
X360564Y288543D01*
X360473Y288529D01*
X360383Y288521D01*
X360353Y288509D01*
X360321Y288504D01*
X360240Y288461D01*
X360156Y288425D01*
X360124Y288399D01*
X360103Y288388D01*
X360081Y288365D01*
X360025Y288320D01*
X351442Y279737D01*
X349611Y277906D01*
X349569Y277848D01*
X349520Y277796D01*
X349498Y277749D01*
X349468Y277707D01*
X349447Y277638D01*
X349416Y277573D01*
X349411Y277521D01*
X349395Y277471D01*
X349397Y277400D01*
X349389Y277329D01*
X349400Y277278D01*
X349402Y277226D01*
X349426Y277158D01*
X349442Y277088D01*
X349468Y277043D01*
X349486Y276995D01*
X349531Y276939D01*
X349568Y276877D01*
X349607Y276843D01*
X349640Y276803D01*
X349700Y276764D01*
X349755Y276717D01*
X349803Y276698D01*
X349847Y276670D01*
X349916Y276652D01*
X349983Y276625D01*
X350054Y276617D01*
X350085Y276609D01*
X350109Y276611D01*
X350150Y276607D01*
X367212Y276607D01*
X367302Y276621D01*
X367393Y276629D01*
X367422Y276641D01*
X367454Y276646D01*
X367535Y276689D01*
X367619Y276725D01*
X367651Y276751D01*
X367672Y276762D01*
X367694Y276785D01*
X367750Y276830D01*
X369277Y278357D01*
X373673Y278357D01*
X376782Y275248D01*
X376782Y270852D01*
X373673Y267743D01*
X369277Y267743D01*
X367750Y269270D01*
X367676Y269323D01*
X367606Y269383D01*
X367576Y269395D01*
X367550Y269414D01*
X367463Y269441D01*
X367378Y269475D01*
X367337Y269479D01*
X367315Y269486D01*
X367283Y269485D01*
X367212Y269493D01*
X316114Y269493D01*
X316023Y269479D01*
X315933Y269471D01*
X315903Y269459D01*
X315871Y269454D01*
X315790Y269411D01*
X315706Y269375D01*
X315674Y269349D01*
X315653Y269338D01*
X315631Y269315D01*
X315575Y269270D01*
X276111Y229806D01*
X274871Y229806D01*
X274775Y229790D01*
X274678Y229781D01*
X274654Y229770D01*
X274628Y229766D01*
X274542Y229720D01*
X274453Y229681D01*
X274434Y229663D01*
X274411Y229651D01*
X274344Y229580D01*
X274272Y229514D01*
X274259Y229491D01*
X274242Y229473D01*
X274201Y229384D01*
X274154Y229299D01*
X274149Y229273D01*
X274138Y229250D01*
X274127Y229153D01*
X274110Y229057D01*
X274114Y229031D01*
X274111Y229005D01*
X274132Y228910D01*
X274146Y228813D01*
X274158Y228790D01*
X274163Y228765D01*
X274213Y228681D01*
X274257Y228594D01*
X274276Y228576D01*
X274289Y228554D01*
X274363Y228490D01*
X274433Y228422D01*
X274461Y228406D01*
X274476Y228394D01*
X274505Y228382D01*
X277145Y225742D01*
X278565Y222315D01*
X278565Y220345D01*
X278576Y220274D01*
X278578Y220203D01*
X278596Y220154D01*
X278604Y220102D01*
X278638Y220039D01*
X278663Y219972D01*
X278695Y219931D01*
X278720Y219885D01*
X278772Y219836D01*
X278816Y219780D01*
X278860Y219751D01*
X278898Y219716D01*
X278963Y219685D01*
X279023Y219647D01*
X279074Y219634D01*
X279121Y219612D01*
X279192Y219604D01*
X279262Y219586D01*
X279314Y219591D01*
X279365Y219585D01*
X279436Y219600D01*
X279507Y219606D01*
X279555Y219626D01*
X279606Y219637D01*
X279667Y219674D01*
X279733Y219702D01*
X279789Y219747D01*
X279817Y219763D01*
X279832Y219781D01*
X279864Y219807D01*
X292924Y232867D01*
X304914Y244857D01*
X578158Y244857D01*
X578273Y244876D01*
X578389Y244893D01*
X578395Y244895D01*
X578401Y244896D01*
X578504Y244951D01*
X578608Y245004D01*
X578613Y245009D01*
X578618Y245012D01*
X578698Y245096D01*
X578781Y245180D01*
X578784Y245186D01*
X578788Y245190D01*
X578796Y245207D01*
X578862Y245327D01*
X580318Y248842D01*
X583278Y251802D01*
X587147Y253405D01*
X609333Y253405D01*
X613202Y251802D01*
X616162Y248842D01*
X617765Y244973D01*
X617765Y240787D01*
X616162Y236918D01*
X613202Y233958D01*
X609333Y232355D01*
X587147Y232355D01*
X583278Y233958D01*
X580318Y236918D01*
X580170Y237273D01*
X580109Y237372D01*
X580049Y237473D01*
X580044Y237477D01*
X580041Y237482D01*
X579951Y237557D01*
X579862Y237633D01*
X579856Y237635D01*
X579851Y237639D01*
X579743Y237681D01*
X579634Y237725D01*
X579626Y237726D01*
X579622Y237727D01*
X579603Y237728D01*
X579467Y237743D01*
X308176Y237743D01*
X308086Y237729D01*
X307995Y237721D01*
X307965Y237709D01*
X307933Y237704D01*
X307853Y237661D01*
X307769Y237625D01*
X307737Y237599D01*
X307716Y237588D01*
X307694Y237565D01*
X307638Y237520D01*
X276830Y206712D01*
X274310Y204192D01*
X274283Y204155D01*
X274249Y204124D01*
X274212Y204056D01*
X274166Y203993D01*
X274153Y203949D01*
X274131Y203908D01*
X274117Y203832D01*
X274094Y203758D01*
X274095Y203712D01*
X274087Y203666D01*
X274098Y203589D01*
X274100Y203512D01*
X274116Y203469D01*
X274123Y203423D01*
X274158Y203354D01*
X274185Y203281D01*
X274213Y203245D01*
X274234Y203204D01*
X274290Y203149D01*
X274338Y203089D01*
X274377Y203064D01*
X274410Y203032D01*
X274512Y202976D01*
X277145Y200342D01*
X278565Y196915D01*
X278565Y193205D01*
X277145Y189778D01*
X274522Y187155D01*
X271095Y185735D01*
X267385Y185735D01*
X263958Y187155D01*
X261335Y189778D01*
X259915Y193205D01*
X259915Y196915D01*
X261335Y200342D01*
X263988Y202995D01*
X264069Y203038D01*
X264087Y203057D01*
X264109Y203071D01*
X264171Y203146D01*
X264238Y203216D01*
X264249Y203240D01*
X264266Y203260D01*
X264301Y203351D01*
X264342Y203440D01*
X264345Y203465D01*
X264354Y203490D01*
X264358Y203587D01*
X264369Y203684D01*
X264364Y203709D01*
X264365Y203735D01*
X264338Y203829D01*
X264317Y203924D01*
X264304Y203947D01*
X264296Y203972D01*
X264241Y204052D01*
X264191Y204135D01*
X264171Y204152D01*
X264156Y204174D01*
X264078Y204232D01*
X264004Y204295D01*
X263980Y204305D01*
X263959Y204321D01*
X263866Y204351D01*
X263776Y204387D01*
X263743Y204391D01*
X263725Y204397D01*
X263692Y204397D01*
X263609Y204406D01*
X236652Y204406D01*
X171950Y269108D01*
X171876Y269161D01*
X171806Y269220D01*
X171776Y269233D01*
X171750Y269251D01*
X171663Y269278D01*
X171578Y269312D01*
X171537Y269317D01*
X171515Y269324D01*
X171483Y269323D01*
X171411Y269331D01*
X169252Y269331D01*
X166143Y272439D01*
X166143Y276836D01*
X169252Y279944D01*
X173648Y279944D01*
X176757Y276836D01*
X176757Y274676D01*
X176771Y274586D01*
X176779Y274495D01*
X176791Y274465D01*
X176796Y274433D01*
X176839Y274353D01*
X176875Y274269D01*
X176901Y274237D01*
X176912Y274216D01*
X176935Y274194D01*
X176980Y274138D01*
X217231Y233886D01*
X217289Y233844D01*
X217341Y233795D01*
X217389Y233773D01*
X217431Y233743D01*
X217499Y233722D01*
X217565Y233691D01*
X217616Y233686D01*
X217666Y233670D01*
X217738Y233672D01*
X217809Y233664D01*
X217860Y233675D01*
X217912Y233677D01*
X217979Y233701D01*
X218049Y233717D01*
X218094Y233743D01*
X218143Y233761D01*
X218199Y233806D01*
X218260Y233843D01*
X218294Y233882D01*
X218335Y233915D01*
X218374Y233975D01*
X218420Y234030D01*
X218440Y234078D01*
X218468Y234122D01*
X218485Y234191D01*
X218512Y234258D01*
X218520Y234329D01*
X218528Y234360D01*
X218526Y234384D01*
X218531Y234425D01*
X218531Y235561D01*
X221639Y238669D01*
X226036Y238669D01*
X227563Y237142D01*
X227637Y237089D01*
X227706Y237030D01*
X227736Y237017D01*
X227762Y236999D01*
X227849Y236972D01*
X227934Y236938D01*
X227975Y236933D01*
X227997Y236926D01*
X228030Y236927D01*
X228101Y236919D01*
X263156Y236919D01*
X263227Y236931D01*
X263298Y236933D01*
X263347Y236951D01*
X263399Y236959D01*
X263462Y236993D01*
X263529Y237017D01*
X263570Y237050D01*
X263616Y237074D01*
X263665Y237126D01*
X263721Y237171D01*
X263749Y237215D01*
X263785Y237252D01*
X263815Y237317D01*
X263854Y237378D01*
X263867Y237428D01*
X263889Y237475D01*
X263897Y237547D01*
X263914Y237616D01*
X263910Y237668D01*
X263916Y237720D01*
X263901Y237790D01*
X263895Y237861D01*
X263875Y237909D01*
X263864Y237960D01*
X263827Y238022D01*
X263799Y238088D01*
X263754Y238144D01*
X263738Y238171D01*
X263720Y238187D01*
X263694Y238219D01*
X261270Y240643D01*
X261267Y240648D01*
X261263Y240652D01*
X261259Y240657D01*
X261239Y240674D01*
X261228Y240685D01*
X261211Y240697D01*
X261169Y240732D01*
X261080Y240808D01*
X261075Y240810D01*
X261070Y240814D01*
X260961Y240856D01*
X260852Y240900D01*
X260845Y240901D01*
X260840Y240902D01*
X260822Y240903D01*
X260685Y240918D01*
X222364Y240918D01*
X204406Y258877D01*
X204406Y285549D01*
X204391Y285639D01*
X204384Y285730D01*
X204371Y285760D01*
X204366Y285792D01*
X204323Y285872D01*
X204288Y285956D01*
X204262Y285988D01*
X204251Y286009D01*
X204228Y286031D01*
X204183Y286087D01*
X117975Y372295D01*
X117901Y372348D01*
X117831Y372408D01*
X117801Y372420D01*
X117775Y372439D01*
X117688Y372466D01*
X117603Y372500D01*
X117562Y372504D01*
X117540Y372511D01*
X117508Y372510D01*
X117436Y372518D01*
X115277Y372518D01*
X112168Y375627D01*
X112168Y380023D01*
X115277Y383132D01*
X119673Y383132D01*
X122782Y380023D01*
X122782Y377864D01*
X122796Y377773D01*
X122804Y377683D01*
X122816Y377653D01*
X122821Y377621D01*
X122864Y377540D01*
X122900Y377456D01*
X122926Y377424D01*
X122937Y377403D01*
X122960Y377381D01*
X122975Y377362D01*
X122980Y377354D01*
X122986Y377349D01*
X123005Y377325D01*
X209213Y291117D01*
X211519Y288811D01*
X211519Y262139D01*
X211525Y262102D01*
X211524Y262095D01*
X211532Y262058D01*
X211534Y262048D01*
X211541Y261958D01*
X211554Y261928D01*
X211559Y261896D01*
X211574Y261868D01*
X211577Y261855D01*
X211605Y261807D01*
X211637Y261731D01*
X211663Y261699D01*
X211674Y261678D01*
X211692Y261661D01*
X211703Y261644D01*
X211718Y261631D01*
X211742Y261600D01*
X225088Y248255D01*
X225162Y248202D01*
X225231Y248142D01*
X225261Y248130D01*
X225288Y248111D01*
X225374Y248084D01*
X225459Y248050D01*
X225500Y248046D01*
X225523Y248039D01*
X225555Y248040D01*
X225626Y248032D01*
X259538Y248032D01*
X259653Y248051D01*
X259769Y248068D01*
X259774Y248070D01*
X259781Y248071D01*
X259883Y248126D01*
X259988Y248179D01*
X259993Y248184D01*
X259998Y248187D01*
X260078Y248271D01*
X260160Y248355D01*
X260164Y248361D01*
X260167Y248365D01*
X260175Y248382D01*
X260241Y248502D01*
X261335Y251142D01*
X263958Y253765D01*
X267385Y255185D01*
X271095Y255185D01*
X274522Y253765D01*
X277145Y251142D01*
X278565Y247715D01*
X278565Y244158D01*
X278576Y244087D01*
X278578Y244015D01*
X278596Y243966D01*
X278604Y243915D01*
X278638Y243852D01*
X278663Y243784D01*
X278695Y243743D01*
X278720Y243697D01*
X278771Y243648D01*
X278816Y243592D01*
X278860Y243564D01*
X278898Y243528D01*
X278963Y243498D01*
X279023Y243459D01*
X279074Y243446D01*
X279121Y243424D01*
X279192Y243416D01*
X279262Y243399D01*
X279314Y243403D01*
X279365Y243397D01*
X279436Y243413D01*
X279507Y243418D01*
X279555Y243438D01*
X279606Y243450D01*
X279667Y243486D01*
X279733Y243514D01*
X279789Y243559D01*
X279817Y243576D01*
X279832Y243594D01*
X279864Y243619D01*
X312376Y276131D01*
X312418Y276189D01*
X312467Y276241D01*
X312489Y276289D01*
X312520Y276331D01*
X312541Y276399D01*
X312571Y276465D01*
X312577Y276516D01*
X312592Y276566D01*
X312590Y276638D01*
X312598Y276709D01*
X312587Y276760D01*
X312586Y276812D01*
X312561Y276879D01*
X312546Y276949D01*
X312519Y276994D01*
X312501Y277043D01*
X312456Y277099D01*
X312420Y277160D01*
X312380Y277194D01*
X312348Y277235D01*
X312287Y277274D01*
X312233Y277320D01*
X312185Y277340D01*
X312141Y277368D01*
X312071Y277385D01*
X312005Y277412D01*
X311933Y277420D01*
X311902Y277428D01*
X311879Y277426D01*
X311838Y277431D01*
X277916Y277431D01*
X277871Y277423D01*
X277825Y277425D01*
X277750Y277404D01*
X277674Y277391D01*
X277633Y277370D01*
X277589Y277357D01*
X277525Y277312D01*
X277456Y277276D01*
X277425Y277243D01*
X277387Y277216D01*
X277340Y277154D01*
X277287Y277098D01*
X277267Y277056D01*
X277240Y277019D01*
X277216Y276945D01*
X277183Y276875D01*
X277178Y276829D01*
X277164Y276785D01*
X277165Y276707D01*
X277156Y276630D01*
X277166Y276585D01*
X277166Y276539D01*
X277204Y276408D01*
X277208Y276390D01*
X277211Y276385D01*
X277213Y276378D01*
X278565Y273115D01*
X278565Y269405D01*
X277145Y265978D01*
X274522Y263355D01*
X271095Y261935D01*
X267385Y261935D01*
X263958Y263355D01*
X261335Y265978D01*
X259915Y269405D01*
X259915Y273115D01*
X261335Y276542D01*
X263988Y279195D01*
X264069Y279238D01*
X264087Y279257D01*
X264109Y279271D01*
X264171Y279346D01*
X264238Y279416D01*
X264249Y279440D01*
X264266Y279460D01*
X264301Y279551D01*
X264342Y279640D01*
X264345Y279665D01*
X264354Y279690D01*
X264358Y279787D01*
X264369Y279884D01*
X264364Y279909D01*
X264365Y279935D01*
X264338Y280029D01*
X264317Y280124D01*
X264304Y280147D01*
X264296Y280172D01*
X264241Y280252D01*
X264191Y280335D01*
X264171Y280352D01*
X264156Y280374D01*
X264078Y280432D01*
X264004Y280495D01*
X263980Y280505D01*
X263959Y280521D01*
X263866Y280551D01*
X263776Y280587D01*
X263743Y280591D01*
X263725Y280597D01*
X263692Y280597D01*
X263609Y280606D01*
X260551Y280606D01*
X260461Y280591D01*
X260370Y280584D01*
X260340Y280571D01*
X260308Y280566D01*
X260228Y280523D01*
X260144Y280488D01*
X260112Y280462D01*
X260091Y280451D01*
X260069Y280428D01*
X260013Y280383D01*
X242773Y263143D01*
X234188Y263143D01*
X234168Y263140D01*
X234149Y263142D01*
X234047Y263120D01*
X233945Y263104D01*
X233928Y263094D01*
X233908Y263090D01*
X233819Y263037D01*
X233728Y262988D01*
X233714Y262974D01*
X233697Y262964D01*
X233630Y262885D01*
X233558Y262810D01*
X233550Y262792D01*
X233537Y262777D01*
X233498Y262681D01*
X233487Y262657D01*
X227624Y256793D01*
X219416Y256793D01*
X213613Y262596D01*
X213613Y270804D01*
X219416Y276607D01*
X227624Y276607D01*
X233477Y270754D01*
X233480Y270738D01*
X233533Y270649D01*
X233582Y270558D01*
X233596Y270544D01*
X233606Y270527D01*
X233685Y270460D01*
X233760Y270388D01*
X233778Y270380D01*
X233793Y270367D01*
X233889Y270328D01*
X233983Y270285D01*
X234003Y270283D01*
X234021Y270275D01*
X234188Y270257D01*
X239511Y270257D01*
X239602Y270271D01*
X239692Y270279D01*
X239722Y270291D01*
X239754Y270296D01*
X239835Y270339D01*
X239919Y270375D01*
X239951Y270401D01*
X239972Y270412D01*
X239994Y270435D01*
X240050Y270480D01*
X251889Y282319D01*
X251931Y282377D01*
X251980Y282429D01*
X252002Y282476D01*
X252032Y282518D01*
X252053Y282587D01*
X252084Y282652D01*
X252089Y282704D01*
X252105Y282754D01*
X252103Y282825D01*
X252111Y282896D01*
X252100Y282947D01*
X252098Y282999D01*
X252074Y283067D01*
X252058Y283137D01*
X252032Y283182D01*
X252014Y283230D01*
X251969Y283286D01*
X251932Y283348D01*
X251893Y283382D01*
X251860Y283422D01*
X251800Y283461D01*
X251745Y283508D01*
X251697Y283527D01*
X251653Y283555D01*
X251584Y283573D01*
X251517Y283600D01*
X251446Y283608D01*
X251415Y283616D01*
X251391Y283614D01*
X251350Y283618D01*
X250214Y283618D01*
X247106Y286727D01*
X247106Y291123D01*
X248633Y292650D01*
X248686Y292724D01*
X248745Y292794D01*
X248758Y292824D01*
X248776Y292850D01*
X248803Y292937D01*
X248837Y293022D01*
X248842Y293063D01*
X248849Y293085D01*
X248848Y293117D01*
X248856Y293188D01*
X248856Y309361D01*
X248854Y309369D01*
X248855Y309371D01*
X248852Y309383D01*
X248841Y309452D01*
X248834Y309542D01*
X248821Y309572D01*
X248816Y309604D01*
X248773Y309685D01*
X248738Y309769D01*
X248712Y309801D01*
X248701Y309822D01*
X248678Y309844D01*
X248633Y309900D01*
X228937Y329595D01*
X228863Y329648D01*
X228794Y329708D01*
X228764Y329720D01*
X228737Y329739D01*
X228651Y329766D01*
X228566Y329800D01*
X228525Y329804D01*
X228502Y329811D01*
X228470Y329810D01*
X228399Y329818D01*
X208077Y329818D01*
X205770Y332125D01*
X190837Y347058D01*
X188531Y349364D01*
X188531Y414837D01*
X188516Y414927D01*
X188509Y415018D01*
X188496Y415047D01*
X188491Y415079D01*
X188448Y415160D01*
X188413Y415244D01*
X188387Y415276D01*
X188376Y415297D01*
X188353Y415319D01*
X188308Y415375D01*
X186781Y416902D01*
X186781Y421298D01*
X189889Y424407D01*
X194286Y424407D01*
X197394Y421298D01*
X197394Y416902D01*
X195867Y415375D01*
X195814Y415301D01*
X195755Y415231D01*
X195743Y415201D01*
X195724Y415175D01*
X195697Y415088D01*
X195663Y415003D01*
X195658Y414962D01*
X195651Y414940D01*
X195652Y414908D01*
X195644Y414837D01*
X195644Y370087D01*
X195656Y370016D01*
X195658Y369944D01*
X195676Y369895D01*
X195684Y369844D01*
X195718Y369781D01*
X195742Y369713D01*
X195775Y369673D01*
X195799Y369627D01*
X195851Y369577D01*
X195896Y369521D01*
X195940Y369493D01*
X195977Y369457D01*
X196042Y369427D01*
X196103Y369388D01*
X196153Y369376D01*
X196200Y369354D01*
X196272Y369346D01*
X196341Y369328D01*
X196393Y369332D01*
X196445Y369327D01*
X196515Y369342D01*
X196586Y369347D01*
X196634Y369368D01*
X196685Y369379D01*
X196747Y369416D01*
X196813Y369444D01*
X196869Y369489D01*
X196896Y369505D01*
X196912Y369523D01*
X196944Y369549D01*
X199414Y372019D01*
X201574Y372019D01*
X201664Y372034D01*
X201755Y372041D01*
X201785Y372054D01*
X201817Y372059D01*
X201897Y372102D01*
X201981Y372137D01*
X202013Y372163D01*
X202034Y372174D01*
X202056Y372197D01*
X202112Y372242D01*
X215930Y386060D01*
X215983Y386134D01*
X216043Y386204D01*
X216055Y386234D01*
X216074Y386260D01*
X216101Y386347D01*
X216135Y386432D01*
X216139Y386473D01*
X216146Y386495D01*
X216145Y386527D01*
X216153Y386599D01*
X216153Y390184D01*
X221956Y395987D01*
X230164Y395987D01*
X235967Y390184D01*
X235967Y390080D01*
X235970Y390061D01*
X235968Y390041D01*
X235990Y389940D01*
X236006Y389838D01*
X236016Y389820D01*
X236020Y389801D01*
X236073Y389712D01*
X236122Y389620D01*
X236136Y389607D01*
X236146Y389590D01*
X236225Y389522D01*
X236300Y389451D01*
X236318Y389443D01*
X236333Y389430D01*
X236429Y389391D01*
X236523Y389347D01*
X236543Y389345D01*
X236561Y389338D01*
X236728Y389319D01*
X263156Y389319D01*
X263227Y389331D01*
X263298Y389333D01*
X263347Y389351D01*
X263399Y389359D01*
X263462Y389393D01*
X263529Y389417D01*
X263570Y389450D01*
X263616Y389474D01*
X263665Y389526D01*
X263721Y389571D01*
X263749Y389615D01*
X263785Y389652D01*
X263815Y389717D01*
X263854Y389778D01*
X263867Y389828D01*
X263889Y389875D01*
X263897Y389947D01*
X263914Y390016D01*
X263910Y390068D01*
X263916Y390120D01*
X263901Y390190D01*
X263895Y390261D01*
X263875Y390309D01*
X263864Y390360D01*
X263827Y390422D01*
X263799Y390488D01*
X263754Y390544D01*
X263738Y390571D01*
X263720Y390587D01*
X263694Y390619D01*
X261335Y392978D01*
X259915Y396405D01*
X259915Y400115D01*
X261335Y403542D01*
X263958Y406165D01*
X267385Y407585D01*
X271095Y407585D01*
X274522Y406165D01*
X277145Y403542D01*
X278239Y400902D01*
X278300Y400802D01*
X278360Y400702D01*
X278365Y400698D01*
X278368Y400693D01*
X278458Y400618D01*
X278547Y400542D01*
X278553Y400540D01*
X278558Y400536D01*
X278666Y400494D01*
X278775Y400450D01*
X278783Y400449D01*
X278788Y400448D01*
X278806Y400447D01*
X278942Y400432D01*
X557011Y400432D01*
X557102Y400446D01*
X557192Y400454D01*
X557222Y400466D01*
X557254Y400471D01*
X557335Y400514D01*
X557419Y400550D01*
X557451Y400576D01*
X557472Y400587D01*
X557494Y400610D01*
X557550Y400655D01*
X571614Y414719D01*
X596699Y414719D01*
X596789Y414734D01*
X596880Y414741D01*
X596910Y414754D01*
X596942Y414759D01*
X597022Y414802D01*
X597106Y414837D01*
X597138Y414863D01*
X597159Y414874D01*
X597181Y414897D01*
X597237Y414942D01*
X673214Y490919D01*
X731774Y490919D01*
X731794Y490922D01*
X731813Y490920D01*
X731915Y490942D01*
X732017Y490959D01*
X732034Y490968D01*
X732054Y490973D01*
X732143Y491026D01*
X732234Y491074D01*
X732248Y491088D01*
X732265Y491099D01*
X732332Y491177D01*
X732404Y491252D01*
X732412Y491270D01*
X732425Y491286D01*
X732464Y491382D01*
X732507Y491475D01*
X732509Y491495D01*
X732517Y491514D01*
X732535Y491680D01*
X732535Y497119D01*
X733927Y500480D01*
X736500Y503053D01*
X739861Y504445D01*
X743499Y504445D01*
X746860Y503053D01*
X749433Y500480D01*
X750825Y497119D01*
X750825Y478241D01*
X749433Y474880D01*
X746860Y472307D01*
X743499Y470915D01*
X739861Y470915D01*
X736500Y472307D01*
X733927Y474880D01*
X732535Y478241D01*
X732535Y483045D01*
X732532Y483064D01*
X732534Y483084D01*
X732512Y483185D01*
X732496Y483287D01*
X732486Y483305D01*
X732482Y483324D01*
X732429Y483413D01*
X732380Y483505D01*
X732366Y483518D01*
X732356Y483535D01*
X732277Y483603D01*
X732202Y483674D01*
X732184Y483682D01*
X732169Y483695D01*
X732073Y483734D01*
X731979Y483778D01*
X731959Y483780D01*
X731941Y483787D01*
X731774Y483806D01*
X676476Y483806D01*
X676386Y483791D01*
X676295Y483784D01*
X676265Y483771D01*
X676233Y483766D01*
X676153Y483723D01*
X676069Y483688D01*
X676037Y483662D01*
X676016Y483651D01*
X675994Y483628D01*
X675938Y483583D01*
X657749Y465394D01*
X657707Y465336D01*
X657658Y465284D01*
X657636Y465236D01*
X657605Y465194D01*
X657584Y465126D01*
X657554Y465060D01*
X657548Y465009D01*
X657533Y464959D01*
X657535Y464887D01*
X657527Y464816D01*
X657538Y464765D01*
X657539Y464713D01*
X657564Y464646D01*
X657579Y464576D01*
X657606Y464531D01*
X657624Y464482D01*
X657669Y464426D01*
X657705Y464365D01*
X657745Y464331D01*
X657777Y464290D01*
X657838Y464251D01*
X657892Y464205D01*
X657940Y464185D01*
X657984Y464157D01*
X658054Y464140D01*
X658120Y464113D01*
X658192Y464105D01*
X658223Y464097D01*
X658246Y464099D01*
X658287Y464094D01*
X659423Y464094D01*
X660950Y462567D01*
X661024Y462514D01*
X661094Y462455D01*
X661124Y462442D01*
X661150Y462424D01*
X661237Y462397D01*
X661322Y462363D01*
X661363Y462358D01*
X661385Y462351D01*
X661417Y462352D01*
X661488Y462344D01*
X764974Y462344D01*
X765064Y462359D01*
X765155Y462366D01*
X765185Y462379D01*
X765217Y462384D01*
X765297Y462427D01*
X765381Y462462D01*
X765413Y462488D01*
X765434Y462499D01*
X765456Y462522D01*
X765512Y462567D01*
X783112Y480167D01*
X783165Y480241D01*
X783225Y480311D01*
X783237Y480341D01*
X783256Y480367D01*
X783283Y480454D01*
X783317Y480539D01*
X783321Y480580D01*
X783328Y480602D01*
X783327Y480634D01*
X783335Y480706D01*
X783335Y497119D01*
X784727Y500480D01*
X787300Y503053D01*
X790661Y504445D01*
X794299Y504445D01*
X797660Y503053D01*
X800233Y500480D01*
X801625Y497119D01*
X801625Y478241D01*
X800233Y474880D01*
X797660Y472307D01*
X794299Y470915D01*
X790661Y470915D01*
X787300Y472307D01*
X786844Y472763D01*
X786828Y472775D01*
X786816Y472790D01*
X786728Y472846D01*
X786645Y472906D01*
X786626Y472912D01*
X786609Y472923D01*
X786508Y472948D01*
X786410Y472979D01*
X786390Y472978D01*
X786370Y472983D01*
X786267Y472975D01*
X786164Y472972D01*
X786145Y472966D01*
X786125Y472964D01*
X786030Y472924D01*
X785933Y472888D01*
X785917Y472875D01*
X785899Y472868D01*
X785768Y472763D01*
X770542Y457537D01*
X768711Y455706D01*
X768669Y455648D01*
X768620Y455596D01*
X768598Y455549D01*
X768568Y455507D01*
X768547Y455438D01*
X768516Y455373D01*
X768511Y455321D01*
X768495Y455271D01*
X768497Y455200D01*
X768489Y455129D01*
X768500Y455078D01*
X768502Y455026D01*
X768526Y454958D01*
X768542Y454888D01*
X768568Y454843D01*
X768586Y454795D01*
X768631Y454739D01*
X768668Y454677D01*
X768707Y454643D01*
X768740Y454603D01*
X768800Y454564D01*
X768855Y454517D01*
X768903Y454498D01*
X768947Y454470D01*
X769016Y454452D01*
X769083Y454425D01*
X769154Y454417D01*
X769185Y454409D01*
X769209Y454411D01*
X769250Y454407D01*
X782436Y454407D01*
X782527Y454421D01*
X782617Y454429D01*
X782647Y454441D01*
X782679Y454446D01*
X782760Y454489D01*
X782844Y454525D01*
X782876Y454551D01*
X782897Y454562D01*
X782919Y454585D01*
X782975Y454630D01*
X808512Y480167D01*
X808565Y480241D01*
X808625Y480311D01*
X808637Y480341D01*
X808656Y480367D01*
X808683Y480454D01*
X808717Y480539D01*
X808721Y480580D01*
X808728Y480602D01*
X808727Y480634D01*
X808735Y480706D01*
X808735Y497119D01*
X810127Y500480D01*
X812700Y503053D01*
X816061Y504445D01*
X819012Y504445D01*
X819083Y504456D01*
X819155Y504458D01*
X819204Y504476D01*
X819255Y504484D01*
X819319Y504518D01*
X819386Y504543D01*
X819427Y504575D01*
X819473Y504600D01*
X819522Y504651D01*
X819578Y504696D01*
X819606Y504740D01*
X819642Y504778D01*
X819672Y504843D01*
X819711Y504903D01*
X819724Y504954D01*
X819746Y505001D01*
X819754Y505072D01*
X819771Y505142D01*
X819767Y505194D01*
X819773Y505245D01*
X819757Y505316D01*
X819752Y505387D01*
X819732Y505435D01*
X819720Y505486D01*
X819684Y505547D01*
X819655Y505613D01*
X819611Y505669D01*
X819594Y505697D01*
X819576Y505712D01*
X819551Y505744D01*
X819487Y505808D01*
X819413Y505861D01*
X819344Y505920D01*
X819314Y505933D01*
X819287Y505951D01*
X819200Y505978D01*
X819116Y506012D01*
X819075Y506017D01*
X819052Y506024D01*
X819020Y506023D01*
X818949Y506031D01*
X787601Y506031D01*
X787511Y506016D01*
X787420Y506009D01*
X787390Y505996D01*
X787358Y505991D01*
X787278Y505948D01*
X787194Y505913D01*
X787162Y505887D01*
X787141Y505876D01*
X787119Y505853D01*
X787063Y505808D01*
X776448Y495193D01*
X776395Y495119D01*
X776335Y495049D01*
X776323Y495019D01*
X776304Y494993D01*
X776277Y494906D01*
X776243Y494821D01*
X776239Y494780D01*
X776232Y494758D01*
X776233Y494726D01*
X776225Y494654D01*
X776225Y478241D01*
X774833Y474880D01*
X772260Y472307D01*
X768899Y470915D01*
X765261Y470915D01*
X761900Y472307D01*
X759327Y474880D01*
X757935Y478241D01*
X757935Y497119D01*
X759327Y500480D01*
X761900Y503053D01*
X765261Y504445D01*
X768899Y504445D01*
X772260Y503053D01*
X772716Y502597D01*
X772732Y502585D01*
X772744Y502570D01*
X772832Y502514D01*
X772915Y502454D01*
X772934Y502448D01*
X772951Y502437D01*
X773052Y502412D01*
X773150Y502381D01*
X773170Y502382D01*
X773190Y502377D01*
X773293Y502385D01*
X773396Y502388D01*
X773415Y502394D01*
X773435Y502396D01*
X773530Y502436D01*
X773627Y502472D01*
X773643Y502485D01*
X773661Y502492D01*
X773792Y502597D01*
X782033Y510838D01*
X784339Y513144D01*
X822211Y513144D01*
X834663Y500692D01*
X834679Y500680D01*
X834692Y500665D01*
X834779Y500609D01*
X834863Y500549D01*
X834882Y500543D01*
X834898Y500532D01*
X834999Y500507D01*
X835098Y500476D01*
X835118Y500477D01*
X835137Y500472D01*
X835240Y500480D01*
X835344Y500483D01*
X835362Y500489D01*
X835382Y500491D01*
X835477Y500531D01*
X835575Y500567D01*
X835590Y500579D01*
X835609Y500587D01*
X835739Y500692D01*
X838100Y503053D01*
X841461Y504445D01*
X845099Y504445D01*
X848460Y503053D01*
X851033Y500480D01*
X852425Y497119D01*
X852425Y478241D01*
X851033Y474880D01*
X848460Y472307D01*
X845099Y470915D01*
X842465Y470915D01*
X842394Y470904D01*
X842323Y470902D01*
X842274Y470884D01*
X842222Y470876D01*
X842159Y470842D01*
X842092Y470817D01*
X842051Y470785D01*
X842005Y470760D01*
X841956Y470708D01*
X841900Y470664D01*
X841871Y470620D01*
X841836Y470582D01*
X841805Y470517D01*
X841767Y470457D01*
X841754Y470406D01*
X841732Y470359D01*
X841724Y470288D01*
X841706Y470218D01*
X841711Y470166D01*
X841705Y470115D01*
X841720Y470044D01*
X841726Y469973D01*
X841746Y469925D01*
X841757Y469874D01*
X841794Y469813D01*
X841822Y469747D01*
X841867Y469691D01*
X841883Y469663D01*
X841901Y469648D01*
X841927Y469616D01*
X850400Y461142D01*
X850474Y461089D01*
X850544Y461030D01*
X850574Y461017D01*
X850600Y460999D01*
X850687Y460972D01*
X850772Y460938D01*
X850813Y460933D01*
X850835Y460926D01*
X850867Y460927D01*
X850939Y460919D01*
X853098Y460919D01*
X856207Y457811D01*
X856207Y453414D01*
X853098Y450306D01*
X848702Y450306D01*
X845593Y453414D01*
X845593Y455574D01*
X845579Y455664D01*
X845571Y455755D01*
X845559Y455785D01*
X845554Y455817D01*
X845511Y455897D01*
X845475Y455981D01*
X845449Y456013D01*
X845438Y456034D01*
X845415Y456056D01*
X845370Y456112D01*
X828293Y473189D01*
X828293Y477476D01*
X828278Y477573D01*
X828268Y477670D01*
X828258Y477693D01*
X828254Y477719D01*
X828208Y477805D01*
X828168Y477894D01*
X828151Y477914D01*
X828138Y477937D01*
X828068Y478004D01*
X828002Y478075D01*
X827979Y478088D01*
X827960Y478106D01*
X827872Y478147D01*
X827786Y478194D01*
X827761Y478199D01*
X827737Y478210D01*
X827640Y478220D01*
X827544Y478238D01*
X827518Y478234D01*
X827493Y478237D01*
X827397Y478216D01*
X827301Y478202D01*
X827278Y478190D01*
X827252Y478184D01*
X827169Y478135D01*
X827082Y478090D01*
X827063Y478072D01*
X827041Y478058D01*
X826978Y477984D01*
X826910Y477915D01*
X826894Y477886D01*
X826881Y477871D01*
X826869Y477841D01*
X826829Y477768D01*
X825633Y474880D01*
X823060Y472307D01*
X819699Y470915D01*
X816061Y470915D01*
X812700Y472307D01*
X812244Y472763D01*
X812228Y472775D01*
X812216Y472790D01*
X812128Y472846D01*
X812045Y472906D01*
X812026Y472912D01*
X812009Y472923D01*
X811908Y472948D01*
X811810Y472979D01*
X811790Y472978D01*
X811770Y472983D01*
X811667Y472975D01*
X811564Y472972D01*
X811545Y472966D01*
X811525Y472964D01*
X811430Y472924D01*
X811333Y472888D01*
X811317Y472875D01*
X811299Y472868D01*
X811168Y472763D01*
X788005Y449600D01*
X785698Y447293D01*
X666951Y447293D01*
X666861Y447279D01*
X666770Y447271D01*
X666740Y447259D01*
X666708Y447254D01*
X666628Y447211D01*
X666544Y447175D01*
X666512Y447149D01*
X666491Y447138D01*
X666469Y447115D01*
X666413Y447070D01*
X629255Y409912D01*
X629202Y409838D01*
X629142Y409769D01*
X629130Y409739D01*
X629111Y409712D01*
X629084Y409626D01*
X629050Y409541D01*
X629046Y409500D01*
X629039Y409477D01*
X629040Y409445D01*
X629032Y409374D01*
X629032Y387464D01*
X566623Y325056D01*
X554937Y325056D01*
X554866Y325044D01*
X554795Y325042D01*
X554746Y325024D01*
X554694Y325016D01*
X554631Y324982D01*
X554564Y324958D01*
X554523Y324925D01*
X554477Y324901D01*
X554428Y324849D01*
X554372Y324804D01*
X554343Y324760D01*
X554308Y324723D01*
X554277Y324658D01*
X554239Y324597D01*
X554226Y324547D01*
X554204Y324500D01*
X554196Y324428D01*
X554178Y324359D01*
X554183Y324307D01*
X554177Y324255D01*
X554192Y324185D01*
X554198Y324114D01*
X554218Y324066D01*
X554229Y324015D01*
X554266Y323953D01*
X554294Y323887D01*
X554339Y323831D01*
X554355Y323804D01*
X554373Y323788D01*
X554399Y323756D01*
X556230Y321925D01*
X627444Y250711D01*
X627444Y235151D01*
X627459Y235061D01*
X627466Y234970D01*
X627479Y234940D01*
X627484Y234908D01*
X627527Y234828D01*
X627562Y234744D01*
X627588Y234712D01*
X627599Y234691D01*
X627622Y234669D01*
X627667Y234613D01*
X675938Y186342D01*
X676012Y186289D01*
X676081Y186230D01*
X676111Y186217D01*
X676138Y186199D01*
X676224Y186172D01*
X676309Y186138D01*
X676350Y186133D01*
X676373Y186126D01*
X676405Y186127D01*
X676476Y186119D01*
X817448Y186119D01*
X833869Y169698D01*
X833885Y169687D01*
X833898Y169671D01*
X833985Y169615D01*
X834069Y169555D01*
X834088Y169549D01*
X834105Y169538D01*
X834205Y169513D01*
X834304Y169482D01*
X834324Y169483D01*
X834343Y169478D01*
X834446Y169486D01*
X834550Y169489D01*
X834569Y169496D01*
X834588Y169497D01*
X834683Y169538D01*
X834781Y169573D01*
X834797Y169586D01*
X834815Y169594D01*
X834946Y169698D01*
X835560Y170313D01*
X838921Y171705D01*
X842559Y171705D01*
X845920Y170313D01*
X848493Y167740D01*
X849885Y164379D01*
X849885Y145501D01*
X848493Y142140D01*
X845920Y139567D01*
X842559Y138175D01*
X838921Y138175D01*
G37*
%LPD*%
%LPC*%
G36*
X537147Y122335D02*
X537147Y122335D01*
X533278Y123938D01*
X530318Y126898D01*
X528715Y130767D01*
X528715Y134953D01*
X530318Y138822D01*
X533245Y141749D01*
X533256Y141765D01*
X533272Y141777D01*
X533328Y141865D01*
X533388Y141949D01*
X533394Y141968D01*
X533405Y141984D01*
X533430Y142085D01*
X533461Y142184D01*
X533460Y142204D01*
X533465Y142223D01*
X533457Y142326D01*
X533454Y142430D01*
X533447Y142448D01*
X533446Y142468D01*
X533405Y142563D01*
X533370Y142661D01*
X533357Y142676D01*
X533349Y142694D01*
X533245Y142825D01*
X522687Y153383D01*
X522613Y153436D01*
X522544Y153495D01*
X522514Y153508D01*
X522487Y153526D01*
X522401Y153553D01*
X522316Y153587D01*
X522275Y153592D01*
X522252Y153599D01*
X522220Y153598D01*
X522149Y153606D01*
X274871Y153606D01*
X274775Y153590D01*
X274678Y153581D01*
X274654Y153570D01*
X274628Y153566D01*
X274542Y153520D01*
X274453Y153481D01*
X274434Y153463D01*
X274411Y153451D01*
X274344Y153380D01*
X274272Y153314D01*
X274259Y153291D01*
X274242Y153273D01*
X274201Y153184D01*
X274154Y153099D01*
X274149Y153073D01*
X274138Y153050D01*
X274127Y152953D01*
X274110Y152857D01*
X274114Y152831D01*
X274111Y152805D01*
X274132Y152710D01*
X274146Y152613D01*
X274158Y152590D01*
X274163Y152565D01*
X274213Y152481D01*
X274257Y152394D01*
X274276Y152376D01*
X274289Y152354D01*
X274363Y152290D01*
X274433Y152222D01*
X274461Y152206D01*
X274476Y152194D01*
X274505Y152182D01*
X277145Y149542D01*
X278565Y146115D01*
X278565Y142405D01*
X277145Y138978D01*
X274522Y136355D01*
X271095Y134935D01*
X267385Y134935D01*
X263958Y136355D01*
X261335Y138978D01*
X259915Y142405D01*
X259915Y146115D01*
X261335Y149542D01*
X263988Y152195D01*
X264069Y152238D01*
X264087Y152257D01*
X264109Y152271D01*
X264171Y152346D01*
X264238Y152416D01*
X264249Y152440D01*
X264266Y152460D01*
X264301Y152551D01*
X264342Y152640D01*
X264345Y152665D01*
X264354Y152690D01*
X264358Y152787D01*
X264369Y152884D01*
X264364Y152909D01*
X264365Y152935D01*
X264338Y153029D01*
X264317Y153124D01*
X264304Y153147D01*
X264296Y153172D01*
X264241Y153252D01*
X264191Y153335D01*
X264171Y153352D01*
X264156Y153374D01*
X264078Y153432D01*
X264004Y153495D01*
X263980Y153505D01*
X263959Y153521D01*
X263866Y153551D01*
X263776Y153587D01*
X263743Y153591D01*
X263725Y153597D01*
X263692Y153597D01*
X263609Y153606D01*
X234858Y153606D01*
X234767Y153591D01*
X234675Y153583D01*
X234638Y153570D01*
X234615Y153566D01*
X234587Y153551D01*
X234518Y153525D01*
X233848Y153190D01*
X233789Y153148D01*
X233738Y153121D01*
X233726Y153109D01*
X233697Y153091D01*
X233675Y153066D01*
X233648Y153046D01*
X233596Y152973D01*
X233582Y152957D01*
X233569Y152943D01*
X233567Y152939D01*
X233537Y152904D01*
X233525Y152873D01*
X233505Y152846D01*
X233479Y152760D01*
X233445Y152676D01*
X233441Y152634D01*
X233434Y152611D01*
X233434Y152579D01*
X233427Y152509D01*
X233427Y145756D01*
X227624Y139953D01*
X219416Y139953D01*
X213613Y145756D01*
X213613Y153964D01*
X219416Y159767D01*
X227624Y159767D01*
X228392Y158998D01*
X228409Y158986D01*
X228423Y158969D01*
X228509Y158914D01*
X228592Y158854D01*
X228612Y158848D01*
X228630Y158837D01*
X228730Y158812D01*
X228827Y158782D01*
X228848Y158782D01*
X228869Y158777D01*
X228971Y158786D01*
X229073Y158788D01*
X229093Y158796D01*
X229114Y158797D01*
X229271Y158855D01*
X231621Y160030D01*
X231653Y160053D01*
X231688Y160068D01*
X231819Y160173D01*
X232365Y160719D01*
X232819Y160719D01*
X232910Y160734D01*
X233002Y160742D01*
X233040Y160755D01*
X233062Y160759D01*
X233091Y160774D01*
X233160Y160800D01*
X233566Y161003D01*
X234299Y160758D01*
X234337Y160752D01*
X234373Y160738D01*
X234539Y160719D01*
X263156Y160719D01*
X263227Y160731D01*
X263298Y160733D01*
X263347Y160751D01*
X263399Y160759D01*
X263462Y160793D01*
X263529Y160817D01*
X263570Y160850D01*
X263616Y160874D01*
X263665Y160926D01*
X263721Y160971D01*
X263749Y161015D01*
X263785Y161052D01*
X263815Y161117D01*
X263854Y161178D01*
X263867Y161228D01*
X263889Y161275D01*
X263897Y161347D01*
X263914Y161416D01*
X263910Y161468D01*
X263916Y161520D01*
X263901Y161590D01*
X263895Y161661D01*
X263875Y161709D01*
X263864Y161760D01*
X263827Y161822D01*
X263799Y161888D01*
X263754Y161944D01*
X263738Y161971D01*
X263720Y161987D01*
X263694Y162019D01*
X261335Y164378D01*
X259915Y167805D01*
X259915Y171515D01*
X261335Y174942D01*
X263958Y177565D01*
X267385Y178985D01*
X271095Y178985D01*
X274522Y177565D01*
X277145Y174942D01*
X278565Y171515D01*
X278565Y167805D01*
X277145Y164378D01*
X274786Y162019D01*
X274744Y161961D01*
X274695Y161909D01*
X274673Y161861D01*
X274642Y161819D01*
X274621Y161751D01*
X274591Y161685D01*
X274585Y161634D01*
X274570Y161584D01*
X274572Y161512D01*
X274564Y161441D01*
X274575Y161390D01*
X274576Y161338D01*
X274601Y161271D01*
X274616Y161201D01*
X274643Y161156D01*
X274661Y161107D01*
X274706Y161051D01*
X274742Y160990D01*
X274782Y160956D01*
X274815Y160915D01*
X274875Y160876D01*
X274929Y160830D01*
X274978Y160810D01*
X275021Y160782D01*
X275091Y160765D01*
X275157Y160738D01*
X275229Y160730D01*
X275260Y160722D01*
X275283Y160724D01*
X275324Y160719D01*
X525411Y160719D01*
X542522Y143608D01*
X542596Y143555D01*
X542666Y143495D01*
X542696Y143483D01*
X542722Y143464D01*
X542809Y143437D01*
X542894Y143403D01*
X542935Y143399D01*
X542957Y143392D01*
X542989Y143393D01*
X543061Y143385D01*
X559333Y143385D01*
X563202Y141782D01*
X566162Y138822D01*
X567765Y134953D01*
X567765Y130767D01*
X566162Y126898D01*
X563202Y123938D01*
X559333Y122335D01*
X537147Y122335D01*
G37*
%LPD*%
%LPC*%
G36*
X267385Y84135D02*
X267385Y84135D01*
X263958Y85555D01*
X261335Y88178D01*
X259915Y91605D01*
X259915Y95315D01*
X261335Y98742D01*
X263988Y101395D01*
X264069Y101438D01*
X264087Y101457D01*
X264109Y101471D01*
X264171Y101546D01*
X264238Y101616D01*
X264249Y101640D01*
X264266Y101660D01*
X264301Y101751D01*
X264342Y101840D01*
X264345Y101865D01*
X264354Y101890D01*
X264358Y101987D01*
X264369Y102084D01*
X264364Y102109D01*
X264365Y102135D01*
X264338Y102229D01*
X264317Y102324D01*
X264304Y102347D01*
X264296Y102372D01*
X264241Y102452D01*
X264191Y102535D01*
X264171Y102552D01*
X264156Y102574D01*
X264078Y102632D01*
X264004Y102695D01*
X263980Y102705D01*
X263959Y102721D01*
X263866Y102751D01*
X263776Y102787D01*
X263743Y102791D01*
X263725Y102797D01*
X263692Y102797D01*
X263609Y102806D01*
X214427Y102806D01*
X152102Y165130D01*
X152028Y165183D01*
X151959Y165243D01*
X151929Y165255D01*
X151902Y165274D01*
X151816Y165301D01*
X151731Y165335D01*
X151690Y165339D01*
X151667Y165346D01*
X151635Y165345D01*
X151564Y165353D01*
X143216Y165353D01*
X137413Y171156D01*
X137413Y179364D01*
X143216Y185167D01*
X151424Y185167D01*
X157227Y179364D01*
X157227Y171157D01*
X157220Y171149D01*
X157208Y171133D01*
X157192Y171121D01*
X157136Y171034D01*
X157076Y170950D01*
X157070Y170931D01*
X157059Y170914D01*
X157034Y170814D01*
X157004Y170715D01*
X157004Y170695D01*
X156999Y170675D01*
X157007Y170572D01*
X157010Y170469D01*
X157017Y170450D01*
X157019Y170430D01*
X157059Y170335D01*
X157095Y170238D01*
X157107Y170222D01*
X157115Y170204D01*
X157220Y170073D01*
X217150Y110142D01*
X217224Y110089D01*
X217294Y110030D01*
X217324Y110017D01*
X217350Y109999D01*
X217437Y109972D01*
X217522Y109938D01*
X217563Y109933D01*
X217585Y109926D01*
X217617Y109927D01*
X217689Y109919D01*
X263156Y109919D01*
X263227Y109931D01*
X263298Y109933D01*
X263347Y109951D01*
X263399Y109959D01*
X263462Y109993D01*
X263529Y110017D01*
X263570Y110050D01*
X263616Y110074D01*
X263665Y110126D01*
X263721Y110171D01*
X263749Y110215D01*
X263785Y110252D01*
X263815Y110317D01*
X263854Y110378D01*
X263867Y110428D01*
X263889Y110475D01*
X263897Y110547D01*
X263914Y110616D01*
X263910Y110668D01*
X263916Y110720D01*
X263901Y110790D01*
X263895Y110861D01*
X263875Y110909D01*
X263864Y110960D01*
X263827Y111022D01*
X263799Y111088D01*
X263754Y111144D01*
X263738Y111171D01*
X263720Y111187D01*
X263694Y111219D01*
X261335Y113578D01*
X259915Y117005D01*
X259915Y120715D01*
X261335Y124142D01*
X263958Y126765D01*
X267385Y128185D01*
X271095Y128185D01*
X274522Y126765D01*
X277145Y124142D01*
X278565Y120715D01*
X278565Y117005D01*
X277145Y113578D01*
X274786Y111219D01*
X274744Y111161D01*
X274695Y111109D01*
X274673Y111061D01*
X274642Y111019D01*
X274621Y110951D01*
X274591Y110885D01*
X274585Y110834D01*
X274570Y110784D01*
X274572Y110712D01*
X274564Y110641D01*
X274575Y110590D01*
X274576Y110538D01*
X274601Y110471D01*
X274616Y110401D01*
X274643Y110356D01*
X274661Y110307D01*
X274706Y110251D01*
X274742Y110190D01*
X274782Y110156D01*
X274815Y110115D01*
X274875Y110076D01*
X274929Y110030D01*
X274978Y110010D01*
X275021Y109982D01*
X275091Y109965D01*
X275157Y109938D01*
X275229Y109930D01*
X275260Y109922D01*
X275283Y109924D01*
X275324Y109919D01*
X282439Y109919D01*
X282529Y109934D01*
X282620Y109941D01*
X282650Y109954D01*
X282682Y109959D01*
X282762Y110002D01*
X282846Y110037D01*
X282878Y110063D01*
X282899Y110074D01*
X282921Y110097D01*
X282977Y110142D01*
X284504Y111669D01*
X288901Y111669D01*
X292009Y108561D01*
X292009Y104164D01*
X288901Y101056D01*
X284504Y101056D01*
X282977Y102583D01*
X282903Y102636D01*
X282834Y102695D01*
X282804Y102708D01*
X282778Y102726D01*
X282691Y102753D01*
X282606Y102787D01*
X282565Y102792D01*
X282543Y102799D01*
X282510Y102798D01*
X282439Y102806D01*
X274871Y102806D01*
X274775Y102790D01*
X274678Y102781D01*
X274654Y102770D01*
X274628Y102766D01*
X274542Y102720D01*
X274453Y102681D01*
X274434Y102663D01*
X274411Y102651D01*
X274344Y102580D01*
X274272Y102514D01*
X274259Y102491D01*
X274242Y102473D01*
X274201Y102384D01*
X274154Y102299D01*
X274149Y102273D01*
X274138Y102250D01*
X274127Y102153D01*
X274110Y102057D01*
X274114Y102031D01*
X274111Y102005D01*
X274132Y101910D01*
X274146Y101813D01*
X274158Y101790D01*
X274163Y101765D01*
X274213Y101681D01*
X274257Y101594D01*
X274276Y101576D01*
X274289Y101554D01*
X274363Y101490D01*
X274433Y101422D01*
X274461Y101406D01*
X274476Y101394D01*
X274505Y101382D01*
X277145Y98742D01*
X278565Y95315D01*
X278565Y91605D01*
X277145Y88178D01*
X274522Y85555D01*
X271095Y84135D01*
X267385Y84135D01*
G37*
%LPD*%
%LPC*%
G36*
X74481Y62409D02*
X74481Y62409D01*
X66612Y65669D01*
X60589Y71692D01*
X57329Y79561D01*
X57329Y88079D01*
X60589Y95948D01*
X66612Y101971D01*
X74481Y105231D01*
X82999Y105231D01*
X90868Y101971D01*
X96891Y95948D01*
X100151Y88079D01*
X100151Y79561D01*
X96891Y71692D01*
X90868Y65669D01*
X82999Y62409D01*
X74481Y62409D01*
G37*
%LPD*%
%LPC*%
G36*
X143216Y114553D02*
X143216Y114553D01*
X137413Y120356D01*
X137413Y128634D01*
X137422Y128647D01*
X137447Y128748D01*
X137478Y128847D01*
X137477Y128867D01*
X137482Y128886D01*
X137474Y128989D01*
X137471Y129093D01*
X137464Y129111D01*
X137463Y129131D01*
X137422Y129226D01*
X137387Y129324D01*
X137374Y129339D01*
X137366Y129357D01*
X137262Y129488D01*
X87650Y179100D01*
X87576Y179153D01*
X87506Y179213D01*
X87476Y179225D01*
X87450Y179244D01*
X87363Y179271D01*
X87278Y179305D01*
X87237Y179309D01*
X87215Y179316D01*
X87183Y179315D01*
X87111Y179323D01*
X83890Y179323D01*
X83800Y179309D01*
X83709Y179301D01*
X83679Y179289D01*
X83647Y179284D01*
X83567Y179241D01*
X83483Y179205D01*
X83451Y179179D01*
X83430Y179168D01*
X83408Y179145D01*
X83352Y179100D01*
X77606Y173354D01*
X69714Y173354D01*
X64134Y178934D01*
X64134Y186826D01*
X69714Y192406D01*
X77606Y192406D01*
X83352Y186660D01*
X83426Y186607D01*
X83495Y186547D01*
X83525Y186535D01*
X83551Y186516D01*
X83638Y186489D01*
X83723Y186455D01*
X83764Y186451D01*
X83787Y186444D01*
X83819Y186445D01*
X83890Y186437D01*
X90373Y186437D01*
X142292Y134518D01*
X142308Y134507D01*
X142320Y134491D01*
X142408Y134435D01*
X142491Y134375D01*
X142510Y134369D01*
X142527Y134358D01*
X142628Y134333D01*
X142726Y134302D01*
X142746Y134303D01*
X142766Y134298D01*
X142869Y134306D01*
X142972Y134309D01*
X142991Y134316D01*
X143011Y134317D01*
X143106Y134358D01*
X143131Y134367D01*
X151424Y134367D01*
X157227Y128564D01*
X157227Y120356D01*
X151424Y114553D01*
X143216Y114553D01*
G37*
%LPD*%
%LPC*%
G36*
X537147Y22335D02*
X537147Y22335D01*
X533278Y23938D01*
X530318Y26898D01*
X528715Y30767D01*
X528715Y34953D01*
X530318Y38822D01*
X533278Y41782D01*
X537147Y43385D01*
X559333Y43385D01*
X563202Y41782D01*
X566162Y38822D01*
X567765Y34953D01*
X567765Y30767D01*
X566162Y26898D01*
X563202Y23938D01*
X559333Y22335D01*
X537147Y22335D01*
G37*
%LPD*%
%LPC*%
G36*
X537147Y207355D02*
X537147Y207355D01*
X533278Y208958D01*
X530318Y211918D01*
X528715Y215787D01*
X528715Y219973D01*
X530318Y223842D01*
X533278Y226802D01*
X537147Y228405D01*
X559333Y228405D01*
X563202Y226802D01*
X566162Y223842D01*
X567765Y219973D01*
X567765Y215787D01*
X566162Y211918D01*
X563202Y208958D01*
X559333Y207355D01*
X537147Y207355D01*
G37*
%LPD*%
%LPC*%
G36*
X537147Y47335D02*
X537147Y47335D01*
X533278Y48938D01*
X530318Y51898D01*
X528715Y55767D01*
X528715Y59953D01*
X530318Y63822D01*
X533278Y66782D01*
X537147Y68385D01*
X559333Y68385D01*
X563202Y66782D01*
X566162Y63822D01*
X567765Y59953D01*
X567765Y55767D01*
X566162Y51898D01*
X563202Y48938D01*
X559333Y47335D01*
X537147Y47335D01*
G37*
%LPD*%
%LPC*%
G36*
X587147Y72335D02*
X587147Y72335D01*
X583278Y73938D01*
X580318Y76898D01*
X578715Y80767D01*
X578715Y84953D01*
X580318Y88822D01*
X583278Y91782D01*
X587147Y93385D01*
X609333Y93385D01*
X613202Y91782D01*
X616162Y88822D01*
X617765Y84953D01*
X617765Y80767D01*
X616162Y76898D01*
X613202Y73938D01*
X609333Y72335D01*
X587147Y72335D01*
G37*
%LPD*%
%LPC*%
G36*
X537147Y97335D02*
X537147Y97335D01*
X533278Y98938D01*
X530318Y101898D01*
X528715Y105767D01*
X528715Y109953D01*
X530318Y113822D01*
X533278Y116782D01*
X537147Y118385D01*
X559333Y118385D01*
X563202Y116782D01*
X566162Y113822D01*
X567765Y109953D01*
X567765Y105767D01*
X566162Y101898D01*
X563202Y98938D01*
X559333Y97335D01*
X537147Y97335D01*
G37*
%LPD*%
%LPC*%
G36*
X537147Y182355D02*
X537147Y182355D01*
X533278Y183958D01*
X530318Y186918D01*
X528715Y190787D01*
X528715Y194973D01*
X530318Y198842D01*
X533278Y201802D01*
X537147Y203405D01*
X559333Y203405D01*
X563202Y201802D01*
X566162Y198842D01*
X567765Y194973D01*
X567765Y190787D01*
X566162Y186918D01*
X563202Y183958D01*
X559333Y182355D01*
X537147Y182355D01*
G37*
%LPD*%
%LPC*%
G36*
X539687Y409755D02*
X539687Y409755D01*
X535818Y411358D01*
X532858Y414318D01*
X531255Y418187D01*
X531255Y422373D01*
X532858Y426242D01*
X535818Y429202D01*
X539687Y430805D01*
X561873Y430805D01*
X565742Y429202D01*
X568702Y426242D01*
X570305Y422373D01*
X570305Y418187D01*
X568702Y414318D01*
X565742Y411358D01*
X561873Y409755D01*
X539687Y409755D01*
G37*
%LPD*%
%LPC*%
G36*
X537147Y257355D02*
X537147Y257355D01*
X533278Y258958D01*
X530318Y261918D01*
X528715Y265787D01*
X528715Y269973D01*
X530318Y273842D01*
X533278Y276802D01*
X537147Y278405D01*
X559333Y278405D01*
X563202Y276802D01*
X566162Y273842D01*
X567765Y269973D01*
X567765Y265787D01*
X566162Y261918D01*
X563202Y258958D01*
X559333Y257355D01*
X537147Y257355D01*
G37*
%LPD*%
%LPC*%
G36*
X866861Y470915D02*
X866861Y470915D01*
X863500Y472307D01*
X860927Y474880D01*
X859535Y478241D01*
X859535Y497119D01*
X860927Y500480D01*
X863500Y503053D01*
X866861Y504445D01*
X870499Y504445D01*
X873860Y503053D01*
X876433Y500480D01*
X877825Y497119D01*
X877825Y478241D01*
X876433Y474880D01*
X873860Y472307D01*
X870499Y470915D01*
X866861Y470915D01*
G37*
%LPD*%
%LPC*%
G36*
X89621Y470915D02*
X89621Y470915D01*
X86260Y472307D01*
X83687Y474880D01*
X82295Y478241D01*
X82295Y497119D01*
X83687Y500480D01*
X86260Y503053D01*
X89621Y504445D01*
X93259Y504445D01*
X96620Y503053D01*
X99193Y500480D01*
X100585Y497119D01*
X100585Y478241D01*
X99193Y474880D01*
X96620Y472307D01*
X93259Y470915D01*
X89621Y470915D01*
G37*
%LPD*%
%LPC*%
G36*
X150581Y21335D02*
X150581Y21335D01*
X147220Y22727D01*
X144647Y25300D01*
X143255Y28661D01*
X143255Y47539D01*
X144647Y50900D01*
X147220Y53473D01*
X150581Y54865D01*
X154219Y54865D01*
X157580Y53473D01*
X160153Y50900D01*
X161545Y47539D01*
X161545Y28661D01*
X160153Y25300D01*
X157580Y22727D01*
X154219Y21335D01*
X150581Y21335D01*
G37*
%LPD*%
%LPC*%
G36*
X125181Y21335D02*
X125181Y21335D01*
X121820Y22727D01*
X119247Y25300D01*
X117855Y28661D01*
X117855Y47539D01*
X119247Y50900D01*
X121820Y53473D01*
X125181Y54865D01*
X128819Y54865D01*
X132180Y53473D01*
X134753Y50900D01*
X136145Y47539D01*
X136145Y28661D01*
X134753Y25300D01*
X132180Y22727D01*
X128819Y21335D01*
X125181Y21335D01*
G37*
%LPD*%
%LPC*%
G36*
X175981Y21335D02*
X175981Y21335D01*
X172620Y22727D01*
X170047Y25300D01*
X168655Y28661D01*
X168655Y47539D01*
X170047Y50900D01*
X172620Y53473D01*
X175981Y54865D01*
X179619Y54865D01*
X182980Y53473D01*
X185553Y50900D01*
X186945Y47539D01*
X186945Y28661D01*
X185553Y25300D01*
X182980Y22727D01*
X179619Y21335D01*
X175981Y21335D01*
G37*
%LPD*%
%LPC*%
G36*
X201381Y21335D02*
X201381Y21335D01*
X198020Y22727D01*
X195447Y25300D01*
X194055Y28661D01*
X194055Y47539D01*
X195447Y50900D01*
X198020Y53473D01*
X201381Y54865D01*
X205019Y54865D01*
X208380Y53473D01*
X210953Y50900D01*
X212345Y47539D01*
X212345Y28661D01*
X210953Y25300D01*
X208380Y22727D01*
X205019Y21335D01*
X201381Y21335D01*
G37*
%LPD*%
%LPC*%
G36*
X140421Y470915D02*
X140421Y470915D01*
X137060Y472307D01*
X134487Y474880D01*
X133095Y478241D01*
X133095Y497119D01*
X134487Y500480D01*
X137060Y503053D01*
X140421Y504445D01*
X144059Y504445D01*
X147420Y503053D01*
X149993Y500480D01*
X151385Y497119D01*
X151385Y478241D01*
X149993Y474880D01*
X147420Y472307D01*
X144059Y470915D01*
X140421Y470915D01*
G37*
%LPD*%
%LPC*%
G36*
X762721Y138175D02*
X762721Y138175D01*
X759360Y139567D01*
X756787Y142140D01*
X755395Y145501D01*
X755395Y164379D01*
X756787Y167740D01*
X759360Y170313D01*
X762721Y171705D01*
X766359Y171705D01*
X769720Y170313D01*
X772293Y167740D01*
X773685Y164379D01*
X773685Y145501D01*
X772293Y142140D01*
X769720Y139567D01*
X766359Y138175D01*
X762721Y138175D01*
G37*
%LPD*%
%LPC*%
G36*
X788121Y138175D02*
X788121Y138175D01*
X784760Y139567D01*
X782187Y142140D01*
X780795Y145501D01*
X780795Y164379D01*
X782187Y167740D01*
X784760Y170313D01*
X788121Y171705D01*
X791759Y171705D01*
X795120Y170313D01*
X797693Y167740D01*
X799085Y164379D01*
X799085Y145501D01*
X797693Y142140D01*
X795120Y139567D01*
X791759Y138175D01*
X788121Y138175D01*
G37*
%LPD*%
%LPC*%
G36*
X813521Y138175D02*
X813521Y138175D01*
X810160Y139567D01*
X807587Y142140D01*
X806195Y145501D01*
X806195Y164379D01*
X807587Y167740D01*
X810160Y170313D01*
X813521Y171705D01*
X817159Y171705D01*
X820520Y170313D01*
X823093Y167740D01*
X824485Y164379D01*
X824485Y145501D01*
X823093Y142140D01*
X820520Y139567D01*
X817159Y138175D01*
X813521Y138175D01*
G37*
%LPD*%
%LPC*%
G36*
X115021Y470915D02*
X115021Y470915D01*
X111660Y472307D01*
X109087Y474880D01*
X107695Y478241D01*
X107695Y497119D01*
X109087Y500480D01*
X111660Y503053D01*
X115021Y504445D01*
X118659Y504445D01*
X122020Y503053D01*
X124593Y500480D01*
X125985Y497119D01*
X125985Y478241D01*
X124593Y474880D01*
X122020Y472307D01*
X118659Y470915D01*
X115021Y470915D01*
G37*
%LPD*%
%LPC*%
G36*
X165821Y470915D02*
X165821Y470915D01*
X162460Y472307D01*
X159887Y474880D01*
X158495Y478241D01*
X158495Y497119D01*
X159887Y500480D01*
X162460Y503053D01*
X165821Y504445D01*
X169459Y504445D01*
X172820Y503053D01*
X175393Y500480D01*
X176785Y497119D01*
X176785Y478241D01*
X175393Y474880D01*
X172820Y472307D01*
X169459Y470915D01*
X165821Y470915D01*
G37*
%LPD*%
%LPC*%
G36*
X191221Y470915D02*
X191221Y470915D01*
X187860Y472307D01*
X185287Y474880D01*
X183895Y478241D01*
X183895Y497119D01*
X185287Y500480D01*
X187860Y503053D01*
X191221Y504445D01*
X194859Y504445D01*
X198220Y503053D01*
X200793Y500480D01*
X202185Y497119D01*
X202185Y478241D01*
X200793Y474880D01*
X198220Y472307D01*
X194859Y470915D01*
X191221Y470915D01*
G37*
%LPD*%
%LPC*%
G36*
X145756Y404113D02*
X145756Y404113D01*
X139953Y409916D01*
X139953Y418124D01*
X145756Y423927D01*
X153964Y423927D01*
X159767Y418124D01*
X159767Y409916D01*
X153964Y404113D01*
X145756Y404113D01*
G37*
%LPD*%
%LPC*%
G36*
X219416Y307593D02*
X219416Y307593D01*
X213613Y313396D01*
X213613Y321604D01*
X219416Y327407D01*
X227624Y327407D01*
X233427Y321604D01*
X233427Y313396D01*
X227624Y307593D01*
X219416Y307593D01*
G37*
%LPD*%
%LPC*%
G36*
X219416Y114553D02*
X219416Y114553D01*
X213613Y120356D01*
X213613Y128564D01*
X219416Y134367D01*
X227624Y134367D01*
X233427Y128564D01*
X233427Y120356D01*
X227624Y114553D01*
X219416Y114553D01*
G37*
%LPD*%
%LPC*%
G36*
X143216Y256793D02*
X143216Y256793D01*
X137413Y262596D01*
X137413Y270804D01*
X143216Y276607D01*
X151424Y276607D01*
X157227Y270804D01*
X157227Y262596D01*
X151424Y256793D01*
X143216Y256793D01*
G37*
%LPD*%
%LPC*%
G36*
X219416Y282193D02*
X219416Y282193D01*
X213613Y287996D01*
X213613Y296204D01*
X219416Y302007D01*
X227624Y302007D01*
X233427Y296204D01*
X233427Y287996D01*
X227624Y282193D01*
X219416Y282193D01*
G37*
%LPD*%
%LPC*%
G36*
X221956Y429513D02*
X221956Y429513D01*
X216153Y435316D01*
X216153Y443524D01*
X221956Y449327D01*
X230164Y449327D01*
X235967Y443524D01*
X235967Y435316D01*
X230164Y429513D01*
X221956Y429513D01*
G37*
%LPD*%
%LPC*%
G36*
X107814Y297814D02*
X107814Y297814D01*
X102234Y303394D01*
X102234Y311286D01*
X107814Y316866D01*
X115706Y316866D01*
X121286Y311286D01*
X121286Y303394D01*
X115706Y297814D01*
X107814Y297814D01*
G37*
%LPD*%
%LPC*%
G36*
X72254Y414654D02*
X72254Y414654D01*
X66674Y420234D01*
X66674Y428126D01*
X72254Y433706D01*
X80146Y433706D01*
X85726Y428126D01*
X85726Y420234D01*
X80146Y414654D01*
X72254Y414654D01*
G37*
%LPD*%
%LPC*%
G36*
X84465Y297814D02*
X84465Y297814D01*
X80964Y299264D01*
X78284Y301944D01*
X76834Y305445D01*
X76834Y309235D01*
X78284Y312736D01*
X80964Y315416D01*
X84465Y316866D01*
X88255Y316866D01*
X91756Y315416D01*
X94436Y312736D01*
X95886Y309235D01*
X95886Y305445D01*
X94436Y301944D01*
X91756Y299264D01*
X88255Y297814D01*
X84465Y297814D01*
G37*
%LPD*%
%LPC*%
G36*
X267385Y33335D02*
X267385Y33335D01*
X263958Y34755D01*
X261335Y37378D01*
X259915Y40805D01*
X259915Y44515D01*
X261335Y47942D01*
X263958Y50565D01*
X267385Y51985D01*
X271095Y51985D01*
X274522Y50565D01*
X277145Y47942D01*
X278565Y44515D01*
X278565Y40805D01*
X277145Y37378D01*
X274522Y34755D01*
X271095Y33335D01*
X267385Y33335D01*
G37*
%LPD*%
%LPC*%
G36*
X267385Y58735D02*
X267385Y58735D01*
X263958Y60155D01*
X261335Y62778D01*
X259915Y66205D01*
X259915Y69915D01*
X261335Y73342D01*
X263958Y75965D01*
X267385Y77385D01*
X271095Y77385D01*
X274522Y75965D01*
X277145Y73342D01*
X278565Y69915D01*
X278565Y66205D01*
X277145Y62778D01*
X274522Y60155D01*
X271095Y58735D01*
X267385Y58735D01*
G37*
%LPD*%
%LPC*%
G36*
X267385Y312735D02*
X267385Y312735D01*
X263958Y314155D01*
X261335Y316778D01*
X259915Y320205D01*
X259915Y323915D01*
X261335Y327342D01*
X263958Y329965D01*
X267385Y331385D01*
X271095Y331385D01*
X274522Y329965D01*
X277145Y327342D01*
X278565Y323915D01*
X278565Y320205D01*
X277145Y316778D01*
X274522Y314155D01*
X271095Y312735D01*
X267385Y312735D01*
G37*
%LPD*%
%LPC*%
G36*
X16763Y475983D02*
X16763Y475983D01*
X16763Y484801D01*
X23374Y484801D01*
X24021Y484628D01*
X24600Y484293D01*
X25073Y483820D01*
X25408Y483241D01*
X25581Y482594D01*
X25581Y475983D01*
X16763Y475983D01*
G37*
%LPD*%
%LPC*%
G36*
X16763Y464119D02*
X16763Y464119D01*
X16763Y472937D01*
X25581Y472937D01*
X25581Y466326D01*
X25408Y465679D01*
X25073Y465100D01*
X24600Y464627D01*
X24021Y464292D01*
X23374Y464119D01*
X16763Y464119D01*
G37*
%LPD*%
%LPC*%
G36*
X148843Y151383D02*
X148843Y151383D01*
X148843Y160783D01*
X151844Y160783D01*
X158243Y154384D01*
X158243Y151383D01*
X148843Y151383D01*
G37*
%LPD*%
%LPC*%
G36*
X227583Y415543D02*
X227583Y415543D01*
X227583Y424943D01*
X230584Y424943D01*
X236983Y418544D01*
X236983Y415543D01*
X227583Y415543D01*
G37*
%LPD*%
%LPC*%
G36*
X148843Y293623D02*
X148843Y293623D01*
X148843Y303023D01*
X151844Y303023D01*
X158243Y296624D01*
X158243Y293623D01*
X148843Y293623D01*
G37*
%LPD*%
%LPC*%
G36*
X136397Y151383D02*
X136397Y151383D01*
X136397Y154384D01*
X142796Y160783D01*
X145797Y160783D01*
X145797Y151383D01*
X136397Y151383D01*
G37*
%LPD*%
%LPC*%
G36*
X148843Y281177D02*
X148843Y281177D01*
X148843Y290577D01*
X158243Y290577D01*
X158243Y287576D01*
X151844Y281177D01*
X148843Y281177D01*
G37*
%LPD*%
%LPC*%
G36*
X136397Y293623D02*
X136397Y293623D01*
X136397Y296624D01*
X142796Y303023D01*
X145797Y303023D01*
X145797Y293623D01*
X136397Y293623D01*
G37*
%LPD*%
%LPC*%
G36*
X227583Y403097D02*
X227583Y403097D01*
X227583Y412497D01*
X236983Y412497D01*
X236983Y409496D01*
X230584Y403097D01*
X227583Y403097D01*
G37*
%LPD*%
%LPC*%
G36*
X215137Y415543D02*
X215137Y415543D01*
X215137Y418544D01*
X221536Y424943D01*
X224537Y424943D01*
X224537Y415543D01*
X215137Y415543D01*
G37*
%LPD*%
%LPC*%
G36*
X148843Y138937D02*
X148843Y138937D01*
X148843Y148337D01*
X158243Y148337D01*
X158243Y145336D01*
X151844Y138937D01*
X148843Y138937D01*
G37*
%LPD*%
%LPC*%
G36*
X142796Y138937D02*
X142796Y138937D01*
X136397Y145336D01*
X136397Y148337D01*
X145797Y148337D01*
X145797Y138937D01*
X142796Y138937D01*
G37*
%LPD*%
%LPC*%
G36*
X142796Y281177D02*
X142796Y281177D01*
X136397Y287576D01*
X136397Y290577D01*
X145797Y290577D01*
X145797Y281177D01*
X142796Y281177D01*
G37*
%LPD*%
%LPC*%
G36*
X221536Y403097D02*
X221536Y403097D01*
X215137Y409496D01*
X215137Y412497D01*
X224537Y412497D01*
X224537Y403097D01*
X221536Y403097D01*
G37*
%LPD*%
%LPC*%
G36*
X226059Y414019D02*
X226059Y414019D01*
X226059Y414021D01*
X226061Y414021D01*
X226061Y414019D01*
X226059Y414019D01*
G37*
%LPD*%
%LPC*%
G36*
X147319Y149859D02*
X147319Y149859D01*
X147319Y149861D01*
X147321Y149861D01*
X147321Y149859D01*
X147319Y149859D01*
G37*
%LPD*%
%LPC*%
G36*
X147319Y292099D02*
X147319Y292099D01*
X147319Y292101D01*
X147321Y292101D01*
X147321Y292099D01*
X147319Y292099D01*
G37*
%LPD*%
D10*
X86360Y307340D03*
D11*
X111760Y307340D03*
D10*
X441960Y464820D03*
D12*
X416560Y464820D03*
D10*
X48260Y182880D03*
D11*
X73660Y182880D03*
D13*
X223520Y266700D03*
X147320Y266700D03*
D14*
X147320Y292100D03*
X223520Y292100D03*
X147320Y317500D03*
X223520Y317500D03*
D13*
X223520Y124460D03*
X147320Y124460D03*
D14*
X147320Y149860D03*
X223520Y149860D03*
X147320Y175260D03*
X223520Y175260D03*
D15*
X764540Y162560D02*
X764540Y147320D01*
X789940Y147320D02*
X789940Y162560D01*
X815340Y162560D02*
X815340Y147320D01*
X840740Y147320D02*
X840740Y162560D01*
D16*
X15240Y474460D03*
D17*
X15240Y449060D03*
X15240Y17260D03*
X15240Y423660D03*
X15240Y398260D03*
X15240Y372860D03*
X15240Y347460D03*
X15240Y322060D03*
X15240Y296660D03*
X15240Y271260D03*
X15240Y245860D03*
X15240Y220460D03*
X15240Y195060D03*
X15240Y169660D03*
X15240Y144260D03*
X15240Y118860D03*
X15240Y93460D03*
X15240Y68060D03*
X15240Y42660D03*
X269240Y474460D03*
X269240Y449060D03*
X269240Y423660D03*
X269240Y398260D03*
X269240Y372860D03*
X269240Y347460D03*
X269240Y322060D03*
X269240Y296660D03*
X269240Y271260D03*
X269240Y245860D03*
X269240Y220460D03*
X269240Y195060D03*
X269240Y169660D03*
X269240Y144260D03*
X269240Y118860D03*
X269240Y93460D03*
X269240Y68060D03*
X269240Y42660D03*
X269240Y17260D03*
D15*
X419100Y20320D02*
X419100Y35560D01*
X393700Y35560D02*
X393700Y20320D01*
D18*
X431240Y88700D03*
X371240Y88700D03*
D19*
X491240Y424700D03*
X311240Y424700D03*
D10*
X50800Y424180D03*
D11*
X76200Y424180D03*
D14*
X149860Y439420D03*
X226060Y439420D03*
D13*
X226060Y414020D03*
X149860Y414020D03*
X226060Y386080D03*
X149860Y386080D03*
D15*
X76200Y45720D02*
X76200Y30480D01*
X101600Y30480D02*
X101600Y45720D01*
X127000Y45720D02*
X127000Y30480D01*
X152400Y30480D02*
X152400Y45720D01*
X177800Y45720D02*
X177800Y30480D01*
X203200Y30480D02*
X203200Y45720D01*
X193040Y480060D02*
X193040Y495300D01*
X167640Y495300D02*
X167640Y480060D01*
X142240Y480060D02*
X142240Y495300D01*
X116840Y495300D02*
X116840Y480060D01*
X91440Y480060D02*
X91440Y495300D01*
X66040Y495300D02*
X66040Y480060D01*
X868680Y480060D02*
X868680Y495300D01*
X843280Y495300D02*
X843280Y480060D01*
X817880Y480060D02*
X817880Y495300D01*
X792480Y495300D02*
X792480Y480060D01*
X767080Y480060D02*
X767080Y495300D01*
X741680Y495300D02*
X741680Y480060D01*
D20*
X559780Y345280D02*
X541780Y345280D01*
X591780Y395280D02*
X609780Y395280D01*
X559780Y370280D02*
X541780Y370280D01*
X541780Y420280D02*
X559780Y420280D01*
X559780Y445280D02*
X541780Y445280D01*
X539240Y192880D02*
X557240Y192880D01*
X589240Y242880D02*
X607240Y242880D01*
X557240Y217880D02*
X539240Y217880D01*
X539240Y267880D02*
X557240Y267880D01*
X557240Y292880D02*
X539240Y292880D01*
X539240Y32860D02*
X557240Y32860D01*
X589240Y82860D02*
X607240Y82860D01*
X557240Y57860D02*
X539240Y57860D01*
X539240Y107860D02*
X557240Y107860D01*
X557240Y132860D02*
X539240Y132860D01*
D21*
X88900Y182880D02*
X73660Y182880D01*
X88900Y182880D02*
X147320Y124460D01*
D22*
X80760Y17260D02*
X15240Y17260D01*
X80760Y17260D02*
X101600Y38100D01*
D21*
X358775Y292100D02*
X547688Y292100D01*
X358775Y292100D02*
X347663Y280988D01*
X276225Y280988D01*
X273050Y284163D01*
X258763Y284163D01*
X241300Y266700D01*
X223520Y266700D01*
X547688Y292100D02*
X548240Y292880D01*
X63500Y198438D02*
X49213Y184150D01*
X63500Y198438D02*
X200025Y198438D01*
X222250Y176213D01*
X49213Y184150D02*
X48260Y182880D01*
X222250Y176213D02*
X223520Y175260D01*
X523938Y157163D02*
X548240Y132860D01*
X523938Y157163D02*
X233839Y157163D01*
X227806Y154146D01*
X223520Y149860D01*
X309245Y306705D02*
X451168Y306705D01*
X309245Y306705D02*
X269875Y346075D01*
X269240Y347460D01*
D23*
X451168Y306705D03*
D21*
X839788Y158750D02*
X839788Y155575D01*
X839788Y158750D02*
X815975Y182563D01*
X674688Y182563D01*
X623888Y233363D01*
X623888Y249238D01*
X552450Y320675D01*
X331788Y320675D01*
X839788Y155575D02*
X840740Y154940D01*
D23*
X331788Y320675D03*
D21*
X74613Y371475D02*
X15875Y371475D01*
X74613Y371475D02*
X128588Y317500D01*
X147320Y317500D01*
X15875Y371475D02*
X15240Y372860D01*
X306388Y241300D02*
X596900Y241300D01*
X296704Y231616D02*
X273050Y207963D01*
X296704Y231616D02*
X306388Y241300D01*
X273050Y207963D02*
X238125Y207963D01*
X171450Y274638D01*
X596900Y241300D02*
X598240Y242880D01*
D23*
X171450Y274638D03*
D21*
X215900Y106363D02*
X286703Y106363D01*
X215900Y106363D02*
X147638Y174625D01*
X147320Y175260D01*
D23*
X286703Y106363D03*
D24*
X431240Y88700D02*
X431240Y35000D01*
X424180Y27940D01*
D21*
X420000Y27500D02*
X419100Y27940D01*
X420000Y27500D02*
X424180Y27940D01*
D24*
X371240Y42780D02*
X371240Y88700D01*
X371240Y42780D02*
X386080Y27940D01*
D21*
X393700Y27940D02*
X393750Y27500D01*
X386080Y27940D01*
X50800Y424180D02*
X48430Y422210D01*
X52388Y423863D02*
X68263Y439738D01*
X149225Y439738D01*
X52388Y423863D02*
X50800Y424180D01*
X149225Y439738D02*
X149860Y439420D01*
X463550Y446088D02*
X549275Y446088D01*
X463550Y446088D02*
X457200Y439738D01*
X295275Y439738D01*
X273050Y461963D01*
X173038Y461963D01*
X150813Y439738D01*
X549275Y446088D02*
X550780Y445280D01*
X150813Y439738D02*
X149860Y439420D01*
X47625Y354013D02*
X15875Y322263D01*
X201613Y366713D02*
X220663Y385763D01*
X225425Y385763D01*
X15875Y322263D02*
X15240Y322060D01*
X225425Y385763D02*
X226060Y386080D01*
X563563Y393700D02*
X600075Y393700D01*
X563563Y393700D02*
X557213Y387350D01*
X274638Y387350D01*
X273050Y385763D01*
X227013Y385763D01*
X600075Y393700D02*
X600780Y395280D01*
X227013Y385763D02*
X226060Y386080D01*
D23*
X47625Y354013D03*
X201613Y366713D03*
D21*
X674688Y487363D02*
X741363Y487363D01*
X674688Y487363D02*
X598488Y411163D01*
X573088Y411163D01*
X558800Y396875D01*
X269875Y396875D01*
X741363Y487363D02*
X741680Y487680D01*
X269875Y396875D02*
X269240Y398260D01*
X768350Y488950D02*
X768350Y492125D01*
X785813Y509588D01*
X820738Y509588D01*
X831850Y498475D01*
X831850Y474663D01*
X850900Y455613D01*
X512128Y377825D02*
X505778Y371475D01*
X269875Y371475D01*
X767080Y487680D02*
X768350Y488950D01*
X269875Y371475D02*
X269240Y372860D01*
D23*
X850900Y455613D03*
X512128Y377825D03*
D21*
X192088Y350838D02*
X192088Y419100D01*
X192088Y350838D02*
X209550Y333375D01*
X230188Y333375D01*
X252413Y311150D01*
X252413Y288925D01*
D23*
X192088Y419100D03*
X252413Y288925D03*
D21*
X207963Y287338D02*
X117475Y377825D01*
X207963Y287338D02*
X207963Y260350D01*
X223838Y244475D01*
X268288Y244475D01*
X269240Y245860D01*
D23*
X117475Y377825D03*
D21*
X61913Y361950D02*
X61913Y335280D01*
X27623Y300990D01*
D23*
X61913Y361950D03*
X27623Y300990D03*
D21*
X65088Y457200D02*
X65088Y487363D01*
X65088Y457200D02*
X34925Y427038D01*
X34925Y419100D01*
X128003Y326023D01*
X28575Y204788D02*
X19050Y195263D01*
X15875Y195263D01*
X65088Y487363D02*
X66040Y487680D01*
X15875Y195263D02*
X15240Y195060D01*
X128003Y326023D02*
X130443Y326023D01*
D23*
X130443Y326023D03*
X129540Y238760D03*
D21*
X95568Y204788D01*
X28575Y204788D01*
X465773Y461963D02*
X468313Y461963D01*
X465773Y461963D02*
X451485Y447675D01*
X164465Y249238D02*
X47625Y249238D01*
X19050Y220663D01*
X15875Y220663D01*
X15240Y220460D01*
D23*
X468313Y461963D03*
X451485Y447675D03*
X164465Y249238D03*
D21*
X817563Y484188D02*
X817563Y487363D01*
X817563Y484188D02*
X784225Y450850D01*
X665163Y450850D01*
X625475Y411163D01*
X625475Y388938D01*
X565150Y328613D01*
X304800Y328613D01*
X273050Y360363D01*
X206375Y360363D01*
X200025Y354013D01*
X65088Y307975D02*
X65088Y296863D01*
X14288Y246063D01*
X817563Y487363D02*
X817880Y487680D01*
X15240Y245860D02*
X14288Y246063D01*
D23*
X200025Y354013D03*
X65088Y307975D03*
D21*
X792163Y484188D02*
X792163Y487363D01*
X792163Y484188D02*
X766763Y458788D01*
X657225Y458788D01*
X492125Y438150D02*
X463550Y438150D01*
X434975Y409575D01*
X300038Y409575D01*
X273050Y436563D01*
X250825Y436563D01*
X231775Y455613D01*
X212725Y455613D01*
X155575Y398463D01*
X109538Y398463D01*
X73025Y361950D02*
X73025Y330200D01*
X14288Y271463D01*
X792163Y487363D02*
X792480Y487680D01*
X15240Y271260D02*
X14288Y271463D01*
D23*
X657225Y458788D03*
X492125Y438150D03*
X109538Y398463D03*
X73025Y361950D03*
D21*
X477838Y379413D02*
X502603Y379413D01*
X371475Y273050D02*
X314325Y273050D01*
X274638Y233363D01*
X223838Y233363D01*
D23*
X502603Y379413D03*
X477838Y379413D03*
X371475Y273050D03*
X223838Y233363D03*
M02*
