G04 EAGLE Gerber RS-274X export*
G75*
%MOMM*%
%FSLAX34Y34*%
%LPD*%
%INTop Copper*%
%IPPOS*%
%AMOC8*
5,1,8,0,0,1.08239X$1,22.5*%
G01*
%ADD10C,0.130000*%
%ADD11C,0.152400*%
%ADD12C,1.600200*%
%ADD13P,1.732040X8X22.500000*%
%ADD14P,1.732040X8X202.500000*%
%ADD15P,1.814519X8X202.500000*%
%ADD16P,1.814519X8X22.500000*%
%ADD17C,1.524000*%
%ADD18R,1.560000X1.560000*%
%ADD19C,1.560000*%
%ADD20R,1.508000X1.508000*%
%ADD21C,1.508000*%
%ADD22C,1.800000*%
%ADD23C,0.812800*%
%ADD24C,0.406400*%
%ADD25C,0.609600*%
%ADD26C,0.756400*%

G36*
X261385Y10172D02*
X261385Y10172D01*
X261457Y10174D01*
X261506Y10192D01*
X261557Y10200D01*
X261620Y10234D01*
X261688Y10259D01*
X261728Y10291D01*
X261774Y10316D01*
X261824Y10367D01*
X261880Y10412D01*
X261908Y10456D01*
X261944Y10494D01*
X261974Y10559D01*
X262013Y10619D01*
X262025Y10670D01*
X262047Y10717D01*
X262055Y10788D01*
X262073Y10858D01*
X262069Y10910D01*
X262075Y10961D01*
X262059Y11032D01*
X262054Y11103D01*
X262033Y11151D01*
X262022Y11202D01*
X261985Y11263D01*
X261957Y11329D01*
X261913Y11385D01*
X261896Y11413D01*
X261878Y11428D01*
X261853Y11460D01*
X261335Y11978D01*
X259915Y15405D01*
X259915Y19115D01*
X261335Y22542D01*
X263958Y25165D01*
X267385Y26585D01*
X271095Y26585D01*
X274522Y25165D01*
X277145Y22542D01*
X278565Y19115D01*
X278565Y15405D01*
X277145Y11978D01*
X276627Y11460D01*
X276586Y11402D01*
X276536Y11350D01*
X276514Y11303D01*
X276484Y11261D01*
X276463Y11192D01*
X276433Y11127D01*
X276427Y11075D01*
X276412Y11025D01*
X276413Y10954D01*
X276405Y10883D01*
X276417Y10832D01*
X276418Y10780D01*
X276442Y10712D01*
X276458Y10642D01*
X276484Y10597D01*
X276502Y10549D01*
X276547Y10493D01*
X276584Y10431D01*
X276623Y10397D01*
X276656Y10357D01*
X276716Y10318D01*
X276771Y10271D01*
X276819Y10252D01*
X276863Y10224D01*
X276932Y10206D01*
X276999Y10179D01*
X277070Y10171D01*
X277101Y10163D01*
X277125Y10165D01*
X277166Y10161D01*
X312420Y10161D01*
X312440Y10164D01*
X312459Y10162D01*
X312561Y10184D01*
X312663Y10200D01*
X312680Y10210D01*
X312700Y10214D01*
X312789Y10267D01*
X312880Y10316D01*
X312894Y10330D01*
X312911Y10340D01*
X312978Y10419D01*
X313050Y10494D01*
X313058Y10512D01*
X313071Y10527D01*
X313110Y10623D01*
X313153Y10717D01*
X313155Y10737D01*
X313163Y10755D01*
X313181Y10922D01*
X313181Y111445D01*
X335595Y133859D01*
X466651Y133859D01*
X466722Y133870D01*
X466793Y133872D01*
X466842Y133890D01*
X466894Y133899D01*
X466957Y133932D01*
X467024Y133957D01*
X467065Y133989D01*
X467111Y134014D01*
X467160Y134066D01*
X467216Y134110D01*
X467245Y134154D01*
X467280Y134192D01*
X467311Y134257D01*
X467349Y134317D01*
X467362Y134368D01*
X467384Y134415D01*
X467392Y134486D01*
X467409Y134556D01*
X467405Y134608D01*
X467411Y134659D01*
X467396Y134730D01*
X467390Y134801D01*
X467370Y134849D01*
X467359Y134900D01*
X467322Y134961D01*
X467294Y135027D01*
X467249Y135083D01*
X467233Y135111D01*
X467215Y135126D01*
X467189Y135158D01*
X466745Y135603D01*
X466671Y135656D01*
X466601Y135715D01*
X466571Y135727D01*
X466545Y135746D01*
X466458Y135773D01*
X466373Y135807D01*
X466332Y135812D01*
X466310Y135819D01*
X466278Y135818D01*
X466206Y135826D01*
X321511Y135826D01*
X321421Y135811D01*
X321330Y135804D01*
X321300Y135791D01*
X321268Y135786D01*
X321188Y135743D01*
X321104Y135708D01*
X321072Y135682D01*
X321051Y135671D01*
X321029Y135648D01*
X320973Y135603D01*
X292232Y106862D01*
X292179Y106788D01*
X292120Y106719D01*
X292107Y106689D01*
X292089Y106662D01*
X292062Y106576D01*
X292028Y106491D01*
X292023Y106450D01*
X292016Y106427D01*
X292017Y106395D01*
X292009Y106324D01*
X292009Y104164D01*
X288901Y101056D01*
X284504Y101056D01*
X281396Y104164D01*
X281396Y108561D01*
X284504Y111669D01*
X286664Y111669D01*
X286754Y111684D01*
X286845Y111691D01*
X286875Y111704D01*
X286907Y111709D01*
X286987Y111752D01*
X287071Y111787D01*
X287103Y111813D01*
X287124Y111824D01*
X287146Y111847D01*
X287202Y111892D01*
X318249Y142939D01*
X469468Y142939D01*
X524490Y87917D01*
X524564Y87864D01*
X524634Y87805D01*
X524664Y87792D01*
X524690Y87774D01*
X524777Y87747D01*
X524862Y87713D01*
X524903Y87708D01*
X524925Y87701D01*
X524957Y87702D01*
X525029Y87694D01*
X579342Y87694D01*
X579457Y87713D01*
X579573Y87730D01*
X579578Y87733D01*
X579585Y87734D01*
X579687Y87788D01*
X579792Y87842D01*
X579796Y87846D01*
X579802Y87849D01*
X579882Y87933D01*
X579964Y88017D01*
X579968Y88024D01*
X579971Y88027D01*
X579979Y88044D01*
X580045Y88164D01*
X580318Y88822D01*
X583278Y91782D01*
X587147Y93385D01*
X609333Y93385D01*
X613202Y91782D01*
X616162Y88822D01*
X617765Y84953D01*
X617765Y80767D01*
X616162Y76898D01*
X613202Y73938D01*
X609333Y72335D01*
X587147Y72335D01*
X583278Y73938D01*
X580318Y76898D01*
X578987Y80111D01*
X578925Y80210D01*
X578865Y80310D01*
X578861Y80315D01*
X578857Y80320D01*
X578768Y80394D01*
X578678Y80470D01*
X578673Y80473D01*
X578668Y80477D01*
X578560Y80518D01*
X578450Y80562D01*
X578443Y80563D01*
X578438Y80565D01*
X578420Y80566D01*
X578284Y80581D01*
X521767Y80581D01*
X488218Y114129D01*
X488160Y114171D01*
X488108Y114220D01*
X488061Y114242D01*
X488019Y114273D01*
X487950Y114294D01*
X487885Y114324D01*
X487833Y114330D01*
X487783Y114345D01*
X487712Y114343D01*
X487641Y114351D01*
X487590Y114340D01*
X487538Y114339D01*
X487470Y114314D01*
X487400Y114299D01*
X487356Y114272D01*
X487307Y114254D01*
X487251Y114209D01*
X487189Y114173D01*
X487155Y114133D01*
X487115Y114101D01*
X487076Y114040D01*
X487029Y113986D01*
X487010Y113937D01*
X486982Y113894D01*
X486964Y113824D01*
X486937Y113758D01*
X486929Y113686D01*
X486921Y113655D01*
X486923Y113632D01*
X486919Y113591D01*
X486919Y10922D01*
X486922Y10902D01*
X486920Y10883D01*
X486942Y10781D01*
X486959Y10679D01*
X486968Y10662D01*
X486972Y10642D01*
X487025Y10553D01*
X487074Y10462D01*
X487088Y10448D01*
X487098Y10431D01*
X487177Y10364D01*
X487252Y10292D01*
X487270Y10284D01*
X487285Y10271D01*
X487381Y10232D01*
X487475Y10189D01*
X487495Y10187D01*
X487513Y10179D01*
X487680Y10161D01*
X653897Y10161D01*
X653913Y10163D01*
X653929Y10161D01*
X654034Y10183D01*
X654139Y10200D01*
X654154Y10208D01*
X654170Y10212D01*
X654263Y10266D01*
X654357Y10316D01*
X654368Y10327D01*
X654382Y10336D01*
X654453Y10416D01*
X654526Y10494D01*
X654533Y10509D01*
X654544Y10521D01*
X654585Y10620D01*
X654630Y10717D01*
X654632Y10733D01*
X654638Y10749D01*
X654658Y10915D01*
X655319Y83862D01*
X655319Y83864D01*
X655319Y83868D01*
X655319Y101081D01*
X656866Y104816D01*
X666919Y114869D01*
X669884Y117834D01*
X673619Y119381D01*
X880003Y119381D01*
X880099Y119396D01*
X880196Y119406D01*
X880220Y119416D01*
X880246Y119420D01*
X880332Y119466D01*
X880421Y119506D01*
X880440Y119523D01*
X880463Y119536D01*
X880531Y119606D01*
X880602Y119672D01*
X880615Y119695D01*
X880633Y119714D01*
X880674Y119802D01*
X880721Y119888D01*
X880725Y119913D01*
X880736Y119937D01*
X880747Y120034D01*
X880764Y120130D01*
X880761Y120156D01*
X880764Y120181D01*
X880743Y120277D01*
X880729Y120373D01*
X880717Y120396D01*
X880711Y120422D01*
X880661Y120505D01*
X880617Y120592D01*
X880598Y120611D01*
X880585Y120633D01*
X880511Y120696D01*
X880442Y120764D01*
X880413Y120780D01*
X880398Y120793D01*
X880368Y120805D01*
X880295Y120845D01*
X877872Y121849D01*
X871849Y127872D01*
X868589Y135741D01*
X868589Y144259D01*
X871849Y152128D01*
X877872Y158151D01*
X885741Y161411D01*
X894259Y161411D01*
X900647Y158765D01*
X900691Y158754D01*
X900733Y158735D01*
X900810Y158726D01*
X900886Y158709D01*
X900932Y158713D01*
X900977Y158708D01*
X901054Y158724D01*
X901131Y158732D01*
X901173Y158750D01*
X901218Y158760D01*
X901285Y158800D01*
X901356Y158832D01*
X901390Y158863D01*
X901429Y158886D01*
X901480Y158945D01*
X901537Y158998D01*
X901559Y159038D01*
X901589Y159073D01*
X901618Y159145D01*
X901655Y159214D01*
X901664Y159259D01*
X901681Y159301D01*
X901696Y159437D01*
X901699Y159456D01*
X901698Y159461D01*
X901699Y159468D01*
X901699Y187198D01*
X901696Y187218D01*
X901698Y187237D01*
X901676Y187339D01*
X901660Y187441D01*
X901650Y187458D01*
X901646Y187478D01*
X901593Y187567D01*
X901544Y187658D01*
X901530Y187672D01*
X901520Y187689D01*
X901441Y187756D01*
X901366Y187828D01*
X901348Y187836D01*
X901333Y187849D01*
X901237Y187888D01*
X901143Y187931D01*
X901123Y187933D01*
X901105Y187941D01*
X900938Y187959D01*
X771107Y187959D01*
X771036Y187948D01*
X770965Y187946D01*
X770916Y187928D01*
X770864Y187920D01*
X770801Y187886D01*
X770734Y187861D01*
X770693Y187829D01*
X770647Y187804D01*
X770598Y187752D01*
X770542Y187708D01*
X770514Y187664D01*
X770478Y187626D01*
X770447Y187561D01*
X770409Y187501D01*
X770396Y187450D01*
X770374Y187403D01*
X770366Y187332D01*
X770349Y187262D01*
X770353Y187210D01*
X770347Y187159D01*
X770362Y187088D01*
X770368Y187017D01*
X770388Y186969D01*
X770399Y186918D01*
X770436Y186857D01*
X770464Y186791D01*
X770509Y186735D01*
X770525Y186707D01*
X770543Y186692D01*
X770569Y186660D01*
X771607Y185621D01*
X785925Y171304D01*
X786019Y171236D01*
X786114Y171166D01*
X786120Y171164D01*
X786125Y171160D01*
X786235Y171126D01*
X786347Y171090D01*
X786354Y171090D01*
X786360Y171088D01*
X786476Y171091D01*
X786593Y171092D01*
X786601Y171094D01*
X786606Y171094D01*
X786623Y171101D01*
X786755Y171139D01*
X788121Y171705D01*
X791759Y171705D01*
X795120Y170313D01*
X797693Y167740D01*
X799085Y164379D01*
X799085Y145553D01*
X799096Y145482D01*
X799098Y145410D01*
X799116Y145361D01*
X799124Y145310D01*
X799158Y145246D01*
X799183Y145179D01*
X799215Y145138D01*
X799240Y145092D01*
X799292Y145043D01*
X799336Y144987D01*
X799380Y144959D01*
X799418Y144923D01*
X799483Y144893D01*
X799543Y144854D01*
X799594Y144841D01*
X799641Y144819D01*
X799712Y144811D01*
X799782Y144794D01*
X799834Y144798D01*
X799885Y144792D01*
X799956Y144808D01*
X800027Y144813D01*
X800075Y144833D01*
X800126Y144845D01*
X800187Y144881D01*
X800253Y144909D01*
X800309Y144954D01*
X800337Y144971D01*
X800352Y144989D01*
X800384Y145014D01*
X805972Y150602D01*
X806025Y150676D01*
X806085Y150746D01*
X806097Y150776D01*
X806116Y150802D01*
X806143Y150889D01*
X806177Y150974D01*
X806181Y151015D01*
X806188Y151037D01*
X806187Y151069D01*
X806195Y151141D01*
X806195Y164379D01*
X807587Y167740D01*
X810160Y170313D01*
X813521Y171705D01*
X817159Y171705D01*
X820520Y170313D01*
X823093Y167740D01*
X824485Y164379D01*
X824485Y145501D01*
X823093Y142140D01*
X820520Y139567D01*
X817159Y138175D01*
X813521Y138175D01*
X810160Y139567D01*
X808117Y141610D01*
X808101Y141622D01*
X808088Y141638D01*
X808001Y141694D01*
X807917Y141754D01*
X807898Y141760D01*
X807881Y141771D01*
X807781Y141796D01*
X807682Y141826D01*
X807662Y141826D01*
X807643Y141831D01*
X807540Y141823D01*
X807436Y141820D01*
X807418Y141813D01*
X807398Y141812D01*
X807303Y141771D01*
X807205Y141736D01*
X807190Y141723D01*
X807171Y141715D01*
X807040Y141610D01*
X793636Y128206D01*
X662737Y128206D01*
X568205Y222737D01*
X568126Y222794D01*
X568051Y222856D01*
X568027Y222866D01*
X568005Y222881D01*
X567912Y222910D01*
X567821Y222945D01*
X567795Y222946D01*
X567770Y222953D01*
X567673Y222951D01*
X567576Y222955D01*
X567551Y222948D01*
X567524Y222947D01*
X567433Y222913D01*
X567339Y222886D01*
X567318Y222872D01*
X567293Y222863D01*
X567217Y222802D01*
X567137Y222746D01*
X567122Y222725D01*
X567101Y222709D01*
X567049Y222627D01*
X566991Y222549D01*
X566982Y222524D01*
X566968Y222502D01*
X566945Y222408D01*
X566914Y222315D01*
X566915Y222289D01*
X566908Y222263D01*
X566916Y222166D01*
X566917Y222069D01*
X566926Y222038D01*
X566927Y222018D01*
X566940Y221988D01*
X566963Y221908D01*
X567765Y219973D01*
X567765Y215787D01*
X566162Y211918D01*
X563202Y208958D01*
X559333Y207355D01*
X537147Y207355D01*
X533278Y208958D01*
X530318Y211918D01*
X528715Y215787D01*
X528715Y219973D01*
X530318Y223842D01*
X533278Y226802D01*
X537147Y228405D01*
X559333Y228405D01*
X561268Y227603D01*
X561363Y227581D01*
X561456Y227553D01*
X561482Y227553D01*
X561507Y227547D01*
X561604Y227556D01*
X561702Y227559D01*
X561726Y227568D01*
X561752Y227570D01*
X561841Y227610D01*
X561933Y227643D01*
X561953Y227660D01*
X561977Y227670D01*
X562049Y227736D01*
X562125Y227797D01*
X562139Y227819D01*
X562158Y227837D01*
X562205Y227922D01*
X562258Y228004D01*
X562264Y228029D01*
X562277Y228052D01*
X562294Y228148D01*
X562318Y228243D01*
X562316Y228269D01*
X562320Y228294D01*
X562306Y228391D01*
X562299Y228488D01*
X562288Y228512D01*
X562285Y228538D01*
X562240Y228625D01*
X562202Y228714D01*
X562182Y228740D01*
X562173Y228757D01*
X562149Y228780D01*
X562097Y228845D01*
X546437Y244505D01*
X546363Y244558D01*
X546294Y244618D01*
X546264Y244630D01*
X546237Y244649D01*
X546151Y244676D01*
X546066Y244710D01*
X546025Y244714D01*
X546002Y244721D01*
X545970Y244720D01*
X545899Y244728D01*
X508114Y244728D01*
X451667Y301175D01*
X451593Y301228D01*
X451524Y301288D01*
X451494Y301300D01*
X451467Y301319D01*
X451381Y301346D01*
X451296Y301380D01*
X451255Y301384D01*
X451232Y301391D01*
X451200Y301390D01*
X451129Y301398D01*
X448969Y301398D01*
X445861Y304507D01*
X445861Y308903D01*
X448969Y312012D01*
X453366Y312012D01*
X456474Y308903D01*
X456474Y306744D01*
X456489Y306653D01*
X456496Y306563D01*
X456509Y306533D01*
X456514Y306501D01*
X456557Y306420D01*
X456592Y306336D01*
X456618Y306304D01*
X456629Y306283D01*
X456652Y306261D01*
X456697Y306205D01*
X510838Y252065D01*
X510912Y252012D01*
X510981Y251952D01*
X511011Y251940D01*
X511038Y251921D01*
X511124Y251894D01*
X511209Y251860D01*
X511250Y251856D01*
X511273Y251849D01*
X511305Y251850D01*
X511376Y251842D01*
X549161Y251842D01*
X665460Y135542D01*
X665534Y135489D01*
X665604Y135430D01*
X665634Y135417D01*
X665660Y135399D01*
X665747Y135372D01*
X665832Y135338D01*
X665873Y135333D01*
X665895Y135326D01*
X665927Y135327D01*
X665999Y135319D01*
X790374Y135319D01*
X790464Y135334D01*
X790555Y135341D01*
X790585Y135354D01*
X790617Y135359D01*
X790697Y135402D01*
X790781Y135437D01*
X790813Y135463D01*
X790834Y135474D01*
X790856Y135497D01*
X790912Y135542D01*
X792246Y136876D01*
X792288Y136934D01*
X792337Y136986D01*
X792359Y137033D01*
X792389Y137075D01*
X792410Y137144D01*
X792441Y137209D01*
X792446Y137261D01*
X792462Y137311D01*
X792460Y137382D01*
X792468Y137453D01*
X792457Y137504D01*
X792455Y137556D01*
X792431Y137624D01*
X792415Y137694D01*
X792389Y137739D01*
X792371Y137787D01*
X792326Y137843D01*
X792289Y137905D01*
X792250Y137939D01*
X792217Y137979D01*
X792157Y138018D01*
X792102Y138065D01*
X792054Y138084D01*
X792010Y138112D01*
X791941Y138130D01*
X791874Y138157D01*
X791803Y138165D01*
X791772Y138173D01*
X791748Y138171D01*
X791707Y138175D01*
X788121Y138175D01*
X784760Y139567D01*
X782187Y142140D01*
X780795Y145501D01*
X780795Y160311D01*
X780781Y160401D01*
X780773Y160492D01*
X780761Y160522D01*
X780756Y160553D01*
X780713Y160634D01*
X780677Y160718D01*
X780651Y160750D01*
X780640Y160771D01*
X780617Y160793D01*
X780572Y160849D01*
X775715Y165706D01*
X775660Y165746D01*
X775611Y165793D01*
X775560Y165817D01*
X775515Y165850D01*
X775450Y165870D01*
X775389Y165899D01*
X775333Y165906D01*
X775280Y165922D01*
X775212Y165921D01*
X775145Y165929D01*
X775090Y165917D01*
X775034Y165916D01*
X774970Y165893D01*
X774904Y165879D01*
X774856Y165851D01*
X774803Y165832D01*
X774750Y165789D01*
X774691Y165755D01*
X774655Y165713D01*
X774611Y165678D01*
X774574Y165621D01*
X774530Y165569D01*
X774508Y165518D01*
X774478Y165471D01*
X774462Y165405D01*
X774435Y165342D01*
X774432Y165286D01*
X774418Y165232D01*
X774423Y165165D01*
X774419Y165097D01*
X774435Y165020D01*
X774437Y164987D01*
X774445Y164968D01*
X774448Y164955D01*
X774701Y163360D01*
X774701Y156463D01*
X766063Y156463D01*
X766063Y172606D01*
X766978Y172461D01*
X766984Y172461D01*
X767045Y172442D01*
X767100Y172444D01*
X767156Y172435D01*
X767223Y172447D01*
X767291Y172449D01*
X767343Y172468D01*
X767398Y172477D01*
X767458Y172510D01*
X767522Y172533D01*
X767565Y172568D01*
X767614Y172595D01*
X767661Y172644D01*
X767714Y172687D01*
X767744Y172734D01*
X767782Y172775D01*
X767810Y172837D01*
X767847Y172894D01*
X767860Y172948D01*
X767883Y172999D01*
X767890Y173066D01*
X767907Y173132D01*
X767902Y173188D01*
X767908Y173244D01*
X767893Y173310D01*
X767888Y173378D01*
X767866Y173429D01*
X767853Y173483D01*
X767818Y173541D01*
X767791Y173604D01*
X767742Y173665D01*
X767725Y173693D01*
X767709Y173707D01*
X767686Y173735D01*
X764671Y176751D01*
X764597Y176804D01*
X764527Y176863D01*
X764497Y176876D01*
X764471Y176894D01*
X764384Y176921D01*
X764299Y176955D01*
X764258Y176960D01*
X764236Y176967D01*
X764204Y176966D01*
X764132Y176974D01*
X673576Y176974D01*
X671522Y177825D01*
X619150Y230197D01*
X618299Y232251D01*
X618299Y238249D01*
X618283Y238345D01*
X618274Y238442D01*
X618263Y238466D01*
X618259Y238491D01*
X618214Y238577D01*
X618174Y238666D01*
X618156Y238686D01*
X618144Y238709D01*
X618073Y238776D01*
X618007Y238848D01*
X617985Y238860D01*
X617966Y238878D01*
X617877Y238919D01*
X617792Y238966D01*
X617766Y238971D01*
X617743Y238982D01*
X617646Y238993D01*
X617550Y239010D01*
X617524Y239006D01*
X617498Y239009D01*
X617403Y238988D01*
X617307Y238974D01*
X617283Y238962D01*
X617258Y238957D01*
X617174Y238907D01*
X617087Y238863D01*
X617069Y238844D01*
X617047Y238831D01*
X616983Y238757D01*
X616915Y238687D01*
X616899Y238658D01*
X616887Y238644D01*
X616874Y238613D01*
X616834Y238540D01*
X616162Y236918D01*
X613202Y233958D01*
X609333Y232355D01*
X587147Y232355D01*
X583278Y233958D01*
X580318Y236918D01*
X578715Y240787D01*
X578715Y244973D01*
X580318Y248842D01*
X583278Y251802D01*
X587147Y253405D01*
X609334Y253405D01*
X610037Y253113D01*
X610131Y253091D01*
X610225Y253063D01*
X610251Y253063D01*
X610276Y253057D01*
X610373Y253066D01*
X610470Y253069D01*
X610495Y253078D01*
X610521Y253080D01*
X610610Y253120D01*
X610701Y253153D01*
X610722Y253170D01*
X610746Y253180D01*
X610817Y253246D01*
X610893Y253307D01*
X610908Y253329D01*
X610927Y253347D01*
X610974Y253432D01*
X611026Y253514D01*
X611033Y253539D01*
X611045Y253562D01*
X611063Y253658D01*
X611087Y253753D01*
X611085Y253779D01*
X611089Y253804D01*
X611075Y253901D01*
X611067Y253998D01*
X611057Y254022D01*
X611053Y254048D01*
X611009Y254135D01*
X610971Y254224D01*
X610951Y254250D01*
X610942Y254267D01*
X610918Y254290D01*
X610866Y254355D01*
X568715Y296506D01*
X568636Y296563D01*
X568561Y296625D01*
X568536Y296635D01*
X568515Y296650D01*
X568422Y296678D01*
X568331Y296713D01*
X568305Y296715D01*
X568280Y296722D01*
X568183Y296720D01*
X568086Y296724D01*
X568060Y296717D01*
X568034Y296716D01*
X567943Y296682D01*
X567849Y296655D01*
X567828Y296640D01*
X567803Y296631D01*
X567727Y296570D01*
X567647Y296515D01*
X567632Y296494D01*
X567611Y296478D01*
X567559Y296396D01*
X567501Y296318D01*
X567492Y296293D01*
X567478Y296271D01*
X567454Y296176D01*
X567424Y296084D01*
X567425Y296058D01*
X567418Y296032D01*
X567426Y295935D01*
X567427Y295838D01*
X567436Y295806D01*
X567437Y295787D01*
X567450Y295757D01*
X567473Y295677D01*
X567765Y294974D01*
X567765Y290787D01*
X566162Y286918D01*
X563202Y283958D01*
X559333Y282355D01*
X537147Y282355D01*
X533278Y283958D01*
X530318Y286918D01*
X528715Y290787D01*
X528715Y294973D01*
X530318Y298842D01*
X533278Y301802D01*
X537147Y303405D01*
X559334Y303405D01*
X560037Y303113D01*
X560131Y303091D01*
X560225Y303063D01*
X560251Y303063D01*
X560276Y303057D01*
X560373Y303066D01*
X560470Y303069D01*
X560495Y303078D01*
X560521Y303080D01*
X560610Y303120D01*
X560701Y303153D01*
X560722Y303170D01*
X560746Y303180D01*
X560817Y303246D01*
X560893Y303307D01*
X560908Y303329D01*
X560927Y303347D01*
X560974Y303432D01*
X561026Y303514D01*
X561033Y303539D01*
X561045Y303562D01*
X561063Y303658D01*
X561087Y303753D01*
X561085Y303779D01*
X561089Y303804D01*
X561075Y303901D01*
X561067Y303998D01*
X561057Y304022D01*
X561053Y304048D01*
X561009Y304135D01*
X560971Y304224D01*
X560951Y304250D01*
X560942Y304267D01*
X560918Y304290D01*
X560866Y304355D01*
X542421Y322801D01*
X542347Y322854D01*
X542277Y322913D01*
X542247Y322926D01*
X542221Y322944D01*
X542134Y322971D01*
X542049Y323005D01*
X542008Y323010D01*
X541986Y323017D01*
X541954Y323016D01*
X541882Y323024D01*
X531971Y323024D01*
X529917Y323875D01*
X485800Y367992D01*
X484949Y370046D01*
X484949Y410104D01*
X484937Y410175D01*
X484935Y410247D01*
X484917Y410296D01*
X484909Y410347D01*
X484875Y410410D01*
X484851Y410478D01*
X484818Y410518D01*
X484794Y410564D01*
X484742Y410614D01*
X484697Y410670D01*
X484653Y410698D01*
X484616Y410734D01*
X484551Y410764D01*
X484490Y410803D01*
X484440Y410815D01*
X484393Y410837D01*
X484321Y410845D01*
X484252Y410863D01*
X484200Y410859D01*
X484148Y410864D01*
X484078Y410849D01*
X484007Y410844D01*
X483959Y410823D01*
X483908Y410812D01*
X483846Y410775D01*
X483780Y410747D01*
X483724Y410702D01*
X483697Y410686D01*
X483681Y410668D01*
X483649Y410642D01*
X304698Y231691D01*
X301797Y228790D01*
X275935Y228790D01*
X275864Y228778D01*
X275793Y228776D01*
X275744Y228758D01*
X275692Y228750D01*
X275629Y228716D01*
X275562Y228692D01*
X275521Y228659D01*
X275475Y228635D01*
X275426Y228583D01*
X275370Y228538D01*
X275342Y228494D01*
X275306Y228457D01*
X275276Y228392D01*
X275237Y228331D01*
X275224Y228281D01*
X275202Y228234D01*
X275194Y228162D01*
X275177Y228093D01*
X275181Y228041D01*
X275175Y227989D01*
X275190Y227919D01*
X275196Y227848D01*
X275216Y227800D01*
X275227Y227749D01*
X275264Y227687D01*
X275292Y227621D01*
X275337Y227565D01*
X275353Y227538D01*
X275371Y227522D01*
X275397Y227490D01*
X277145Y225742D01*
X278565Y222315D01*
X278565Y218605D01*
X277145Y215178D01*
X274522Y212555D01*
X271095Y211135D01*
X267385Y211135D01*
X263958Y212555D01*
X261270Y215243D01*
X261267Y215248D01*
X261263Y215252D01*
X261259Y215257D01*
X261239Y215274D01*
X261228Y215285D01*
X261211Y215297D01*
X261169Y215332D01*
X261080Y215408D01*
X261075Y215410D01*
X261070Y215414D01*
X260961Y215456D01*
X260852Y215500D01*
X260845Y215501D01*
X260840Y215502D01*
X260822Y215503D01*
X260685Y215518D01*
X247851Y215518D01*
X247761Y215504D01*
X247670Y215496D01*
X247640Y215484D01*
X247608Y215479D01*
X247528Y215436D01*
X247444Y215400D01*
X247412Y215374D01*
X247391Y215363D01*
X247369Y215340D01*
X247313Y215295D01*
X211742Y179725D01*
X211689Y179651D01*
X211630Y179581D01*
X211617Y179551D01*
X211599Y179525D01*
X211572Y179438D01*
X211538Y179353D01*
X211533Y179312D01*
X211526Y179290D01*
X211527Y179258D01*
X211519Y179186D01*
X211519Y128384D01*
X209213Y126078D01*
X134902Y51767D01*
X134854Y51700D01*
X134850Y51696D01*
X134849Y51693D01*
X134835Y51673D01*
X134764Y51578D01*
X134762Y51572D01*
X134759Y51567D01*
X134724Y51457D01*
X134688Y51345D01*
X134688Y51338D01*
X134686Y51332D01*
X134689Y51215D01*
X134690Y51099D01*
X134692Y51091D01*
X134693Y51086D01*
X134699Y51069D01*
X134737Y50937D01*
X136145Y47539D01*
X136145Y28661D01*
X134753Y25300D01*
X132180Y22727D01*
X128819Y21335D01*
X125181Y21335D01*
X121820Y22727D01*
X119247Y25300D01*
X117855Y28661D01*
X117855Y47539D01*
X118209Y48394D01*
X118232Y48489D01*
X118260Y48582D01*
X118260Y48608D01*
X118266Y48633D01*
X118256Y48730D01*
X118254Y48828D01*
X118245Y48852D01*
X118242Y48878D01*
X118203Y48967D01*
X118169Y49059D01*
X118153Y49079D01*
X118142Y49103D01*
X118077Y49175D01*
X118016Y49251D01*
X117994Y49265D01*
X117976Y49284D01*
X117891Y49331D01*
X117809Y49384D01*
X117783Y49390D01*
X117761Y49403D01*
X117665Y49420D01*
X117570Y49444D01*
X117544Y49442D01*
X117518Y49446D01*
X117422Y49432D01*
X117325Y49425D01*
X117301Y49414D01*
X117275Y49411D01*
X117188Y49366D01*
X117099Y49328D01*
X117073Y49308D01*
X117056Y49299D01*
X117033Y49275D01*
X116968Y49223D01*
X110968Y43223D01*
X110915Y43149D01*
X110855Y43080D01*
X110843Y43050D01*
X110824Y43024D01*
X110797Y42937D01*
X110763Y42852D01*
X110759Y42811D01*
X110752Y42789D01*
X110753Y42756D01*
X110745Y42685D01*
X110745Y28661D01*
X109353Y25300D01*
X106780Y22727D01*
X103419Y21335D01*
X99781Y21335D01*
X96420Y22727D01*
X93847Y25300D01*
X92455Y28661D01*
X92455Y47539D01*
X93847Y50900D01*
X96420Y53473D01*
X99781Y54865D01*
X103419Y54865D01*
X106780Y53473D01*
X106993Y53259D01*
X107010Y53248D01*
X107022Y53232D01*
X107109Y53176D01*
X107193Y53116D01*
X107212Y53110D01*
X107229Y53099D01*
X107329Y53074D01*
X107428Y53043D01*
X107448Y53044D01*
X107467Y53039D01*
X107570Y53047D01*
X107674Y53050D01*
X107693Y53057D01*
X107713Y53058D01*
X107808Y53099D01*
X107905Y53134D01*
X107921Y53147D01*
X107939Y53154D01*
X108070Y53259D01*
X191737Y136926D01*
X191790Y137000D01*
X191849Y137070D01*
X191862Y137100D01*
X191880Y137126D01*
X191907Y137213D01*
X191941Y137298D01*
X191946Y137339D01*
X191953Y137361D01*
X191952Y137393D01*
X191960Y137464D01*
X191960Y186997D01*
X239997Y235034D01*
X242898Y237935D01*
X262140Y237935D01*
X262211Y237947D01*
X262282Y237949D01*
X262331Y237967D01*
X262383Y237975D01*
X262446Y238009D01*
X262513Y238033D01*
X262554Y238066D01*
X262600Y238090D01*
X262649Y238142D01*
X262705Y238187D01*
X262733Y238231D01*
X262769Y238268D01*
X262799Y238333D01*
X262838Y238394D01*
X262851Y238444D01*
X262873Y238491D01*
X262881Y238563D01*
X262898Y238632D01*
X262894Y238684D01*
X262900Y238736D01*
X262885Y238806D01*
X262879Y238877D01*
X262859Y238925D01*
X262848Y238976D01*
X262811Y239038D01*
X262783Y239104D01*
X262738Y239160D01*
X262722Y239187D01*
X262704Y239203D01*
X262678Y239235D01*
X261335Y240578D01*
X259915Y244005D01*
X259915Y247715D01*
X261335Y251142D01*
X263988Y253795D01*
X264069Y253838D01*
X264087Y253857D01*
X264109Y253871D01*
X264171Y253946D01*
X264238Y254016D01*
X264249Y254040D01*
X264266Y254060D01*
X264301Y254151D01*
X264342Y254240D01*
X264345Y254265D01*
X264354Y254290D01*
X264358Y254387D01*
X264369Y254484D01*
X264364Y254509D01*
X264365Y254535D01*
X264338Y254629D01*
X264317Y254724D01*
X264304Y254747D01*
X264296Y254772D01*
X264241Y254852D01*
X264191Y254935D01*
X264171Y254952D01*
X264156Y254974D01*
X264078Y255032D01*
X264004Y255095D01*
X263980Y255105D01*
X263959Y255121D01*
X263866Y255151D01*
X263776Y255187D01*
X263743Y255191D01*
X263725Y255197D01*
X263692Y255197D01*
X263609Y255206D01*
X239914Y255206D01*
X239823Y255191D01*
X239733Y255184D01*
X239703Y255171D01*
X239671Y255166D01*
X239590Y255123D01*
X239506Y255088D01*
X239474Y255062D01*
X239453Y255051D01*
X239431Y255028D01*
X239375Y254983D01*
X230073Y245681D01*
X168728Y245681D01*
X168638Y245666D01*
X168547Y245659D01*
X168518Y245646D01*
X168486Y245641D01*
X168405Y245598D01*
X168321Y245563D01*
X168289Y245537D01*
X168268Y245526D01*
X168246Y245503D01*
X168190Y245458D01*
X166663Y243931D01*
X162267Y243931D01*
X159158Y247039D01*
X159158Y251436D01*
X162267Y254544D01*
X166663Y254544D01*
X168190Y253017D01*
X168264Y252964D01*
X168334Y252905D01*
X168364Y252892D01*
X168390Y252874D01*
X168477Y252847D01*
X168562Y252813D01*
X168603Y252808D01*
X168625Y252801D01*
X168657Y252802D01*
X168728Y252794D01*
X226811Y252794D01*
X226902Y252809D01*
X226992Y252816D01*
X227022Y252829D01*
X227054Y252834D01*
X227135Y252877D01*
X227219Y252912D01*
X227251Y252938D01*
X227272Y252949D01*
X227294Y252972D01*
X227350Y253017D01*
X236652Y262319D01*
X263156Y262319D01*
X263227Y262331D01*
X263298Y262333D01*
X263347Y262351D01*
X263399Y262359D01*
X263462Y262393D01*
X263529Y262417D01*
X263570Y262450D01*
X263616Y262474D01*
X263665Y262526D01*
X263721Y262571D01*
X263749Y262615D01*
X263785Y262652D01*
X263815Y262717D01*
X263854Y262778D01*
X263867Y262828D01*
X263889Y262875D01*
X263897Y262947D01*
X263914Y263016D01*
X263910Y263068D01*
X263916Y263120D01*
X263901Y263190D01*
X263895Y263261D01*
X263875Y263309D01*
X263864Y263360D01*
X263827Y263422D01*
X263799Y263488D01*
X263754Y263544D01*
X263738Y263571D01*
X263720Y263587D01*
X263694Y263619D01*
X261335Y265978D01*
X259915Y269405D01*
X259915Y273115D01*
X260681Y274962D01*
X260707Y275076D01*
X260736Y275189D01*
X260735Y275196D01*
X260737Y275202D01*
X260726Y275318D01*
X260717Y275435D01*
X260714Y275440D01*
X260714Y275447D01*
X260666Y275554D01*
X260620Y275661D01*
X260616Y275667D01*
X260614Y275671D01*
X260601Y275685D01*
X260516Y275792D01*
X252912Y283395D01*
X252838Y283448D01*
X252769Y283508D01*
X252739Y283520D01*
X252712Y283539D01*
X252626Y283566D01*
X252541Y283600D01*
X252500Y283604D01*
X252477Y283611D01*
X252445Y283610D01*
X252374Y283618D01*
X250214Y283618D01*
X247106Y286727D01*
X247106Y291123D01*
X250214Y294232D01*
X254611Y294232D01*
X257719Y291123D01*
X257719Y288964D01*
X257734Y288873D01*
X257741Y288783D01*
X257754Y288753D01*
X257759Y288721D01*
X257802Y288640D01*
X257837Y288556D01*
X257863Y288524D01*
X257874Y288503D01*
X257897Y288481D01*
X257942Y288425D01*
X265892Y280475D01*
X265987Y280407D01*
X266081Y280337D01*
X266087Y280335D01*
X266092Y280332D01*
X266204Y280297D01*
X266315Y280261D01*
X266321Y280261D01*
X266327Y280259D01*
X266444Y280262D01*
X266561Y280263D01*
X266568Y280265D01*
X266573Y280266D01*
X266591Y280272D01*
X266722Y280310D01*
X267385Y280585D01*
X271095Y280585D01*
X274522Y279165D01*
X277145Y276542D01*
X278565Y273115D01*
X278565Y269405D01*
X277145Y265978D01*
X274786Y263619D01*
X274744Y263561D01*
X274695Y263509D01*
X274673Y263461D01*
X274642Y263419D01*
X274621Y263351D01*
X274591Y263285D01*
X274585Y263234D01*
X274570Y263184D01*
X274572Y263112D01*
X274564Y263041D01*
X274575Y262990D01*
X274576Y262938D01*
X274601Y262871D01*
X274616Y262801D01*
X274643Y262756D01*
X274661Y262707D01*
X274706Y262651D01*
X274742Y262590D01*
X274782Y262556D01*
X274815Y262515D01*
X274875Y262476D01*
X274929Y262430D01*
X274978Y262410D01*
X275021Y262382D01*
X275091Y262365D01*
X275157Y262338D01*
X275229Y262330D01*
X275260Y262322D01*
X275283Y262324D01*
X275324Y262319D01*
X279199Y262319D01*
X279289Y262334D01*
X279380Y262341D01*
X279410Y262354D01*
X279442Y262359D01*
X279522Y262402D01*
X279606Y262437D01*
X279638Y262463D01*
X279659Y262474D01*
X279681Y262497D01*
X279737Y262542D01*
X331264Y314069D01*
X331306Y314127D01*
X331355Y314179D01*
X331377Y314226D01*
X331407Y314268D01*
X331428Y314337D01*
X331459Y314402D01*
X331464Y314454D01*
X331480Y314504D01*
X331478Y314575D01*
X331486Y314646D01*
X331475Y314697D01*
X331473Y314749D01*
X331449Y314817D01*
X331433Y314887D01*
X331407Y314932D01*
X331389Y314980D01*
X331344Y315036D01*
X331307Y315098D01*
X331268Y315132D01*
X331235Y315172D01*
X331175Y315211D01*
X331120Y315258D01*
X331072Y315277D01*
X331028Y315305D01*
X330959Y315323D01*
X330892Y315350D01*
X330821Y315358D01*
X330790Y315366D01*
X330766Y315364D01*
X330725Y315368D01*
X329589Y315368D01*
X326481Y318477D01*
X326481Y322873D01*
X328008Y324400D01*
X328061Y324474D01*
X328120Y324544D01*
X328133Y324574D01*
X328151Y324600D01*
X328178Y324687D01*
X328212Y324772D01*
X328217Y324813D01*
X328224Y324835D01*
X328223Y324867D01*
X328231Y324938D01*
X328231Y358574D01*
X328216Y358664D01*
X328209Y358755D01*
X328196Y358785D01*
X328191Y358817D01*
X328148Y358897D01*
X328113Y358981D01*
X328087Y359013D01*
X328076Y359034D01*
X328053Y359056D01*
X328008Y359112D01*
X272649Y414471D01*
X272555Y414539D01*
X272461Y414609D01*
X272455Y414610D01*
X272450Y414614D01*
X272338Y414648D01*
X272227Y414685D01*
X272221Y414685D01*
X272215Y414686D01*
X272098Y414683D01*
X271981Y414682D01*
X271974Y414680D01*
X271969Y414680D01*
X271951Y414674D01*
X271820Y414636D01*
X271095Y414335D01*
X267385Y414335D01*
X263958Y415755D01*
X261335Y418378D01*
X259915Y421805D01*
X259915Y425515D01*
X261335Y428942D01*
X263958Y431565D01*
X267385Y432985D01*
X271095Y432985D01*
X274522Y431565D01*
X277145Y428942D01*
X278565Y425515D01*
X278565Y421805D01*
X277825Y420019D01*
X277798Y419906D01*
X277770Y419792D01*
X277770Y419786D01*
X277769Y419780D01*
X277780Y419663D01*
X277789Y419547D01*
X277791Y419541D01*
X277792Y419535D01*
X277834Y419442D01*
X277835Y419433D01*
X277842Y419422D01*
X277885Y419321D01*
X277890Y419315D01*
X277892Y419310D01*
X277905Y419297D01*
X277954Y419235D01*
X277962Y419222D01*
X277970Y419215D01*
X277990Y419190D01*
X335344Y361836D01*
X335344Y324938D01*
X335359Y324848D01*
X335366Y324757D01*
X335379Y324728D01*
X335384Y324696D01*
X335427Y324615D01*
X335462Y324531D01*
X335488Y324499D01*
X335499Y324478D01*
X335522Y324456D01*
X335567Y324400D01*
X337094Y322873D01*
X337094Y321737D01*
X337106Y321666D01*
X337108Y321595D01*
X337126Y321546D01*
X337134Y321494D01*
X337168Y321431D01*
X337192Y321364D01*
X337225Y321323D01*
X337249Y321277D01*
X337301Y321228D01*
X337346Y321172D01*
X337390Y321143D01*
X337427Y321108D01*
X337492Y321077D01*
X337553Y321039D01*
X337603Y321026D01*
X337650Y321004D01*
X337722Y320996D01*
X337791Y320978D01*
X337843Y320983D01*
X337895Y320977D01*
X337965Y320992D01*
X338036Y320998D01*
X338084Y321018D01*
X338135Y321029D01*
X338197Y321066D01*
X338263Y321094D01*
X338319Y321139D01*
X338346Y321155D01*
X338362Y321173D01*
X338394Y321199D01*
X447705Y430510D01*
X447758Y430584D01*
X447818Y430654D01*
X447830Y430684D01*
X447849Y430710D01*
X447876Y430797D01*
X447910Y430882D01*
X447914Y430923D01*
X447921Y430945D01*
X447920Y430977D01*
X447928Y431049D01*
X447928Y443412D01*
X447914Y443502D01*
X447906Y443593D01*
X447894Y443622D01*
X447889Y443654D01*
X447846Y443735D01*
X447810Y443819D01*
X447784Y443851D01*
X447773Y443872D01*
X447750Y443894D01*
X447705Y443950D01*
X446178Y445477D01*
X446178Y449873D01*
X449287Y452982D01*
X450677Y452982D01*
X450748Y452993D01*
X450819Y452995D01*
X450868Y453013D01*
X450920Y453021D01*
X450983Y453055D01*
X451050Y453080D01*
X451091Y453112D01*
X451137Y453137D01*
X451186Y453189D01*
X451242Y453233D01*
X451270Y453277D01*
X451306Y453315D01*
X451336Y453380D01*
X451375Y453440D01*
X451388Y453491D01*
X451410Y453538D01*
X451418Y453609D01*
X451435Y453679D01*
X451431Y453731D01*
X451437Y453782D01*
X451422Y453853D01*
X451416Y453924D01*
X451396Y453972D01*
X451385Y454023D01*
X451348Y454084D01*
X451320Y454150D01*
X451275Y454206D01*
X451259Y454234D01*
X451241Y454249D01*
X451215Y454281D01*
X448592Y456904D01*
X448576Y456916D01*
X448563Y456931D01*
X448477Y456987D01*
X448392Y457048D01*
X448373Y457054D01*
X448357Y457064D01*
X448257Y457090D01*
X448157Y457120D01*
X448137Y457120D01*
X448118Y457124D01*
X448015Y457116D01*
X447911Y457114D01*
X447893Y457107D01*
X447873Y457105D01*
X447777Y457065D01*
X447680Y457029D01*
X447665Y457017D01*
X447646Y457009D01*
X447516Y456904D01*
X447356Y456744D01*
X443855Y455294D01*
X440065Y455294D01*
X436564Y456744D01*
X433884Y459424D01*
X432434Y462925D01*
X432434Y466715D01*
X433884Y470216D01*
X436564Y472896D01*
X438059Y473515D01*
X438142Y473566D01*
X438228Y473612D01*
X438246Y473630D01*
X438268Y473644D01*
X438330Y473720D01*
X438397Y473790D01*
X438408Y473814D01*
X438425Y473834D01*
X438460Y473925D01*
X438501Y474013D01*
X438504Y474039D01*
X438513Y474063D01*
X438517Y474161D01*
X438528Y474257D01*
X438522Y474283D01*
X438523Y474309D01*
X438496Y474403D01*
X438476Y474498D01*
X438462Y474520D01*
X438455Y474545D01*
X438399Y474625D01*
X438349Y474709D01*
X438330Y474726D01*
X438315Y474747D01*
X438237Y474806D01*
X438163Y474869D01*
X438138Y474879D01*
X438117Y474894D01*
X438025Y474924D01*
X437934Y474961D01*
X437902Y474964D01*
X437883Y474970D01*
X437850Y474970D01*
X437768Y474979D01*
X423147Y474979D01*
X423076Y474968D01*
X423004Y474966D01*
X422955Y474948D01*
X422904Y474940D01*
X422841Y474906D01*
X422773Y474881D01*
X422733Y474849D01*
X422687Y474824D01*
X422637Y474772D01*
X422581Y474728D01*
X422553Y474684D01*
X422517Y474646D01*
X422487Y474581D01*
X422448Y474521D01*
X422436Y474470D01*
X422414Y474423D01*
X422406Y474352D01*
X422388Y474282D01*
X422392Y474230D01*
X422387Y474179D01*
X422402Y474108D01*
X422407Y474037D01*
X422428Y473989D01*
X422439Y473938D01*
X422476Y473877D01*
X422504Y473811D01*
X422548Y473755D01*
X422565Y473727D01*
X422583Y473712D01*
X422608Y473680D01*
X427102Y469187D01*
X427102Y466343D01*
X417322Y466343D01*
X417302Y466340D01*
X417283Y466342D01*
X417181Y466320D01*
X417079Y466303D01*
X417062Y466294D01*
X417042Y466290D01*
X416953Y466237D01*
X416862Y466188D01*
X416848Y466174D01*
X416831Y466164D01*
X416764Y466085D01*
X416693Y466010D01*
X416684Y465992D01*
X416671Y465977D01*
X416633Y465881D01*
X416589Y465787D01*
X416587Y465767D01*
X416579Y465749D01*
X416561Y465582D01*
X416561Y464819D01*
X416559Y464819D01*
X416559Y465582D01*
X416556Y465602D01*
X416558Y465621D01*
X416536Y465723D01*
X416519Y465825D01*
X416510Y465842D01*
X416506Y465862D01*
X416453Y465951D01*
X416404Y466042D01*
X416390Y466056D01*
X416380Y466073D01*
X416301Y466140D01*
X416226Y466211D01*
X416208Y466220D01*
X416193Y466233D01*
X416097Y466272D01*
X416003Y466315D01*
X415983Y466317D01*
X415965Y466325D01*
X415798Y466343D01*
X406018Y466343D01*
X406018Y469187D01*
X410512Y473680D01*
X410553Y473738D01*
X410603Y473790D01*
X410625Y473837D01*
X410655Y473879D01*
X410676Y473948D01*
X410706Y474013D01*
X410712Y474065D01*
X410727Y474115D01*
X410726Y474186D01*
X410733Y474257D01*
X410722Y474308D01*
X410721Y474360D01*
X410696Y474428D01*
X410681Y474498D01*
X410654Y474543D01*
X410637Y474591D01*
X410592Y474647D01*
X410555Y474709D01*
X410515Y474743D01*
X410483Y474783D01*
X410423Y474822D01*
X410368Y474869D01*
X410320Y474888D01*
X410276Y474916D01*
X410207Y474934D01*
X410140Y474961D01*
X410069Y474969D01*
X410037Y474977D01*
X410014Y474975D01*
X409973Y474979D01*
X359235Y474979D01*
X359169Y474968D01*
X359101Y474967D01*
X359048Y474949D01*
X358992Y474940D01*
X358933Y474908D01*
X358869Y474885D01*
X358825Y474851D01*
X358775Y474824D01*
X358728Y474775D01*
X358675Y474734D01*
X358644Y474687D01*
X358606Y474646D01*
X358577Y474585D01*
X358540Y474528D01*
X358526Y474474D01*
X358502Y474423D01*
X358495Y474356D01*
X358477Y474291D01*
X358479Y474211D01*
X358475Y474179D01*
X358479Y474158D01*
X358480Y474123D01*
X360224Y460270D01*
X360237Y460228D01*
X360240Y460184D01*
X360271Y460111D01*
X360294Y460034D01*
X360319Y459998D01*
X360337Y459958D01*
X360367Y459919D01*
X360367Y459184D01*
X360372Y459154D01*
X360373Y459089D01*
X360465Y458358D01*
X360448Y458315D01*
X360410Y458245D01*
X360402Y458202D01*
X360386Y458161D01*
X360380Y458112D01*
X359860Y457592D01*
X359842Y457567D01*
X359797Y457521D01*
X359346Y456939D01*
X359303Y456921D01*
X359226Y456898D01*
X359190Y456873D01*
X359150Y456856D01*
X359112Y456825D01*
X358376Y456825D01*
X358346Y456820D01*
X358281Y456819D01*
X357841Y456764D01*
X357750Y456737D01*
X357656Y456717D01*
X357632Y456702D01*
X357605Y456694D01*
X357527Y456639D01*
X357445Y456590D01*
X357427Y456569D01*
X357404Y456553D01*
X357347Y456476D01*
X357285Y456403D01*
X357275Y456377D01*
X357258Y456355D01*
X357229Y456264D01*
X357193Y456175D01*
X357189Y456140D01*
X357183Y456120D01*
X357183Y456087D01*
X357175Y456009D01*
X357175Y432099D01*
X355901Y430825D01*
X354099Y430825D01*
X352825Y432099D01*
X352825Y456009D01*
X352810Y456103D01*
X352801Y456198D01*
X352790Y456224D01*
X352786Y456251D01*
X352741Y456335D01*
X352703Y456423D01*
X352684Y456444D01*
X352670Y456469D01*
X352601Y456534D01*
X352537Y456605D01*
X352512Y456619D01*
X352492Y456638D01*
X352406Y456678D01*
X352322Y456725D01*
X352288Y456733D01*
X352269Y456742D01*
X352236Y456745D01*
X352159Y456764D01*
X351719Y456819D01*
X351688Y456818D01*
X351624Y456825D01*
X350887Y456825D01*
X350846Y456848D01*
X350781Y456895D01*
X350739Y456907D01*
X350701Y456929D01*
X350653Y456940D01*
X350203Y457521D01*
X350180Y457542D01*
X350140Y457592D01*
X349619Y458113D01*
X349606Y458158D01*
X349593Y458237D01*
X349573Y458276D01*
X349561Y458318D01*
X349535Y458360D01*
X349627Y459089D01*
X349626Y459120D01*
X349633Y459184D01*
X349633Y459921D01*
X349656Y459962D01*
X349702Y460026D01*
X349715Y460068D01*
X349736Y460107D01*
X349770Y460248D01*
X349774Y460261D01*
X349774Y460265D01*
X349776Y460270D01*
X351520Y474123D01*
X351518Y474190D01*
X351525Y474257D01*
X351513Y474312D01*
X351511Y474369D01*
X351487Y474432D01*
X351473Y474498D01*
X351444Y474546D01*
X351424Y474599D01*
X351381Y474651D01*
X351347Y474709D01*
X351304Y474746D01*
X351268Y474789D01*
X351211Y474825D01*
X351160Y474869D01*
X351108Y474890D01*
X351060Y474920D01*
X350994Y474936D01*
X350932Y474961D01*
X350853Y474970D01*
X350821Y474977D01*
X350800Y474975D01*
X350765Y474979D01*
X287539Y474979D01*
X283804Y476526D01*
X278636Y481695D01*
X278584Y481732D01*
X278538Y481777D01*
X278485Y481803D01*
X278436Y481838D01*
X278375Y481857D01*
X278318Y481885D01*
X278258Y481893D01*
X278201Y481911D01*
X278137Y481909D01*
X278074Y481917D01*
X278015Y481906D01*
X277955Y481904D01*
X277895Y481882D01*
X277832Y481870D01*
X277780Y481841D01*
X277724Y481820D01*
X277674Y481780D01*
X277619Y481748D01*
X277579Y481704D01*
X277532Y481666D01*
X277497Y481612D01*
X277455Y481565D01*
X277431Y481510D01*
X277399Y481459D01*
X277383Y481397D01*
X277358Y481339D01*
X277354Y481279D01*
X277339Y481221D01*
X277344Y481157D01*
X277339Y481093D01*
X277353Y481035D01*
X277358Y480976D01*
X277383Y480917D01*
X277399Y480855D01*
X277441Y480779D01*
X277454Y480749D01*
X277470Y480730D01*
X277482Y480709D01*
X278084Y479880D01*
X278823Y478430D01*
X279326Y476881D01*
X279468Y475983D01*
X270763Y475983D01*
X270763Y484688D01*
X271661Y484546D01*
X273210Y484043D01*
X274660Y483304D01*
X275489Y482702D01*
X275546Y482673D01*
X275598Y482636D01*
X275655Y482618D01*
X275709Y482591D01*
X275772Y482582D01*
X275833Y482563D01*
X275893Y482565D01*
X275952Y482556D01*
X276015Y482568D01*
X276079Y482570D01*
X276135Y482590D01*
X276194Y482601D01*
X276250Y482632D01*
X276310Y482654D01*
X276357Y482692D01*
X276409Y482721D01*
X276452Y482768D01*
X276502Y482808D01*
X276534Y482858D01*
X276575Y482903D01*
X276600Y482961D01*
X276635Y483015D01*
X276650Y483073D01*
X276674Y483128D01*
X276679Y483191D01*
X276695Y483253D01*
X276690Y483313D01*
X276696Y483373D01*
X276681Y483435D01*
X276676Y483498D01*
X276653Y483554D01*
X276639Y483612D01*
X276605Y483666D01*
X276580Y483725D01*
X276526Y483792D01*
X276508Y483820D01*
X276490Y483837D01*
X276475Y483856D01*
X236070Y524260D01*
X236012Y524302D01*
X235960Y524352D01*
X235913Y524374D01*
X235871Y524404D01*
X235802Y524425D01*
X235737Y524455D01*
X235685Y524461D01*
X235635Y524476D01*
X235564Y524474D01*
X235493Y524482D01*
X235442Y524471D01*
X235390Y524470D01*
X235322Y524445D01*
X235252Y524430D01*
X235208Y524403D01*
X235159Y524385D01*
X235103Y524341D01*
X235041Y524304D01*
X235007Y524264D01*
X234967Y524232D01*
X234928Y524171D01*
X234881Y524117D01*
X234862Y524069D01*
X234834Y524025D01*
X234816Y523955D01*
X234789Y523889D01*
X234781Y523817D01*
X234773Y523786D01*
X234775Y523763D01*
X234771Y523722D01*
X234771Y518981D01*
X231511Y511112D01*
X225488Y505089D01*
X217619Y501829D01*
X209101Y501829D01*
X201232Y505089D01*
X195209Y511112D01*
X191949Y518981D01*
X191949Y527499D01*
X194968Y534787D01*
X194978Y534831D01*
X194998Y534873D01*
X195006Y534950D01*
X195024Y535026D01*
X195020Y535072D01*
X195025Y535117D01*
X195008Y535194D01*
X195001Y535271D01*
X194982Y535313D01*
X194973Y535358D01*
X194933Y535425D01*
X194901Y535496D01*
X194870Y535530D01*
X194846Y535569D01*
X194787Y535620D01*
X194735Y535677D01*
X194694Y535699D01*
X194660Y535729D01*
X194587Y535758D01*
X194519Y535795D01*
X194474Y535804D01*
X194431Y535821D01*
X194295Y535836D01*
X194277Y535839D01*
X194272Y535838D01*
X194265Y535839D01*
X43007Y535839D01*
X42962Y535832D01*
X42916Y535834D01*
X42841Y535812D01*
X42765Y535800D01*
X42724Y535778D01*
X42680Y535765D01*
X42616Y535721D01*
X42547Y535684D01*
X42516Y535651D01*
X42478Y535625D01*
X42431Y535562D01*
X42378Y535506D01*
X42359Y535464D01*
X42331Y535428D01*
X42307Y535354D01*
X42274Y535283D01*
X42269Y535237D01*
X42255Y535194D01*
X42256Y535116D01*
X42247Y535039D01*
X42257Y534994D01*
X42257Y534948D01*
X42295Y534816D01*
X42299Y534798D01*
X42302Y534794D01*
X42304Y534787D01*
X44271Y530039D01*
X44271Y521521D01*
X41011Y513652D01*
X34988Y507629D01*
X27119Y504369D01*
X18601Y504369D01*
X11213Y507429D01*
X11169Y507440D01*
X11127Y507459D01*
X11050Y507468D01*
X10974Y507486D01*
X10928Y507481D01*
X10883Y507486D01*
X10806Y507470D01*
X10729Y507462D01*
X10687Y507444D01*
X10642Y507434D01*
X10575Y507394D01*
X10504Y507362D01*
X10470Y507331D01*
X10431Y507308D01*
X10380Y507249D01*
X10323Y507196D01*
X10301Y507156D01*
X10271Y507121D01*
X10242Y507049D01*
X10205Y506981D01*
X10196Y506935D01*
X10179Y506893D01*
X10164Y506757D01*
X10161Y506739D01*
X10162Y506734D01*
X10161Y506726D01*
X10161Y484546D01*
X10164Y484526D01*
X10162Y484507D01*
X10184Y484405D01*
X10200Y484303D01*
X10210Y484286D01*
X10214Y484266D01*
X10267Y484177D01*
X10316Y484086D01*
X10330Y484072D01*
X10340Y484055D01*
X10419Y483988D01*
X10494Y483916D01*
X10512Y483908D01*
X10527Y483895D01*
X10623Y483856D01*
X10717Y483813D01*
X10737Y483811D01*
X10755Y483803D01*
X10922Y483785D01*
X23672Y483785D01*
X24565Y482892D01*
X24565Y466028D01*
X23672Y465135D01*
X10922Y465135D01*
X10902Y465132D01*
X10883Y465134D01*
X10781Y465112D01*
X10679Y465096D01*
X10662Y465086D01*
X10642Y465082D01*
X10553Y465029D01*
X10462Y464980D01*
X10448Y464966D01*
X10431Y464956D01*
X10364Y464877D01*
X10292Y464802D01*
X10284Y464784D01*
X10271Y464769D01*
X10232Y464673D01*
X10189Y464579D01*
X10187Y464559D01*
X10179Y464541D01*
X10161Y464374D01*
X10161Y458188D01*
X10168Y458143D01*
X10166Y458097D01*
X10188Y458022D01*
X10200Y457946D01*
X10222Y457905D01*
X10235Y457861D01*
X10279Y457797D01*
X10316Y457728D01*
X10349Y457697D01*
X10375Y457659D01*
X10437Y457613D01*
X10494Y457559D01*
X10536Y457540D01*
X10572Y457512D01*
X10646Y457488D01*
X10717Y457455D01*
X10763Y457450D01*
X10806Y457436D01*
X10884Y457437D01*
X10961Y457428D01*
X11006Y457438D01*
X11052Y457438D01*
X11184Y457476D01*
X11202Y457480D01*
X11206Y457483D01*
X11213Y457485D01*
X13385Y458385D01*
X17095Y458385D01*
X20522Y456965D01*
X23145Y454342D01*
X24565Y450915D01*
X24565Y447205D01*
X23145Y443778D01*
X20522Y441155D01*
X17095Y439735D01*
X13385Y439735D01*
X11213Y440635D01*
X11169Y440645D01*
X11127Y440665D01*
X11050Y440673D01*
X10974Y440691D01*
X10928Y440687D01*
X10883Y440692D01*
X10806Y440675D01*
X10729Y440668D01*
X10687Y440649D01*
X10642Y440640D01*
X10575Y440600D01*
X10504Y440568D01*
X10470Y440537D01*
X10431Y440513D01*
X10380Y440454D01*
X10323Y440402D01*
X10301Y440361D01*
X10271Y440326D01*
X10242Y440254D01*
X10205Y440186D01*
X10196Y440141D01*
X10179Y440098D01*
X10164Y439962D01*
X10161Y439944D01*
X10162Y439939D01*
X10161Y439932D01*
X10161Y432788D01*
X10168Y432743D01*
X10166Y432697D01*
X10188Y432622D01*
X10200Y432546D01*
X10222Y432505D01*
X10235Y432461D01*
X10279Y432397D01*
X10316Y432328D01*
X10349Y432297D01*
X10375Y432259D01*
X10437Y432213D01*
X10494Y432159D01*
X10536Y432140D01*
X10572Y432112D01*
X10646Y432088D01*
X10717Y432055D01*
X10763Y432050D01*
X10806Y432036D01*
X10884Y432037D01*
X10961Y432028D01*
X11006Y432038D01*
X11052Y432038D01*
X11184Y432076D01*
X11202Y432080D01*
X11206Y432083D01*
X11213Y432085D01*
X13385Y432985D01*
X17095Y432985D01*
X20522Y431565D01*
X23145Y428942D01*
X24565Y425515D01*
X24565Y421805D01*
X23145Y418378D01*
X20522Y415755D01*
X17095Y414335D01*
X13385Y414335D01*
X11213Y415235D01*
X11169Y415245D01*
X11127Y415265D01*
X11050Y415273D01*
X10974Y415291D01*
X10928Y415287D01*
X10883Y415292D01*
X10806Y415275D01*
X10729Y415268D01*
X10687Y415249D01*
X10642Y415240D01*
X10575Y415200D01*
X10504Y415168D01*
X10470Y415137D01*
X10431Y415113D01*
X10380Y415054D01*
X10323Y415002D01*
X10301Y414961D01*
X10271Y414926D01*
X10242Y414854D01*
X10205Y414786D01*
X10196Y414741D01*
X10179Y414698D01*
X10164Y414562D01*
X10161Y414544D01*
X10162Y414539D01*
X10161Y414532D01*
X10161Y407388D01*
X10168Y407343D01*
X10166Y407297D01*
X10188Y407222D01*
X10200Y407146D01*
X10222Y407105D01*
X10235Y407061D01*
X10279Y406997D01*
X10316Y406928D01*
X10349Y406897D01*
X10375Y406859D01*
X10437Y406813D01*
X10494Y406759D01*
X10536Y406740D01*
X10572Y406712D01*
X10646Y406688D01*
X10717Y406655D01*
X10763Y406650D01*
X10806Y406636D01*
X10884Y406637D01*
X10961Y406628D01*
X11006Y406638D01*
X11052Y406638D01*
X11184Y406676D01*
X11202Y406680D01*
X11206Y406683D01*
X11213Y406685D01*
X13385Y407585D01*
X17095Y407585D01*
X20522Y406165D01*
X23145Y403542D01*
X24565Y400115D01*
X24565Y396405D01*
X23145Y392978D01*
X20522Y390355D01*
X17095Y388935D01*
X13385Y388935D01*
X11213Y389835D01*
X11169Y389845D01*
X11127Y389865D01*
X11050Y389873D01*
X10974Y389891D01*
X10928Y389887D01*
X10883Y389892D01*
X10806Y389875D01*
X10729Y389868D01*
X10687Y389849D01*
X10642Y389840D01*
X10575Y389800D01*
X10504Y389768D01*
X10470Y389737D01*
X10431Y389713D01*
X10380Y389654D01*
X10323Y389602D01*
X10301Y389561D01*
X10271Y389526D01*
X10242Y389454D01*
X10205Y389386D01*
X10196Y389341D01*
X10179Y389298D01*
X10164Y389162D01*
X10161Y389144D01*
X10162Y389139D01*
X10161Y389132D01*
X10161Y381988D01*
X10168Y381943D01*
X10166Y381897D01*
X10188Y381822D01*
X10200Y381746D01*
X10222Y381705D01*
X10235Y381661D01*
X10279Y381597D01*
X10316Y381528D01*
X10349Y381497D01*
X10375Y381459D01*
X10437Y381413D01*
X10494Y381359D01*
X10536Y381340D01*
X10572Y381312D01*
X10646Y381288D01*
X10717Y381255D01*
X10763Y381250D01*
X10806Y381236D01*
X10884Y381237D01*
X10961Y381228D01*
X11006Y381238D01*
X11052Y381238D01*
X11184Y381276D01*
X11202Y381280D01*
X11206Y381283D01*
X11213Y381285D01*
X13385Y382185D01*
X17095Y382185D01*
X20522Y380765D01*
X23145Y378142D01*
X24565Y374715D01*
X24565Y371005D01*
X23145Y367578D01*
X20522Y364955D01*
X17095Y363535D01*
X13385Y363535D01*
X11213Y364435D01*
X11169Y364445D01*
X11127Y364465D01*
X11050Y364473D01*
X10974Y364491D01*
X10928Y364487D01*
X10883Y364492D01*
X10806Y364475D01*
X10729Y364468D01*
X10687Y364449D01*
X10642Y364440D01*
X10575Y364400D01*
X10504Y364368D01*
X10470Y364337D01*
X10431Y364313D01*
X10380Y364254D01*
X10323Y364202D01*
X10301Y364161D01*
X10271Y364126D01*
X10242Y364054D01*
X10205Y363986D01*
X10196Y363941D01*
X10179Y363898D01*
X10164Y363762D01*
X10161Y363744D01*
X10162Y363739D01*
X10161Y363732D01*
X10161Y356588D01*
X10168Y356543D01*
X10166Y356497D01*
X10188Y356422D01*
X10200Y356346D01*
X10222Y356305D01*
X10235Y356261D01*
X10279Y356197D01*
X10316Y356128D01*
X10349Y356097D01*
X10375Y356059D01*
X10437Y356013D01*
X10494Y355959D01*
X10536Y355940D01*
X10572Y355912D01*
X10646Y355888D01*
X10717Y355855D01*
X10763Y355850D01*
X10806Y355836D01*
X10884Y355837D01*
X10961Y355828D01*
X11006Y355838D01*
X11052Y355838D01*
X11184Y355876D01*
X11202Y355880D01*
X11206Y355883D01*
X11213Y355885D01*
X13385Y356785D01*
X17095Y356785D01*
X20522Y355365D01*
X23145Y352742D01*
X24565Y349315D01*
X24565Y345605D01*
X23732Y343595D01*
X23708Y343493D01*
X23679Y343392D01*
X23680Y343374D01*
X23676Y343356D01*
X23686Y343251D01*
X23691Y343146D01*
X23698Y343125D01*
X23699Y343111D01*
X23712Y343082D01*
X23744Y342987D01*
X44981Y296667D01*
X45009Y296624D01*
X45030Y296577D01*
X45103Y296485D01*
X45118Y296463D01*
X45125Y296457D01*
X45134Y296446D01*
X147300Y194280D01*
X149607Y191973D01*
X149607Y185928D01*
X149610Y185908D01*
X149608Y185889D01*
X149630Y185787D01*
X149646Y185685D01*
X149656Y185668D01*
X149660Y185648D01*
X149713Y185559D01*
X149762Y185468D01*
X149776Y185454D01*
X149786Y185437D01*
X149865Y185370D01*
X149940Y185298D01*
X149958Y185290D01*
X149973Y185277D01*
X150069Y185238D01*
X150163Y185195D01*
X150183Y185193D01*
X150201Y185185D01*
X150368Y185167D01*
X151424Y185167D01*
X157227Y179364D01*
X157227Y173620D01*
X157238Y173549D01*
X157240Y173477D01*
X157258Y173428D01*
X157266Y173377D01*
X157300Y173313D01*
X157325Y173246D01*
X157357Y173205D01*
X157382Y173159D01*
X157434Y173110D01*
X157478Y173054D01*
X157522Y173026D01*
X157560Y172990D01*
X157625Y172960D01*
X157685Y172921D01*
X157736Y172908D01*
X157783Y172886D01*
X157854Y172878D01*
X157924Y172861D01*
X157976Y172865D01*
X158027Y172859D01*
X158098Y172875D01*
X158169Y172880D01*
X158217Y172900D01*
X158268Y172912D01*
X158329Y172948D01*
X158395Y172976D01*
X158451Y173021D01*
X158479Y173038D01*
X158494Y173056D01*
X158526Y173081D01*
X218308Y232863D01*
X218361Y232937D01*
X218420Y233006D01*
X218433Y233036D01*
X218451Y233063D01*
X218478Y233149D01*
X218512Y233234D01*
X218517Y233275D01*
X218524Y233298D01*
X218523Y233330D01*
X218531Y233401D01*
X218531Y235561D01*
X221639Y238669D01*
X226036Y238669D01*
X229144Y235561D01*
X229144Y231164D01*
X226036Y228056D01*
X223876Y228056D01*
X223786Y228041D01*
X223695Y228034D01*
X223665Y228021D01*
X223633Y228016D01*
X223553Y227973D01*
X223469Y227938D01*
X223437Y227912D01*
X223416Y227901D01*
X223394Y227878D01*
X223338Y227833D01*
X153886Y158381D01*
X153874Y158365D01*
X153859Y158352D01*
X153830Y158308D01*
X153795Y158271D01*
X153774Y158225D01*
X153742Y158181D01*
X153737Y158162D01*
X153726Y158145D01*
X153713Y158093D01*
X153692Y158048D01*
X153686Y157999D01*
X153670Y157946D01*
X153671Y157926D01*
X153666Y157907D01*
X153670Y157852D01*
X153665Y157804D01*
X153675Y157756D01*
X153676Y157700D01*
X153683Y157681D01*
X153685Y157662D01*
X153707Y157610D01*
X153717Y157563D01*
X153741Y157522D01*
X153761Y157469D01*
X153773Y157454D01*
X153781Y157435D01*
X153830Y157374D01*
X153843Y157352D01*
X153857Y157340D01*
X153886Y157304D01*
X157227Y153964D01*
X157227Y145756D01*
X151424Y139953D01*
X143216Y139953D01*
X137413Y145756D01*
X137413Y153964D01*
X140519Y157069D01*
X140560Y157127D01*
X140610Y157179D01*
X140632Y157226D01*
X140662Y157268D01*
X140683Y157337D01*
X140713Y157402D01*
X140719Y157454D01*
X140734Y157504D01*
X140733Y157575D01*
X140740Y157646D01*
X140729Y157697D01*
X140728Y157749D01*
X140703Y157817D01*
X140688Y157887D01*
X140661Y157932D01*
X140644Y157980D01*
X140599Y158036D01*
X140562Y158098D01*
X140522Y158132D01*
X140490Y158172D01*
X140430Y158211D01*
X140375Y158258D01*
X140327Y158277D01*
X140283Y158305D01*
X140214Y158323D01*
X140147Y158350D01*
X140076Y158358D01*
X140044Y158366D01*
X140021Y158364D01*
X139980Y158368D01*
X63701Y158368D01*
X63611Y158354D01*
X63520Y158346D01*
X63490Y158334D01*
X63458Y158329D01*
X63378Y158286D01*
X63294Y158250D01*
X63262Y158224D01*
X63241Y158213D01*
X63219Y158190D01*
X63163Y158145D01*
X24788Y119770D01*
X24735Y119696D01*
X24675Y119627D01*
X24663Y119597D01*
X24644Y119570D01*
X24617Y119484D01*
X24583Y119399D01*
X24579Y119358D01*
X24572Y119335D01*
X24573Y119303D01*
X24565Y119232D01*
X24565Y117005D01*
X23145Y113578D01*
X20522Y110955D01*
X17095Y109535D01*
X13385Y109535D01*
X11213Y110435D01*
X11169Y110445D01*
X11127Y110465D01*
X11050Y110473D01*
X10974Y110491D01*
X10928Y110487D01*
X10883Y110492D01*
X10806Y110475D01*
X10729Y110468D01*
X10687Y110449D01*
X10642Y110440D01*
X10575Y110400D01*
X10504Y110368D01*
X10470Y110337D01*
X10431Y110313D01*
X10380Y110254D01*
X10323Y110202D01*
X10301Y110161D01*
X10271Y110126D01*
X10242Y110054D01*
X10205Y109986D01*
X10196Y109941D01*
X10179Y109898D01*
X10164Y109762D01*
X10161Y109744D01*
X10162Y109739D01*
X10161Y109732D01*
X10161Y102588D01*
X10168Y102543D01*
X10166Y102497D01*
X10188Y102422D01*
X10200Y102346D01*
X10222Y102305D01*
X10235Y102261D01*
X10279Y102197D01*
X10316Y102128D01*
X10349Y102097D01*
X10375Y102059D01*
X10437Y102013D01*
X10494Y101959D01*
X10536Y101940D01*
X10572Y101912D01*
X10646Y101888D01*
X10717Y101855D01*
X10763Y101850D01*
X10806Y101836D01*
X10884Y101837D01*
X10961Y101828D01*
X11006Y101838D01*
X11052Y101838D01*
X11184Y101876D01*
X11202Y101880D01*
X11206Y101883D01*
X11213Y101885D01*
X13385Y102785D01*
X17095Y102785D01*
X20522Y101365D01*
X23145Y98742D01*
X24565Y95315D01*
X24565Y91605D01*
X23145Y88178D01*
X20522Y85555D01*
X17095Y84135D01*
X13385Y84135D01*
X11213Y85035D01*
X11169Y85045D01*
X11127Y85065D01*
X11050Y85073D01*
X10974Y85091D01*
X10928Y85087D01*
X10883Y85092D01*
X10806Y85075D01*
X10729Y85068D01*
X10687Y85049D01*
X10642Y85040D01*
X10575Y85000D01*
X10504Y84968D01*
X10470Y84937D01*
X10431Y84913D01*
X10380Y84854D01*
X10323Y84802D01*
X10301Y84761D01*
X10271Y84726D01*
X10242Y84654D01*
X10205Y84586D01*
X10196Y84541D01*
X10179Y84498D01*
X10164Y84362D01*
X10161Y84344D01*
X10162Y84339D01*
X10161Y84332D01*
X10161Y77188D01*
X10168Y77143D01*
X10166Y77097D01*
X10188Y77022D01*
X10200Y76946D01*
X10222Y76905D01*
X10235Y76861D01*
X10279Y76797D01*
X10316Y76728D01*
X10349Y76697D01*
X10375Y76659D01*
X10437Y76613D01*
X10494Y76559D01*
X10536Y76540D01*
X10572Y76512D01*
X10646Y76488D01*
X10717Y76455D01*
X10763Y76450D01*
X10806Y76436D01*
X10884Y76437D01*
X10961Y76428D01*
X11006Y76438D01*
X11052Y76438D01*
X11184Y76476D01*
X11202Y76480D01*
X11206Y76483D01*
X11213Y76485D01*
X13385Y77385D01*
X17095Y77385D01*
X20522Y75965D01*
X23145Y73342D01*
X24565Y69915D01*
X24565Y66205D01*
X23145Y62778D01*
X20522Y60155D01*
X17095Y58735D01*
X13385Y58735D01*
X11213Y59635D01*
X11169Y59645D01*
X11127Y59665D01*
X11050Y59673D01*
X10974Y59691D01*
X10928Y59687D01*
X10883Y59692D01*
X10806Y59675D01*
X10729Y59668D01*
X10687Y59649D01*
X10642Y59640D01*
X10575Y59600D01*
X10504Y59568D01*
X10470Y59537D01*
X10431Y59513D01*
X10380Y59454D01*
X10323Y59402D01*
X10301Y59361D01*
X10271Y59326D01*
X10242Y59254D01*
X10205Y59186D01*
X10196Y59141D01*
X10179Y59098D01*
X10164Y58962D01*
X10161Y58944D01*
X10162Y58939D01*
X10161Y58932D01*
X10161Y51788D01*
X10168Y51743D01*
X10166Y51697D01*
X10188Y51622D01*
X10200Y51546D01*
X10222Y51505D01*
X10235Y51461D01*
X10279Y51397D01*
X10316Y51328D01*
X10349Y51297D01*
X10375Y51259D01*
X10437Y51213D01*
X10494Y51159D01*
X10536Y51140D01*
X10572Y51112D01*
X10646Y51088D01*
X10717Y51055D01*
X10763Y51050D01*
X10806Y51036D01*
X10884Y51037D01*
X10961Y51028D01*
X11006Y51038D01*
X11052Y51038D01*
X11184Y51076D01*
X11202Y51080D01*
X11206Y51083D01*
X11213Y51085D01*
X13385Y51985D01*
X17095Y51985D01*
X20522Y50565D01*
X23145Y47942D01*
X24565Y44515D01*
X24565Y40805D01*
X23145Y37378D01*
X20522Y34755D01*
X17095Y33335D01*
X13385Y33335D01*
X11213Y34235D01*
X11169Y34245D01*
X11127Y34265D01*
X11050Y34273D01*
X10974Y34291D01*
X10928Y34287D01*
X10883Y34292D01*
X10806Y34275D01*
X10729Y34268D01*
X10687Y34249D01*
X10642Y34240D01*
X10575Y34200D01*
X10504Y34168D01*
X10470Y34137D01*
X10431Y34113D01*
X10380Y34054D01*
X10323Y34002D01*
X10301Y33961D01*
X10271Y33926D01*
X10242Y33854D01*
X10205Y33786D01*
X10196Y33741D01*
X10179Y33698D01*
X10164Y33562D01*
X10161Y33544D01*
X10162Y33539D01*
X10161Y33532D01*
X10161Y26388D01*
X10168Y26343D01*
X10166Y26297D01*
X10188Y26222D01*
X10200Y26146D01*
X10222Y26105D01*
X10235Y26061D01*
X10279Y25997D01*
X10316Y25928D01*
X10349Y25897D01*
X10375Y25859D01*
X10437Y25813D01*
X10494Y25759D01*
X10536Y25740D01*
X10572Y25712D01*
X10646Y25688D01*
X10717Y25655D01*
X10763Y25650D01*
X10806Y25636D01*
X10884Y25637D01*
X10961Y25628D01*
X11006Y25638D01*
X11052Y25638D01*
X11184Y25676D01*
X11202Y25680D01*
X11206Y25683D01*
X11213Y25685D01*
X13385Y26585D01*
X17095Y26585D01*
X20522Y25165D01*
X23145Y22542D01*
X24565Y19115D01*
X24565Y15405D01*
X23145Y11978D01*
X22627Y11460D01*
X22586Y11402D01*
X22536Y11350D01*
X22514Y11303D01*
X22484Y11261D01*
X22463Y11192D01*
X22433Y11127D01*
X22427Y11075D01*
X22412Y11025D01*
X22413Y10954D01*
X22405Y10883D01*
X22417Y10832D01*
X22418Y10780D01*
X22442Y10712D01*
X22458Y10642D01*
X22484Y10597D01*
X22502Y10549D01*
X22547Y10493D01*
X22584Y10431D01*
X22623Y10397D01*
X22656Y10357D01*
X22716Y10318D01*
X22771Y10271D01*
X22819Y10252D01*
X22863Y10224D01*
X22932Y10206D01*
X22999Y10179D01*
X23070Y10171D01*
X23101Y10163D01*
X23125Y10165D01*
X23166Y10161D01*
X261314Y10161D01*
X261385Y10172D01*
G37*
%LPC*%
G36*
X127342Y233453D02*
X127342Y233453D01*
X124233Y236562D01*
X124233Y240958D01*
X126663Y243388D01*
X126716Y243462D01*
X126775Y243531D01*
X126788Y243561D01*
X126806Y243587D01*
X126833Y243674D01*
X126867Y243759D01*
X126872Y243800D01*
X126879Y243822D01*
X126878Y243855D01*
X126886Y243926D01*
X126886Y321759D01*
X126871Y321849D01*
X126864Y321940D01*
X126851Y321970D01*
X126846Y322002D01*
X126803Y322082D01*
X126768Y322166D01*
X126742Y322198D01*
X126731Y322219D01*
X126708Y322241D01*
X126663Y322297D01*
X125136Y323824D01*
X125136Y328221D01*
X125434Y328519D01*
X125476Y328577D01*
X125525Y328629D01*
X125547Y328676D01*
X125577Y328718D01*
X125599Y328787D01*
X125629Y328852D01*
X125634Y328904D01*
X125650Y328954D01*
X125648Y329025D01*
X125656Y329096D01*
X125645Y329147D01*
X125643Y329199D01*
X125619Y329267D01*
X125604Y329337D01*
X125577Y329382D01*
X125559Y329430D01*
X125514Y329486D01*
X125477Y329548D01*
X125438Y329582D01*
X125405Y329622D01*
X125345Y329661D01*
X125290Y329708D01*
X125242Y329727D01*
X125198Y329755D01*
X125129Y329773D01*
X125062Y329800D01*
X124991Y329808D01*
X124960Y329816D01*
X124937Y329814D01*
X124896Y329818D01*
X114501Y329818D01*
X114411Y329804D01*
X114320Y329796D01*
X114290Y329784D01*
X114258Y329779D01*
X114178Y329736D01*
X114094Y329700D01*
X114062Y329674D01*
X114041Y329663D01*
X114019Y329640D01*
X113963Y329595D01*
X95577Y311209D01*
X95508Y311114D01*
X95439Y311020D01*
X95437Y311014D01*
X95433Y311009D01*
X95399Y310898D01*
X95362Y310787D01*
X95363Y310780D01*
X95361Y310774D01*
X95364Y310658D01*
X95365Y310541D01*
X95367Y310533D01*
X95367Y310528D01*
X95373Y310511D01*
X95412Y310379D01*
X95886Y309235D01*
X95886Y305445D01*
X94436Y301944D01*
X91756Y299264D01*
X88255Y297814D01*
X84465Y297814D01*
X80964Y299264D01*
X78284Y301944D01*
X76834Y305445D01*
X76834Y309235D01*
X78284Y312736D01*
X80964Y315416D01*
X84465Y316866D01*
X88255Y316866D01*
X89849Y316206D01*
X89962Y316179D01*
X90076Y316150D01*
X90082Y316151D01*
X90088Y316149D01*
X90205Y316160D01*
X90321Y316169D01*
X90327Y316172D01*
X90333Y316173D01*
X90440Y316220D01*
X90547Y316266D01*
X90553Y316270D01*
X90558Y316273D01*
X90571Y316285D01*
X90678Y316371D01*
X108933Y334625D01*
X109176Y334869D01*
X109218Y334927D01*
X109267Y334979D01*
X109289Y335026D01*
X109320Y335068D01*
X109341Y335137D01*
X109371Y335202D01*
X109377Y335254D01*
X109392Y335304D01*
X109390Y335375D01*
X109398Y335446D01*
X109387Y335497D01*
X109386Y335549D01*
X109361Y335617D01*
X109346Y335687D01*
X109319Y335732D01*
X109301Y335780D01*
X109257Y335836D01*
X109220Y335898D01*
X109180Y335932D01*
X109148Y335972D01*
X109087Y336011D01*
X109033Y336058D01*
X108984Y336077D01*
X108941Y336105D01*
X108871Y336123D01*
X108805Y336150D01*
X108733Y336158D01*
X108702Y336166D01*
X108679Y336164D01*
X108638Y336168D01*
X98626Y336168D01*
X98536Y336154D01*
X98445Y336146D01*
X98415Y336134D01*
X98383Y336129D01*
X98303Y336086D01*
X98219Y336050D01*
X98187Y336024D01*
X98166Y336013D01*
X98144Y335990D01*
X98088Y335945D01*
X70617Y308475D01*
X70564Y308401D01*
X70505Y308331D01*
X70492Y308301D01*
X70474Y308275D01*
X70447Y308188D01*
X70413Y308103D01*
X70408Y308062D01*
X70401Y308040D01*
X70402Y308008D01*
X70394Y307936D01*
X70394Y305777D01*
X67286Y302668D01*
X62889Y302668D01*
X59781Y305777D01*
X59781Y310173D01*
X62889Y313282D01*
X65049Y313282D01*
X65139Y313296D01*
X65230Y313304D01*
X65260Y313316D01*
X65292Y313321D01*
X65372Y313364D01*
X65456Y313400D01*
X65488Y313426D01*
X65509Y313437D01*
X65531Y313460D01*
X65587Y313505D01*
X95364Y343282D01*
X180774Y343282D01*
X180864Y343296D01*
X180955Y343304D01*
X180985Y343316D01*
X181017Y343321D01*
X181097Y343364D01*
X181181Y343400D01*
X181213Y343426D01*
X181234Y343437D01*
X181256Y343460D01*
X181312Y343505D01*
X186964Y349156D01*
X187006Y349214D01*
X187055Y349266D01*
X187077Y349314D01*
X187107Y349356D01*
X187128Y349424D01*
X187159Y349490D01*
X187164Y349541D01*
X187180Y349591D01*
X187178Y349663D01*
X187186Y349734D01*
X187175Y349785D01*
X187173Y349837D01*
X187149Y349904D01*
X187133Y349974D01*
X187107Y350019D01*
X187089Y350068D01*
X187044Y350124D01*
X187007Y350185D01*
X186968Y350219D01*
X186935Y350260D01*
X186875Y350299D01*
X186820Y350345D01*
X186772Y350365D01*
X186728Y350393D01*
X186659Y350410D01*
X186592Y350437D01*
X186521Y350445D01*
X186490Y350453D01*
X186466Y350451D01*
X186425Y350456D01*
X51888Y350456D01*
X51798Y350441D01*
X51707Y350434D01*
X51678Y350421D01*
X51646Y350416D01*
X51565Y350373D01*
X51481Y350338D01*
X51449Y350312D01*
X51428Y350301D01*
X51414Y350286D01*
X51412Y350285D01*
X51403Y350275D01*
X51350Y350233D01*
X49823Y348706D01*
X45427Y348706D01*
X42318Y351814D01*
X42318Y356211D01*
X45427Y359319D01*
X49823Y359319D01*
X51350Y357792D01*
X51424Y357739D01*
X51494Y357680D01*
X51524Y357667D01*
X51550Y357649D01*
X51637Y357622D01*
X51722Y357588D01*
X51763Y357583D01*
X51785Y357576D01*
X51817Y357577D01*
X51888Y357569D01*
X56951Y357569D01*
X57021Y357581D01*
X57093Y357583D01*
X57142Y357601D01*
X57193Y357609D01*
X57257Y357643D01*
X57324Y357667D01*
X57365Y357700D01*
X57411Y357724D01*
X57460Y357776D01*
X57516Y357821D01*
X57544Y357865D01*
X57580Y357902D01*
X57610Y357967D01*
X57649Y358028D01*
X57662Y358078D01*
X57684Y358125D01*
X57692Y358197D01*
X57709Y358266D01*
X57705Y358318D01*
X57711Y358370D01*
X57696Y358440D01*
X57690Y358511D01*
X57670Y358559D01*
X57659Y358610D01*
X57622Y358672D01*
X57594Y358738D01*
X57549Y358794D01*
X57532Y358821D01*
X57515Y358837D01*
X57489Y358869D01*
X56606Y359752D01*
X56606Y364148D01*
X59714Y367257D01*
X61874Y367257D01*
X61964Y367271D01*
X62055Y367279D01*
X62085Y367291D01*
X62117Y367296D01*
X62197Y367339D01*
X62281Y367375D01*
X62313Y367401D01*
X62334Y367412D01*
X62356Y367435D01*
X62412Y367480D01*
X88295Y393363D01*
X88348Y393437D01*
X88408Y393506D01*
X88420Y393536D01*
X88439Y393563D01*
X88466Y393649D01*
X88500Y393734D01*
X88504Y393775D01*
X88511Y393798D01*
X88510Y393830D01*
X88518Y393901D01*
X88518Y470863D01*
X88499Y470978D01*
X88482Y471094D01*
X88480Y471100D01*
X88479Y471106D01*
X88424Y471209D01*
X88371Y471314D01*
X88366Y471318D01*
X88363Y471324D01*
X88279Y471403D01*
X88195Y471486D01*
X88189Y471489D01*
X88185Y471493D01*
X88168Y471501D01*
X88048Y471567D01*
X86260Y472307D01*
X83687Y474880D01*
X82295Y478241D01*
X82295Y497119D01*
X83687Y500480D01*
X86260Y503053D01*
X89621Y504445D01*
X93259Y504445D01*
X96620Y503053D01*
X99193Y500480D01*
X100585Y497119D01*
X100585Y478241D01*
X99193Y474880D01*
X96620Y472307D01*
X96102Y472093D01*
X96002Y472031D01*
X95902Y471971D01*
X95898Y471966D01*
X95893Y471963D01*
X95818Y471873D01*
X95742Y471784D01*
X95740Y471778D01*
X95736Y471774D01*
X95694Y471666D01*
X95650Y471556D01*
X95649Y471549D01*
X95648Y471544D01*
X95647Y471526D01*
X95632Y471389D01*
X95632Y391425D01*
X95643Y391354D01*
X95645Y391282D01*
X95663Y391233D01*
X95671Y391182D01*
X95705Y391119D01*
X95730Y391051D01*
X95762Y391010D01*
X95787Y390964D01*
X95838Y390915D01*
X95883Y390859D01*
X95927Y390831D01*
X95965Y390795D01*
X96030Y390765D01*
X96090Y390726D01*
X96141Y390713D01*
X96188Y390691D01*
X96259Y390683D01*
X96329Y390666D01*
X96381Y390670D01*
X96432Y390664D01*
X96503Y390680D01*
X96574Y390685D01*
X96622Y390705D01*
X96673Y390717D01*
X96734Y390753D01*
X96800Y390781D01*
X96856Y390826D01*
X96884Y390843D01*
X96899Y390861D01*
X96931Y390886D01*
X104008Y397963D01*
X104061Y398037D01*
X104120Y398106D01*
X104133Y398136D01*
X104151Y398163D01*
X104178Y398249D01*
X104212Y398334D01*
X104217Y398375D01*
X104224Y398398D01*
X104223Y398430D01*
X104231Y398501D01*
X104231Y400661D01*
X107339Y403769D01*
X111736Y403769D01*
X112619Y402886D01*
X112677Y402844D01*
X112729Y402795D01*
X112776Y402773D01*
X112818Y402743D01*
X112887Y402721D01*
X112952Y402691D01*
X113004Y402686D01*
X113054Y402670D01*
X113125Y402672D01*
X113196Y402664D01*
X113247Y402675D01*
X113299Y402677D01*
X113367Y402701D01*
X113437Y402716D01*
X113482Y402743D01*
X113530Y402761D01*
X113586Y402806D01*
X113648Y402843D01*
X113682Y402882D01*
X113722Y402915D01*
X113761Y402975D01*
X113808Y403030D01*
X113827Y403078D01*
X113855Y403122D01*
X113873Y403191D01*
X113900Y403258D01*
X113908Y403329D01*
X113916Y403360D01*
X113914Y403383D01*
X113918Y403424D01*
X113918Y470863D01*
X113899Y470978D01*
X113882Y471094D01*
X113880Y471100D01*
X113879Y471106D01*
X113824Y471209D01*
X113771Y471314D01*
X113766Y471318D01*
X113763Y471324D01*
X113679Y471403D01*
X113595Y471486D01*
X113589Y471489D01*
X113585Y471493D01*
X113568Y471501D01*
X113448Y471567D01*
X111660Y472307D01*
X109087Y474880D01*
X107695Y478241D01*
X107695Y497119D01*
X109087Y500480D01*
X111660Y503053D01*
X115021Y504445D01*
X118659Y504445D01*
X122020Y503053D01*
X124593Y500480D01*
X125985Y497119D01*
X125985Y478241D01*
X124593Y474880D01*
X122020Y472307D01*
X121502Y472093D01*
X121402Y472031D01*
X121302Y471971D01*
X121298Y471966D01*
X121293Y471963D01*
X121218Y471873D01*
X121142Y471784D01*
X121140Y471778D01*
X121136Y471774D01*
X121094Y471666D01*
X121050Y471556D01*
X121049Y471549D01*
X121048Y471544D01*
X121047Y471526D01*
X121032Y471389D01*
X121032Y382088D01*
X121046Y381998D01*
X121054Y381907D01*
X121066Y381878D01*
X121071Y381846D01*
X121114Y381765D01*
X121150Y381681D01*
X121176Y381649D01*
X121187Y381628D01*
X121210Y381606D01*
X121255Y381550D01*
X122782Y380023D01*
X122782Y375627D01*
X119673Y372518D01*
X115277Y372518D01*
X112168Y375627D01*
X112168Y380023D01*
X113695Y381550D01*
X113748Y381624D01*
X113808Y381694D01*
X113820Y381724D01*
X113839Y381750D01*
X113866Y381837D01*
X113900Y381922D01*
X113904Y381963D01*
X113911Y381985D01*
X113910Y382017D01*
X113918Y382088D01*
X113918Y393501D01*
X113907Y393571D01*
X113905Y393643D01*
X113887Y393692D01*
X113879Y393743D01*
X113845Y393807D01*
X113820Y393874D01*
X113788Y393915D01*
X113763Y393961D01*
X113711Y394010D01*
X113667Y394066D01*
X113623Y394094D01*
X113585Y394130D01*
X113520Y394160D01*
X113460Y394199D01*
X113409Y394212D01*
X113362Y394234D01*
X113291Y394242D01*
X113221Y394259D01*
X113169Y394255D01*
X113118Y394261D01*
X113047Y394246D01*
X112976Y394240D01*
X112928Y394220D01*
X112877Y394209D01*
X112816Y394172D01*
X112750Y394144D01*
X112694Y394099D01*
X112666Y394082D01*
X112651Y394065D01*
X112619Y394039D01*
X111736Y393156D01*
X109576Y393156D01*
X109486Y393141D01*
X109395Y393134D01*
X109365Y393121D01*
X109333Y393116D01*
X109253Y393073D01*
X109169Y393038D01*
X109137Y393012D01*
X109116Y393001D01*
X109094Y392978D01*
X109038Y392933D01*
X78555Y362450D01*
X78502Y362376D01*
X78442Y362306D01*
X78430Y362276D01*
X78411Y362250D01*
X78384Y362163D01*
X78350Y362078D01*
X78346Y362037D01*
X78339Y362015D01*
X78340Y361983D01*
X78332Y361911D01*
X78332Y359752D01*
X77449Y358869D01*
X77407Y358811D01*
X77357Y358759D01*
X77335Y358711D01*
X77305Y358669D01*
X77284Y358601D01*
X77254Y358535D01*
X77248Y358484D01*
X77233Y358434D01*
X77235Y358362D01*
X77227Y358291D01*
X77238Y358240D01*
X77239Y358188D01*
X77264Y358121D01*
X77279Y358051D01*
X77306Y358006D01*
X77324Y357957D01*
X77368Y357901D01*
X77405Y357840D01*
X77445Y357806D01*
X77477Y357765D01*
X77538Y357726D01*
X77592Y357680D01*
X77640Y357660D01*
X77684Y357632D01*
X77754Y357615D01*
X77820Y357588D01*
X77891Y357580D01*
X77923Y357572D01*
X77946Y357574D01*
X77987Y357569D01*
X187124Y357569D01*
X187214Y357584D01*
X187305Y357591D01*
X187335Y357604D01*
X187367Y357609D01*
X187447Y357652D01*
X187531Y357687D01*
X187563Y357713D01*
X187584Y357724D01*
X187606Y357747D01*
X187662Y357792D01*
X196083Y366213D01*
X196136Y366287D01*
X196195Y366356D01*
X196208Y366386D01*
X196226Y366413D01*
X196253Y366499D01*
X196287Y366584D01*
X196292Y366625D01*
X196299Y366648D01*
X196298Y366680D01*
X196306Y366751D01*
X196306Y368911D01*
X199414Y372019D01*
X203811Y372019D01*
X204694Y371136D01*
X204752Y371094D01*
X204804Y371045D01*
X204851Y371023D01*
X204893Y370993D01*
X204962Y370971D01*
X205027Y370941D01*
X205079Y370936D01*
X205129Y370920D01*
X205200Y370922D01*
X205271Y370914D01*
X205322Y370925D01*
X205374Y370927D01*
X205442Y370951D01*
X205512Y370966D01*
X205557Y370993D01*
X205605Y371011D01*
X205661Y371056D01*
X205723Y371093D01*
X205757Y371132D01*
X205797Y371165D01*
X205836Y371225D01*
X205883Y371280D01*
X205902Y371328D01*
X205930Y371372D01*
X205948Y371441D01*
X205975Y371508D01*
X205983Y371579D01*
X205991Y371610D01*
X205989Y371633D01*
X205993Y371674D01*
X205993Y410961D01*
X205979Y411052D01*
X205971Y411142D01*
X205959Y411172D01*
X205954Y411204D01*
X205911Y411285D01*
X205875Y411369D01*
X205849Y411401D01*
X205838Y411422D01*
X205815Y411444D01*
X205770Y411500D01*
X198694Y418576D01*
X198636Y418618D01*
X198584Y418667D01*
X198536Y418689D01*
X198494Y418720D01*
X198426Y418741D01*
X198360Y418771D01*
X198309Y418777D01*
X198259Y418792D01*
X198187Y418790D01*
X198116Y418798D01*
X198065Y418787D01*
X198013Y418786D01*
X197946Y418761D01*
X197876Y418746D01*
X197831Y418719D01*
X197782Y418701D01*
X197726Y418656D01*
X197665Y418620D01*
X197631Y418580D01*
X197590Y418548D01*
X197551Y418487D01*
X197505Y418433D01*
X197485Y418385D01*
X197457Y418341D01*
X197440Y418271D01*
X197413Y418205D01*
X197405Y418133D01*
X197397Y418102D01*
X197399Y418079D01*
X197394Y418038D01*
X197394Y416902D01*
X194286Y413793D01*
X189889Y413793D01*
X186781Y416902D01*
X186781Y419061D01*
X186766Y419152D01*
X186759Y419242D01*
X186746Y419272D01*
X186741Y419304D01*
X186698Y419385D01*
X186663Y419469D01*
X186637Y419501D01*
X186626Y419522D01*
X186603Y419544D01*
X186558Y419600D01*
X139318Y466839D01*
X139318Y470863D01*
X139299Y470978D01*
X139282Y471094D01*
X139280Y471100D01*
X139279Y471106D01*
X139224Y471209D01*
X139171Y471314D01*
X139166Y471318D01*
X139163Y471324D01*
X139079Y471403D01*
X138995Y471486D01*
X138989Y471489D01*
X138985Y471493D01*
X138968Y471501D01*
X138848Y471567D01*
X137060Y472307D01*
X134487Y474880D01*
X133095Y478241D01*
X133095Y497119D01*
X134487Y500480D01*
X137060Y503053D01*
X140421Y504445D01*
X144059Y504445D01*
X147420Y503053D01*
X149993Y500480D01*
X151385Y497119D01*
X151385Y478241D01*
X149993Y474880D01*
X147420Y472307D01*
X146902Y472093D01*
X146802Y472031D01*
X146702Y471971D01*
X146698Y471966D01*
X146693Y471963D01*
X146618Y471873D01*
X146542Y471784D01*
X146540Y471778D01*
X146536Y471774D01*
X146494Y471666D01*
X146450Y471556D01*
X146449Y471549D01*
X146448Y471544D01*
X146447Y471526D01*
X146432Y471389D01*
X146432Y470101D01*
X146446Y470011D01*
X146454Y469920D01*
X146466Y469890D01*
X146471Y469858D01*
X146514Y469778D01*
X146550Y469694D01*
X146576Y469662D01*
X146587Y469641D01*
X146610Y469619D01*
X146655Y469563D01*
X163419Y452799D01*
X163477Y452757D01*
X163529Y452708D01*
X163576Y452686D01*
X163618Y452655D01*
X163687Y452634D01*
X163752Y452604D01*
X163804Y452598D01*
X163854Y452583D01*
X163925Y452585D01*
X163996Y452577D01*
X164047Y452588D01*
X164099Y452589D01*
X164167Y452614D01*
X164237Y452629D01*
X164282Y452656D01*
X164330Y452674D01*
X164386Y452719D01*
X164448Y452755D01*
X164482Y452795D01*
X164522Y452827D01*
X164561Y452888D01*
X164608Y452942D01*
X164627Y452990D01*
X164655Y453034D01*
X164673Y453104D01*
X164700Y453170D01*
X164708Y453242D01*
X164716Y453273D01*
X164714Y453296D01*
X164718Y453337D01*
X164718Y470863D01*
X164699Y470978D01*
X164682Y471094D01*
X164680Y471100D01*
X164679Y471106D01*
X164624Y471209D01*
X164571Y471314D01*
X164566Y471318D01*
X164563Y471324D01*
X164479Y471403D01*
X164395Y471486D01*
X164389Y471489D01*
X164385Y471493D01*
X164368Y471501D01*
X164248Y471567D01*
X162460Y472307D01*
X159887Y474880D01*
X158495Y478241D01*
X158495Y497119D01*
X159887Y500480D01*
X162460Y503053D01*
X165821Y504445D01*
X169459Y504445D01*
X172820Y503053D01*
X175393Y500480D01*
X176785Y497119D01*
X176785Y478241D01*
X175393Y474880D01*
X172820Y472307D01*
X172302Y472093D01*
X172202Y472031D01*
X172102Y471971D01*
X172098Y471966D01*
X172093Y471963D01*
X172018Y471873D01*
X171942Y471784D01*
X171940Y471778D01*
X171936Y471774D01*
X171894Y471666D01*
X171850Y471556D01*
X171849Y471549D01*
X171848Y471544D01*
X171847Y471526D01*
X171832Y471389D01*
X171832Y455814D01*
X171846Y455723D01*
X171854Y455633D01*
X171866Y455603D01*
X171871Y455571D01*
X171914Y455490D01*
X171950Y455406D01*
X171976Y455374D01*
X171987Y455353D01*
X172010Y455331D01*
X172055Y455275D01*
X213107Y414223D01*
X213107Y358976D01*
X213121Y358886D01*
X213129Y358795D01*
X213141Y358765D01*
X213146Y358733D01*
X213189Y358653D01*
X213225Y358569D01*
X213251Y358537D01*
X213262Y358516D01*
X213285Y358494D01*
X213330Y358438D01*
X265892Y305875D01*
X265987Y305807D01*
X266081Y305737D01*
X266087Y305735D01*
X266092Y305732D01*
X266204Y305697D01*
X266315Y305661D01*
X266321Y305661D01*
X266327Y305659D01*
X266444Y305662D01*
X266561Y305663D01*
X266568Y305665D01*
X266573Y305666D01*
X266591Y305672D01*
X266722Y305710D01*
X267385Y305985D01*
X271095Y305985D01*
X274522Y304565D01*
X277145Y301942D01*
X278565Y298515D01*
X278565Y294805D01*
X277145Y291378D01*
X274522Y288755D01*
X271095Y287335D01*
X267385Y287335D01*
X263958Y288755D01*
X261335Y291378D01*
X259915Y294805D01*
X259915Y298515D01*
X260681Y300362D01*
X260707Y300476D01*
X260736Y300589D01*
X260735Y300596D01*
X260737Y300602D01*
X260726Y300718D01*
X260717Y300835D01*
X260714Y300840D01*
X260714Y300847D01*
X260666Y300954D01*
X260620Y301061D01*
X260616Y301067D01*
X260614Y301071D01*
X260601Y301085D01*
X260516Y301192D01*
X206631Y355076D01*
X206573Y355118D01*
X206521Y355167D01*
X206474Y355189D01*
X206432Y355220D01*
X206363Y355241D01*
X206298Y355271D01*
X206246Y355277D01*
X206196Y355292D01*
X206125Y355290D01*
X206054Y355298D01*
X206003Y355287D01*
X205951Y355286D01*
X205883Y355261D01*
X205813Y355246D01*
X205769Y355219D01*
X205720Y355201D01*
X205664Y355156D01*
X205602Y355120D01*
X205568Y355080D01*
X205528Y355048D01*
X205489Y354987D01*
X205442Y354933D01*
X205423Y354885D01*
X205395Y354841D01*
X205377Y354771D01*
X205350Y354705D01*
X205342Y354633D01*
X205334Y354602D01*
X205336Y354579D01*
X205332Y354538D01*
X205332Y351814D01*
X202223Y348706D01*
X197827Y348706D01*
X197738Y348794D01*
X197722Y348806D01*
X197710Y348821D01*
X197622Y348878D01*
X197539Y348938D01*
X197520Y348944D01*
X197503Y348954D01*
X197402Y348980D01*
X197304Y349010D01*
X197284Y349010D01*
X197264Y349015D01*
X197161Y349007D01*
X197058Y349004D01*
X197039Y348997D01*
X197019Y348995D01*
X196924Y348955D01*
X196827Y348919D01*
X196811Y348907D01*
X196793Y348899D01*
X196662Y348794D01*
X186342Y338475D01*
X186099Y338231D01*
X186057Y338173D01*
X186008Y338121D01*
X185986Y338074D01*
X185955Y338032D01*
X185934Y337963D01*
X185904Y337898D01*
X185898Y337846D01*
X185883Y337796D01*
X185885Y337725D01*
X185877Y337654D01*
X185888Y337603D01*
X185889Y337551D01*
X185914Y337483D01*
X185929Y337413D01*
X185956Y337368D01*
X185974Y337320D01*
X186018Y337264D01*
X186055Y337202D01*
X186095Y337168D01*
X186127Y337128D01*
X186188Y337089D01*
X186242Y337042D01*
X186291Y337023D01*
X186334Y336995D01*
X186404Y336977D01*
X186470Y336950D01*
X186542Y336942D01*
X186573Y336934D01*
X186596Y336936D01*
X186637Y336932D01*
X207848Y336932D01*
X217857Y326923D01*
X217873Y326912D01*
X217885Y326896D01*
X217972Y326840D01*
X218056Y326780D01*
X218075Y326774D01*
X218092Y326763D01*
X218193Y326738D01*
X218291Y326707D01*
X218311Y326708D01*
X218331Y326703D01*
X218434Y326711D01*
X218537Y326714D01*
X218556Y326721D01*
X218576Y326722D01*
X218671Y326763D01*
X218768Y326798D01*
X218784Y326811D01*
X218802Y326819D01*
X218933Y326923D01*
X219416Y327407D01*
X227624Y327407D01*
X233427Y321604D01*
X233427Y313396D01*
X227617Y307587D01*
X227574Y307527D01*
X227526Y307476D01*
X227518Y307459D01*
X227505Y307444D01*
X227492Y307413D01*
X227474Y307387D01*
X227452Y307317D01*
X227422Y307253D01*
X227420Y307234D01*
X227413Y307215D01*
X227408Y307174D01*
X227401Y307152D01*
X227402Y307120D01*
X227394Y307049D01*
X227394Y302551D01*
X227409Y302461D01*
X227416Y302370D01*
X227429Y302341D01*
X227434Y302309D01*
X227477Y302228D01*
X227512Y302144D01*
X227538Y302112D01*
X227549Y302091D01*
X227572Y302069D01*
X227617Y302013D01*
X233427Y296204D01*
X233427Y287996D01*
X227617Y282187D01*
X227564Y282113D01*
X227505Y282044D01*
X227492Y282013D01*
X227474Y281987D01*
X227447Y281900D01*
X227413Y281815D01*
X227408Y281774D01*
X227401Y281752D01*
X227402Y281720D01*
X227394Y281649D01*
X227394Y277151D01*
X227409Y277061D01*
X227416Y276970D01*
X227429Y276941D01*
X227434Y276909D01*
X227477Y276828D01*
X227512Y276744D01*
X227538Y276712D01*
X227549Y276691D01*
X227572Y276669D01*
X227617Y276613D01*
X233427Y270804D01*
X233427Y262596D01*
X227624Y256793D01*
X219416Y256793D01*
X213613Y262596D01*
X213613Y270804D01*
X219416Y276607D01*
X219520Y276607D01*
X219539Y276610D01*
X219559Y276608D01*
X219660Y276630D01*
X219762Y276646D01*
X219780Y276656D01*
X219799Y276660D01*
X219888Y276713D01*
X219980Y276762D01*
X219993Y276776D01*
X220010Y276786D01*
X220078Y276865D01*
X220149Y276940D01*
X220157Y276958D01*
X220170Y276973D01*
X220209Y277069D01*
X220253Y277163D01*
X220255Y277183D01*
X220262Y277201D01*
X220281Y277368D01*
X220281Y281432D01*
X220278Y281452D01*
X220280Y281471D01*
X220258Y281573D01*
X220241Y281675D01*
X220232Y281692D01*
X220227Y281712D01*
X220174Y281801D01*
X220126Y281892D01*
X220112Y281906D01*
X220101Y281923D01*
X220023Y281990D01*
X219948Y282062D01*
X219930Y282070D01*
X219914Y282083D01*
X219818Y282122D01*
X219725Y282165D01*
X219705Y282167D01*
X219686Y282175D01*
X219520Y282193D01*
X219416Y282193D01*
X213613Y287996D01*
X213613Y296204D01*
X219416Y302007D01*
X219520Y302007D01*
X219539Y302010D01*
X219559Y302008D01*
X219660Y302030D01*
X219762Y302046D01*
X219780Y302056D01*
X219799Y302060D01*
X219888Y302113D01*
X219980Y302162D01*
X219993Y302176D01*
X220010Y302186D01*
X220078Y302265D01*
X220149Y302340D01*
X220157Y302358D01*
X220170Y302373D01*
X220209Y302469D01*
X220253Y302563D01*
X220255Y302583D01*
X220262Y302601D01*
X220281Y302768D01*
X220281Y306832D01*
X220278Y306852D01*
X220280Y306871D01*
X220258Y306973D01*
X220241Y307075D01*
X220232Y307092D01*
X220227Y307112D01*
X220174Y307201D01*
X220126Y307292D01*
X220112Y307306D01*
X220101Y307323D01*
X220023Y307390D01*
X219948Y307462D01*
X219930Y307470D01*
X219914Y307483D01*
X219818Y307522D01*
X219725Y307565D01*
X219705Y307567D01*
X219686Y307575D01*
X219520Y307593D01*
X219416Y307593D01*
X213613Y313396D01*
X213613Y320791D01*
X213599Y320882D01*
X213591Y320972D01*
X213579Y321002D01*
X213574Y321034D01*
X213531Y321115D01*
X213495Y321199D01*
X213469Y321231D01*
X213458Y321252D01*
X213435Y321274D01*
X213390Y321330D01*
X205125Y329595D01*
X205051Y329648D01*
X204981Y329708D01*
X204951Y329720D01*
X204925Y329739D01*
X204838Y329766D01*
X204753Y329800D01*
X204712Y329804D01*
X204690Y329811D01*
X204658Y329810D01*
X204586Y329818D01*
X135989Y329818D01*
X135919Y329807D01*
X135847Y329805D01*
X135798Y329787D01*
X135747Y329779D01*
X135683Y329745D01*
X135616Y329720D01*
X135575Y329688D01*
X135529Y329663D01*
X135480Y329611D01*
X135424Y329567D01*
X135396Y329523D01*
X135360Y329485D01*
X135330Y329420D01*
X135291Y329360D01*
X135278Y329309D01*
X135256Y329262D01*
X135248Y329191D01*
X135231Y329121D01*
X135235Y329069D01*
X135229Y329018D01*
X135244Y328947D01*
X135250Y328876D01*
X135270Y328828D01*
X135281Y328777D01*
X135318Y328716D01*
X135346Y328650D01*
X135391Y328594D01*
X135408Y328566D01*
X135425Y328551D01*
X135451Y328519D01*
X135749Y328221D01*
X135749Y323824D01*
X134222Y322297D01*
X134169Y322223D01*
X134110Y322154D01*
X134097Y322124D01*
X134079Y322098D01*
X134052Y322011D01*
X134018Y321926D01*
X134013Y321885D01*
X134006Y321863D01*
X134007Y321830D01*
X133999Y321759D01*
X133999Y242121D01*
X134014Y242031D01*
X134021Y241940D01*
X134034Y241910D01*
X134039Y241878D01*
X134082Y241798D01*
X134117Y241714D01*
X134143Y241682D01*
X134154Y241661D01*
X134177Y241639D01*
X134222Y241583D01*
X134847Y240958D01*
X134847Y236562D01*
X131738Y233453D01*
X127342Y233453D01*
G37*
%LPD*%
G36*
X21161Y126491D02*
X21161Y126491D01*
X21265Y126494D01*
X21283Y126500D01*
X21303Y126502D01*
X21398Y126542D01*
X21496Y126578D01*
X21511Y126591D01*
X21530Y126598D01*
X21661Y126703D01*
X60439Y165482D01*
X141250Y165482D01*
X141321Y165493D01*
X141393Y165495D01*
X141442Y165513D01*
X141493Y165521D01*
X141556Y165555D01*
X141624Y165580D01*
X141664Y165612D01*
X141710Y165637D01*
X141760Y165689D01*
X141816Y165733D01*
X141844Y165777D01*
X141880Y165815D01*
X141910Y165880D01*
X141949Y165940D01*
X141961Y165991D01*
X141983Y166038D01*
X141991Y166109D01*
X142009Y166179D01*
X142005Y166231D01*
X142010Y166282D01*
X141995Y166353D01*
X141990Y166424D01*
X141969Y166472D01*
X141958Y166523D01*
X141921Y166584D01*
X141893Y166650D01*
X141849Y166706D01*
X141832Y166734D01*
X141814Y166749D01*
X141789Y166781D01*
X137413Y171156D01*
X137413Y179364D01*
X142270Y184221D01*
X142323Y184294D01*
X142383Y184364D01*
X142395Y184394D01*
X142414Y184420D01*
X142441Y184507D01*
X142475Y184592D01*
X142479Y184633D01*
X142486Y184655D01*
X142485Y184688D01*
X142493Y184759D01*
X142493Y188711D01*
X142479Y188802D01*
X142471Y188892D01*
X142459Y188922D01*
X142454Y188954D01*
X142411Y189035D01*
X142375Y189119D01*
X142349Y189151D01*
X142338Y189172D01*
X142315Y189194D01*
X142270Y189250D01*
X40222Y291298D01*
X40158Y291344D01*
X40099Y291398D01*
X40047Y291424D01*
X40023Y291441D01*
X39996Y291449D01*
X39949Y291473D01*
X39452Y291658D01*
X39161Y292292D01*
X39132Y292334D01*
X39112Y292382D01*
X39039Y292473D01*
X39024Y292496D01*
X39016Y292501D01*
X39007Y292513D01*
X38514Y293006D01*
X38514Y293536D01*
X38501Y293615D01*
X38498Y293694D01*
X38479Y293750D01*
X38474Y293779D01*
X38461Y293804D01*
X38445Y293854D01*
X34382Y302714D01*
X34336Y302783D01*
X34297Y302857D01*
X34268Y302885D01*
X34245Y302918D01*
X34179Y302969D01*
X34119Y303026D01*
X34082Y303044D01*
X34050Y303068D01*
X33971Y303095D01*
X33895Y303130D01*
X33855Y303135D01*
X33817Y303148D01*
X33734Y303148D01*
X33651Y303157D01*
X33612Y303149D01*
X33571Y303149D01*
X33492Y303123D01*
X33411Y303105D01*
X33376Y303084D01*
X33338Y303072D01*
X33271Y303022D01*
X33200Y302979D01*
X33173Y302948D01*
X33141Y302924D01*
X33094Y302855D01*
X33040Y302792D01*
X33025Y302754D01*
X33002Y302721D01*
X32979Y302641D01*
X32948Y302564D01*
X32942Y302511D01*
X32934Y302485D01*
X32936Y302455D01*
X32929Y302397D01*
X32929Y298792D01*
X31402Y297265D01*
X31349Y297191D01*
X31290Y297121D01*
X31277Y297091D01*
X31259Y297065D01*
X31232Y296978D01*
X31198Y296893D01*
X31193Y296852D01*
X31186Y296830D01*
X31187Y296798D01*
X31179Y296727D01*
X31179Y181724D01*
X23871Y174416D01*
X23803Y174322D01*
X23734Y174228D01*
X23732Y174222D01*
X23728Y174217D01*
X23694Y174106D01*
X23657Y173994D01*
X23657Y173988D01*
X23656Y173982D01*
X23659Y173865D01*
X23660Y173748D01*
X23662Y173741D01*
X23662Y173736D01*
X23668Y173718D01*
X23706Y173587D01*
X24565Y171515D01*
X24565Y167805D01*
X23145Y164378D01*
X20522Y161755D01*
X17095Y160335D01*
X13385Y160335D01*
X11213Y161235D01*
X11169Y161245D01*
X11127Y161265D01*
X11050Y161273D01*
X10974Y161291D01*
X10928Y161287D01*
X10883Y161292D01*
X10806Y161275D01*
X10729Y161268D01*
X10687Y161249D01*
X10642Y161240D01*
X10575Y161200D01*
X10504Y161168D01*
X10470Y161137D01*
X10431Y161113D01*
X10380Y161054D01*
X10323Y161002D01*
X10301Y160961D01*
X10271Y160926D01*
X10242Y160854D01*
X10205Y160786D01*
X10196Y160741D01*
X10179Y160698D01*
X10164Y160562D01*
X10161Y160544D01*
X10162Y160539D01*
X10161Y160532D01*
X10161Y154520D01*
X10173Y154445D01*
X10176Y154369D01*
X10193Y154324D01*
X10200Y154277D01*
X10236Y154210D01*
X10263Y154139D01*
X10293Y154102D01*
X10316Y154060D01*
X10370Y154008D01*
X10418Y153949D01*
X10459Y153923D01*
X10494Y153890D01*
X10563Y153858D01*
X10627Y153818D01*
X10673Y153807D01*
X10717Y153787D01*
X10792Y153778D01*
X10866Y153761D01*
X10914Y153765D01*
X10961Y153760D01*
X11035Y153776D01*
X11111Y153782D01*
X11171Y153805D01*
X11202Y153812D01*
X11224Y153825D01*
X11268Y153842D01*
X11271Y153843D01*
X12819Y154346D01*
X13717Y154488D01*
X13717Y145022D01*
X13720Y145002D01*
X13718Y144983D01*
X13740Y144881D01*
X13757Y144779D01*
X13766Y144762D01*
X13770Y144742D01*
X13823Y144653D01*
X13872Y144562D01*
X13886Y144548D01*
X13896Y144531D01*
X13975Y144464D01*
X14050Y144393D01*
X14068Y144384D01*
X14083Y144371D01*
X14179Y144333D01*
X14273Y144289D01*
X14293Y144287D01*
X14311Y144279D01*
X14478Y144261D01*
X15241Y144261D01*
X15241Y144259D01*
X14478Y144259D01*
X14458Y144256D01*
X14439Y144258D01*
X14337Y144236D01*
X14235Y144219D01*
X14218Y144210D01*
X14198Y144206D01*
X14109Y144153D01*
X14018Y144104D01*
X14004Y144090D01*
X13987Y144080D01*
X13920Y144001D01*
X13849Y143926D01*
X13840Y143908D01*
X13827Y143893D01*
X13788Y143796D01*
X13745Y143703D01*
X13743Y143683D01*
X13735Y143665D01*
X13717Y143498D01*
X13717Y134032D01*
X12819Y134174D01*
X11271Y134677D01*
X11268Y134678D01*
X11196Y134701D01*
X11127Y134733D01*
X11079Y134739D01*
X11034Y134753D01*
X10958Y134752D01*
X10883Y134760D01*
X10836Y134750D01*
X10788Y134749D01*
X10716Y134724D01*
X10642Y134708D01*
X10601Y134683D01*
X10556Y134667D01*
X10496Y134621D01*
X10431Y134582D01*
X10400Y134545D01*
X10362Y134516D01*
X10320Y134453D01*
X10271Y134395D01*
X10253Y134350D01*
X10227Y134310D01*
X10208Y134237D01*
X10179Y134167D01*
X10172Y134102D01*
X10164Y134072D01*
X10166Y134047D01*
X10161Y134000D01*
X10161Y127988D01*
X10168Y127943D01*
X10166Y127897D01*
X10188Y127822D01*
X10200Y127746D01*
X10222Y127705D01*
X10235Y127661D01*
X10279Y127597D01*
X10316Y127528D01*
X10349Y127497D01*
X10375Y127459D01*
X10437Y127413D01*
X10494Y127359D01*
X10536Y127340D01*
X10572Y127312D01*
X10646Y127288D01*
X10717Y127255D01*
X10763Y127250D01*
X10806Y127236D01*
X10884Y127237D01*
X10961Y127228D01*
X11006Y127238D01*
X11052Y127238D01*
X11184Y127276D01*
X11202Y127280D01*
X11206Y127283D01*
X11213Y127285D01*
X13385Y128185D01*
X17095Y128185D01*
X20522Y126765D01*
X20584Y126703D01*
X20600Y126691D01*
X20613Y126676D01*
X20700Y126620D01*
X20784Y126560D01*
X20803Y126554D01*
X20820Y126543D01*
X20920Y126518D01*
X21019Y126487D01*
X21039Y126488D01*
X21058Y126483D01*
X21161Y126491D01*
G37*
%LPC*%
G36*
X150581Y21335D02*
X150581Y21335D01*
X147220Y22727D01*
X144647Y25300D01*
X143255Y28661D01*
X143255Y47539D01*
X144647Y50900D01*
X147220Y53473D01*
X150581Y54865D01*
X154219Y54865D01*
X157580Y53473D01*
X159623Y51430D01*
X159639Y51418D01*
X159652Y51402D01*
X159739Y51346D01*
X159823Y51286D01*
X159842Y51280D01*
X159859Y51269D01*
X159959Y51244D01*
X160058Y51214D01*
X160078Y51214D01*
X160097Y51209D01*
X160200Y51217D01*
X160304Y51220D01*
X160323Y51227D01*
X160342Y51228D01*
X160437Y51269D01*
X160535Y51304D01*
X160550Y51317D01*
X160569Y51325D01*
X160700Y51430D01*
X218470Y109200D01*
X220777Y111507D01*
X226811Y111507D01*
X226902Y111521D01*
X226992Y111529D01*
X227022Y111541D01*
X227054Y111546D01*
X227135Y111589D01*
X227219Y111625D01*
X227251Y111651D01*
X227272Y111662D01*
X227294Y111685D01*
X227350Y111730D01*
X243870Y128250D01*
X243923Y128324D01*
X243983Y128394D01*
X243995Y128424D01*
X244014Y128450D01*
X244041Y128537D01*
X244075Y128622D01*
X244079Y128663D01*
X244086Y128685D01*
X244085Y128717D01*
X244093Y128789D01*
X244093Y174511D01*
X260397Y190814D01*
X260441Y190876D01*
X260474Y190910D01*
X260487Y190939D01*
X260535Y191003D01*
X260537Y191009D01*
X260540Y191014D01*
X260575Y191125D01*
X260577Y191133D01*
X260577Y191134D01*
X260611Y191237D01*
X260611Y191243D01*
X260613Y191249D01*
X260610Y191366D01*
X260609Y191483D01*
X260607Y191490D01*
X260606Y191495D01*
X260600Y191513D01*
X260562Y191644D01*
X259915Y193205D01*
X259915Y196915D01*
X261335Y200342D01*
X263958Y202965D01*
X267385Y204385D01*
X271095Y204385D01*
X274522Y202965D01*
X277145Y200342D01*
X278565Y196915D01*
X278565Y193205D01*
X277145Y189778D01*
X274522Y187155D01*
X271095Y185735D01*
X267385Y185735D01*
X266436Y186129D01*
X266322Y186155D01*
X266209Y186184D01*
X266202Y186183D01*
X266196Y186185D01*
X266080Y186174D01*
X265963Y186165D01*
X265958Y186162D01*
X265951Y186162D01*
X265844Y186114D01*
X265737Y186068D01*
X265731Y186064D01*
X265727Y186062D01*
X265713Y186049D01*
X265606Y185964D01*
X251430Y171787D01*
X251377Y171713D01*
X251317Y171644D01*
X251305Y171614D01*
X251286Y171587D01*
X251259Y171501D01*
X251225Y171416D01*
X251221Y171375D01*
X251214Y171352D01*
X251215Y171320D01*
X251207Y171249D01*
X251207Y158062D01*
X251218Y157991D01*
X251220Y157920D01*
X251238Y157871D01*
X251246Y157819D01*
X251280Y157756D01*
X251305Y157689D01*
X251337Y157648D01*
X251362Y157602D01*
X251413Y157553D01*
X251458Y157497D01*
X251502Y157468D01*
X251540Y157433D01*
X251605Y157402D01*
X251665Y157364D01*
X251716Y157351D01*
X251763Y157329D01*
X251834Y157321D01*
X251904Y157303D01*
X251956Y157308D01*
X252007Y157302D01*
X252078Y157317D01*
X252149Y157323D01*
X252197Y157343D01*
X252248Y157354D01*
X252309Y157391D01*
X252375Y157419D01*
X252431Y157464D01*
X252459Y157480D01*
X252474Y157498D01*
X252506Y157524D01*
X260397Y165414D01*
X260464Y165508D01*
X260535Y165603D01*
X260537Y165609D01*
X260540Y165614D01*
X260575Y165725D01*
X260611Y165837D01*
X260611Y165843D01*
X260613Y165849D01*
X260610Y165966D01*
X260609Y166083D01*
X260607Y166090D01*
X260606Y166095D01*
X260600Y166113D01*
X260562Y166244D01*
X259915Y167805D01*
X259915Y171515D01*
X261335Y174942D01*
X263958Y177565D01*
X267385Y178985D01*
X271095Y178985D01*
X274522Y177565D01*
X277145Y174942D01*
X278565Y171515D01*
X278565Y167805D01*
X277145Y164378D01*
X274522Y161755D01*
X271095Y160335D01*
X267385Y160335D01*
X266436Y160729D01*
X266322Y160755D01*
X266209Y160784D01*
X266202Y160783D01*
X266196Y160785D01*
X266080Y160774D01*
X265963Y160765D01*
X265958Y160762D01*
X265951Y160762D01*
X265844Y160714D01*
X265737Y160668D01*
X265731Y160664D01*
X265727Y160662D01*
X265713Y160649D01*
X265606Y160564D01*
X257780Y152737D01*
X257727Y152663D01*
X257667Y152594D01*
X257655Y152564D01*
X257636Y152537D01*
X257609Y152451D01*
X257575Y152366D01*
X257571Y152325D01*
X257564Y152302D01*
X257565Y152270D01*
X257557Y152199D01*
X257557Y123939D01*
X255250Y121633D01*
X185573Y51956D01*
X185562Y51940D01*
X185546Y51927D01*
X185490Y51840D01*
X185430Y51756D01*
X185424Y51737D01*
X185413Y51720D01*
X185388Y51620D01*
X185357Y51521D01*
X185358Y51501D01*
X185353Y51482D01*
X185361Y51379D01*
X185364Y51275D01*
X185371Y51256D01*
X185372Y51237D01*
X185413Y51142D01*
X185448Y51044D01*
X185461Y51028D01*
X185469Y51010D01*
X185548Y50911D01*
X186945Y47539D01*
X186945Y28661D01*
X185553Y25300D01*
X182980Y22727D01*
X179619Y21335D01*
X175981Y21335D01*
X172620Y22727D01*
X170047Y25300D01*
X168655Y28661D01*
X168655Y47487D01*
X168654Y47497D01*
X168654Y47501D01*
X168649Y47525D01*
X168644Y47558D01*
X168642Y47630D01*
X168624Y47679D01*
X168616Y47730D01*
X168582Y47793D01*
X168557Y47861D01*
X168525Y47902D01*
X168500Y47948D01*
X168449Y47997D01*
X168404Y48053D01*
X168360Y48081D01*
X168322Y48117D01*
X168257Y48147D01*
X168197Y48186D01*
X168146Y48199D01*
X168099Y48221D01*
X168028Y48229D01*
X167958Y48246D01*
X167906Y48242D01*
X167855Y48248D01*
X167784Y48232D01*
X167713Y48227D01*
X167665Y48207D01*
X167614Y48195D01*
X167553Y48159D01*
X167487Y48131D01*
X167431Y48086D01*
X167403Y48069D01*
X167388Y48051D01*
X167356Y48026D01*
X161768Y42438D01*
X161715Y42364D01*
X161655Y42294D01*
X161643Y42264D01*
X161624Y42238D01*
X161597Y42151D01*
X161563Y42066D01*
X161559Y42025D01*
X161552Y42003D01*
X161553Y41971D01*
X161545Y41899D01*
X161545Y28661D01*
X160153Y25300D01*
X157580Y22727D01*
X154219Y21335D01*
X150581Y21335D01*
G37*
%LPD*%
%LPC*%
G36*
X74481Y62409D02*
X74481Y62409D01*
X66612Y65669D01*
X60589Y71692D01*
X57329Y79561D01*
X57329Y88079D01*
X60589Y95948D01*
X66612Y101971D01*
X74481Y105231D01*
X82999Y105231D01*
X90868Y101971D01*
X96891Y95948D01*
X100151Y88079D01*
X100151Y79561D01*
X96891Y71692D01*
X90868Y65669D01*
X82999Y62409D01*
X74481Y62409D01*
G37*
%LPD*%
%LPC*%
G36*
X267385Y439735D02*
X267385Y439735D01*
X263958Y441155D01*
X261335Y443778D01*
X259915Y447205D01*
X259915Y450915D01*
X260681Y452762D01*
X260707Y452875D01*
X260736Y452989D01*
X260735Y452996D01*
X260737Y453002D01*
X260726Y453118D01*
X260717Y453235D01*
X260714Y453240D01*
X260714Y453247D01*
X260666Y453354D01*
X260620Y453461D01*
X260616Y453467D01*
X260614Y453471D01*
X260601Y453485D01*
X260516Y453592D01*
X230525Y483583D01*
X230451Y483636D01*
X230381Y483695D01*
X230351Y483708D01*
X230325Y483726D01*
X230238Y483753D01*
X230153Y483787D01*
X230112Y483792D01*
X230090Y483799D01*
X230058Y483798D01*
X229986Y483806D01*
X202946Y483806D01*
X202926Y483803D01*
X202907Y483805D01*
X202805Y483783D01*
X202703Y483766D01*
X202686Y483757D01*
X202666Y483752D01*
X202577Y483699D01*
X202486Y483651D01*
X202472Y483637D01*
X202455Y483626D01*
X202388Y483548D01*
X202316Y483473D01*
X202308Y483455D01*
X202295Y483439D01*
X202256Y483343D01*
X202213Y483250D01*
X202211Y483230D01*
X202203Y483211D01*
X202185Y483045D01*
X202185Y478241D01*
X200793Y474880D01*
X198220Y472307D01*
X194859Y470915D01*
X191221Y470915D01*
X187860Y472307D01*
X185287Y474880D01*
X183895Y478241D01*
X183895Y497119D01*
X185287Y500480D01*
X187860Y503053D01*
X191221Y504445D01*
X194859Y504445D01*
X198220Y503053D01*
X200793Y500480D01*
X202185Y497119D01*
X202185Y491680D01*
X202188Y491661D01*
X202186Y491641D01*
X202208Y491540D01*
X202224Y491438D01*
X202234Y491420D01*
X202238Y491401D01*
X202291Y491312D01*
X202340Y491220D01*
X202354Y491207D01*
X202364Y491190D01*
X202443Y491122D01*
X202518Y491051D01*
X202536Y491043D01*
X202551Y491030D01*
X202647Y490991D01*
X202741Y490947D01*
X202761Y490945D01*
X202779Y490938D01*
X202946Y490919D01*
X233248Y490919D01*
X265892Y458275D01*
X265987Y458207D01*
X266081Y458137D01*
X266087Y458135D01*
X266092Y458132D01*
X266204Y458097D01*
X266315Y458061D01*
X266321Y458061D01*
X266327Y458059D01*
X266444Y458062D01*
X266561Y458063D01*
X266568Y458065D01*
X266573Y458066D01*
X266591Y458072D01*
X266722Y458110D01*
X267385Y458385D01*
X271095Y458385D01*
X274522Y456965D01*
X277145Y454342D01*
X278565Y450915D01*
X278565Y447205D01*
X277145Y443778D01*
X274522Y441155D01*
X271095Y439735D01*
X267385Y439735D01*
G37*
%LPD*%
%LPC*%
G36*
X201381Y21335D02*
X201381Y21335D01*
X198020Y22727D01*
X195447Y25300D01*
X194055Y28661D01*
X194055Y47539D01*
X195447Y50900D01*
X198020Y53473D01*
X201381Y54865D01*
X205019Y54865D01*
X208380Y53473D01*
X210953Y50900D01*
X212345Y47539D01*
X212345Y43000D01*
X212356Y42929D01*
X212358Y42858D01*
X212376Y42809D01*
X212384Y42757D01*
X212418Y42694D01*
X212443Y42627D01*
X212475Y42586D01*
X212500Y42540D01*
X212551Y42491D01*
X212596Y42435D01*
X212640Y42406D01*
X212678Y42371D01*
X212743Y42340D01*
X212803Y42302D01*
X212854Y42289D01*
X212901Y42267D01*
X212972Y42259D01*
X213042Y42241D01*
X213094Y42246D01*
X213145Y42240D01*
X213216Y42255D01*
X213287Y42261D01*
X213335Y42281D01*
X213386Y42292D01*
X213447Y42329D01*
X213513Y42357D01*
X213569Y42402D01*
X213597Y42418D01*
X213612Y42436D01*
X213644Y42462D01*
X260397Y89214D01*
X260464Y89308D01*
X260535Y89403D01*
X260537Y89409D01*
X260540Y89414D01*
X260575Y89525D01*
X260611Y89637D01*
X260611Y89643D01*
X260613Y89649D01*
X260610Y89766D01*
X260609Y89883D01*
X260607Y89890D01*
X260606Y89895D01*
X260600Y89913D01*
X260562Y90044D01*
X259915Y91605D01*
X259915Y95315D01*
X261335Y98742D01*
X263958Y101365D01*
X267385Y102785D01*
X271095Y102785D01*
X274522Y101365D01*
X277145Y98742D01*
X278565Y95315D01*
X278565Y91605D01*
X277145Y88178D01*
X274522Y85555D01*
X271095Y84135D01*
X267385Y84135D01*
X266436Y84529D01*
X266322Y84555D01*
X266209Y84584D01*
X266202Y84583D01*
X266196Y84585D01*
X266080Y84574D01*
X265963Y84565D01*
X265958Y84562D01*
X265951Y84562D01*
X265844Y84514D01*
X265737Y84468D01*
X265731Y84464D01*
X265727Y84462D01*
X265713Y84449D01*
X265606Y84364D01*
X215786Y34543D01*
X213106Y34543D01*
X213086Y34540D01*
X213067Y34542D01*
X212965Y34520D01*
X212863Y34504D01*
X212846Y34494D01*
X212826Y34490D01*
X212737Y34437D01*
X212646Y34388D01*
X212632Y34374D01*
X212615Y34364D01*
X212548Y34285D01*
X212476Y34210D01*
X212468Y34192D01*
X212455Y34177D01*
X212416Y34081D01*
X212373Y33987D01*
X212371Y33967D01*
X212363Y33949D01*
X212345Y33782D01*
X212345Y28661D01*
X210953Y25300D01*
X208380Y22727D01*
X205019Y21335D01*
X201381Y21335D01*
G37*
%LPD*%
%LPC*%
G36*
X369277Y267743D02*
X369277Y267743D01*
X366168Y270852D01*
X366168Y275248D01*
X369277Y278357D01*
X371436Y278357D01*
X371527Y278371D01*
X371617Y278379D01*
X371647Y278391D01*
X371679Y278396D01*
X371760Y278439D01*
X371844Y278475D01*
X371876Y278501D01*
X371897Y278512D01*
X371919Y278535D01*
X371975Y278580D01*
X472308Y378913D01*
X472361Y378987D01*
X472420Y379056D01*
X472433Y379086D01*
X472451Y379113D01*
X472478Y379199D01*
X472512Y379284D01*
X472517Y379325D01*
X472524Y379348D01*
X472523Y379380D01*
X472531Y379451D01*
X472531Y381611D01*
X475639Y384719D01*
X480036Y384719D01*
X483144Y381611D01*
X483144Y377214D01*
X480036Y374106D01*
X477876Y374106D01*
X477786Y374091D01*
X477695Y374084D01*
X477665Y374071D01*
X477633Y374066D01*
X477553Y374023D01*
X477469Y373988D01*
X477437Y373962D01*
X477416Y373951D01*
X477394Y373928D01*
X477338Y373883D01*
X377005Y273550D01*
X376952Y273476D01*
X376892Y273406D01*
X376880Y273376D01*
X376861Y273350D01*
X376834Y273263D01*
X376800Y273178D01*
X376796Y273137D01*
X376789Y273115D01*
X376790Y273083D01*
X376782Y273011D01*
X376782Y270852D01*
X373673Y267743D01*
X369277Y267743D01*
G37*
%LPD*%
%LPC*%
G36*
X145756Y376173D02*
X145756Y376173D01*
X139953Y381976D01*
X139953Y390184D01*
X145756Y395987D01*
X146495Y395987D01*
X146514Y395990D01*
X146534Y395988D01*
X146635Y396010D01*
X146737Y396026D01*
X146755Y396036D01*
X146774Y396040D01*
X146863Y396093D01*
X146955Y396142D01*
X146968Y396156D01*
X146985Y396166D01*
X147053Y396245D01*
X147124Y396320D01*
X147132Y396338D01*
X147145Y396353D01*
X147184Y396449D01*
X147228Y396543D01*
X147230Y396563D01*
X147237Y396581D01*
X147256Y396748D01*
X147256Y403352D01*
X147253Y403372D01*
X147255Y403391D01*
X147233Y403493D01*
X147216Y403595D01*
X147207Y403612D01*
X147202Y403632D01*
X147149Y403721D01*
X147101Y403812D01*
X147087Y403826D01*
X147076Y403843D01*
X146998Y403910D01*
X146923Y403982D01*
X146905Y403990D01*
X146889Y404003D01*
X146793Y404042D01*
X146700Y404085D01*
X146680Y404087D01*
X146661Y404095D01*
X146495Y404113D01*
X145756Y404113D01*
X139953Y409916D01*
X139953Y418124D01*
X145445Y423616D01*
X145498Y423689D01*
X145558Y423759D01*
X145570Y423789D01*
X145589Y423815D01*
X145616Y423902D01*
X145650Y423987D01*
X145654Y424028D01*
X145661Y424050D01*
X145660Y424083D01*
X145668Y424154D01*
X145668Y429286D01*
X145654Y429376D01*
X145646Y429467D01*
X145634Y429497D01*
X145629Y429529D01*
X145586Y429609D01*
X145550Y429693D01*
X145524Y429726D01*
X145513Y429746D01*
X145490Y429768D01*
X145445Y429824D01*
X139953Y435316D01*
X139953Y443524D01*
X145756Y449327D01*
X153964Y449327D01*
X159767Y443524D01*
X159767Y435316D01*
X153964Y429513D01*
X153543Y429513D01*
X153523Y429510D01*
X153504Y429512D01*
X153402Y429490D01*
X153300Y429474D01*
X153283Y429464D01*
X153263Y429460D01*
X153174Y429407D01*
X153083Y429358D01*
X153069Y429344D01*
X153052Y429334D01*
X152985Y429255D01*
X152913Y429180D01*
X152905Y429162D01*
X152892Y429147D01*
X152853Y429051D01*
X152810Y428957D01*
X152808Y428937D01*
X152800Y428919D01*
X152782Y428752D01*
X152782Y424688D01*
X152785Y424668D01*
X152783Y424649D01*
X152805Y424547D01*
X152821Y424445D01*
X152831Y424428D01*
X152835Y424408D01*
X152888Y424319D01*
X152937Y424228D01*
X152951Y424214D01*
X152961Y424197D01*
X153040Y424130D01*
X153115Y424058D01*
X153133Y424050D01*
X153148Y424037D01*
X153244Y423998D01*
X153338Y423955D01*
X153358Y423953D01*
X153376Y423945D01*
X153543Y423927D01*
X153964Y423927D01*
X159767Y418124D01*
X159767Y409916D01*
X154592Y404742D01*
X154539Y404668D01*
X154480Y404599D01*
X154467Y404568D01*
X154449Y404542D01*
X154422Y404455D01*
X154388Y404370D01*
X154383Y404329D01*
X154376Y404307D01*
X154377Y404275D01*
X154369Y404204D01*
X154369Y395896D01*
X154384Y395806D01*
X154391Y395715D01*
X154404Y395686D01*
X154409Y395654D01*
X154452Y395573D01*
X154487Y395489D01*
X154513Y395457D01*
X154524Y395436D01*
X154547Y395414D01*
X154592Y395358D01*
X159767Y390184D01*
X159767Y381976D01*
X153964Y376173D01*
X145756Y376173D01*
G37*
%LPD*%
%LPC*%
G36*
X219416Y114553D02*
X219416Y114553D01*
X213613Y120356D01*
X213613Y128564D01*
X219416Y134367D01*
X219520Y134367D01*
X219539Y134370D01*
X219559Y134368D01*
X219660Y134390D01*
X219762Y134406D01*
X219780Y134416D01*
X219799Y134420D01*
X219888Y134473D01*
X219980Y134522D01*
X219993Y134536D01*
X220010Y134546D01*
X220078Y134625D01*
X220149Y134700D01*
X220157Y134718D01*
X220170Y134733D01*
X220209Y134829D01*
X220253Y134923D01*
X220255Y134943D01*
X220262Y134961D01*
X220281Y135128D01*
X220281Y139192D01*
X220278Y139212D01*
X220280Y139231D01*
X220258Y139333D01*
X220241Y139435D01*
X220232Y139452D01*
X220227Y139472D01*
X220174Y139561D01*
X220126Y139652D01*
X220112Y139666D01*
X220101Y139683D01*
X220023Y139750D01*
X219948Y139822D01*
X219930Y139830D01*
X219914Y139843D01*
X219818Y139882D01*
X219725Y139925D01*
X219705Y139927D01*
X219686Y139935D01*
X219520Y139953D01*
X219416Y139953D01*
X213613Y145756D01*
X213613Y153964D01*
X219416Y159767D01*
X219520Y159767D01*
X219539Y159770D01*
X219559Y159768D01*
X219660Y159790D01*
X219762Y159806D01*
X219780Y159816D01*
X219799Y159820D01*
X219888Y159873D01*
X219980Y159922D01*
X219993Y159936D01*
X220010Y159946D01*
X220078Y160025D01*
X220149Y160100D01*
X220157Y160118D01*
X220170Y160133D01*
X220209Y160229D01*
X220253Y160323D01*
X220255Y160343D01*
X220262Y160361D01*
X220281Y160528D01*
X220281Y164592D01*
X220278Y164612D01*
X220280Y164631D01*
X220258Y164733D01*
X220241Y164835D01*
X220232Y164852D01*
X220227Y164872D01*
X220174Y164961D01*
X220126Y165052D01*
X220112Y165066D01*
X220101Y165083D01*
X220023Y165150D01*
X219948Y165222D01*
X219930Y165230D01*
X219914Y165243D01*
X219818Y165282D01*
X219725Y165325D01*
X219705Y165327D01*
X219686Y165335D01*
X219520Y165353D01*
X219416Y165353D01*
X213613Y171156D01*
X213613Y179364D01*
X219416Y185167D01*
X227624Y185167D01*
X233427Y179364D01*
X233427Y171156D01*
X227617Y165347D01*
X227564Y165273D01*
X227505Y165204D01*
X227493Y165173D01*
X227474Y165147D01*
X227447Y165060D01*
X227413Y164975D01*
X227408Y164934D01*
X227401Y164912D01*
X227402Y164880D01*
X227394Y164809D01*
X227394Y160311D01*
X227409Y160221D01*
X227416Y160130D01*
X227429Y160101D01*
X227434Y160069D01*
X227477Y159988D01*
X227512Y159904D01*
X227538Y159872D01*
X227549Y159851D01*
X227572Y159829D01*
X227617Y159773D01*
X233427Y153964D01*
X233427Y145756D01*
X227617Y139947D01*
X227564Y139873D01*
X227505Y139804D01*
X227493Y139773D01*
X227474Y139747D01*
X227447Y139660D01*
X227413Y139575D01*
X227408Y139534D01*
X227401Y139512D01*
X227402Y139480D01*
X227394Y139409D01*
X227394Y134911D01*
X227409Y134821D01*
X227416Y134730D01*
X227429Y134701D01*
X227434Y134669D01*
X227477Y134588D01*
X227512Y134504D01*
X227538Y134472D01*
X227549Y134451D01*
X227572Y134429D01*
X227617Y134373D01*
X233427Y128564D01*
X233427Y120356D01*
X227624Y114553D01*
X219416Y114553D01*
G37*
%LPD*%
%LPC*%
G36*
X537147Y97335D02*
X537147Y97335D01*
X533278Y98938D01*
X530318Y101898D01*
X528715Y105767D01*
X528715Y109953D01*
X530318Y113822D01*
X533278Y116782D01*
X537147Y118385D01*
X559333Y118385D01*
X563202Y116782D01*
X566162Y113822D01*
X567765Y109953D01*
X567765Y105767D01*
X566162Y101898D01*
X563202Y98938D01*
X559333Y97335D01*
X537147Y97335D01*
G37*
%LPD*%
%LPC*%
G36*
X537147Y47335D02*
X537147Y47335D01*
X533278Y48938D01*
X530318Y51898D01*
X528715Y55767D01*
X528715Y59953D01*
X530318Y63822D01*
X533278Y66782D01*
X537147Y68385D01*
X559333Y68385D01*
X563202Y66782D01*
X566162Y63822D01*
X567765Y59953D01*
X567765Y55767D01*
X566162Y51898D01*
X563202Y48938D01*
X559333Y47335D01*
X537147Y47335D01*
G37*
%LPD*%
%LPC*%
G36*
X537147Y122335D02*
X537147Y122335D01*
X533278Y123938D01*
X530318Y126898D01*
X528715Y130767D01*
X528715Y134953D01*
X530318Y138822D01*
X533278Y141782D01*
X537147Y143385D01*
X559333Y143385D01*
X563202Y141782D01*
X566162Y138822D01*
X567765Y134953D01*
X567765Y130767D01*
X566162Y126898D01*
X563202Y123938D01*
X559333Y122335D01*
X537147Y122335D01*
G37*
%LPD*%
%LPC*%
G36*
X537147Y182355D02*
X537147Y182355D01*
X533278Y183958D01*
X530318Y186918D01*
X528715Y190787D01*
X528715Y194973D01*
X530318Y198842D01*
X533278Y201802D01*
X537147Y203405D01*
X559333Y203405D01*
X563202Y201802D01*
X566162Y198842D01*
X567765Y194973D01*
X567765Y190787D01*
X566162Y186918D01*
X563202Y183958D01*
X559333Y182355D01*
X537147Y182355D01*
G37*
%LPD*%
%LPC*%
G36*
X537147Y22335D02*
X537147Y22335D01*
X533278Y23938D01*
X530318Y26898D01*
X528715Y30767D01*
X528715Y34953D01*
X530318Y38822D01*
X533278Y41782D01*
X537147Y43385D01*
X559333Y43385D01*
X563202Y41782D01*
X566162Y38822D01*
X567765Y34953D01*
X567765Y30767D01*
X566162Y26898D01*
X563202Y23938D01*
X559333Y22335D01*
X537147Y22335D01*
G37*
%LPD*%
%LPC*%
G36*
X537147Y257355D02*
X537147Y257355D01*
X533278Y258958D01*
X530318Y261918D01*
X528715Y265787D01*
X528715Y269973D01*
X530318Y273842D01*
X533278Y276802D01*
X537147Y278405D01*
X559333Y278405D01*
X563202Y276802D01*
X566162Y273842D01*
X567765Y269973D01*
X567765Y265787D01*
X566162Y261918D01*
X563202Y258958D01*
X559333Y257355D01*
X537147Y257355D01*
G37*
%LPD*%
%LPC*%
G36*
X169252Y269331D02*
X169252Y269331D01*
X166143Y272439D01*
X166143Y276836D01*
X167670Y278363D01*
X167715Y278425D01*
X167743Y278454D01*
X167748Y278465D01*
X167783Y278506D01*
X167795Y278536D01*
X167814Y278562D01*
X167841Y278649D01*
X167875Y278734D01*
X167879Y278775D01*
X167886Y278797D01*
X167885Y278830D01*
X167893Y278901D01*
X167893Y290311D01*
X167891Y290327D01*
X167892Y290340D01*
X167878Y290404D01*
X167871Y290492D01*
X167859Y290522D01*
X167854Y290554D01*
X167840Y290579D01*
X167840Y290581D01*
X167836Y290587D01*
X167811Y290635D01*
X167775Y290719D01*
X167749Y290751D01*
X167738Y290772D01*
X167715Y290794D01*
X167670Y290850D01*
X151150Y307370D01*
X151076Y307423D01*
X151006Y307483D01*
X150976Y307495D01*
X150950Y307514D01*
X150863Y307541D01*
X150778Y307575D01*
X150737Y307579D01*
X150715Y307586D01*
X150683Y307585D01*
X150611Y307593D01*
X143216Y307593D01*
X137413Y313396D01*
X137413Y321604D01*
X143216Y327407D01*
X151424Y327407D01*
X157227Y321604D01*
X157227Y313397D01*
X156743Y312913D01*
X156732Y312897D01*
X156716Y312885D01*
X156688Y312840D01*
X156654Y312805D01*
X156633Y312760D01*
X156600Y312713D01*
X156594Y312694D01*
X156583Y312678D01*
X156569Y312622D01*
X156551Y312582D01*
X156546Y312538D01*
X156527Y312478D01*
X156528Y312458D01*
X156523Y312439D01*
X156528Y312377D01*
X156524Y312338D01*
X156532Y312298D01*
X156534Y312232D01*
X156541Y312214D01*
X156542Y312194D01*
X156568Y312134D01*
X156576Y312097D01*
X156595Y312065D01*
X156618Y312001D01*
X156631Y311986D01*
X156639Y311968D01*
X156697Y311895D01*
X156702Y311886D01*
X156708Y311881D01*
X156743Y311837D01*
X175007Y293573D01*
X175007Y278901D01*
X175021Y278811D01*
X175029Y278720D01*
X175041Y278690D01*
X175046Y278658D01*
X175089Y278578D01*
X175125Y278494D01*
X175151Y278461D01*
X175162Y278441D01*
X175185Y278419D01*
X175200Y278400D01*
X175205Y278391D01*
X175211Y278386D01*
X175230Y278363D01*
X176757Y276836D01*
X176757Y272439D01*
X173648Y269331D01*
X169252Y269331D01*
G37*
%LPD*%
%LPC*%
G36*
X64221Y470915D02*
X64221Y470915D01*
X60860Y472307D01*
X58287Y474880D01*
X56895Y478241D01*
X56895Y497119D01*
X58287Y500480D01*
X60860Y503053D01*
X64221Y504445D01*
X67859Y504445D01*
X71220Y503053D01*
X73793Y500480D01*
X75185Y497119D01*
X75185Y478241D01*
X73793Y474880D01*
X71220Y472307D01*
X67859Y470915D01*
X64221Y470915D01*
G37*
%LPD*%
%LPC*%
G36*
X838921Y138175D02*
X838921Y138175D01*
X835560Y139567D01*
X832987Y142140D01*
X831595Y145501D01*
X831595Y164379D01*
X832987Y167740D01*
X835560Y170313D01*
X838921Y171705D01*
X842559Y171705D01*
X845920Y170313D01*
X848493Y167740D01*
X849885Y164379D01*
X849885Y145501D01*
X848493Y142140D01*
X845920Y139567D01*
X842559Y138175D01*
X838921Y138175D01*
G37*
%LPD*%
%LPC*%
G36*
X143216Y282193D02*
X143216Y282193D01*
X137413Y287996D01*
X137413Y296204D01*
X143216Y302007D01*
X151424Y302007D01*
X157227Y296204D01*
X157227Y287996D01*
X151424Y282193D01*
X143216Y282193D01*
G37*
%LPD*%
%LPC*%
G36*
X221956Y376173D02*
X221956Y376173D01*
X216153Y381976D01*
X216153Y390184D01*
X221956Y395987D01*
X230164Y395987D01*
X235967Y390184D01*
X235967Y381976D01*
X230164Y376173D01*
X221956Y376173D01*
G37*
%LPD*%
%LPC*%
G36*
X221956Y404113D02*
X221956Y404113D01*
X216153Y409916D01*
X216153Y418124D01*
X221956Y423927D01*
X230164Y423927D01*
X235967Y418124D01*
X235967Y409916D01*
X230164Y404113D01*
X221956Y404113D01*
G37*
%LPD*%
%LPC*%
G36*
X48905Y414654D02*
X48905Y414654D01*
X45404Y416104D01*
X42724Y418784D01*
X41274Y422285D01*
X41274Y426075D01*
X42724Y429576D01*
X45404Y432256D01*
X48905Y433706D01*
X52695Y433706D01*
X56196Y432256D01*
X58876Y429576D01*
X60326Y426075D01*
X60326Y422285D01*
X58876Y418784D01*
X56196Y416104D01*
X52695Y414654D01*
X48905Y414654D01*
G37*
%LPD*%
%LPC*%
G36*
X46365Y173354D02*
X46365Y173354D01*
X42864Y174804D01*
X40184Y177484D01*
X38734Y180985D01*
X38734Y184775D01*
X40184Y188276D01*
X42864Y190956D01*
X46365Y192406D01*
X50155Y192406D01*
X53656Y190956D01*
X56336Y188276D01*
X57786Y184775D01*
X57786Y180985D01*
X56336Y177484D01*
X53656Y174804D01*
X50155Y173354D01*
X46365Y173354D01*
G37*
%LPD*%
%LPC*%
G36*
X267385Y58735D02*
X267385Y58735D01*
X263958Y60155D01*
X261335Y62778D01*
X259915Y66205D01*
X259915Y69915D01*
X261335Y73342D01*
X263958Y75965D01*
X267385Y77385D01*
X271095Y77385D01*
X274522Y75965D01*
X277145Y73342D01*
X278565Y69915D01*
X278565Y66205D01*
X277145Y62778D01*
X274522Y60155D01*
X271095Y58735D01*
X267385Y58735D01*
G37*
%LPD*%
%LPC*%
G36*
X267385Y109535D02*
X267385Y109535D01*
X263958Y110955D01*
X261335Y113578D01*
X259915Y117005D01*
X259915Y120715D01*
X261335Y124142D01*
X263958Y126765D01*
X267385Y128185D01*
X271095Y128185D01*
X274522Y126765D01*
X277145Y124142D01*
X278565Y120715D01*
X278565Y117005D01*
X277145Y113578D01*
X274522Y110955D01*
X271095Y109535D01*
X267385Y109535D01*
G37*
%LPD*%
%LPC*%
G36*
X267385Y134935D02*
X267385Y134935D01*
X263958Y136355D01*
X261335Y138978D01*
X259915Y142405D01*
X259915Y146115D01*
X261335Y149542D01*
X263958Y152165D01*
X267385Y153585D01*
X271095Y153585D01*
X274522Y152165D01*
X277145Y149542D01*
X278565Y146115D01*
X278565Y142405D01*
X277145Y138978D01*
X274522Y136355D01*
X271095Y134935D01*
X267385Y134935D01*
G37*
%LPD*%
%LPC*%
G36*
X267385Y363535D02*
X267385Y363535D01*
X263958Y364955D01*
X261335Y367578D01*
X259915Y371005D01*
X259915Y374715D01*
X261335Y378142D01*
X263958Y380765D01*
X267385Y382185D01*
X271095Y382185D01*
X274522Y380765D01*
X277145Y378142D01*
X278565Y374715D01*
X278565Y371005D01*
X277145Y367578D01*
X274522Y364955D01*
X271095Y363535D01*
X267385Y363535D01*
G37*
%LPD*%
%LPC*%
G36*
X267385Y388935D02*
X267385Y388935D01*
X263958Y390355D01*
X261335Y392978D01*
X259915Y396405D01*
X259915Y400115D01*
X261335Y403542D01*
X263958Y406165D01*
X267385Y407585D01*
X271095Y407585D01*
X274522Y406165D01*
X277145Y403542D01*
X278565Y400115D01*
X278565Y396405D01*
X277145Y392978D01*
X274522Y390355D01*
X271095Y388935D01*
X267385Y388935D01*
G37*
%LPD*%
%LPC*%
G36*
X267385Y33335D02*
X267385Y33335D01*
X263958Y34755D01*
X261335Y37378D01*
X259915Y40805D01*
X259915Y44515D01*
X261335Y47942D01*
X263958Y50565D01*
X267385Y51985D01*
X271095Y51985D01*
X274522Y50565D01*
X277145Y47942D01*
X278565Y44515D01*
X278565Y40805D01*
X277145Y37378D01*
X274522Y34755D01*
X271095Y33335D01*
X267385Y33335D01*
G37*
%LPD*%
%LPC*%
G36*
X267385Y338135D02*
X267385Y338135D01*
X263958Y339555D01*
X261335Y342178D01*
X259915Y345605D01*
X259915Y349315D01*
X261335Y352742D01*
X263958Y355365D01*
X267385Y356785D01*
X271095Y356785D01*
X274522Y355365D01*
X277145Y352742D01*
X278565Y349315D01*
X278565Y345605D01*
X277145Y342178D01*
X274522Y339555D01*
X271095Y338135D01*
X267385Y338135D01*
G37*
%LPD*%
%LPC*%
G36*
X77723Y39623D02*
X77723Y39623D01*
X77723Y55766D01*
X78579Y55631D01*
X80100Y55136D01*
X81525Y54410D01*
X82819Y53470D01*
X83950Y52339D01*
X84890Y51045D01*
X85616Y49620D01*
X86111Y48099D01*
X86361Y46520D01*
X86361Y39623D01*
X77723Y39623D01*
G37*
%LPD*%
%LPC*%
G36*
X77723Y36577D02*
X77723Y36577D01*
X86361Y36577D01*
X86361Y29680D01*
X86111Y28101D01*
X85616Y26580D01*
X84890Y25155D01*
X83950Y23861D01*
X82819Y22730D01*
X81525Y21790D01*
X80100Y21064D01*
X78579Y20569D01*
X77723Y20434D01*
X77723Y36577D01*
G37*
%LPD*%
%LPC*%
G36*
X766063Y153417D02*
X766063Y153417D01*
X774701Y153417D01*
X774701Y146520D01*
X774451Y144941D01*
X773956Y143420D01*
X773230Y141995D01*
X772290Y140701D01*
X771159Y139570D01*
X769865Y138630D01*
X768440Y137904D01*
X766919Y137409D01*
X766063Y137274D01*
X766063Y153417D01*
G37*
%LPD*%
%LPC*%
G36*
X754379Y156463D02*
X754379Y156463D01*
X754379Y163360D01*
X754629Y164939D01*
X755124Y166460D01*
X755850Y167885D01*
X756790Y169179D01*
X757921Y170310D01*
X759215Y171250D01*
X760640Y171976D01*
X762161Y172471D01*
X763017Y172606D01*
X763017Y156463D01*
X754379Y156463D01*
G37*
%LPD*%
%LPC*%
G36*
X66039Y39623D02*
X66039Y39623D01*
X66039Y46520D01*
X66289Y48099D01*
X66784Y49620D01*
X67510Y51045D01*
X68450Y52339D01*
X69581Y53470D01*
X70875Y54410D01*
X72300Y55136D01*
X73821Y55631D01*
X74677Y55766D01*
X74677Y39623D01*
X66039Y39623D01*
G37*
%LPD*%
%LPC*%
G36*
X73821Y20569D02*
X73821Y20569D01*
X72300Y21064D01*
X70875Y21790D01*
X69581Y22730D01*
X68450Y23861D01*
X67510Y25155D01*
X66784Y26580D01*
X66289Y28101D01*
X66039Y29680D01*
X66039Y36577D01*
X74677Y36577D01*
X74677Y20434D01*
X73821Y20569D01*
G37*
%LPD*%
%LPC*%
G36*
X762161Y137409D02*
X762161Y137409D01*
X760640Y137904D01*
X759215Y138630D01*
X757921Y139570D01*
X756790Y140701D01*
X755850Y141995D01*
X755124Y143420D01*
X754629Y144941D01*
X754379Y146520D01*
X754379Y153417D01*
X763017Y153417D01*
X763017Y137274D01*
X762161Y137409D01*
G37*
%LPD*%
%LPC*%
G36*
X148843Y268223D02*
X148843Y268223D01*
X148843Y277623D01*
X151844Y277623D01*
X158243Y271224D01*
X158243Y268223D01*
X148843Y268223D01*
G37*
%LPD*%
%LPC*%
G36*
X227583Y440943D02*
X227583Y440943D01*
X227583Y450343D01*
X230584Y450343D01*
X236983Y443944D01*
X236983Y440943D01*
X227583Y440943D01*
G37*
%LPD*%
%LPC*%
G36*
X148843Y125983D02*
X148843Y125983D01*
X148843Y135383D01*
X151844Y135383D01*
X158243Y128984D01*
X158243Y125983D01*
X148843Y125983D01*
G37*
%LPD*%
%LPC*%
G36*
X136397Y125983D02*
X136397Y125983D01*
X136397Y128984D01*
X142796Y135383D01*
X145797Y135383D01*
X145797Y125983D01*
X136397Y125983D01*
G37*
%LPD*%
%LPC*%
G36*
X227583Y428497D02*
X227583Y428497D01*
X227583Y437897D01*
X236983Y437897D01*
X236983Y434896D01*
X230584Y428497D01*
X227583Y428497D01*
G37*
%LPD*%
%LPC*%
G36*
X136397Y268223D02*
X136397Y268223D01*
X136397Y271224D01*
X142796Y277623D01*
X145797Y277623D01*
X145797Y268223D01*
X136397Y268223D01*
G37*
%LPD*%
%LPC*%
G36*
X148843Y255777D02*
X148843Y255777D01*
X148843Y265177D01*
X158243Y265177D01*
X158243Y262176D01*
X151844Y255777D01*
X148843Y255777D01*
G37*
%LPD*%
%LPC*%
G36*
X148843Y113537D02*
X148843Y113537D01*
X148843Y122937D01*
X158243Y122937D01*
X158243Y119936D01*
X151844Y113537D01*
X148843Y113537D01*
G37*
%LPD*%
%LPC*%
G36*
X215137Y440943D02*
X215137Y440943D01*
X215137Y443944D01*
X221536Y450343D01*
X224537Y450343D01*
X224537Y440943D01*
X215137Y440943D01*
G37*
%LPD*%
%LPC*%
G36*
X142796Y113537D02*
X142796Y113537D01*
X136397Y119936D01*
X136397Y122937D01*
X145797Y122937D01*
X145797Y113537D01*
X142796Y113537D01*
G37*
%LPD*%
%LPC*%
G36*
X221536Y428497D02*
X221536Y428497D01*
X215137Y434896D01*
X215137Y437897D01*
X224537Y437897D01*
X224537Y428497D01*
X221536Y428497D01*
G37*
%LPD*%
%LPC*%
G36*
X142796Y255777D02*
X142796Y255777D01*
X136397Y262176D01*
X136397Y265177D01*
X145797Y265177D01*
X145797Y255777D01*
X142796Y255777D01*
G37*
%LPD*%
%LPC*%
G36*
X77723Y425703D02*
X77723Y425703D01*
X77723Y434722D01*
X80567Y434722D01*
X86742Y428547D01*
X86742Y425703D01*
X77723Y425703D01*
G37*
%LPD*%
%LPC*%
G36*
X113283Y308863D02*
X113283Y308863D01*
X113283Y317882D01*
X116127Y317882D01*
X122302Y311707D01*
X122302Y308863D01*
X113283Y308863D01*
G37*
%LPD*%
%LPC*%
G36*
X75183Y184403D02*
X75183Y184403D01*
X75183Y193422D01*
X78027Y193422D01*
X84202Y187247D01*
X84202Y184403D01*
X75183Y184403D01*
G37*
%LPD*%
%LPC*%
G36*
X101218Y308863D02*
X101218Y308863D01*
X101218Y311707D01*
X107393Y317882D01*
X110237Y317882D01*
X110237Y308863D01*
X101218Y308863D01*
G37*
%LPD*%
%LPC*%
G36*
X65658Y425703D02*
X65658Y425703D01*
X65658Y428547D01*
X71833Y434722D01*
X74677Y434722D01*
X74677Y425703D01*
X65658Y425703D01*
G37*
%LPD*%
%LPC*%
G36*
X63118Y184403D02*
X63118Y184403D01*
X63118Y187247D01*
X69293Y193422D01*
X72137Y193422D01*
X72137Y184403D01*
X63118Y184403D01*
G37*
%LPD*%
%LPC*%
G36*
X77723Y413638D02*
X77723Y413638D01*
X77723Y422657D01*
X86742Y422657D01*
X86742Y419813D01*
X80567Y413638D01*
X77723Y413638D01*
G37*
%LPD*%
%LPC*%
G36*
X113283Y296798D02*
X113283Y296798D01*
X113283Y305817D01*
X122302Y305817D01*
X122302Y302973D01*
X116127Y296798D01*
X113283Y296798D01*
G37*
%LPD*%
%LPC*%
G36*
X418083Y454278D02*
X418083Y454278D01*
X418083Y463297D01*
X427102Y463297D01*
X427102Y460453D01*
X420927Y454278D01*
X418083Y454278D01*
G37*
%LPD*%
%LPC*%
G36*
X75183Y172338D02*
X75183Y172338D01*
X75183Y181357D01*
X84202Y181357D01*
X84202Y178513D01*
X78027Y172338D01*
X75183Y172338D01*
G37*
%LPD*%
%LPC*%
G36*
X69293Y172338D02*
X69293Y172338D01*
X63118Y178513D01*
X63118Y181357D01*
X72137Y181357D01*
X72137Y172338D01*
X69293Y172338D01*
G37*
%LPD*%
%LPC*%
G36*
X71833Y413638D02*
X71833Y413638D01*
X65658Y419813D01*
X65658Y422657D01*
X74677Y422657D01*
X74677Y413638D01*
X71833Y413638D01*
G37*
%LPD*%
%LPC*%
G36*
X107393Y296798D02*
X107393Y296798D01*
X101218Y302973D01*
X101218Y305817D01*
X110237Y305817D01*
X110237Y296798D01*
X107393Y296798D01*
G37*
%LPD*%
%LPC*%
G36*
X412193Y454278D02*
X412193Y454278D01*
X406018Y460453D01*
X406018Y463297D01*
X415037Y463297D01*
X415037Y454278D01*
X412193Y454278D01*
G37*
%LPD*%
%LPC*%
G36*
X270763Y323583D02*
X270763Y323583D01*
X270763Y332288D01*
X271661Y332146D01*
X273210Y331643D01*
X274660Y330904D01*
X275977Y329947D01*
X277127Y328797D01*
X278084Y327480D01*
X278823Y326030D01*
X279326Y324481D01*
X279468Y323583D01*
X270763Y323583D01*
G37*
%LPD*%
%LPC*%
G36*
X16763Y145783D02*
X16763Y145783D01*
X16763Y154488D01*
X17661Y154346D01*
X19210Y153843D01*
X20660Y153104D01*
X21977Y152147D01*
X23127Y150997D01*
X24084Y149680D01*
X24823Y148230D01*
X25326Y146681D01*
X25468Y145783D01*
X16763Y145783D01*
G37*
%LPD*%
%LPC*%
G36*
X259012Y323583D02*
X259012Y323583D01*
X259154Y324481D01*
X259657Y326030D01*
X260396Y327480D01*
X261353Y328797D01*
X262503Y329947D01*
X263820Y330904D01*
X265270Y331643D01*
X266819Y332146D01*
X267717Y332288D01*
X267717Y323583D01*
X259012Y323583D01*
G37*
%LPD*%
%LPC*%
G36*
X270763Y472937D02*
X270763Y472937D01*
X279468Y472937D01*
X279326Y472039D01*
X278823Y470490D01*
X278084Y469040D01*
X277127Y467723D01*
X275977Y466573D01*
X274660Y465616D01*
X273210Y464877D01*
X271661Y464374D01*
X270763Y464232D01*
X270763Y472937D01*
G37*
%LPD*%
%LPC*%
G36*
X16763Y142737D02*
X16763Y142737D01*
X25468Y142737D01*
X25326Y141839D01*
X24823Y140290D01*
X24084Y138840D01*
X23127Y137523D01*
X21977Y136373D01*
X20660Y135416D01*
X19210Y134677D01*
X17661Y134174D01*
X16763Y134032D01*
X16763Y142737D01*
G37*
%LPD*%
%LPC*%
G36*
X259012Y475983D02*
X259012Y475983D01*
X259154Y476881D01*
X259657Y478430D01*
X260396Y479880D01*
X261353Y481197D01*
X262503Y482347D01*
X263820Y483304D01*
X265270Y484043D01*
X266819Y484546D01*
X267717Y484688D01*
X267717Y475983D01*
X259012Y475983D01*
G37*
%LPD*%
%LPC*%
G36*
X270763Y320537D02*
X270763Y320537D01*
X279468Y320537D01*
X279326Y319639D01*
X278823Y318090D01*
X278084Y316640D01*
X277127Y315323D01*
X275977Y314173D01*
X274660Y313216D01*
X273210Y312477D01*
X271661Y311974D01*
X270763Y311832D01*
X270763Y320537D01*
G37*
%LPD*%
%LPC*%
G36*
X266819Y464374D02*
X266819Y464374D01*
X265270Y464877D01*
X263820Y465616D01*
X262503Y466573D01*
X261353Y467723D01*
X260396Y469040D01*
X259657Y470490D01*
X259154Y472039D01*
X259012Y472937D01*
X267717Y472937D01*
X267717Y464232D01*
X266819Y464374D01*
G37*
%LPD*%
%LPC*%
G36*
X266819Y311974D02*
X266819Y311974D01*
X265270Y312477D01*
X263820Y313216D01*
X262503Y314173D01*
X261353Y315323D01*
X260396Y316640D01*
X259657Y318090D01*
X259154Y319639D01*
X259012Y320537D01*
X267717Y320537D01*
X267717Y311832D01*
X266819Y311974D01*
G37*
%LPD*%
%LPC*%
G36*
X312763Y426223D02*
X312763Y426223D01*
X312763Y434665D01*
X313601Y434533D01*
X315110Y434042D01*
X316523Y433322D01*
X317807Y432389D01*
X318929Y431267D01*
X319862Y429983D01*
X320582Y428570D01*
X321073Y427061D01*
X321205Y426223D01*
X312763Y426223D01*
G37*
%LPD*%
%LPC*%
G36*
X312763Y423177D02*
X312763Y423177D01*
X321205Y423177D01*
X321073Y422339D01*
X320582Y420830D01*
X319862Y419417D01*
X318929Y418133D01*
X317807Y417011D01*
X316523Y416078D01*
X315110Y415358D01*
X313601Y414867D01*
X312763Y414735D01*
X312763Y423177D01*
G37*
%LPD*%
%LPC*%
G36*
X301275Y426223D02*
X301275Y426223D01*
X301407Y427061D01*
X301898Y428570D01*
X302618Y429983D01*
X303551Y431267D01*
X304673Y432389D01*
X305957Y433322D01*
X307370Y434042D01*
X308879Y434533D01*
X309717Y434665D01*
X309717Y426223D01*
X301275Y426223D01*
G37*
%LPD*%
%LPC*%
G36*
X308879Y414867D02*
X308879Y414867D01*
X307370Y415358D01*
X305957Y416078D01*
X304673Y417011D01*
X303551Y418133D01*
X302618Y419417D01*
X301898Y420830D01*
X301407Y422339D01*
X301275Y423177D01*
X309717Y423177D01*
X309717Y414735D01*
X308879Y414867D01*
G37*
%LPD*%
%LPC*%
G36*
X764539Y154939D02*
X764539Y154939D01*
X764539Y154941D01*
X764541Y154941D01*
X764541Y154939D01*
X764539Y154939D01*
G37*
%LPD*%
%LPC*%
G36*
X147319Y266699D02*
X147319Y266699D01*
X147319Y266701D01*
X147321Y266701D01*
X147321Y266699D01*
X147319Y266699D01*
G37*
%LPD*%
%LPC*%
G36*
X111759Y307339D02*
X111759Y307339D01*
X111759Y307341D01*
X111761Y307341D01*
X111761Y307339D01*
X111759Y307339D01*
G37*
%LPD*%
%LPC*%
G36*
X269239Y474459D02*
X269239Y474459D01*
X269239Y474461D01*
X269241Y474461D01*
X269241Y474459D01*
X269239Y474459D01*
G37*
%LPD*%
%LPC*%
G36*
X147319Y124459D02*
X147319Y124459D01*
X147319Y124461D01*
X147321Y124461D01*
X147321Y124459D01*
X147319Y124459D01*
G37*
%LPD*%
%LPC*%
G36*
X76199Y424179D02*
X76199Y424179D01*
X76199Y424181D01*
X76201Y424181D01*
X76201Y424179D01*
X76199Y424179D01*
G37*
%LPD*%
%LPC*%
G36*
X311239Y424699D02*
X311239Y424699D01*
X311239Y424701D01*
X311241Y424701D01*
X311241Y424699D01*
X311239Y424699D01*
G37*
%LPD*%
%LPC*%
G36*
X226059Y439419D02*
X226059Y439419D01*
X226059Y439421D01*
X226061Y439421D01*
X226061Y439419D01*
X226059Y439419D01*
G37*
%LPD*%
%LPC*%
G36*
X76199Y38099D02*
X76199Y38099D01*
X76199Y38101D01*
X76201Y38101D01*
X76201Y38099D01*
X76199Y38099D01*
G37*
%LPD*%
%LPC*%
G36*
X73659Y182879D02*
X73659Y182879D01*
X73659Y182881D01*
X73661Y182881D01*
X73661Y182879D01*
X73659Y182879D01*
G37*
%LPD*%
%LPC*%
G36*
X269239Y322059D02*
X269239Y322059D01*
X269239Y322061D01*
X269241Y322061D01*
X269241Y322059D01*
X269239Y322059D01*
G37*
%LPD*%
D10*
X400000Y485000D02*
X335500Y485000D01*
X335500Y545000D02*
X400000Y545000D01*
X355000Y484350D02*
X355000Y433000D01*
X355000Y545650D02*
X355000Y620539D01*
X355000Y484350D02*
X351808Y459000D01*
X358192Y459000D01*
X355000Y484350D01*
X353700Y459000D01*
X356300Y459000D02*
X355000Y484350D01*
X352400Y459000D01*
X357600Y459000D02*
X355000Y484350D01*
X355000Y545650D02*
X351808Y571000D01*
X358192Y571000D01*
X355000Y545650D01*
X353700Y571000D01*
X356300Y571000D02*
X355000Y545650D01*
X352400Y571000D01*
X357600Y571000D02*
X355000Y545650D01*
D11*
X339462Y571762D02*
X339462Y577181D01*
X339464Y577299D01*
X339470Y577417D01*
X339479Y577535D01*
X339493Y577652D01*
X339510Y577769D01*
X339531Y577886D01*
X339556Y578001D01*
X339585Y578116D01*
X339618Y578230D01*
X339654Y578342D01*
X339694Y578453D01*
X339737Y578563D01*
X339784Y578672D01*
X339834Y578779D01*
X339889Y578884D01*
X339946Y578987D01*
X340007Y579088D01*
X340071Y579188D01*
X340138Y579285D01*
X340208Y579380D01*
X340282Y579472D01*
X340358Y579563D01*
X340438Y579650D01*
X340520Y579735D01*
X340605Y579817D01*
X340692Y579897D01*
X340783Y579973D01*
X340875Y580047D01*
X340970Y580117D01*
X341067Y580184D01*
X341167Y580248D01*
X341268Y580309D01*
X341371Y580366D01*
X341476Y580421D01*
X341583Y580471D01*
X341692Y580518D01*
X341802Y580561D01*
X341913Y580601D01*
X342025Y580637D01*
X342139Y580670D01*
X342254Y580699D01*
X342369Y580724D01*
X342486Y580745D01*
X342603Y580762D01*
X342720Y580776D01*
X342838Y580785D01*
X342956Y580791D01*
X343074Y580793D01*
X343977Y580793D01*
X343977Y580794D02*
X344110Y580792D01*
X344242Y580786D01*
X344374Y580776D01*
X344506Y580763D01*
X344638Y580745D01*
X344768Y580724D01*
X344899Y580699D01*
X345028Y580670D01*
X345156Y580637D01*
X345284Y580601D01*
X345410Y580561D01*
X345535Y580517D01*
X345659Y580469D01*
X345781Y580418D01*
X345902Y580363D01*
X346021Y580305D01*
X346139Y580243D01*
X346254Y580178D01*
X346368Y580109D01*
X346479Y580038D01*
X346588Y579962D01*
X346695Y579884D01*
X346800Y579803D01*
X346902Y579718D01*
X347002Y579631D01*
X347099Y579541D01*
X347194Y579448D01*
X347285Y579352D01*
X347374Y579254D01*
X347460Y579153D01*
X347543Y579049D01*
X347623Y578943D01*
X347699Y578835D01*
X347773Y578725D01*
X347843Y578612D01*
X347910Y578498D01*
X347973Y578381D01*
X348033Y578263D01*
X348090Y578143D01*
X348143Y578021D01*
X348192Y577898D01*
X348238Y577774D01*
X348280Y577648D01*
X348318Y577521D01*
X348353Y577393D01*
X348384Y577264D01*
X348411Y577135D01*
X348434Y577004D01*
X348454Y576873D01*
X348469Y576741D01*
X348481Y576609D01*
X348489Y576477D01*
X348493Y576344D01*
X348493Y576212D01*
X348489Y576079D01*
X348481Y575947D01*
X348469Y575815D01*
X348454Y575683D01*
X348434Y575552D01*
X348411Y575421D01*
X348384Y575292D01*
X348353Y575163D01*
X348318Y575035D01*
X348280Y574908D01*
X348238Y574782D01*
X348192Y574658D01*
X348143Y574535D01*
X348090Y574413D01*
X348033Y574293D01*
X347973Y574175D01*
X347910Y574058D01*
X347843Y573944D01*
X347773Y573831D01*
X347699Y573721D01*
X347623Y573613D01*
X347543Y573507D01*
X347460Y573403D01*
X347374Y573302D01*
X347285Y573204D01*
X347194Y573108D01*
X347099Y573015D01*
X347002Y572925D01*
X346902Y572838D01*
X346800Y572753D01*
X346695Y572672D01*
X346588Y572594D01*
X346479Y572518D01*
X346368Y572447D01*
X346254Y572378D01*
X346139Y572313D01*
X346021Y572251D01*
X345902Y572193D01*
X345781Y572138D01*
X345659Y572087D01*
X345535Y572039D01*
X345410Y571995D01*
X345284Y571955D01*
X345156Y571919D01*
X345028Y571886D01*
X344899Y571857D01*
X344768Y571832D01*
X344638Y571811D01*
X344506Y571793D01*
X344374Y571780D01*
X344242Y571770D01*
X344110Y571764D01*
X343977Y571762D01*
X339462Y571762D01*
X339285Y571764D01*
X339107Y571771D01*
X338930Y571782D01*
X338754Y571797D01*
X338578Y571816D01*
X338402Y571840D01*
X338227Y571868D01*
X338052Y571901D01*
X337879Y571938D01*
X337706Y571979D01*
X337535Y572024D01*
X337365Y572073D01*
X337196Y572127D01*
X337028Y572184D01*
X336862Y572246D01*
X336697Y572312D01*
X336534Y572382D01*
X336373Y572456D01*
X336214Y572533D01*
X336056Y572615D01*
X335901Y572701D01*
X335748Y572790D01*
X335597Y572883D01*
X335448Y572980D01*
X335302Y573080D01*
X335158Y573184D01*
X335017Y573291D01*
X334879Y573402D01*
X334743Y573516D01*
X334610Y573634D01*
X334480Y573754D01*
X334353Y573878D01*
X334229Y574005D01*
X334109Y574135D01*
X333991Y574268D01*
X333877Y574403D01*
X333766Y574542D01*
X333659Y574683D01*
X333555Y574827D01*
X333455Y574973D01*
X333358Y575122D01*
X333265Y575273D01*
X333176Y575426D01*
X333090Y575581D01*
X333008Y575739D01*
X332931Y575898D01*
X332857Y576059D01*
X332787Y576222D01*
X332721Y576387D01*
X332659Y576553D01*
X332602Y576721D01*
X332548Y576890D01*
X332499Y577060D01*
X332454Y577231D01*
X332413Y577404D01*
X332376Y577577D01*
X332343Y577752D01*
X332315Y577927D01*
X332291Y578103D01*
X332272Y578279D01*
X332257Y578455D01*
X332246Y578632D01*
X332239Y578810D01*
X332237Y578987D01*
X347590Y586768D02*
X348493Y586768D01*
X347590Y586768D02*
X347590Y587671D01*
X348493Y587671D01*
X348493Y586768D01*
X340365Y593646D02*
X340045Y593650D01*
X339726Y593661D01*
X339406Y593680D01*
X339088Y593707D01*
X338770Y593741D01*
X338453Y593783D01*
X338137Y593833D01*
X337822Y593890D01*
X337509Y593954D01*
X337197Y594026D01*
X336887Y594105D01*
X336580Y594192D01*
X336274Y594286D01*
X335971Y594387D01*
X335670Y594496D01*
X335372Y594611D01*
X335076Y594734D01*
X334784Y594864D01*
X334495Y595001D01*
X334494Y595001D02*
X334386Y595040D01*
X334279Y595083D01*
X334174Y595129D01*
X334071Y595179D01*
X333969Y595233D01*
X333869Y595290D01*
X333771Y595351D01*
X333675Y595415D01*
X333582Y595482D01*
X333491Y595552D01*
X333402Y595626D01*
X333316Y595702D01*
X333233Y595782D01*
X333152Y595864D01*
X333074Y595949D01*
X333000Y596036D01*
X332928Y596127D01*
X332859Y596219D01*
X332794Y596314D01*
X332732Y596411D01*
X332673Y596510D01*
X332618Y596611D01*
X332567Y596714D01*
X332519Y596819D01*
X332474Y596925D01*
X332433Y597032D01*
X332396Y597141D01*
X332363Y597252D01*
X332334Y597363D01*
X332308Y597475D01*
X332286Y597588D01*
X332269Y597702D01*
X332255Y597816D01*
X332245Y597931D01*
X332239Y598046D01*
X332237Y598161D01*
X332239Y598276D01*
X332245Y598391D01*
X332255Y598506D01*
X332269Y598620D01*
X332286Y598734D01*
X332308Y598847D01*
X332334Y598959D01*
X332363Y599071D01*
X332396Y599181D01*
X332433Y599290D01*
X332474Y599398D01*
X332519Y599504D01*
X332567Y599609D01*
X332618Y599711D01*
X332674Y599813D01*
X332732Y599912D01*
X332794Y600009D01*
X332860Y600104D01*
X332928Y600196D01*
X333000Y600286D01*
X333074Y600374D01*
X333152Y600459D01*
X333233Y600541D01*
X333316Y600620D01*
X333402Y600697D01*
X333491Y600770D01*
X333582Y600841D01*
X333676Y600908D01*
X333771Y600972D01*
X333869Y601033D01*
X333969Y601090D01*
X334071Y601143D01*
X334175Y601194D01*
X334280Y601240D01*
X334387Y601283D01*
X334495Y601322D01*
X334495Y601321D02*
X334784Y601458D01*
X335076Y601588D01*
X335372Y601711D01*
X335670Y601826D01*
X335971Y601935D01*
X336274Y602036D01*
X336580Y602130D01*
X336887Y602217D01*
X337197Y602296D01*
X337509Y602368D01*
X337822Y602432D01*
X338137Y602489D01*
X338453Y602539D01*
X338770Y602581D01*
X339088Y602615D01*
X339406Y602642D01*
X339726Y602661D01*
X340045Y602672D01*
X340365Y602676D01*
X340365Y593646D02*
X340685Y593650D01*
X341004Y593661D01*
X341324Y593680D01*
X341642Y593707D01*
X341960Y593741D01*
X342277Y593783D01*
X342593Y593833D01*
X342908Y593890D01*
X343221Y593954D01*
X343533Y594026D01*
X343843Y594105D01*
X344150Y594192D01*
X344456Y594286D01*
X344759Y594387D01*
X345060Y594496D01*
X345358Y594611D01*
X345654Y594734D01*
X345946Y594864D01*
X346235Y595001D01*
X346236Y595000D02*
X346344Y595039D01*
X346451Y595082D01*
X346556Y595128D01*
X346660Y595179D01*
X346762Y595232D01*
X346862Y595289D01*
X346960Y595350D01*
X347055Y595414D01*
X347149Y595481D01*
X347240Y595552D01*
X347329Y595625D01*
X347415Y595702D01*
X347498Y595781D01*
X347579Y595863D01*
X347657Y595948D01*
X347731Y596036D01*
X347803Y596126D01*
X347872Y596219D01*
X347937Y596313D01*
X347999Y596410D01*
X348057Y596510D01*
X348113Y596611D01*
X348164Y596713D01*
X348212Y596818D01*
X348257Y596924D01*
X348298Y597032D01*
X348335Y597141D01*
X348368Y597251D01*
X348397Y597363D01*
X348423Y597475D01*
X348445Y597588D01*
X348462Y597702D01*
X348476Y597816D01*
X348486Y597931D01*
X348492Y598046D01*
X348494Y598161D01*
X346235Y601321D02*
X345946Y601458D01*
X345654Y601588D01*
X345358Y601711D01*
X345060Y601826D01*
X344759Y601935D01*
X344456Y602036D01*
X344150Y602130D01*
X343843Y602217D01*
X343533Y602296D01*
X343221Y602368D01*
X342908Y602432D01*
X342593Y602489D01*
X342277Y602539D01*
X341960Y602581D01*
X341642Y602615D01*
X341324Y602642D01*
X341004Y602661D01*
X340685Y602672D01*
X340365Y602676D01*
X346235Y601322D02*
X346343Y601283D01*
X346450Y601240D01*
X346555Y601194D01*
X346659Y601143D01*
X346761Y601090D01*
X346861Y601033D01*
X346959Y600972D01*
X347054Y600908D01*
X347148Y600841D01*
X347239Y600770D01*
X347328Y600697D01*
X347414Y600620D01*
X347497Y600541D01*
X347578Y600459D01*
X347656Y600374D01*
X347730Y600286D01*
X347802Y600196D01*
X347871Y600103D01*
X347936Y600009D01*
X347998Y599912D01*
X348056Y599812D01*
X348112Y599711D01*
X348163Y599608D01*
X348211Y599504D01*
X348256Y599398D01*
X348297Y599290D01*
X348334Y599181D01*
X348367Y599071D01*
X348396Y598959D01*
X348422Y598847D01*
X348444Y598734D01*
X348461Y598620D01*
X348475Y598506D01*
X348485Y598391D01*
X348491Y598276D01*
X348493Y598161D01*
X344881Y594549D02*
X335849Y601774D01*
X340365Y609277D02*
X340045Y609281D01*
X339726Y609292D01*
X339406Y609311D01*
X339088Y609338D01*
X338770Y609372D01*
X338453Y609414D01*
X338137Y609464D01*
X337822Y609521D01*
X337509Y609585D01*
X337197Y609657D01*
X336887Y609736D01*
X336580Y609823D01*
X336274Y609917D01*
X335971Y610018D01*
X335670Y610127D01*
X335372Y610242D01*
X335076Y610365D01*
X334784Y610495D01*
X334495Y610632D01*
X334494Y610632D02*
X334386Y610671D01*
X334279Y610714D01*
X334174Y610760D01*
X334071Y610810D01*
X333969Y610864D01*
X333869Y610921D01*
X333771Y610982D01*
X333675Y611046D01*
X333582Y611113D01*
X333491Y611183D01*
X333402Y611257D01*
X333316Y611333D01*
X333233Y611413D01*
X333152Y611495D01*
X333074Y611580D01*
X333000Y611667D01*
X332928Y611758D01*
X332859Y611850D01*
X332794Y611945D01*
X332732Y612042D01*
X332673Y612141D01*
X332618Y612242D01*
X332567Y612345D01*
X332519Y612450D01*
X332474Y612556D01*
X332433Y612663D01*
X332396Y612772D01*
X332363Y612883D01*
X332334Y612994D01*
X332308Y613106D01*
X332286Y613219D01*
X332269Y613333D01*
X332255Y613447D01*
X332245Y613562D01*
X332239Y613677D01*
X332237Y613792D01*
X332239Y613907D01*
X332245Y614022D01*
X332255Y614137D01*
X332269Y614251D01*
X332286Y614365D01*
X332308Y614478D01*
X332334Y614590D01*
X332363Y614702D01*
X332396Y614812D01*
X332433Y614921D01*
X332474Y615029D01*
X332519Y615135D01*
X332567Y615240D01*
X332618Y615342D01*
X332674Y615444D01*
X332732Y615543D01*
X332794Y615640D01*
X332860Y615735D01*
X332928Y615827D01*
X333000Y615917D01*
X333074Y616005D01*
X333152Y616090D01*
X333233Y616172D01*
X333316Y616251D01*
X333402Y616328D01*
X333491Y616401D01*
X333582Y616472D01*
X333676Y616539D01*
X333771Y616603D01*
X333869Y616664D01*
X333969Y616721D01*
X334071Y616774D01*
X334175Y616825D01*
X334280Y616871D01*
X334387Y616914D01*
X334495Y616953D01*
X334784Y617090D01*
X335076Y617220D01*
X335372Y617343D01*
X335670Y617458D01*
X335971Y617567D01*
X336274Y617668D01*
X336580Y617762D01*
X336887Y617849D01*
X337197Y617928D01*
X337509Y618000D01*
X337822Y618064D01*
X338137Y618121D01*
X338453Y618171D01*
X338770Y618213D01*
X339088Y618247D01*
X339406Y618274D01*
X339726Y618293D01*
X340045Y618304D01*
X340365Y618308D01*
X340365Y609277D02*
X340685Y609281D01*
X341004Y609292D01*
X341324Y609311D01*
X341642Y609338D01*
X341960Y609372D01*
X342277Y609414D01*
X342593Y609464D01*
X342908Y609521D01*
X343221Y609585D01*
X343533Y609657D01*
X343843Y609736D01*
X344150Y609823D01*
X344456Y609917D01*
X344759Y610018D01*
X345060Y610127D01*
X345358Y610242D01*
X345654Y610365D01*
X345946Y610495D01*
X346235Y610632D01*
X346236Y610631D02*
X346344Y610670D01*
X346451Y610713D01*
X346556Y610759D01*
X346660Y610810D01*
X346762Y610863D01*
X346862Y610920D01*
X346960Y610981D01*
X347055Y611045D01*
X347149Y611112D01*
X347240Y611183D01*
X347329Y611256D01*
X347415Y611333D01*
X347498Y611412D01*
X347579Y611494D01*
X347657Y611579D01*
X347731Y611667D01*
X347803Y611757D01*
X347872Y611850D01*
X347937Y611944D01*
X347999Y612041D01*
X348057Y612141D01*
X348113Y612242D01*
X348164Y612344D01*
X348212Y612449D01*
X348257Y612555D01*
X348298Y612663D01*
X348335Y612772D01*
X348368Y612882D01*
X348397Y612994D01*
X348423Y613106D01*
X348445Y613219D01*
X348462Y613333D01*
X348476Y613447D01*
X348486Y613562D01*
X348492Y613677D01*
X348494Y613792D01*
X346235Y616953D02*
X345946Y617090D01*
X345654Y617220D01*
X345358Y617343D01*
X345060Y617458D01*
X344759Y617567D01*
X344456Y617668D01*
X344150Y617762D01*
X343843Y617849D01*
X343533Y617928D01*
X343221Y618000D01*
X342908Y618064D01*
X342593Y618121D01*
X342277Y618171D01*
X341960Y618213D01*
X341642Y618247D01*
X341324Y618274D01*
X341004Y618293D01*
X340685Y618304D01*
X340365Y618308D01*
X346235Y616953D02*
X346343Y616914D01*
X346450Y616871D01*
X346555Y616825D01*
X346659Y616774D01*
X346761Y616721D01*
X346861Y616664D01*
X346959Y616603D01*
X347054Y616539D01*
X347148Y616472D01*
X347239Y616401D01*
X347328Y616328D01*
X347414Y616251D01*
X347497Y616172D01*
X347578Y616090D01*
X347656Y616005D01*
X347730Y615917D01*
X347802Y615827D01*
X347871Y615734D01*
X347936Y615640D01*
X347998Y615543D01*
X348056Y615443D01*
X348112Y615342D01*
X348163Y615239D01*
X348211Y615135D01*
X348256Y615029D01*
X348297Y614921D01*
X348334Y614812D01*
X348367Y614702D01*
X348396Y614590D01*
X348422Y614478D01*
X348444Y614365D01*
X348461Y614251D01*
X348475Y614137D01*
X348485Y614022D01*
X348491Y613907D01*
X348493Y613792D01*
X344881Y610180D02*
X335849Y617405D01*
D12*
X86360Y307340D03*
D13*
X111760Y307340D03*
D12*
X441960Y464820D03*
D14*
X416560Y464820D03*
D12*
X48260Y182880D03*
D13*
X73660Y182880D03*
D15*
X223520Y266700D03*
X147320Y266700D03*
D16*
X147320Y292100D03*
X223520Y292100D03*
X147320Y317500D03*
X223520Y317500D03*
D15*
X223520Y124460D03*
X147320Y124460D03*
D16*
X147320Y149860D03*
X223520Y149860D03*
X147320Y175260D03*
X223520Y175260D03*
D17*
X764540Y162560D02*
X764540Y147320D01*
X789940Y147320D02*
X789940Y162560D01*
X815340Y162560D02*
X815340Y147320D01*
X840740Y147320D02*
X840740Y162560D01*
D18*
X15240Y474460D03*
D19*
X15240Y449060D03*
X15240Y17260D03*
X15240Y423660D03*
X15240Y398260D03*
X15240Y372860D03*
X15240Y347460D03*
X15240Y322060D03*
X15240Y296660D03*
X15240Y271260D03*
X15240Y245860D03*
X15240Y220460D03*
X15240Y195060D03*
X15240Y169660D03*
X15240Y144260D03*
X15240Y118860D03*
X15240Y93460D03*
X15240Y68060D03*
X15240Y42660D03*
X269240Y474460D03*
X269240Y449060D03*
X269240Y423660D03*
X269240Y398260D03*
X269240Y372860D03*
X269240Y347460D03*
X269240Y322060D03*
X269240Y296660D03*
X269240Y271260D03*
X269240Y245860D03*
X269240Y220460D03*
X269240Y195060D03*
X269240Y169660D03*
X269240Y144260D03*
X269240Y118860D03*
X269240Y93460D03*
X269240Y68060D03*
X269240Y42660D03*
X269240Y17260D03*
D17*
X419100Y20320D02*
X419100Y35560D01*
X393700Y35560D02*
X393700Y20320D01*
D20*
X431240Y88700D03*
X371240Y88700D03*
D21*
X491240Y424700D03*
X311240Y424700D03*
D12*
X50800Y424180D03*
D13*
X76200Y424180D03*
D16*
X149860Y439420D03*
X226060Y439420D03*
D15*
X226060Y414020D03*
X149860Y414020D03*
X226060Y386080D03*
X149860Y386080D03*
D17*
X76200Y45720D02*
X76200Y30480D01*
X101600Y30480D02*
X101600Y45720D01*
X127000Y45720D02*
X127000Y30480D01*
X152400Y30480D02*
X152400Y45720D01*
X177800Y45720D02*
X177800Y30480D01*
X203200Y30480D02*
X203200Y45720D01*
X193040Y480060D02*
X193040Y495300D01*
X167640Y495300D02*
X167640Y480060D01*
X142240Y480060D02*
X142240Y495300D01*
X116840Y495300D02*
X116840Y480060D01*
X91440Y480060D02*
X91440Y495300D01*
X66040Y495300D02*
X66040Y480060D01*
X868680Y480060D02*
X868680Y495300D01*
X843280Y495300D02*
X843280Y480060D01*
X817880Y480060D02*
X817880Y495300D01*
X792480Y495300D02*
X792480Y480060D01*
X767080Y480060D02*
X767080Y495300D01*
X741680Y495300D02*
X741680Y480060D01*
D22*
X559780Y345280D02*
X541780Y345280D01*
X591780Y395280D02*
X609780Y395280D01*
X559780Y370280D02*
X541780Y370280D01*
X541780Y420280D02*
X559780Y420280D01*
X559780Y445280D02*
X541780Y445280D01*
X539240Y192880D02*
X557240Y192880D01*
X589240Y242880D02*
X607240Y242880D01*
X557240Y217880D02*
X539240Y217880D01*
X539240Y267880D02*
X557240Y267880D01*
X557240Y292880D02*
X539240Y292880D01*
X539240Y32860D02*
X557240Y32860D01*
X589240Y82860D02*
X607240Y82860D01*
X557240Y57860D02*
X539240Y57860D01*
X539240Y107860D02*
X557240Y107860D01*
X557240Y132860D02*
X539240Y132860D01*
D23*
X448580Y464820D02*
X441960Y464820D01*
X448580Y464820D02*
X488700Y424700D01*
X491240Y424700D01*
D24*
X788988Y160338D02*
X788988Y155575D01*
D23*
X788988Y160338D02*
X766763Y182563D01*
X674688Y182563D01*
X623888Y233363D01*
X623888Y249238D01*
X544513Y328613D01*
X533083Y328613D01*
X490538Y371158D01*
X490538Y420688D01*
D24*
X788988Y155575D02*
X789940Y154940D01*
X490538Y420688D02*
X491240Y424700D01*
D23*
X101600Y40323D02*
X101600Y38100D01*
D25*
X101600Y40323D02*
X196533Y135255D01*
X196533Y185103D01*
X244793Y233363D01*
X299903Y233363D02*
X491240Y424700D01*
X299903Y233363D02*
X244793Y233363D01*
D24*
X112713Y333375D02*
X87313Y307975D01*
X112713Y333375D02*
X206375Y333375D01*
X222250Y317500D01*
X87313Y307975D02*
X86360Y307340D01*
X222250Y317500D02*
X223520Y317500D01*
X223838Y292100D02*
X223838Y266700D01*
X223520Y266700D01*
X223520Y292100D02*
X223838Y292100D01*
X223838Y293688D02*
X223838Y315913D01*
X223520Y317500D01*
X223838Y293688D02*
X223520Y292100D01*
X223838Y149225D02*
X223838Y125413D01*
X223520Y124460D01*
X223838Y149225D02*
X223520Y149860D01*
X223838Y150813D02*
X223838Y174625D01*
X223520Y175260D01*
X223838Y150813D02*
X223520Y149860D01*
X792163Y131763D02*
X815340Y154940D01*
X792163Y131763D02*
X664210Y131763D01*
X547688Y248285D01*
X509588Y248285D01*
X451168Y306705D01*
D26*
X451168Y306705D03*
D24*
X331788Y320675D02*
X331788Y360363D01*
X269875Y422275D01*
X269240Y423660D01*
D26*
X331788Y320675D03*
D24*
X171450Y292100D02*
X171450Y274638D01*
X171450Y292100D02*
X146050Y317500D01*
X147320Y317500D01*
D26*
X171450Y274638D03*
D24*
X146050Y190500D02*
X42071Y294479D01*
X146050Y190500D02*
X146050Y176213D01*
X42071Y294479D02*
X19931Y342769D01*
X15240Y347460D01*
X146050Y176213D02*
X147320Y175260D01*
X523240Y84138D02*
X596900Y84138D01*
X523240Y84138D02*
X467995Y139383D01*
X319723Y139383D02*
X286703Y106363D01*
X319723Y139383D02*
X467995Y139383D01*
X596900Y84138D02*
X598240Y82860D01*
D26*
X286703Y106363D03*
D24*
X150813Y387350D02*
X150813Y412750D01*
X150813Y387350D02*
X149860Y386080D01*
X150813Y412750D02*
X149860Y414020D01*
X149225Y415925D02*
X149225Y438150D01*
X149225Y415925D02*
X149860Y414020D01*
X149225Y438150D02*
X149860Y439420D01*
X188913Y354013D02*
X47625Y354013D01*
X188913Y354013D02*
X201613Y366713D01*
D26*
X47625Y354013D03*
X201613Y366713D03*
D24*
X847725Y455613D02*
X850900Y455613D01*
X847725Y455613D02*
X842963Y450850D01*
X668338Y450850D01*
X625475Y407988D01*
X625475Y392113D01*
X612775Y379413D01*
X569913Y379413D01*
X561975Y387350D01*
X521653Y387350D01*
X512128Y377825D01*
D26*
X850900Y455613D03*
X512128Y377825D03*
D24*
X168275Y454025D02*
X168275Y487363D01*
X168275Y454025D02*
X209550Y412750D01*
X209550Y357188D01*
X269875Y296863D01*
X168275Y487363D02*
X167640Y487680D01*
X269240Y296660D02*
X269875Y296863D01*
X142875Y468313D02*
X142875Y487363D01*
X142875Y468313D02*
X192088Y419100D01*
X252413Y288925D02*
X269875Y271463D01*
X142875Y487363D02*
X142240Y487680D01*
X269240Y271260D02*
X269875Y271463D01*
D26*
X192088Y419100D03*
X252413Y288925D03*
D24*
X117475Y377825D02*
X117475Y487363D01*
X116840Y487680D01*
D26*
X117475Y377825D03*
D24*
X127000Y48895D02*
X127000Y38100D01*
X127000Y48895D02*
X207963Y129858D01*
X207963Y180975D01*
X246063Y219075D01*
X268288Y219075D01*
X269240Y220460D01*
X222250Y107950D02*
X152400Y38100D01*
X222250Y107950D02*
X228600Y107950D01*
X247650Y127000D01*
X247650Y173038D01*
X268288Y193675D01*
X269240Y195060D01*
X177800Y49213D02*
X177800Y38100D01*
X177800Y49213D02*
X254000Y125413D01*
X254000Y153988D01*
X268288Y168275D01*
X269240Y169660D01*
X214313Y38100D02*
X203200Y38100D01*
X214313Y38100D02*
X268288Y92075D01*
X269240Y93460D01*
X231775Y487363D02*
X193675Y487363D01*
X231775Y487363D02*
X269875Y449263D01*
X193675Y487363D02*
X193040Y487680D01*
X269240Y449060D02*
X269875Y449263D01*
X92075Y487363D02*
X92075Y392113D01*
X61913Y361950D01*
X27623Y300990D02*
X27623Y183198D01*
X14288Y169863D01*
X92075Y487363D02*
X91440Y487680D01*
X15240Y169660D02*
X14288Y169863D01*
D26*
X61913Y361950D03*
X27623Y300990D03*
X130443Y326023D03*
D24*
X130443Y239663D01*
X129540Y238760D01*
D26*
X129540Y238760D03*
D24*
X842963Y484188D02*
X842963Y487363D01*
X842963Y484188D02*
X823913Y465138D01*
X661988Y465138D01*
X660400Y466725D01*
X566738Y466725D01*
X565150Y468313D01*
X474663Y468313D01*
X468313Y461963D01*
X451485Y447675D02*
X451485Y429260D01*
X280988Y258763D01*
X238125Y258763D01*
X228600Y249238D01*
X164465Y249238D01*
X842963Y487363D02*
X843280Y487680D01*
D26*
X468313Y461963D03*
X451485Y447675D03*
X164465Y249238D03*
D24*
X196850Y354013D02*
X200025Y354013D01*
X196850Y354013D02*
X182563Y339725D01*
X96838Y339725D01*
X65088Y307975D01*
D26*
X200025Y354013D03*
X65088Y307975D03*
D24*
X566738Y458788D02*
X657225Y458788D01*
X566738Y458788D02*
X563563Y461963D01*
X515938Y461963D01*
X492125Y438150D01*
X109538Y398463D02*
X73025Y361950D01*
D26*
X657225Y458788D03*
X492125Y438150D03*
X109538Y398463D03*
X73025Y361950D03*
D24*
X16250Y118750D02*
X15240Y118860D01*
X868363Y484188D02*
X868363Y487363D01*
X868363Y484188D02*
X841375Y457200D01*
X666750Y457200D01*
X620713Y411163D01*
X573088Y411163D01*
X555625Y393700D01*
X516890Y393700D01*
X502603Y379413D01*
X477838Y379413D02*
X371475Y273050D01*
X223838Y233363D02*
X152400Y161925D01*
X61913Y161925D01*
X17463Y117475D01*
X868363Y487363D02*
X868680Y487680D01*
X17463Y117475D02*
X15240Y118860D01*
D26*
X502603Y379413D03*
X477838Y379413D03*
X371475Y273050D03*
X223838Y233363D03*
M02*
