G04 EAGLE Gerber RS-274X export*
G75*
%MOMM*%
%FSLAX34Y34*%
%LPD*%
%INSilkscreen Bottom*%
%IPPOS*%
%AMOC8*
5,1,8,0,0,1.08239X$1,22.5*%
G01*
%ADD10C,0.203200*%
%ADD11C,0.152400*%


D10*
X298196Y51872D02*
X321564Y51872D01*
X321564Y49276D02*
X321564Y54469D01*
X298196Y54469D02*
X298196Y49276D01*
X298196Y62497D02*
X317669Y62497D01*
X317669Y62496D02*
X317791Y62498D01*
X317914Y62504D01*
X318036Y62513D01*
X318157Y62527D01*
X318278Y62544D01*
X318399Y62565D01*
X318519Y62590D01*
X318638Y62618D01*
X318756Y62651D01*
X318873Y62687D01*
X318988Y62726D01*
X319103Y62770D01*
X319216Y62816D01*
X319327Y62867D01*
X319437Y62921D01*
X319545Y62978D01*
X319652Y63038D01*
X319756Y63102D01*
X319858Y63170D01*
X319958Y63240D01*
X320056Y63313D01*
X320152Y63390D01*
X320245Y63469D01*
X320335Y63552D01*
X320423Y63637D01*
X320508Y63725D01*
X320591Y63815D01*
X320670Y63908D01*
X320747Y64004D01*
X320820Y64102D01*
X320890Y64202D01*
X320958Y64304D01*
X321022Y64408D01*
X321082Y64515D01*
X321139Y64623D01*
X321193Y64733D01*
X321244Y64844D01*
X321290Y64957D01*
X321334Y65072D01*
X321373Y65187D01*
X321409Y65304D01*
X321442Y65422D01*
X321470Y65541D01*
X321495Y65661D01*
X321516Y65782D01*
X321533Y65903D01*
X321547Y66024D01*
X321556Y66146D01*
X321562Y66269D01*
X321564Y66391D01*
X321564Y88105D02*
X321564Y94596D01*
X321564Y88105D02*
X321562Y87983D01*
X321556Y87860D01*
X321547Y87738D01*
X321533Y87617D01*
X321516Y87496D01*
X321495Y87375D01*
X321470Y87255D01*
X321442Y87136D01*
X321409Y87018D01*
X321373Y86901D01*
X321334Y86786D01*
X321290Y86671D01*
X321244Y86558D01*
X321193Y86447D01*
X321139Y86337D01*
X321082Y86229D01*
X321022Y86122D01*
X320958Y86018D01*
X320890Y85916D01*
X320820Y85816D01*
X320747Y85718D01*
X320670Y85622D01*
X320591Y85529D01*
X320508Y85439D01*
X320423Y85351D01*
X320335Y85266D01*
X320245Y85183D01*
X320152Y85104D01*
X320056Y85027D01*
X319958Y84954D01*
X319858Y84884D01*
X319756Y84816D01*
X319652Y84752D01*
X319545Y84692D01*
X319437Y84635D01*
X319327Y84581D01*
X319216Y84530D01*
X319103Y84484D01*
X318988Y84440D01*
X318873Y84401D01*
X318756Y84365D01*
X318638Y84332D01*
X318519Y84304D01*
X318399Y84279D01*
X318278Y84258D01*
X318157Y84241D01*
X318036Y84227D01*
X317914Y84218D01*
X317791Y84212D01*
X317669Y84210D01*
X309880Y84210D01*
X309758Y84212D01*
X309635Y84218D01*
X309513Y84227D01*
X309392Y84241D01*
X309271Y84258D01*
X309150Y84279D01*
X309030Y84304D01*
X308911Y84332D01*
X308793Y84365D01*
X308676Y84401D01*
X308561Y84440D01*
X308446Y84484D01*
X308333Y84530D01*
X308222Y84581D01*
X308112Y84635D01*
X308004Y84692D01*
X307897Y84752D01*
X307793Y84816D01*
X307691Y84884D01*
X307591Y84954D01*
X307493Y85027D01*
X307397Y85104D01*
X307304Y85183D01*
X307214Y85266D01*
X307126Y85351D01*
X307041Y85439D01*
X306958Y85529D01*
X306879Y85622D01*
X306802Y85718D01*
X306729Y85816D01*
X306659Y85916D01*
X306591Y86018D01*
X306527Y86122D01*
X306467Y86229D01*
X306410Y86337D01*
X306356Y86447D01*
X306305Y86558D01*
X306259Y86671D01*
X306215Y86786D01*
X306176Y86901D01*
X306140Y87018D01*
X306107Y87136D01*
X306079Y87255D01*
X306054Y87375D01*
X306033Y87496D01*
X306016Y87617D01*
X306002Y87738D01*
X305993Y87860D01*
X305987Y87983D01*
X305985Y88105D01*
X305985Y94596D01*
X325459Y94596D01*
X325581Y94594D01*
X325704Y94588D01*
X325826Y94579D01*
X325947Y94565D01*
X326068Y94548D01*
X326189Y94527D01*
X326309Y94502D01*
X326428Y94474D01*
X326546Y94441D01*
X326663Y94405D01*
X326778Y94366D01*
X326893Y94322D01*
X327006Y94276D01*
X327117Y94225D01*
X327227Y94171D01*
X327335Y94114D01*
X327442Y94054D01*
X327546Y93990D01*
X327648Y93922D01*
X327748Y93852D01*
X327846Y93779D01*
X327942Y93702D01*
X328035Y93623D01*
X328125Y93540D01*
X328213Y93455D01*
X328298Y93367D01*
X328381Y93277D01*
X328460Y93184D01*
X328537Y93088D01*
X328610Y92990D01*
X328680Y92890D01*
X328748Y92788D01*
X328812Y92684D01*
X328872Y92577D01*
X328929Y92469D01*
X328983Y92359D01*
X329034Y92248D01*
X329080Y92135D01*
X329124Y92020D01*
X329163Y91905D01*
X329199Y91788D01*
X329232Y91670D01*
X329260Y91551D01*
X329285Y91431D01*
X329306Y91310D01*
X329323Y91189D01*
X329337Y91068D01*
X329346Y90946D01*
X329352Y90823D01*
X329354Y90701D01*
X329353Y90701D02*
X329353Y85509D01*
X312476Y107545D02*
X312476Y113387D01*
X312476Y107545D02*
X312478Y107412D01*
X312484Y107278D01*
X312494Y107145D01*
X312507Y107013D01*
X312525Y106880D01*
X312546Y106749D01*
X312572Y106618D01*
X312601Y106487D01*
X312634Y106358D01*
X312670Y106230D01*
X312711Y106103D01*
X312755Y105977D01*
X312803Y105852D01*
X312855Y105729D01*
X312910Y105608D01*
X312968Y105488D01*
X313030Y105370D01*
X313096Y105254D01*
X313165Y105140D01*
X313237Y105027D01*
X313313Y104917D01*
X313391Y104810D01*
X313473Y104704D01*
X313558Y104602D01*
X313646Y104501D01*
X313737Y104403D01*
X313831Y104308D01*
X313927Y104216D01*
X314026Y104127D01*
X314128Y104040D01*
X314232Y103957D01*
X314338Y103877D01*
X314447Y103800D01*
X314558Y103726D01*
X314671Y103655D01*
X314787Y103588D01*
X314904Y103524D01*
X315023Y103463D01*
X315143Y103407D01*
X315266Y103353D01*
X315390Y103304D01*
X315515Y103258D01*
X315641Y103215D01*
X315769Y103177D01*
X315898Y103142D01*
X316027Y103111D01*
X316158Y103083D01*
X316289Y103060D01*
X316421Y103041D01*
X316554Y103025D01*
X316687Y103013D01*
X316820Y103005D01*
X316953Y103001D01*
X317087Y103001D01*
X317220Y103005D01*
X317353Y103013D01*
X317486Y103025D01*
X317619Y103041D01*
X317751Y103060D01*
X317882Y103083D01*
X318013Y103111D01*
X318142Y103142D01*
X318271Y103177D01*
X318399Y103215D01*
X318525Y103258D01*
X318650Y103304D01*
X318774Y103353D01*
X318897Y103407D01*
X319017Y103463D01*
X319136Y103524D01*
X319253Y103588D01*
X319369Y103655D01*
X319482Y103726D01*
X319593Y103800D01*
X319702Y103877D01*
X319808Y103957D01*
X319912Y104040D01*
X320014Y104127D01*
X320113Y104216D01*
X320209Y104308D01*
X320303Y104403D01*
X320394Y104501D01*
X320482Y104602D01*
X320567Y104704D01*
X320649Y104810D01*
X320727Y104917D01*
X320803Y105027D01*
X320875Y105140D01*
X320944Y105254D01*
X321010Y105370D01*
X321072Y105488D01*
X321130Y105608D01*
X321185Y105729D01*
X321237Y105852D01*
X321285Y105977D01*
X321329Y106103D01*
X321370Y106230D01*
X321406Y106358D01*
X321439Y106487D01*
X321468Y106618D01*
X321494Y106749D01*
X321515Y106880D01*
X321533Y107013D01*
X321546Y107145D01*
X321556Y107278D01*
X321562Y107412D01*
X321564Y107545D01*
X321564Y113387D01*
X309880Y113387D01*
X309758Y113385D01*
X309635Y113379D01*
X309513Y113370D01*
X309392Y113356D01*
X309271Y113339D01*
X309150Y113318D01*
X309030Y113293D01*
X308911Y113265D01*
X308793Y113232D01*
X308676Y113196D01*
X308561Y113157D01*
X308446Y113113D01*
X308333Y113067D01*
X308222Y113016D01*
X308112Y112962D01*
X308004Y112905D01*
X307897Y112845D01*
X307793Y112781D01*
X307691Y112713D01*
X307591Y112643D01*
X307493Y112570D01*
X307397Y112493D01*
X307304Y112414D01*
X307214Y112331D01*
X307126Y112246D01*
X307041Y112158D01*
X306958Y112068D01*
X306879Y111975D01*
X306802Y111879D01*
X306729Y111781D01*
X306659Y111681D01*
X306591Y111579D01*
X306527Y111475D01*
X306467Y111368D01*
X306410Y111260D01*
X306356Y111150D01*
X306305Y111039D01*
X306259Y110926D01*
X306215Y110811D01*
X306176Y110696D01*
X306140Y110579D01*
X306107Y110461D01*
X306079Y110342D01*
X306054Y110222D01*
X306033Y110101D01*
X306016Y109980D01*
X306002Y109859D01*
X305993Y109737D01*
X305987Y109614D01*
X305985Y109492D01*
X305985Y104299D01*
X305985Y122603D02*
X321564Y122603D01*
X305985Y122603D02*
X305985Y130392D01*
X308582Y130392D01*
X312476Y140951D02*
X312476Y146793D01*
X312476Y140951D02*
X312478Y140818D01*
X312484Y140684D01*
X312494Y140551D01*
X312507Y140419D01*
X312525Y140286D01*
X312546Y140155D01*
X312572Y140024D01*
X312601Y139893D01*
X312634Y139764D01*
X312670Y139636D01*
X312711Y139509D01*
X312755Y139383D01*
X312803Y139258D01*
X312855Y139135D01*
X312910Y139014D01*
X312968Y138894D01*
X313030Y138776D01*
X313096Y138660D01*
X313165Y138546D01*
X313237Y138433D01*
X313313Y138323D01*
X313391Y138216D01*
X313473Y138110D01*
X313558Y138008D01*
X313646Y137907D01*
X313737Y137809D01*
X313831Y137714D01*
X313927Y137622D01*
X314026Y137533D01*
X314128Y137446D01*
X314232Y137363D01*
X314338Y137283D01*
X314447Y137206D01*
X314558Y137132D01*
X314671Y137061D01*
X314787Y136994D01*
X314904Y136930D01*
X315023Y136869D01*
X315143Y136813D01*
X315266Y136759D01*
X315390Y136710D01*
X315515Y136664D01*
X315641Y136621D01*
X315769Y136583D01*
X315898Y136548D01*
X316027Y136517D01*
X316158Y136489D01*
X316289Y136466D01*
X316421Y136447D01*
X316554Y136431D01*
X316687Y136419D01*
X316820Y136411D01*
X316953Y136407D01*
X317087Y136407D01*
X317220Y136411D01*
X317353Y136419D01*
X317486Y136431D01*
X317619Y136447D01*
X317751Y136466D01*
X317882Y136489D01*
X318013Y136517D01*
X318142Y136548D01*
X318271Y136583D01*
X318399Y136621D01*
X318525Y136664D01*
X318650Y136710D01*
X318774Y136759D01*
X318897Y136813D01*
X319017Y136869D01*
X319136Y136930D01*
X319253Y136994D01*
X319369Y137061D01*
X319482Y137132D01*
X319593Y137206D01*
X319702Y137283D01*
X319808Y137363D01*
X319912Y137446D01*
X320014Y137533D01*
X320113Y137622D01*
X320209Y137714D01*
X320303Y137809D01*
X320394Y137907D01*
X320482Y138008D01*
X320567Y138110D01*
X320649Y138216D01*
X320727Y138323D01*
X320803Y138433D01*
X320875Y138546D01*
X320944Y138660D01*
X321010Y138776D01*
X321072Y138894D01*
X321130Y139014D01*
X321185Y139135D01*
X321237Y139258D01*
X321285Y139383D01*
X321329Y139509D01*
X321370Y139636D01*
X321406Y139764D01*
X321439Y139893D01*
X321468Y140024D01*
X321494Y140155D01*
X321515Y140286D01*
X321533Y140419D01*
X321546Y140551D01*
X321556Y140684D01*
X321562Y140818D01*
X321564Y140951D01*
X321564Y146793D01*
X309880Y146793D01*
X309758Y146791D01*
X309635Y146785D01*
X309513Y146776D01*
X309392Y146762D01*
X309271Y146745D01*
X309150Y146724D01*
X309030Y146699D01*
X308911Y146671D01*
X308793Y146638D01*
X308676Y146602D01*
X308561Y146563D01*
X308446Y146519D01*
X308333Y146473D01*
X308222Y146422D01*
X308112Y146368D01*
X308004Y146311D01*
X307897Y146251D01*
X307793Y146187D01*
X307691Y146119D01*
X307591Y146049D01*
X307493Y145976D01*
X307397Y145899D01*
X307304Y145820D01*
X307214Y145737D01*
X307126Y145652D01*
X307041Y145564D01*
X306958Y145474D01*
X306879Y145381D01*
X306802Y145285D01*
X306729Y145187D01*
X306659Y145087D01*
X306591Y144985D01*
X306527Y144881D01*
X306467Y144774D01*
X306410Y144666D01*
X306356Y144556D01*
X306305Y144445D01*
X306259Y144332D01*
X306215Y144217D01*
X306176Y144102D01*
X306140Y143985D01*
X306107Y143867D01*
X306079Y143748D01*
X306054Y143628D01*
X306033Y143507D01*
X306016Y143386D01*
X306002Y143265D01*
X305993Y143143D01*
X305987Y143020D01*
X305985Y142898D01*
X305985Y137705D01*
X321564Y159093D02*
X321564Y165584D01*
X321564Y159093D02*
X321562Y158971D01*
X321556Y158848D01*
X321547Y158726D01*
X321533Y158605D01*
X321516Y158484D01*
X321495Y158363D01*
X321470Y158243D01*
X321442Y158124D01*
X321409Y158006D01*
X321373Y157889D01*
X321334Y157774D01*
X321290Y157659D01*
X321244Y157546D01*
X321193Y157435D01*
X321139Y157325D01*
X321082Y157217D01*
X321022Y157110D01*
X320958Y157006D01*
X320890Y156904D01*
X320820Y156804D01*
X320747Y156706D01*
X320670Y156610D01*
X320591Y156517D01*
X320508Y156427D01*
X320423Y156339D01*
X320335Y156254D01*
X320245Y156171D01*
X320152Y156092D01*
X320056Y156015D01*
X319958Y155942D01*
X319858Y155872D01*
X319756Y155804D01*
X319652Y155740D01*
X319545Y155680D01*
X319437Y155623D01*
X319327Y155569D01*
X319216Y155518D01*
X319103Y155472D01*
X318988Y155428D01*
X318873Y155389D01*
X318756Y155353D01*
X318638Y155320D01*
X318519Y155292D01*
X318399Y155267D01*
X318278Y155246D01*
X318157Y155229D01*
X318036Y155215D01*
X317914Y155206D01*
X317791Y155200D01*
X317669Y155198D01*
X309880Y155198D01*
X309758Y155200D01*
X309635Y155206D01*
X309513Y155215D01*
X309392Y155229D01*
X309271Y155246D01*
X309150Y155267D01*
X309030Y155292D01*
X308911Y155320D01*
X308793Y155353D01*
X308676Y155389D01*
X308561Y155428D01*
X308446Y155472D01*
X308333Y155518D01*
X308222Y155569D01*
X308112Y155623D01*
X308004Y155680D01*
X307897Y155740D01*
X307793Y155804D01*
X307691Y155872D01*
X307591Y155942D01*
X307493Y156015D01*
X307397Y156092D01*
X307304Y156171D01*
X307214Y156254D01*
X307126Y156339D01*
X307041Y156427D01*
X306958Y156517D01*
X306879Y156610D01*
X306802Y156706D01*
X306729Y156804D01*
X306659Y156904D01*
X306591Y157006D01*
X306527Y157110D01*
X306467Y157217D01*
X306410Y157325D01*
X306356Y157435D01*
X306305Y157546D01*
X306259Y157659D01*
X306215Y157774D01*
X306176Y157889D01*
X306140Y158006D01*
X306107Y158124D01*
X306079Y158243D01*
X306054Y158363D01*
X306033Y158484D01*
X306016Y158605D01*
X306002Y158726D01*
X305993Y158848D01*
X305987Y158971D01*
X305985Y159093D01*
X305985Y165584D01*
X325459Y165584D01*
X325581Y165582D01*
X325704Y165576D01*
X325826Y165567D01*
X325947Y165553D01*
X326068Y165536D01*
X326189Y165515D01*
X326309Y165490D01*
X326428Y165462D01*
X326546Y165429D01*
X326663Y165393D01*
X326778Y165354D01*
X326893Y165310D01*
X327006Y165264D01*
X327117Y165213D01*
X327227Y165159D01*
X327335Y165102D01*
X327442Y165042D01*
X327546Y164978D01*
X327648Y164910D01*
X327748Y164840D01*
X327846Y164767D01*
X327942Y164690D01*
X328035Y164611D01*
X328125Y164528D01*
X328213Y164443D01*
X328298Y164355D01*
X328381Y164265D01*
X328460Y164172D01*
X328537Y164076D01*
X328610Y163978D01*
X328680Y163878D01*
X328748Y163776D01*
X328812Y163672D01*
X328872Y163565D01*
X328929Y163457D01*
X328983Y163347D01*
X329034Y163236D01*
X329080Y163123D01*
X329124Y163008D01*
X329163Y162893D01*
X329199Y162776D01*
X329232Y162658D01*
X329260Y162539D01*
X329285Y162419D01*
X329306Y162298D01*
X329323Y162177D01*
X329337Y162056D01*
X329346Y161934D01*
X329352Y161811D01*
X329354Y161689D01*
X329353Y161689D02*
X329353Y156496D01*
X321564Y177935D02*
X321564Y184426D01*
X321564Y177935D02*
X321562Y177813D01*
X321556Y177690D01*
X321547Y177568D01*
X321533Y177447D01*
X321516Y177326D01*
X321495Y177205D01*
X321470Y177085D01*
X321442Y176966D01*
X321409Y176848D01*
X321373Y176731D01*
X321334Y176616D01*
X321290Y176501D01*
X321244Y176388D01*
X321193Y176277D01*
X321139Y176167D01*
X321082Y176059D01*
X321022Y175952D01*
X320958Y175848D01*
X320890Y175746D01*
X320820Y175646D01*
X320747Y175548D01*
X320670Y175452D01*
X320591Y175359D01*
X320508Y175269D01*
X320423Y175181D01*
X320335Y175096D01*
X320245Y175013D01*
X320152Y174934D01*
X320056Y174857D01*
X319958Y174784D01*
X319858Y174714D01*
X319756Y174646D01*
X319652Y174582D01*
X319545Y174522D01*
X319437Y174465D01*
X319327Y174411D01*
X319216Y174360D01*
X319103Y174314D01*
X318988Y174270D01*
X318873Y174231D01*
X318756Y174195D01*
X318638Y174162D01*
X318519Y174134D01*
X318399Y174109D01*
X318278Y174088D01*
X318157Y174071D01*
X318036Y174057D01*
X317914Y174048D01*
X317791Y174042D01*
X317669Y174040D01*
X311178Y174040D01*
X311035Y174042D01*
X310892Y174048D01*
X310749Y174058D01*
X310607Y174072D01*
X310465Y174089D01*
X310323Y174111D01*
X310182Y174136D01*
X310042Y174166D01*
X309903Y174199D01*
X309765Y174236D01*
X309628Y174277D01*
X309492Y174321D01*
X309357Y174370D01*
X309224Y174422D01*
X309092Y174477D01*
X308962Y174537D01*
X308833Y174600D01*
X308706Y174666D01*
X308581Y174736D01*
X308459Y174809D01*
X308338Y174886D01*
X308219Y174966D01*
X308103Y175049D01*
X307988Y175135D01*
X307877Y175224D01*
X307767Y175317D01*
X307661Y175412D01*
X307557Y175511D01*
X307456Y175612D01*
X307357Y175716D01*
X307262Y175822D01*
X307169Y175932D01*
X307080Y176043D01*
X306994Y176158D01*
X306911Y176274D01*
X306831Y176393D01*
X306754Y176514D01*
X306681Y176637D01*
X306611Y176761D01*
X306545Y176888D01*
X306482Y177017D01*
X306422Y177147D01*
X306367Y177279D01*
X306315Y177412D01*
X306266Y177547D01*
X306222Y177683D01*
X306181Y177820D01*
X306144Y177958D01*
X306111Y178097D01*
X306081Y178237D01*
X306056Y178378D01*
X306034Y178520D01*
X306017Y178662D01*
X306003Y178804D01*
X305993Y178947D01*
X305987Y179090D01*
X305985Y179233D01*
X305987Y179376D01*
X305993Y179519D01*
X306003Y179662D01*
X306017Y179804D01*
X306034Y179946D01*
X306056Y180088D01*
X306081Y180229D01*
X306111Y180369D01*
X306144Y180508D01*
X306181Y180646D01*
X306222Y180783D01*
X306266Y180919D01*
X306315Y181054D01*
X306367Y181187D01*
X306422Y181319D01*
X306482Y181449D01*
X306545Y181578D01*
X306611Y181705D01*
X306681Y181830D01*
X306754Y181952D01*
X306831Y182073D01*
X306911Y182192D01*
X306994Y182308D01*
X307080Y182423D01*
X307169Y182534D01*
X307262Y182644D01*
X307357Y182750D01*
X307456Y182854D01*
X307557Y182955D01*
X307661Y183054D01*
X307767Y183149D01*
X307877Y183242D01*
X307988Y183331D01*
X308103Y183417D01*
X308219Y183500D01*
X308338Y183580D01*
X308459Y183657D01*
X308582Y183730D01*
X308706Y183800D01*
X308833Y183866D01*
X308962Y183929D01*
X309092Y183989D01*
X309224Y184044D01*
X309357Y184096D01*
X309492Y184145D01*
X309628Y184189D01*
X309765Y184230D01*
X309903Y184267D01*
X310042Y184300D01*
X310182Y184330D01*
X310323Y184355D01*
X310465Y184377D01*
X310607Y184394D01*
X310749Y184408D01*
X310892Y184418D01*
X311035Y184424D01*
X311178Y184426D01*
X313775Y184426D01*
X313775Y174040D01*
X321564Y213605D02*
X298196Y213605D01*
X321564Y213605D02*
X321564Y207114D01*
X321562Y206992D01*
X321556Y206869D01*
X321547Y206747D01*
X321533Y206626D01*
X321516Y206505D01*
X321495Y206384D01*
X321470Y206264D01*
X321442Y206145D01*
X321409Y206027D01*
X321373Y205910D01*
X321334Y205795D01*
X321290Y205680D01*
X321244Y205567D01*
X321193Y205456D01*
X321139Y205346D01*
X321082Y205238D01*
X321022Y205131D01*
X320958Y205027D01*
X320890Y204925D01*
X320820Y204825D01*
X320747Y204727D01*
X320670Y204631D01*
X320591Y204538D01*
X320508Y204448D01*
X320423Y204360D01*
X320335Y204275D01*
X320245Y204192D01*
X320152Y204113D01*
X320056Y204036D01*
X319958Y203963D01*
X319858Y203893D01*
X319756Y203825D01*
X319652Y203761D01*
X319545Y203701D01*
X319437Y203644D01*
X319327Y203590D01*
X319216Y203539D01*
X319103Y203493D01*
X318988Y203449D01*
X318873Y203410D01*
X318756Y203374D01*
X318638Y203341D01*
X318519Y203313D01*
X318399Y203288D01*
X318278Y203267D01*
X318157Y203250D01*
X318036Y203236D01*
X317914Y203227D01*
X317791Y203221D01*
X317669Y203219D01*
X309880Y203219D01*
X309758Y203221D01*
X309635Y203227D01*
X309513Y203236D01*
X309392Y203250D01*
X309271Y203267D01*
X309150Y203288D01*
X309030Y203313D01*
X308911Y203341D01*
X308793Y203374D01*
X308676Y203410D01*
X308561Y203449D01*
X308446Y203493D01*
X308333Y203539D01*
X308222Y203590D01*
X308112Y203644D01*
X308004Y203701D01*
X307897Y203761D01*
X307793Y203825D01*
X307691Y203893D01*
X307591Y203963D01*
X307493Y204036D01*
X307397Y204113D01*
X307304Y204192D01*
X307214Y204275D01*
X307126Y204360D01*
X307041Y204448D01*
X306958Y204538D01*
X306879Y204631D01*
X306802Y204727D01*
X306729Y204825D01*
X306659Y204925D01*
X306591Y205027D01*
X306527Y205131D01*
X306467Y205238D01*
X306410Y205346D01*
X306356Y205456D01*
X306305Y205567D01*
X306259Y205680D01*
X306215Y205795D01*
X306176Y205910D01*
X306140Y206027D01*
X306107Y206145D01*
X306079Y206264D01*
X306054Y206384D01*
X306033Y206505D01*
X306016Y206626D01*
X306002Y206747D01*
X305993Y206869D01*
X305987Y206992D01*
X305985Y207114D01*
X305985Y213605D01*
X321564Y225956D02*
X321564Y232447D01*
X321564Y225956D02*
X321562Y225834D01*
X321556Y225711D01*
X321547Y225589D01*
X321533Y225468D01*
X321516Y225347D01*
X321495Y225226D01*
X321470Y225106D01*
X321442Y224987D01*
X321409Y224869D01*
X321373Y224752D01*
X321334Y224637D01*
X321290Y224522D01*
X321244Y224409D01*
X321193Y224298D01*
X321139Y224188D01*
X321082Y224080D01*
X321022Y223973D01*
X320958Y223869D01*
X320890Y223767D01*
X320820Y223667D01*
X320747Y223569D01*
X320670Y223473D01*
X320591Y223380D01*
X320508Y223290D01*
X320423Y223202D01*
X320335Y223117D01*
X320245Y223034D01*
X320152Y222955D01*
X320056Y222878D01*
X319958Y222805D01*
X319858Y222735D01*
X319756Y222667D01*
X319652Y222603D01*
X319545Y222543D01*
X319437Y222486D01*
X319327Y222432D01*
X319216Y222381D01*
X319103Y222335D01*
X318988Y222291D01*
X318873Y222252D01*
X318756Y222216D01*
X318638Y222183D01*
X318519Y222155D01*
X318399Y222130D01*
X318278Y222109D01*
X318157Y222092D01*
X318036Y222078D01*
X317914Y222069D01*
X317791Y222063D01*
X317669Y222061D01*
X311178Y222061D01*
X311035Y222063D01*
X310892Y222069D01*
X310749Y222079D01*
X310607Y222093D01*
X310465Y222110D01*
X310323Y222132D01*
X310182Y222157D01*
X310042Y222187D01*
X309903Y222220D01*
X309765Y222257D01*
X309628Y222298D01*
X309492Y222342D01*
X309357Y222391D01*
X309224Y222443D01*
X309092Y222498D01*
X308962Y222558D01*
X308833Y222621D01*
X308706Y222687D01*
X308581Y222757D01*
X308459Y222830D01*
X308338Y222907D01*
X308219Y222987D01*
X308103Y223070D01*
X307988Y223156D01*
X307877Y223245D01*
X307767Y223338D01*
X307661Y223433D01*
X307557Y223532D01*
X307456Y223633D01*
X307357Y223737D01*
X307262Y223843D01*
X307169Y223953D01*
X307080Y224064D01*
X306994Y224179D01*
X306911Y224295D01*
X306831Y224414D01*
X306754Y224535D01*
X306681Y224658D01*
X306611Y224782D01*
X306545Y224909D01*
X306482Y225038D01*
X306422Y225168D01*
X306367Y225300D01*
X306315Y225433D01*
X306266Y225568D01*
X306222Y225704D01*
X306181Y225841D01*
X306144Y225979D01*
X306111Y226118D01*
X306081Y226258D01*
X306056Y226399D01*
X306034Y226541D01*
X306017Y226683D01*
X306003Y226825D01*
X305993Y226968D01*
X305987Y227111D01*
X305985Y227254D01*
X305987Y227397D01*
X305993Y227540D01*
X306003Y227683D01*
X306017Y227825D01*
X306034Y227967D01*
X306056Y228109D01*
X306081Y228250D01*
X306111Y228390D01*
X306144Y228529D01*
X306181Y228667D01*
X306222Y228804D01*
X306266Y228940D01*
X306315Y229075D01*
X306367Y229208D01*
X306422Y229340D01*
X306482Y229470D01*
X306545Y229599D01*
X306611Y229726D01*
X306681Y229851D01*
X306754Y229973D01*
X306831Y230094D01*
X306911Y230213D01*
X306994Y230329D01*
X307080Y230444D01*
X307169Y230555D01*
X307262Y230665D01*
X307357Y230771D01*
X307456Y230875D01*
X307557Y230976D01*
X307661Y231075D01*
X307767Y231170D01*
X307877Y231263D01*
X307988Y231352D01*
X308103Y231438D01*
X308219Y231521D01*
X308338Y231601D01*
X308459Y231678D01*
X308582Y231751D01*
X308706Y231821D01*
X308833Y231887D01*
X308962Y231950D01*
X309092Y232010D01*
X309224Y232065D01*
X309357Y232117D01*
X309492Y232166D01*
X309628Y232210D01*
X309765Y232251D01*
X309903Y232288D01*
X310042Y232321D01*
X310182Y232351D01*
X310323Y232376D01*
X310465Y232398D01*
X310607Y232415D01*
X310749Y232429D01*
X310892Y232439D01*
X311035Y232445D01*
X311178Y232447D01*
X313775Y232447D01*
X313775Y222061D01*
X317669Y240662D02*
X298196Y240662D01*
X317669Y240662D02*
X317791Y240664D01*
X317914Y240670D01*
X318036Y240679D01*
X318157Y240693D01*
X318278Y240710D01*
X318399Y240731D01*
X318519Y240756D01*
X318638Y240784D01*
X318756Y240817D01*
X318873Y240853D01*
X318988Y240892D01*
X319103Y240936D01*
X319216Y240982D01*
X319327Y241033D01*
X319437Y241087D01*
X319545Y241144D01*
X319652Y241204D01*
X319756Y241268D01*
X319858Y241336D01*
X319958Y241406D01*
X320056Y241479D01*
X320152Y241556D01*
X320245Y241635D01*
X320335Y241718D01*
X320423Y241803D01*
X320508Y241891D01*
X320591Y241981D01*
X320670Y242074D01*
X320747Y242170D01*
X320820Y242268D01*
X320890Y242368D01*
X320958Y242470D01*
X321022Y242574D01*
X321082Y242681D01*
X321139Y242789D01*
X321193Y242899D01*
X321244Y243010D01*
X321290Y243123D01*
X321334Y243238D01*
X321373Y243353D01*
X321409Y243470D01*
X321442Y243588D01*
X321470Y243707D01*
X321495Y243827D01*
X321516Y243948D01*
X321533Y244069D01*
X321547Y244190D01*
X321556Y244312D01*
X321562Y244435D01*
X321564Y244557D01*
X308582Y263364D02*
X308582Y269855D01*
X308584Y270014D01*
X308590Y270173D01*
X308600Y270333D01*
X308613Y270491D01*
X308631Y270650D01*
X308652Y270807D01*
X308678Y270965D01*
X308707Y271121D01*
X308740Y271277D01*
X308777Y271432D01*
X308817Y271586D01*
X308862Y271739D01*
X308910Y271891D01*
X308961Y272042D01*
X309017Y272191D01*
X309076Y272339D01*
X309139Y272485D01*
X309205Y272630D01*
X309275Y272773D01*
X309348Y272915D01*
X309425Y273054D01*
X309505Y273192D01*
X309589Y273328D01*
X309676Y273461D01*
X309766Y273593D01*
X309859Y273722D01*
X309956Y273848D01*
X310055Y273973D01*
X310158Y274095D01*
X310263Y274214D01*
X310372Y274331D01*
X310483Y274445D01*
X310597Y274556D01*
X310714Y274665D01*
X310833Y274770D01*
X310955Y274873D01*
X311080Y274972D01*
X311206Y275069D01*
X311335Y275162D01*
X311467Y275252D01*
X311600Y275339D01*
X311736Y275423D01*
X311874Y275503D01*
X312013Y275580D01*
X312155Y275653D01*
X312298Y275723D01*
X312443Y275789D01*
X312589Y275852D01*
X312737Y275911D01*
X312886Y275967D01*
X313037Y276018D01*
X313189Y276066D01*
X313342Y276111D01*
X313496Y276151D01*
X313651Y276188D01*
X313807Y276221D01*
X313963Y276250D01*
X314121Y276276D01*
X314278Y276297D01*
X314437Y276315D01*
X314595Y276328D01*
X314755Y276338D01*
X314914Y276344D01*
X315073Y276346D01*
X315232Y276344D01*
X315391Y276338D01*
X315551Y276328D01*
X315709Y276315D01*
X315868Y276297D01*
X316025Y276276D01*
X316183Y276250D01*
X316339Y276221D01*
X316495Y276188D01*
X316650Y276151D01*
X316804Y276111D01*
X316957Y276066D01*
X317109Y276018D01*
X317260Y275967D01*
X317409Y275911D01*
X317557Y275852D01*
X317703Y275789D01*
X317848Y275723D01*
X317991Y275653D01*
X318133Y275580D01*
X318272Y275503D01*
X318410Y275423D01*
X318546Y275339D01*
X318679Y275252D01*
X318811Y275162D01*
X318940Y275069D01*
X319066Y274972D01*
X319191Y274873D01*
X319313Y274770D01*
X319432Y274665D01*
X319549Y274556D01*
X319663Y274445D01*
X319774Y274331D01*
X319883Y274214D01*
X319988Y274095D01*
X320091Y273973D01*
X320190Y273848D01*
X320287Y273722D01*
X320380Y273593D01*
X320470Y273461D01*
X320557Y273328D01*
X320641Y273192D01*
X320721Y273054D01*
X320798Y272915D01*
X320871Y272773D01*
X320941Y272630D01*
X321007Y272485D01*
X321070Y272339D01*
X321129Y272191D01*
X321185Y272042D01*
X321236Y271891D01*
X321284Y271739D01*
X321329Y271586D01*
X321369Y271432D01*
X321406Y271277D01*
X321439Y271121D01*
X321468Y270965D01*
X321494Y270807D01*
X321515Y270650D01*
X321533Y270491D01*
X321546Y270333D01*
X321556Y270173D01*
X321562Y270014D01*
X321564Y269855D01*
X321564Y263364D01*
X298196Y263364D01*
X298196Y269855D01*
X298198Y269998D01*
X298204Y270141D01*
X298214Y270284D01*
X298228Y270426D01*
X298245Y270568D01*
X298267Y270710D01*
X298292Y270851D01*
X298322Y270991D01*
X298355Y271130D01*
X298392Y271268D01*
X298433Y271405D01*
X298477Y271541D01*
X298526Y271676D01*
X298578Y271809D01*
X298633Y271941D01*
X298693Y272071D01*
X298756Y272200D01*
X298822Y272327D01*
X298892Y272452D01*
X298965Y272574D01*
X299042Y272695D01*
X299122Y272814D01*
X299205Y272930D01*
X299291Y273045D01*
X299380Y273156D01*
X299473Y273266D01*
X299568Y273372D01*
X299667Y273476D01*
X299768Y273577D01*
X299872Y273676D01*
X299978Y273771D01*
X300088Y273864D01*
X300199Y273953D01*
X300314Y274039D01*
X300430Y274122D01*
X300549Y274202D01*
X300670Y274279D01*
X300793Y274352D01*
X300917Y274422D01*
X301044Y274488D01*
X301173Y274551D01*
X301303Y274611D01*
X301435Y274666D01*
X301568Y274718D01*
X301703Y274767D01*
X301839Y274811D01*
X301976Y274852D01*
X302114Y274889D01*
X302253Y274922D01*
X302393Y274952D01*
X302534Y274977D01*
X302676Y274999D01*
X302818Y275016D01*
X302960Y275030D01*
X303103Y275040D01*
X303246Y275046D01*
X303389Y275048D01*
X303532Y275046D01*
X303675Y275040D01*
X303818Y275030D01*
X303960Y275016D01*
X304102Y274999D01*
X304244Y274977D01*
X304385Y274952D01*
X304525Y274922D01*
X304664Y274889D01*
X304802Y274852D01*
X304939Y274811D01*
X305075Y274767D01*
X305210Y274718D01*
X305343Y274666D01*
X305475Y274611D01*
X305605Y274551D01*
X305734Y274488D01*
X305861Y274422D01*
X305986Y274352D01*
X306108Y274279D01*
X306229Y274202D01*
X306348Y274122D01*
X306464Y274039D01*
X306579Y273953D01*
X306690Y273864D01*
X306800Y273771D01*
X306906Y273676D01*
X307010Y273577D01*
X307111Y273476D01*
X307210Y273372D01*
X307305Y273266D01*
X307398Y273156D01*
X307487Y273045D01*
X307573Y272930D01*
X307656Y272814D01*
X307736Y272695D01*
X307813Y272574D01*
X307886Y272452D01*
X307956Y272327D01*
X308022Y272200D01*
X308085Y272071D01*
X308145Y271941D01*
X308200Y271809D01*
X308252Y271676D01*
X308301Y271541D01*
X308345Y271405D01*
X308386Y271268D01*
X308423Y271130D01*
X308456Y270991D01*
X308486Y270851D01*
X308511Y270710D01*
X308533Y270568D01*
X308550Y270426D01*
X308564Y270284D01*
X308574Y270141D01*
X308580Y269998D01*
X308582Y269855D01*
X305985Y283626D02*
X321564Y283626D01*
X299494Y282977D02*
X298196Y282977D01*
X298196Y284276D01*
X299494Y284276D01*
X299494Y282977D01*
X321564Y295566D02*
X321564Y300759D01*
X321564Y295566D02*
X321562Y295444D01*
X321556Y295321D01*
X321547Y295199D01*
X321533Y295078D01*
X321516Y294957D01*
X321495Y294836D01*
X321470Y294716D01*
X321442Y294597D01*
X321409Y294479D01*
X321373Y294362D01*
X321334Y294247D01*
X321290Y294132D01*
X321244Y294019D01*
X321193Y293908D01*
X321139Y293798D01*
X321082Y293690D01*
X321022Y293583D01*
X320958Y293479D01*
X320890Y293377D01*
X320820Y293277D01*
X320747Y293179D01*
X320670Y293083D01*
X320591Y292990D01*
X320508Y292900D01*
X320423Y292812D01*
X320335Y292727D01*
X320245Y292644D01*
X320152Y292565D01*
X320056Y292488D01*
X319958Y292415D01*
X319858Y292345D01*
X319756Y292277D01*
X319652Y292213D01*
X319545Y292153D01*
X319437Y292096D01*
X319327Y292042D01*
X319216Y291991D01*
X319103Y291945D01*
X318988Y291901D01*
X318873Y291862D01*
X318756Y291826D01*
X318638Y291793D01*
X318519Y291765D01*
X318399Y291740D01*
X318278Y291719D01*
X318157Y291702D01*
X318036Y291688D01*
X317914Y291679D01*
X317791Y291673D01*
X317669Y291671D01*
X309880Y291671D01*
X309758Y291673D01*
X309635Y291679D01*
X309513Y291688D01*
X309392Y291702D01*
X309271Y291719D01*
X309150Y291740D01*
X309030Y291765D01*
X308911Y291793D01*
X308793Y291826D01*
X308676Y291862D01*
X308561Y291901D01*
X308446Y291945D01*
X308333Y291991D01*
X308222Y292042D01*
X308112Y292096D01*
X308004Y292153D01*
X307897Y292213D01*
X307793Y292277D01*
X307691Y292345D01*
X307591Y292415D01*
X307493Y292488D01*
X307397Y292565D01*
X307304Y292644D01*
X307214Y292727D01*
X307126Y292812D01*
X307041Y292900D01*
X306958Y292990D01*
X306879Y293083D01*
X306802Y293179D01*
X306729Y293277D01*
X306659Y293377D01*
X306591Y293479D01*
X306527Y293583D01*
X306467Y293690D01*
X306410Y293798D01*
X306356Y293908D01*
X306305Y294019D01*
X306259Y294132D01*
X306215Y294247D01*
X306176Y294362D01*
X306140Y294479D01*
X306107Y294597D01*
X306079Y294716D01*
X306054Y294836D01*
X306033Y294957D01*
X306016Y295078D01*
X306002Y295199D01*
X305993Y295321D01*
X305987Y295444D01*
X305985Y295566D01*
X305985Y300759D01*
X321564Y311573D02*
X321564Y316766D01*
X321564Y311573D02*
X321562Y311451D01*
X321556Y311328D01*
X321547Y311206D01*
X321533Y311085D01*
X321516Y310964D01*
X321495Y310843D01*
X321470Y310723D01*
X321442Y310604D01*
X321409Y310486D01*
X321373Y310369D01*
X321334Y310254D01*
X321290Y310139D01*
X321244Y310026D01*
X321193Y309915D01*
X321139Y309805D01*
X321082Y309697D01*
X321022Y309590D01*
X320958Y309486D01*
X320890Y309384D01*
X320820Y309284D01*
X320747Y309186D01*
X320670Y309090D01*
X320591Y308997D01*
X320508Y308907D01*
X320423Y308819D01*
X320335Y308734D01*
X320245Y308651D01*
X320152Y308572D01*
X320056Y308495D01*
X319958Y308422D01*
X319858Y308352D01*
X319756Y308284D01*
X319652Y308220D01*
X319545Y308160D01*
X319437Y308103D01*
X319327Y308049D01*
X319216Y307998D01*
X319103Y307952D01*
X318988Y307908D01*
X318873Y307869D01*
X318756Y307833D01*
X318638Y307800D01*
X318519Y307772D01*
X318399Y307747D01*
X318278Y307726D01*
X318157Y307709D01*
X318036Y307695D01*
X317914Y307686D01*
X317791Y307680D01*
X317669Y307678D01*
X309880Y307678D01*
X309758Y307680D01*
X309635Y307686D01*
X309513Y307695D01*
X309392Y307709D01*
X309271Y307726D01*
X309150Y307747D01*
X309030Y307772D01*
X308911Y307800D01*
X308793Y307833D01*
X308676Y307869D01*
X308561Y307908D01*
X308446Y307952D01*
X308333Y307998D01*
X308222Y308049D01*
X308112Y308103D01*
X308004Y308160D01*
X307897Y308220D01*
X307793Y308284D01*
X307691Y308352D01*
X307591Y308422D01*
X307493Y308495D01*
X307397Y308572D01*
X307304Y308651D01*
X307214Y308734D01*
X307126Y308819D01*
X307041Y308907D01*
X306958Y308997D01*
X306879Y309090D01*
X306802Y309186D01*
X306729Y309284D01*
X306659Y309384D01*
X306591Y309486D01*
X306527Y309590D01*
X306467Y309697D01*
X306410Y309805D01*
X306356Y309915D01*
X306305Y310026D01*
X306259Y310139D01*
X306215Y310254D01*
X306176Y310369D01*
X306140Y310486D01*
X306107Y310604D01*
X306079Y310723D01*
X306054Y310843D01*
X306033Y310964D01*
X306016Y311085D01*
X306002Y311206D01*
X305993Y311328D01*
X305987Y311451D01*
X305985Y311573D01*
X305985Y316766D01*
X298196Y324367D02*
X321564Y324367D01*
X305985Y324367D02*
X305985Y330858D01*
X305987Y330980D01*
X305993Y331103D01*
X306002Y331225D01*
X306016Y331346D01*
X306033Y331467D01*
X306054Y331588D01*
X306079Y331708D01*
X306107Y331827D01*
X306140Y331945D01*
X306176Y332062D01*
X306215Y332177D01*
X306259Y332292D01*
X306305Y332405D01*
X306356Y332516D01*
X306410Y332626D01*
X306467Y332734D01*
X306527Y332841D01*
X306591Y332945D01*
X306659Y333047D01*
X306729Y333147D01*
X306802Y333245D01*
X306879Y333341D01*
X306958Y333434D01*
X307041Y333524D01*
X307126Y333612D01*
X307214Y333697D01*
X307304Y333780D01*
X307397Y333859D01*
X307493Y333936D01*
X307591Y334009D01*
X307691Y334079D01*
X307793Y334147D01*
X307897Y334211D01*
X308004Y334271D01*
X308112Y334328D01*
X308222Y334382D01*
X308333Y334433D01*
X308446Y334479D01*
X308561Y334523D01*
X308676Y334562D01*
X308793Y334598D01*
X308911Y334631D01*
X309030Y334659D01*
X309150Y334684D01*
X309271Y334705D01*
X309392Y334722D01*
X309513Y334736D01*
X309635Y334745D01*
X309758Y334751D01*
X309880Y334753D01*
X321564Y334753D01*
X321564Y343479D02*
X305985Y343479D01*
X299494Y342830D02*
X298196Y342830D01*
X298196Y344128D01*
X299494Y344128D01*
X299494Y342830D01*
X311178Y351509D02*
X316371Y351509D01*
X311178Y351509D02*
X311035Y351511D01*
X310892Y351517D01*
X310749Y351527D01*
X310607Y351541D01*
X310465Y351558D01*
X310323Y351580D01*
X310182Y351605D01*
X310042Y351635D01*
X309903Y351668D01*
X309765Y351705D01*
X309628Y351746D01*
X309492Y351790D01*
X309357Y351839D01*
X309224Y351891D01*
X309092Y351946D01*
X308962Y352006D01*
X308833Y352069D01*
X308706Y352135D01*
X308581Y352205D01*
X308459Y352278D01*
X308338Y352355D01*
X308219Y352435D01*
X308103Y352518D01*
X307988Y352604D01*
X307877Y352693D01*
X307767Y352786D01*
X307661Y352881D01*
X307557Y352980D01*
X307456Y353081D01*
X307357Y353185D01*
X307262Y353291D01*
X307169Y353401D01*
X307080Y353512D01*
X306994Y353627D01*
X306911Y353743D01*
X306831Y353862D01*
X306754Y353983D01*
X306681Y354106D01*
X306611Y354230D01*
X306545Y354357D01*
X306482Y354486D01*
X306422Y354616D01*
X306367Y354748D01*
X306315Y354881D01*
X306266Y355016D01*
X306222Y355152D01*
X306181Y355289D01*
X306144Y355427D01*
X306111Y355566D01*
X306081Y355706D01*
X306056Y355847D01*
X306034Y355989D01*
X306017Y356131D01*
X306003Y356273D01*
X305993Y356416D01*
X305987Y356559D01*
X305985Y356702D01*
X305987Y356845D01*
X305993Y356988D01*
X306003Y357131D01*
X306017Y357273D01*
X306034Y357415D01*
X306056Y357557D01*
X306081Y357698D01*
X306111Y357838D01*
X306144Y357977D01*
X306181Y358115D01*
X306222Y358252D01*
X306266Y358388D01*
X306315Y358523D01*
X306367Y358656D01*
X306422Y358788D01*
X306482Y358918D01*
X306545Y359047D01*
X306611Y359174D01*
X306681Y359299D01*
X306754Y359421D01*
X306831Y359542D01*
X306911Y359661D01*
X306994Y359777D01*
X307080Y359892D01*
X307169Y360003D01*
X307262Y360113D01*
X307357Y360219D01*
X307456Y360323D01*
X307557Y360424D01*
X307661Y360523D01*
X307767Y360618D01*
X307877Y360711D01*
X307988Y360800D01*
X308103Y360886D01*
X308219Y360969D01*
X308338Y361049D01*
X308459Y361126D01*
X308582Y361199D01*
X308706Y361269D01*
X308833Y361335D01*
X308962Y361398D01*
X309092Y361458D01*
X309224Y361513D01*
X309357Y361565D01*
X309492Y361614D01*
X309628Y361658D01*
X309765Y361699D01*
X309903Y361736D01*
X310042Y361769D01*
X310182Y361799D01*
X310323Y361824D01*
X310465Y361846D01*
X310607Y361863D01*
X310749Y361877D01*
X310892Y361887D01*
X311035Y361893D01*
X311178Y361895D01*
X316371Y361895D01*
X316514Y361893D01*
X316657Y361887D01*
X316800Y361877D01*
X316942Y361863D01*
X317084Y361846D01*
X317226Y361824D01*
X317367Y361799D01*
X317507Y361769D01*
X317646Y361736D01*
X317784Y361699D01*
X317921Y361658D01*
X318057Y361614D01*
X318192Y361565D01*
X318325Y361513D01*
X318457Y361458D01*
X318587Y361398D01*
X318716Y361335D01*
X318843Y361269D01*
X318968Y361199D01*
X319090Y361126D01*
X319211Y361049D01*
X319330Y360969D01*
X319446Y360886D01*
X319561Y360800D01*
X319672Y360711D01*
X319782Y360618D01*
X319888Y360523D01*
X319992Y360424D01*
X320093Y360323D01*
X320192Y360219D01*
X320287Y360113D01*
X320380Y360003D01*
X320469Y359892D01*
X320555Y359777D01*
X320638Y359661D01*
X320718Y359542D01*
X320795Y359421D01*
X320868Y359298D01*
X320938Y359174D01*
X321004Y359047D01*
X321067Y358918D01*
X321127Y358788D01*
X321182Y358656D01*
X321234Y358523D01*
X321283Y358388D01*
X321327Y358252D01*
X321368Y358115D01*
X321405Y357977D01*
X321438Y357838D01*
X321468Y357698D01*
X321493Y357557D01*
X321515Y357415D01*
X321532Y357273D01*
X321546Y357131D01*
X321556Y356988D01*
X321562Y356845D01*
X321564Y356702D01*
X321562Y356559D01*
X321556Y356416D01*
X321546Y356273D01*
X321532Y356131D01*
X321515Y355989D01*
X321493Y355847D01*
X321468Y355706D01*
X321438Y355566D01*
X321405Y355427D01*
X321368Y355289D01*
X321327Y355152D01*
X321283Y355016D01*
X321234Y354881D01*
X321182Y354748D01*
X321127Y354616D01*
X321067Y354486D01*
X321004Y354357D01*
X320938Y354230D01*
X320868Y354105D01*
X320795Y353983D01*
X320718Y353862D01*
X320638Y353743D01*
X320555Y353627D01*
X320469Y353512D01*
X320380Y353401D01*
X320287Y353291D01*
X320192Y353185D01*
X320093Y353081D01*
X319992Y352980D01*
X319888Y352881D01*
X319782Y352786D01*
X319672Y352693D01*
X319561Y352604D01*
X319446Y352518D01*
X319330Y352435D01*
X319211Y352355D01*
X319090Y352278D01*
X318968Y352205D01*
X318843Y352135D01*
X318716Y352069D01*
X318587Y352006D01*
X318457Y351946D01*
X318325Y351891D01*
X318192Y351839D01*
X318057Y351790D01*
X317921Y351746D01*
X317784Y351705D01*
X317646Y351668D01*
X317507Y351635D01*
X317367Y351605D01*
X317226Y351580D01*
X317084Y351558D01*
X316942Y351541D01*
X316800Y351527D01*
X316657Y351517D01*
X316514Y351511D01*
X316371Y351509D01*
D11*
X408178Y155984D02*
X408178Y151045D01*
X408176Y150939D01*
X408170Y150834D01*
X408161Y150728D01*
X408148Y150623D01*
X408131Y150519D01*
X408110Y150415D01*
X408086Y150312D01*
X408058Y150210D01*
X408026Y150109D01*
X407991Y150010D01*
X407952Y149911D01*
X407910Y149814D01*
X407865Y149719D01*
X407816Y149625D01*
X407763Y149533D01*
X407708Y149443D01*
X407649Y149355D01*
X407587Y149269D01*
X407522Y149186D01*
X407454Y149105D01*
X407384Y149026D01*
X407310Y148950D01*
X407234Y148876D01*
X407155Y148806D01*
X407074Y148738D01*
X406991Y148673D01*
X406905Y148611D01*
X406817Y148552D01*
X406727Y148497D01*
X406635Y148444D01*
X406541Y148395D01*
X406446Y148350D01*
X406349Y148308D01*
X406250Y148269D01*
X406151Y148234D01*
X406050Y148202D01*
X405948Y148174D01*
X405845Y148150D01*
X405741Y148129D01*
X405637Y148112D01*
X405532Y148099D01*
X405426Y148090D01*
X405321Y148084D01*
X405215Y148082D01*
X400276Y148082D01*
X400152Y148084D01*
X400028Y148090D01*
X399904Y148100D01*
X399781Y148113D01*
X399658Y148131D01*
X399536Y148152D01*
X399414Y148177D01*
X399293Y148206D01*
X399174Y148239D01*
X399055Y148275D01*
X398938Y148316D01*
X398822Y148359D01*
X398707Y148407D01*
X398594Y148458D01*
X398482Y148513D01*
X398373Y148571D01*
X398265Y148632D01*
X398159Y148697D01*
X398055Y148765D01*
X397954Y148837D01*
X397854Y148911D01*
X397758Y148989D01*
X397663Y149069D01*
X397571Y149153D01*
X397482Y149239D01*
X397396Y149328D01*
X397312Y149420D01*
X397232Y149515D01*
X397154Y149611D01*
X397080Y149711D01*
X397008Y149812D01*
X396940Y149916D01*
X396875Y150022D01*
X396814Y150130D01*
X396756Y150239D01*
X396701Y150351D01*
X396650Y150464D01*
X396602Y150579D01*
X396559Y150695D01*
X396518Y150812D01*
X396482Y150931D01*
X396449Y151050D01*
X396420Y151171D01*
X396395Y151293D01*
X396374Y151415D01*
X396356Y151538D01*
X396343Y151661D01*
X396333Y151785D01*
X396327Y151909D01*
X396325Y152033D01*
X396327Y152157D01*
X396333Y152281D01*
X396343Y152405D01*
X396356Y152528D01*
X396374Y152651D01*
X396395Y152773D01*
X396420Y152895D01*
X396449Y153016D01*
X396482Y153135D01*
X396518Y153254D01*
X396559Y153371D01*
X396602Y153487D01*
X396650Y153602D01*
X396701Y153715D01*
X396756Y153827D01*
X396814Y153936D01*
X396875Y154044D01*
X396940Y154150D01*
X397008Y154254D01*
X397080Y154355D01*
X397154Y154455D01*
X397232Y154551D01*
X397312Y154646D01*
X397396Y154738D01*
X397482Y154827D01*
X397571Y154913D01*
X397663Y154997D01*
X397758Y155077D01*
X397854Y155155D01*
X397954Y155229D01*
X398055Y155301D01*
X398159Y155369D01*
X398265Y155434D01*
X398373Y155495D01*
X398482Y155553D01*
X398594Y155608D01*
X398707Y155659D01*
X398822Y155707D01*
X398938Y155750D01*
X399055Y155791D01*
X399174Y155827D01*
X399293Y155860D01*
X399414Y155889D01*
X399536Y155914D01*
X399658Y155935D01*
X399781Y155953D01*
X399904Y155966D01*
X400028Y155976D01*
X400152Y155982D01*
X400276Y155984D01*
X402251Y155984D01*
X402251Y148082D01*
X396325Y163157D02*
X408178Y163157D01*
X396325Y163157D02*
X396325Y168096D01*
X396327Y168204D01*
X396333Y168312D01*
X396343Y168420D01*
X396357Y168527D01*
X396374Y168634D01*
X396396Y168740D01*
X396421Y168845D01*
X396451Y168950D01*
X396484Y169053D01*
X396521Y169154D01*
X396561Y169255D01*
X396605Y169354D01*
X396653Y169451D01*
X396704Y169546D01*
X396759Y169640D01*
X396817Y169731D01*
X396878Y169820D01*
X396943Y169907D01*
X397010Y169991D01*
X397081Y170073D01*
X397155Y170153D01*
X397231Y170229D01*
X397311Y170303D01*
X397393Y170373D01*
X397477Y170441D01*
X397564Y170506D01*
X397653Y170567D01*
X397744Y170625D01*
X397838Y170680D01*
X397933Y170731D01*
X398030Y170779D01*
X398129Y170823D01*
X398230Y170863D01*
X398331Y170900D01*
X398434Y170933D01*
X398539Y170963D01*
X398644Y170988D01*
X398750Y171010D01*
X398857Y171027D01*
X398964Y171041D01*
X399072Y171051D01*
X399180Y171057D01*
X399288Y171059D01*
X399288Y171060D02*
X408178Y171060D01*
X408178Y181196D02*
X408178Y186135D01*
X408178Y181196D02*
X408176Y181090D01*
X408170Y180985D01*
X408161Y180879D01*
X408148Y180774D01*
X408131Y180670D01*
X408110Y180566D01*
X408086Y180463D01*
X408058Y180361D01*
X408026Y180260D01*
X407991Y180161D01*
X407952Y180062D01*
X407910Y179965D01*
X407865Y179870D01*
X407816Y179776D01*
X407763Y179684D01*
X407708Y179594D01*
X407649Y179506D01*
X407587Y179420D01*
X407522Y179337D01*
X407454Y179256D01*
X407384Y179177D01*
X407310Y179101D01*
X407234Y179027D01*
X407155Y178957D01*
X407074Y178889D01*
X406991Y178824D01*
X406905Y178762D01*
X406817Y178703D01*
X406727Y178648D01*
X406635Y178595D01*
X406541Y178546D01*
X406446Y178501D01*
X406349Y178459D01*
X406250Y178420D01*
X406151Y178385D01*
X406050Y178353D01*
X405948Y178325D01*
X405845Y178301D01*
X405741Y178280D01*
X405637Y178263D01*
X405532Y178250D01*
X405426Y178241D01*
X405321Y178235D01*
X405215Y178233D01*
X400276Y178233D01*
X400152Y178235D01*
X400028Y178241D01*
X399904Y178251D01*
X399781Y178264D01*
X399658Y178282D01*
X399536Y178303D01*
X399414Y178328D01*
X399293Y178357D01*
X399174Y178390D01*
X399055Y178426D01*
X398938Y178467D01*
X398822Y178510D01*
X398707Y178558D01*
X398594Y178609D01*
X398482Y178664D01*
X398373Y178722D01*
X398265Y178783D01*
X398159Y178848D01*
X398055Y178916D01*
X397954Y178988D01*
X397854Y179062D01*
X397758Y179140D01*
X397663Y179220D01*
X397571Y179304D01*
X397482Y179390D01*
X397396Y179479D01*
X397312Y179571D01*
X397232Y179666D01*
X397154Y179762D01*
X397080Y179862D01*
X397008Y179963D01*
X396940Y180067D01*
X396875Y180173D01*
X396814Y180281D01*
X396756Y180390D01*
X396701Y180502D01*
X396650Y180615D01*
X396602Y180730D01*
X396559Y180846D01*
X396518Y180963D01*
X396482Y181082D01*
X396449Y181201D01*
X396420Y181322D01*
X396395Y181444D01*
X396374Y181566D01*
X396356Y181689D01*
X396343Y181812D01*
X396333Y181936D01*
X396327Y182060D01*
X396325Y182184D01*
X396327Y182308D01*
X396333Y182432D01*
X396343Y182556D01*
X396356Y182679D01*
X396374Y182802D01*
X396395Y182924D01*
X396420Y183046D01*
X396449Y183167D01*
X396482Y183286D01*
X396518Y183405D01*
X396559Y183522D01*
X396602Y183638D01*
X396650Y183753D01*
X396701Y183866D01*
X396756Y183978D01*
X396814Y184087D01*
X396875Y184195D01*
X396940Y184301D01*
X397008Y184405D01*
X397080Y184506D01*
X397154Y184606D01*
X397232Y184702D01*
X397312Y184797D01*
X397396Y184889D01*
X397482Y184978D01*
X397571Y185064D01*
X397663Y185148D01*
X397758Y185228D01*
X397854Y185306D01*
X397954Y185380D01*
X398055Y185452D01*
X398159Y185520D01*
X398265Y185585D01*
X398373Y185646D01*
X398482Y185704D01*
X398594Y185759D01*
X398707Y185810D01*
X398822Y185858D01*
X398938Y185901D01*
X399055Y185942D01*
X399174Y185978D01*
X399293Y186011D01*
X399414Y186040D01*
X399536Y186065D01*
X399658Y186086D01*
X399781Y186104D01*
X399904Y186117D01*
X400028Y186127D01*
X400152Y186133D01*
X400276Y186135D01*
X402251Y186135D01*
X402251Y178233D01*
X408178Y193389D02*
X396325Y193389D01*
X396325Y199315D01*
X398300Y199315D01*
X408178Y207370D02*
X408178Y212309D01*
X408178Y207370D02*
X408176Y207264D01*
X408170Y207159D01*
X408161Y207053D01*
X408148Y206948D01*
X408131Y206844D01*
X408110Y206740D01*
X408086Y206637D01*
X408058Y206535D01*
X408026Y206434D01*
X407991Y206335D01*
X407952Y206236D01*
X407910Y206139D01*
X407865Y206044D01*
X407816Y205950D01*
X407763Y205858D01*
X407708Y205768D01*
X407649Y205680D01*
X407587Y205594D01*
X407522Y205511D01*
X407454Y205430D01*
X407384Y205351D01*
X407310Y205275D01*
X407234Y205201D01*
X407155Y205131D01*
X407074Y205063D01*
X406991Y204998D01*
X406905Y204936D01*
X406817Y204877D01*
X406727Y204822D01*
X406635Y204769D01*
X406541Y204720D01*
X406446Y204675D01*
X406349Y204633D01*
X406250Y204594D01*
X406151Y204559D01*
X406050Y204527D01*
X405948Y204499D01*
X405845Y204475D01*
X405741Y204454D01*
X405637Y204437D01*
X405532Y204424D01*
X405426Y204415D01*
X405321Y204409D01*
X405215Y204407D01*
X399288Y204407D01*
X399182Y204409D01*
X399077Y204415D01*
X398971Y204424D01*
X398866Y204437D01*
X398762Y204454D01*
X398658Y204475D01*
X398555Y204499D01*
X398453Y204527D01*
X398352Y204559D01*
X398253Y204594D01*
X398154Y204633D01*
X398057Y204675D01*
X397962Y204720D01*
X397868Y204769D01*
X397776Y204822D01*
X397686Y204877D01*
X397598Y204936D01*
X397512Y204998D01*
X397429Y205063D01*
X397348Y205131D01*
X397269Y205201D01*
X397193Y205275D01*
X397119Y205351D01*
X397049Y205430D01*
X396981Y205511D01*
X396916Y205594D01*
X396854Y205680D01*
X396795Y205768D01*
X396740Y205858D01*
X396687Y205950D01*
X396638Y206044D01*
X396593Y206139D01*
X396551Y206236D01*
X396512Y206335D01*
X396477Y206434D01*
X396445Y206535D01*
X396417Y206637D01*
X396393Y206740D01*
X396372Y206844D01*
X396355Y206948D01*
X396342Y207053D01*
X396333Y207159D01*
X396327Y207264D01*
X396325Y207370D01*
X396325Y212309D01*
X411141Y212309D01*
X411247Y212307D01*
X411352Y212301D01*
X411458Y212292D01*
X411563Y212279D01*
X411667Y212262D01*
X411771Y212241D01*
X411874Y212217D01*
X411976Y212189D01*
X412077Y212157D01*
X412176Y212122D01*
X412275Y212083D01*
X412372Y212041D01*
X412467Y211996D01*
X412561Y211947D01*
X412653Y211894D01*
X412743Y211839D01*
X412831Y211780D01*
X412917Y211718D01*
X413000Y211653D01*
X413081Y211585D01*
X413160Y211515D01*
X413236Y211441D01*
X413310Y211365D01*
X413380Y211286D01*
X413448Y211205D01*
X413513Y211122D01*
X413575Y211036D01*
X413634Y210948D01*
X413689Y210858D01*
X413742Y210766D01*
X413791Y210672D01*
X413836Y210577D01*
X413878Y210480D01*
X413917Y210381D01*
X413952Y210282D01*
X413984Y210181D01*
X414012Y210079D01*
X414036Y209976D01*
X414057Y209872D01*
X414074Y209768D01*
X414087Y209663D01*
X414096Y209557D01*
X414102Y209452D01*
X414104Y209346D01*
X414105Y209346D02*
X414105Y205395D01*
X414105Y218992D02*
X414105Y220968D01*
X396325Y226894D01*
X396325Y218992D02*
X408178Y222943D01*
X408178Y242701D02*
X396325Y242701D01*
X396325Y251591D01*
X396327Y251697D01*
X396333Y251802D01*
X396342Y251908D01*
X396355Y252013D01*
X396372Y252117D01*
X396393Y252221D01*
X396417Y252324D01*
X396445Y252426D01*
X396477Y252527D01*
X396512Y252626D01*
X396551Y252725D01*
X396593Y252822D01*
X396638Y252917D01*
X396687Y253011D01*
X396740Y253103D01*
X396795Y253193D01*
X396854Y253281D01*
X396916Y253367D01*
X396981Y253450D01*
X397049Y253531D01*
X397119Y253610D01*
X397193Y253686D01*
X397269Y253760D01*
X397348Y253830D01*
X397429Y253898D01*
X397512Y253963D01*
X397598Y254025D01*
X397686Y254084D01*
X397776Y254139D01*
X397868Y254192D01*
X397962Y254241D01*
X398057Y254286D01*
X398154Y254328D01*
X398253Y254367D01*
X398352Y254402D01*
X398453Y254434D01*
X398555Y254462D01*
X398658Y254486D01*
X398762Y254507D01*
X398866Y254524D01*
X398971Y254537D01*
X399077Y254546D01*
X399182Y254552D01*
X399288Y254554D01*
X408178Y254554D01*
X408178Y248627D02*
X396325Y248627D01*
X400276Y261985D02*
X404227Y261985D01*
X400276Y261985D02*
X400152Y261987D01*
X400028Y261993D01*
X399904Y262003D01*
X399781Y262016D01*
X399658Y262034D01*
X399536Y262055D01*
X399414Y262080D01*
X399293Y262109D01*
X399174Y262142D01*
X399055Y262178D01*
X398938Y262219D01*
X398822Y262262D01*
X398707Y262310D01*
X398594Y262361D01*
X398482Y262416D01*
X398373Y262474D01*
X398265Y262535D01*
X398159Y262600D01*
X398055Y262668D01*
X397954Y262740D01*
X397854Y262814D01*
X397758Y262892D01*
X397663Y262972D01*
X397571Y263056D01*
X397482Y263142D01*
X397396Y263231D01*
X397312Y263323D01*
X397232Y263418D01*
X397154Y263514D01*
X397080Y263614D01*
X397008Y263715D01*
X396940Y263819D01*
X396875Y263925D01*
X396814Y264033D01*
X396756Y264142D01*
X396701Y264254D01*
X396650Y264367D01*
X396602Y264482D01*
X396559Y264598D01*
X396518Y264715D01*
X396482Y264834D01*
X396449Y264953D01*
X396420Y265074D01*
X396395Y265196D01*
X396374Y265318D01*
X396356Y265441D01*
X396343Y265564D01*
X396333Y265688D01*
X396327Y265812D01*
X396325Y265936D01*
X396327Y266060D01*
X396333Y266184D01*
X396343Y266308D01*
X396356Y266431D01*
X396374Y266554D01*
X396395Y266676D01*
X396420Y266798D01*
X396449Y266919D01*
X396482Y267038D01*
X396518Y267157D01*
X396559Y267274D01*
X396602Y267390D01*
X396650Y267505D01*
X396701Y267618D01*
X396756Y267730D01*
X396814Y267839D01*
X396875Y267947D01*
X396940Y268053D01*
X397008Y268157D01*
X397080Y268258D01*
X397154Y268358D01*
X397232Y268454D01*
X397312Y268549D01*
X397396Y268641D01*
X397482Y268730D01*
X397571Y268816D01*
X397663Y268900D01*
X397758Y268980D01*
X397854Y269058D01*
X397954Y269132D01*
X398055Y269204D01*
X398159Y269272D01*
X398265Y269337D01*
X398373Y269398D01*
X398482Y269456D01*
X398594Y269511D01*
X398707Y269562D01*
X398822Y269610D01*
X398938Y269653D01*
X399055Y269694D01*
X399174Y269730D01*
X399293Y269763D01*
X399414Y269792D01*
X399536Y269817D01*
X399658Y269838D01*
X399781Y269856D01*
X399904Y269869D01*
X400028Y269879D01*
X400152Y269885D01*
X400276Y269887D01*
X404227Y269887D01*
X404351Y269885D01*
X404475Y269879D01*
X404599Y269869D01*
X404722Y269856D01*
X404845Y269838D01*
X404967Y269817D01*
X405089Y269792D01*
X405210Y269763D01*
X405329Y269730D01*
X405448Y269694D01*
X405565Y269653D01*
X405681Y269610D01*
X405796Y269562D01*
X405909Y269511D01*
X406021Y269456D01*
X406130Y269398D01*
X406238Y269337D01*
X406344Y269272D01*
X406448Y269204D01*
X406549Y269132D01*
X406649Y269058D01*
X406745Y268980D01*
X406840Y268900D01*
X406932Y268816D01*
X407021Y268730D01*
X407107Y268641D01*
X407191Y268549D01*
X407271Y268454D01*
X407349Y268358D01*
X407423Y268258D01*
X407495Y268157D01*
X407563Y268053D01*
X407628Y267947D01*
X407689Y267839D01*
X407747Y267730D01*
X407802Y267618D01*
X407853Y267505D01*
X407901Y267390D01*
X407944Y267274D01*
X407985Y267157D01*
X408021Y267038D01*
X408054Y266919D01*
X408083Y266798D01*
X408108Y266676D01*
X408129Y266554D01*
X408147Y266431D01*
X408160Y266308D01*
X408170Y266184D01*
X408176Y266060D01*
X408178Y265936D01*
X408176Y265812D01*
X408170Y265688D01*
X408160Y265564D01*
X408147Y265441D01*
X408129Y265318D01*
X408108Y265196D01*
X408083Y265074D01*
X408054Y264953D01*
X408021Y264834D01*
X407985Y264715D01*
X407944Y264598D01*
X407901Y264482D01*
X407853Y264367D01*
X407802Y264254D01*
X407747Y264142D01*
X407689Y264033D01*
X407628Y263925D01*
X407563Y263819D01*
X407495Y263715D01*
X407423Y263614D01*
X407349Y263514D01*
X407271Y263418D01*
X407191Y263323D01*
X407107Y263231D01*
X407021Y263142D01*
X406932Y263056D01*
X406840Y262972D01*
X406745Y262892D01*
X406649Y262814D01*
X406549Y262740D01*
X406448Y262668D01*
X406344Y262600D01*
X406238Y262535D01*
X406130Y262474D01*
X406021Y262416D01*
X405909Y262361D01*
X405796Y262310D01*
X405681Y262262D01*
X405565Y262219D01*
X405448Y262178D01*
X405329Y262142D01*
X405210Y262109D01*
X405089Y262080D01*
X404967Y262055D01*
X404845Y262034D01*
X404722Y262016D01*
X404599Y262003D01*
X404475Y261993D01*
X404351Y261987D01*
X404227Y261985D01*
X408178Y277061D02*
X396325Y277061D01*
X396325Y281999D01*
X396327Y282107D01*
X396333Y282215D01*
X396343Y282323D01*
X396357Y282430D01*
X396374Y282537D01*
X396396Y282643D01*
X396421Y282748D01*
X396451Y282853D01*
X396484Y282956D01*
X396521Y283057D01*
X396561Y283158D01*
X396605Y283257D01*
X396653Y283354D01*
X396704Y283449D01*
X396759Y283543D01*
X396817Y283634D01*
X396878Y283723D01*
X396943Y283810D01*
X397010Y283894D01*
X397081Y283976D01*
X397155Y284056D01*
X397231Y284132D01*
X397311Y284206D01*
X397393Y284276D01*
X397477Y284344D01*
X397564Y284409D01*
X397653Y284470D01*
X397744Y284528D01*
X397838Y284583D01*
X397933Y284634D01*
X398030Y284682D01*
X398129Y284726D01*
X398230Y284766D01*
X398331Y284803D01*
X398434Y284836D01*
X398539Y284866D01*
X398644Y284891D01*
X398750Y284913D01*
X398857Y284930D01*
X398964Y284944D01*
X399072Y284954D01*
X399180Y284960D01*
X399288Y284962D01*
X399288Y284963D02*
X408178Y284963D01*
X408178Y292179D02*
X396325Y292179D01*
X391386Y291685D02*
X390398Y291685D01*
X390398Y292672D01*
X391386Y292672D01*
X391386Y291685D01*
X396325Y297481D02*
X396325Y303408D01*
X390398Y299457D02*
X405215Y299457D01*
X405321Y299459D01*
X405426Y299465D01*
X405532Y299474D01*
X405637Y299487D01*
X405741Y299504D01*
X405845Y299525D01*
X405948Y299549D01*
X406050Y299577D01*
X406151Y299609D01*
X406250Y299644D01*
X406349Y299683D01*
X406446Y299725D01*
X406541Y299770D01*
X406635Y299819D01*
X406727Y299872D01*
X406817Y299927D01*
X406905Y299986D01*
X406991Y300048D01*
X407074Y300113D01*
X407155Y300181D01*
X407234Y300251D01*
X407310Y300325D01*
X407384Y300401D01*
X407454Y300480D01*
X407522Y300561D01*
X407587Y300644D01*
X407649Y300730D01*
X407708Y300818D01*
X407763Y300908D01*
X407816Y301000D01*
X407865Y301094D01*
X407910Y301189D01*
X407952Y301286D01*
X407991Y301385D01*
X408026Y301484D01*
X408058Y301585D01*
X408086Y301687D01*
X408110Y301790D01*
X408131Y301894D01*
X408148Y301998D01*
X408161Y302103D01*
X408170Y302209D01*
X408176Y302314D01*
X408178Y302420D01*
X408178Y303408D01*
X404227Y309445D02*
X400276Y309445D01*
X400152Y309447D01*
X400028Y309453D01*
X399904Y309463D01*
X399781Y309476D01*
X399658Y309494D01*
X399536Y309515D01*
X399414Y309540D01*
X399293Y309569D01*
X399174Y309602D01*
X399055Y309638D01*
X398938Y309679D01*
X398822Y309722D01*
X398707Y309770D01*
X398594Y309821D01*
X398482Y309876D01*
X398373Y309934D01*
X398265Y309995D01*
X398159Y310060D01*
X398055Y310128D01*
X397954Y310200D01*
X397854Y310274D01*
X397758Y310352D01*
X397663Y310432D01*
X397571Y310516D01*
X397482Y310602D01*
X397396Y310691D01*
X397312Y310783D01*
X397232Y310878D01*
X397154Y310974D01*
X397080Y311074D01*
X397008Y311175D01*
X396940Y311279D01*
X396875Y311385D01*
X396814Y311493D01*
X396756Y311602D01*
X396701Y311714D01*
X396650Y311827D01*
X396602Y311942D01*
X396559Y312058D01*
X396518Y312175D01*
X396482Y312294D01*
X396449Y312413D01*
X396420Y312534D01*
X396395Y312656D01*
X396374Y312778D01*
X396356Y312901D01*
X396343Y313024D01*
X396333Y313148D01*
X396327Y313272D01*
X396325Y313396D01*
X396327Y313520D01*
X396333Y313644D01*
X396343Y313768D01*
X396356Y313891D01*
X396374Y314014D01*
X396395Y314136D01*
X396420Y314258D01*
X396449Y314379D01*
X396482Y314498D01*
X396518Y314617D01*
X396559Y314734D01*
X396602Y314850D01*
X396650Y314965D01*
X396701Y315078D01*
X396756Y315190D01*
X396814Y315299D01*
X396875Y315407D01*
X396940Y315513D01*
X397008Y315617D01*
X397080Y315718D01*
X397154Y315818D01*
X397232Y315914D01*
X397312Y316009D01*
X397396Y316101D01*
X397482Y316190D01*
X397571Y316276D01*
X397663Y316360D01*
X397758Y316440D01*
X397854Y316518D01*
X397954Y316592D01*
X398055Y316664D01*
X398159Y316732D01*
X398265Y316797D01*
X398373Y316858D01*
X398482Y316916D01*
X398594Y316971D01*
X398707Y317022D01*
X398822Y317070D01*
X398938Y317113D01*
X399055Y317154D01*
X399174Y317190D01*
X399293Y317223D01*
X399414Y317252D01*
X399536Y317277D01*
X399658Y317298D01*
X399781Y317316D01*
X399904Y317329D01*
X400028Y317339D01*
X400152Y317345D01*
X400276Y317347D01*
X404227Y317347D01*
X404351Y317345D01*
X404475Y317339D01*
X404599Y317329D01*
X404722Y317316D01*
X404845Y317298D01*
X404967Y317277D01*
X405089Y317252D01*
X405210Y317223D01*
X405329Y317190D01*
X405448Y317154D01*
X405565Y317113D01*
X405681Y317070D01*
X405796Y317022D01*
X405909Y316971D01*
X406021Y316916D01*
X406130Y316858D01*
X406238Y316797D01*
X406344Y316732D01*
X406448Y316664D01*
X406549Y316592D01*
X406649Y316518D01*
X406745Y316440D01*
X406840Y316360D01*
X406932Y316276D01*
X407021Y316190D01*
X407107Y316101D01*
X407191Y316009D01*
X407271Y315914D01*
X407349Y315818D01*
X407423Y315718D01*
X407495Y315617D01*
X407563Y315513D01*
X407628Y315407D01*
X407689Y315299D01*
X407747Y315190D01*
X407802Y315078D01*
X407853Y314965D01*
X407901Y314850D01*
X407944Y314734D01*
X407985Y314617D01*
X408021Y314498D01*
X408054Y314379D01*
X408083Y314258D01*
X408108Y314136D01*
X408129Y314014D01*
X408147Y313891D01*
X408160Y313768D01*
X408170Y313644D01*
X408176Y313520D01*
X408178Y313396D01*
X408176Y313272D01*
X408170Y313148D01*
X408160Y313024D01*
X408147Y312901D01*
X408129Y312778D01*
X408108Y312656D01*
X408083Y312534D01*
X408054Y312413D01*
X408021Y312294D01*
X407985Y312175D01*
X407944Y312058D01*
X407901Y311942D01*
X407853Y311827D01*
X407802Y311714D01*
X407747Y311602D01*
X407689Y311493D01*
X407628Y311385D01*
X407563Y311279D01*
X407495Y311175D01*
X407423Y311074D01*
X407349Y310974D01*
X407271Y310878D01*
X407191Y310783D01*
X407107Y310691D01*
X407021Y310602D01*
X406932Y310516D01*
X406840Y310432D01*
X406745Y310352D01*
X406649Y310274D01*
X406549Y310200D01*
X406448Y310128D01*
X406344Y310060D01*
X406238Y309995D01*
X406130Y309934D01*
X406021Y309876D01*
X405909Y309821D01*
X405796Y309770D01*
X405681Y309722D01*
X405565Y309679D01*
X405448Y309638D01*
X405329Y309602D01*
X405210Y309569D01*
X405089Y309540D01*
X404967Y309515D01*
X404845Y309494D01*
X404722Y309476D01*
X404599Y309463D01*
X404475Y309453D01*
X404351Y309447D01*
X404227Y309445D01*
X408178Y324600D02*
X396325Y324600D01*
X396325Y330527D01*
X398300Y330527D01*
X396325Y344062D02*
X408178Y348013D01*
X396325Y351964D01*
X390398Y363583D02*
X390400Y363715D01*
X390406Y363846D01*
X390416Y363978D01*
X390429Y364109D01*
X390447Y364239D01*
X390468Y364369D01*
X390493Y364499D01*
X390522Y364627D01*
X390555Y364755D01*
X390592Y364881D01*
X390632Y365007D01*
X390676Y365131D01*
X390724Y365254D01*
X390775Y365375D01*
X390830Y365495D01*
X390888Y365613D01*
X390950Y365729D01*
X391016Y365843D01*
X391084Y365956D01*
X391156Y366066D01*
X391231Y366174D01*
X391310Y366280D01*
X391391Y366384D01*
X391476Y366485D01*
X391563Y366583D01*
X391654Y366679D01*
X391747Y366772D01*
X391843Y366863D01*
X391941Y366950D01*
X392042Y367035D01*
X392146Y367116D01*
X392252Y367195D01*
X392360Y367270D01*
X392470Y367342D01*
X392583Y367410D01*
X392697Y367476D01*
X392813Y367538D01*
X392931Y367596D01*
X393051Y367651D01*
X393172Y367702D01*
X393295Y367750D01*
X393419Y367794D01*
X393545Y367834D01*
X393671Y367871D01*
X393799Y367904D01*
X393927Y367933D01*
X394057Y367958D01*
X394187Y367979D01*
X394317Y367997D01*
X394448Y368010D01*
X394580Y368020D01*
X394711Y368026D01*
X394843Y368028D01*
X390398Y363583D02*
X390400Y363433D01*
X390406Y363284D01*
X390416Y363135D01*
X390429Y362986D01*
X390447Y362837D01*
X390468Y362689D01*
X390494Y362541D01*
X390523Y362395D01*
X390556Y362249D01*
X390593Y362104D01*
X390634Y361960D01*
X390678Y361817D01*
X390726Y361675D01*
X390778Y361535D01*
X390833Y361396D01*
X390892Y361258D01*
X390955Y361123D01*
X391021Y360988D01*
X391091Y360856D01*
X391164Y360726D01*
X391241Y360597D01*
X391321Y360470D01*
X391404Y360346D01*
X391490Y360224D01*
X391580Y360104D01*
X391673Y359987D01*
X391768Y359872D01*
X391867Y359759D01*
X391969Y359649D01*
X392073Y359542D01*
X392180Y359438D01*
X392290Y359336D01*
X392403Y359238D01*
X392518Y359142D01*
X392636Y359050D01*
X392756Y358960D01*
X392878Y358874D01*
X393002Y358791D01*
X393129Y358711D01*
X393257Y358635D01*
X393388Y358562D01*
X393521Y358492D01*
X393655Y358426D01*
X393791Y358364D01*
X393928Y358305D01*
X394067Y358249D01*
X394208Y358198D01*
X394349Y358150D01*
X398300Y366545D02*
X398207Y366641D01*
X398111Y366733D01*
X398012Y366823D01*
X397911Y366910D01*
X397808Y366995D01*
X397703Y367076D01*
X397595Y367154D01*
X397485Y367229D01*
X397373Y367302D01*
X397259Y367371D01*
X397143Y367437D01*
X397025Y367499D01*
X396906Y367558D01*
X396785Y367614D01*
X396662Y367667D01*
X396538Y367716D01*
X396413Y367761D01*
X396286Y367804D01*
X396159Y367842D01*
X396030Y367877D01*
X395901Y367908D01*
X395770Y367936D01*
X395639Y367960D01*
X395507Y367981D01*
X395375Y367997D01*
X395242Y368010D01*
X395109Y368020D01*
X394976Y368025D01*
X394843Y368027D01*
X398300Y366546D02*
X408178Y358150D01*
X408178Y368028D01*
M02*
