G04 EAGLE Gerber RS-274X export*
G75*
%MOMM*%
%FSLAX34Y34*%
%LPD*%
%INSoldermask Bottom*%
%IPPOS*%
%AMOC8*
5,1,8,0,0,1.08239X$1,22.5*%
G01*
%ADD10C,2.453200*%
%ADD11C,1.803400*%
%ADD12P,1.951982X8X22.500000*%
%ADD13P,1.951982X8X202.500000*%
%ADD14P,2.034460X8X202.500000*%
%ADD15P,2.034460X8X22.500000*%
%ADD16C,1.727200*%
%ADD17R,1.763200X1.763200*%
%ADD18C,1.763200*%
%ADD19R,1.711200X1.711200*%
%ADD20C,1.711200*%
%ADD21C,2.003200*%
%ADD22C,0.959600*%


D10*
X889000Y520700D03*
X890000Y140000D03*
X718820Y523240D03*
X213360Y523240D03*
X22860Y525780D03*
X78740Y83820D03*
D11*
X86360Y307340D03*
D12*
X111760Y307340D03*
D11*
X441960Y464820D03*
D13*
X416560Y464820D03*
D11*
X48260Y182880D03*
D12*
X73660Y182880D03*
D14*
X223520Y266700D03*
X147320Y266700D03*
D15*
X147320Y292100D03*
X223520Y292100D03*
X147320Y317500D03*
X223520Y317500D03*
D14*
X223520Y124460D03*
X147320Y124460D03*
D15*
X147320Y149860D03*
X223520Y149860D03*
X147320Y175260D03*
X223520Y175260D03*
D16*
X764540Y162560D02*
X764540Y147320D01*
X789940Y147320D02*
X789940Y162560D01*
X815340Y162560D02*
X815340Y147320D01*
X840740Y147320D02*
X840740Y162560D01*
D17*
X15240Y474460D03*
D18*
X15240Y449060D03*
X15240Y17260D03*
X15240Y423660D03*
X15240Y398260D03*
X15240Y372860D03*
X15240Y347460D03*
X15240Y322060D03*
X15240Y296660D03*
X15240Y271260D03*
X15240Y245860D03*
X15240Y220460D03*
X15240Y195060D03*
X15240Y169660D03*
X15240Y144260D03*
X15240Y118860D03*
X15240Y93460D03*
X15240Y68060D03*
X15240Y42660D03*
X269240Y474460D03*
X269240Y449060D03*
X269240Y423660D03*
X269240Y398260D03*
X269240Y372860D03*
X269240Y347460D03*
X269240Y322060D03*
X269240Y296660D03*
X269240Y271260D03*
X269240Y245860D03*
X269240Y220460D03*
X269240Y195060D03*
X269240Y169660D03*
X269240Y144260D03*
X269240Y118860D03*
X269240Y93460D03*
X269240Y68060D03*
X269240Y42660D03*
X269240Y17260D03*
D16*
X419100Y20320D02*
X419100Y35560D01*
X393700Y35560D02*
X393700Y20320D01*
D19*
X431240Y88700D03*
X371240Y88700D03*
D20*
X491240Y424700D03*
X311240Y424700D03*
D11*
X50800Y424180D03*
D12*
X76200Y424180D03*
D15*
X149860Y439420D03*
X226060Y439420D03*
D14*
X226060Y414020D03*
X149860Y414020D03*
X226060Y386080D03*
X149860Y386080D03*
D16*
X76200Y45720D02*
X76200Y30480D01*
X101600Y30480D02*
X101600Y45720D01*
X127000Y45720D02*
X127000Y30480D01*
X152400Y30480D02*
X152400Y45720D01*
X177800Y45720D02*
X177800Y30480D01*
X203200Y30480D02*
X203200Y45720D01*
X193040Y480060D02*
X193040Y495300D01*
X167640Y495300D02*
X167640Y480060D01*
X142240Y480060D02*
X142240Y495300D01*
X116840Y495300D02*
X116840Y480060D01*
X91440Y480060D02*
X91440Y495300D01*
X66040Y495300D02*
X66040Y480060D01*
X868680Y480060D02*
X868680Y495300D01*
X843280Y495300D02*
X843280Y480060D01*
X817880Y480060D02*
X817880Y495300D01*
X792480Y495300D02*
X792480Y480060D01*
X767080Y480060D02*
X767080Y495300D01*
X741680Y495300D02*
X741680Y480060D01*
D21*
X559780Y345280D02*
X541780Y345280D01*
X591780Y395280D02*
X609780Y395280D01*
X559780Y370280D02*
X541780Y370280D01*
X541780Y420280D02*
X559780Y420280D01*
X559780Y445280D02*
X541780Y445280D01*
X539240Y192880D02*
X557240Y192880D01*
X589240Y242880D02*
X607240Y242880D01*
X557240Y217880D02*
X539240Y217880D01*
X539240Y267880D02*
X557240Y267880D01*
X557240Y292880D02*
X539240Y292880D01*
X539240Y32860D02*
X557240Y32860D01*
X589240Y82860D02*
X607240Y82860D01*
X557240Y57860D02*
X539240Y57860D01*
X539240Y107860D02*
X557240Y107860D01*
X557240Y132860D02*
X539240Y132860D01*
D22*
X451168Y306705D03*
X331788Y320675D03*
X171450Y274638D03*
X286703Y106363D03*
X47625Y354013D03*
X201613Y366713D03*
X850900Y455613D03*
X512128Y377825D03*
X192088Y419100D03*
X252413Y288925D03*
X117475Y377825D03*
X61913Y361950D03*
X27623Y300990D03*
X130443Y326023D03*
X129540Y238760D03*
X468313Y461963D03*
X451485Y447675D03*
X164465Y249238D03*
X200025Y354013D03*
X65088Y307975D03*
X657225Y458788D03*
X492125Y438150D03*
X109538Y398463D03*
X73025Y361950D03*
X502603Y379413D03*
X477838Y379413D03*
X371475Y273050D03*
X223838Y233363D03*
M02*
